<svg xmlns="http://www.w3.org/2000/svg" viewBox="0 0 160 160"><defs><clipPath id="clip-path"><circle class="cls-1" cx="79.84" cy="-583.57" r="78.34"/></clipPath><clipPath id="clip-path-2"><circle class="cls-1" cx="79.84" cy="-373.83" r="78.34"/></clipPath><clipPath id="clip-path-3"><circle class="cls-1" cx="79.84" cy="-145.31" r="78.34"/></clipPath><clipPath id="clip-path-4"><circle class="cls-1" cx="80" cy="80" r="78.5"/></clipPath><pattern id="_10_dpi_10_2" data-name="10 dpi 10% 2" width="28.8" height="28.8" patternTransform="matrix(.23 0 0 .23 136.28 -66.44)" patternUnits="userSpaceOnUse"><path class="cls-1" d="M0 0h28.8v28.8H0z"/><circle class="cls-2" cx="28.8" cy="28.8" r=".72"/><path class="cls-2" d="M14.4 29.52a.72.72 0 10-.72-.72.72.72 0 00.72.72zM28.8 15.12a.72.72 0 10-.72-.72.72.72 0 00.72.72zM14.4 15.12a.72.72 0 10-.72-.72.72.72 0 00.72.72zM7.2 22.32a.72.72 0 10-.72-.72.72.72 0 00.72.72zM21.6 22.32a.72.72 0 10-.72-.72.72.72 0 00.72.72zM7.2 7.92a.72.72 0 10-.72-.72.72.72 0 00.72.72zM21.6 7.92a.72.72 0 10-.72-.72.72.72 0 00.72.72z"/><circle class="cls-2" cy="28.8" r=".72"/><path class="cls-2" d="M0 15.12a.72.72 0 000-1.44.72.72 0 00-.72.72.72.72 0 00.72.72zM28.8.72a.72.72 0 00.72-.72.72.72 0 00-.72-.72.72.72 0 00-.72.72.72.72 0 00.72.72zM14.4.72a.72.72 0 00.72-.72.72.72 0 00-.72-.72.72.72 0 00-.72.72.72.72 0 00.72.72zM0 .72A.72.72 0 00.72 0 .72.72 0 000-.72.72.72 0 00-.72 0 .72.72 0 000 .72z"/></pattern><style>.cls-1,.cls-15{fill:none}.cls-12,.cls-2{fill:#f66a32}.cls-10,.cls-4,.cls-6{fill:#fff}.cls-4,.cls-6{stroke:#000;stroke-linecap:round;stroke-linejoin:round;stroke-width:.93px}.cls-10,.cls-6{fill-rule:evenodd}.cls-12{font-size:8.79px;font-family:OpenSans-SemiBold,Open Sans;font-weight:600}.cls-15{stroke:#333;stroke-miterlimit:10;stroke-width:.49px}</style></defs><g id="MAPAS"><g clip-path="url(#clip-path)"><path class="cls-4" d="M114 132.52l-.29-1.44-.3-.57-3.47-23.3 1.1.61 1.13 1.04 3.5 3.69.17.56-.86-.75-1.25-.23-1.08.3-.21.82.78 1.04 1.28.29 1.19.76.94 1.04 1.53 2.29.98.68 3.41 1.47 2.97 2.26 1.45.22.97.54 1.25.28.9.72 2.05.5 2.32 1.62 4.17 1.97 3.03 1.15 4.6.21 1.94-.28.23.79-.17 1.36-.59.57-2.24.72-3.72-.57-4.52 1.07-.39.43-1.7-.28-3.17-1.22-5.11-.65h-4.74l-1.64-.5-1.33-.14-1.47-.08-2.76.94-.88.07z"/><path class="cls-4" d="M114 132.52l-2.12-.07.63.71h-1.69l-1.04.54-2.7-1.25-2.86-.36H100l-.24.36h-2.52l-3.8-.94-1.08.36-1.71-.18.78-.35-.05-.36h-1.41l.24-.36 1.05-.54-2.86-.4-.5.4h-1.69l.23-.4-.11-.89-.94-.58 2.76-.36-.09-.71h1.69l.79-.58.85.18.55-.18-.7-.93-2.1-.9-.15-1.11 3.04 1.65 3.87 1.47 1.24.93.5-.53 1.09-.22-1.74-.36-.36-.53 1.05-.76 2.46 1.65.12-1.29 1.72.22 1.58 1.29.21-.58h1.66l-.67-.93-6.11-1.47-.64-.54-1.34-3.73.42-.93h1.7l.5-.57 4.67-.94.34-1.5-.96-.98-1.43-.17-2.25.17-3.77 1.16-2.68-1.16-.71-.93.12-1.32-.2-1.51.79-.23.95.59 1.09-.18.44-.99-.98-.93-.4-.79-1.99-.36 2.78-.21 1.51.79.49-.4 1.93-.39.79-2.48 2.19-.61 1.66 1.94 1.72.18 1.9-.36 1.59-.79 1.06 1.22 3.47 23.3.3.57.29 1.44zM40.8-16.1l.42-.27.44 1.65 1.33-.07.79.16 1.58 2.71.24.82.87 1.51.21.82-1.53.29-.64 1.65-.7-.18-.35.72-.07.47.95 1.11 1.02.18.58 1-1.64.18.34.9 1.09 1.47.28 1.36-1.67-.07.69 1.79-.68.94-1.67-.11-3.53-.83L37.77.2l.79-1.54.72-3.66-.69-5.16.43-1.83-.1-1.71.2-.93.73-.27.95-1.2zM53.61 13.91l.16.46 1.87.61.54.72.17.54-.32.97.22 1.61-1.62 1.04-1.4.29-1.39-.29-1.02-.97-.85-1.32-.49-1.26 1.31-.97 2.82-1.43zM40.97 16.67l1.87-.07 1.5.43.17.36-2.35.79-.88-.87-.31-.64zM42.24 21.19l-1.02-.25.03-.47 1.57-.68 1.59.18.36.32-.07.18-2.46.72zM43.03 22.09h-.67l.41-.29 3.74-.25.83 1.22.16 1.14-1.29-.53-1.47-.94-1.71-.35zM43.42 23.31l1.61.53 1.5 1.22-2.09-.79-1.02-.96zM47.05 29.62l.4-.29.63.61.39 1.22-1.1.18-.37-1.11.05-.61zM45.69 52l-1.56.08-1.83-.58-.04-1 .84-.43.51-.51 1.82 1.19.59 1.07-.33.18zM38.71 51.18l.07.57-.77.94-1.41.18-.95-.44.35-.68 1.69-.57h1.02zM37.73 55.59l-.02-.14 3.35.89.39.51.05 1.07-.4.36-.98.14-2.39-2.83zM34.75 56.45l-.28-1.11 1.27-.5L37.96 59l1.08 1.33.09.68-.4.39-.64-.72-.64-1.43-1.84-1.33-.86-1.47zM40.45 59.18l2.25.32.67.93 1.22.83.28.39-2.4-.5-1.41-.47-.73-.75-.22-.68.34-.07zM35.18 61.4l-.38-1.22 1.06-.43.61.51.5 1.32-.53.83-.72.57-.54-.64v-.94zM40.3 65.71l.33-.18-.51-1.15.12-.76.88-.89.95-.5 1.31.68 1.12.97.84 1.25.55 1.47.79 3.59.71 4.59.1 1.47-.95 1.26-1.73.18-1.42-1.29-.45-3.38.34-.82-.16-.47-2.82-.97-1.73-1.47.26-.5.91.18 1.43.65.02-1.55-1.13-.1-1.1-.79.31-.83 1.03-.64zM36.27 73.81l-.31-.64.33-.15 1.23.08.83 1.21 1.14 1.12-.43.18-1.54-.11-1.12-.72-.13-.97zM38.64 80.56l-.2-.54.26-.72 1.83.54 1.25-.65 1.62-.32.43.82-.68 1.33-.01 1.62-1.88-.65-.65-.79-1.25.65-.72-1.29zM48.66 84.93l-1.38-.25-.11-.79-1.47-1.9-.05-.39.65-.15 1.13 1.01 1.79.97 1.25.93 1.27 2.15-.31.07-2.77-1.65zM49.4 88.09l-.69 1.33.38 1.18-1.62-.39-2.4-2.91-.36-2.69.16.25 3.46 1.01 1.07 2.22zM45.34 93.33l.07-1.11 1.47-1.4.64-.29.85 2.33-1.67.61-1.16-.29-.2.15zM46.51 101.36l-1-.07-.25-1.87.14-1.54.48-.46.17-1.15.65.54.32 1.68-.29 2.87h-.22zM54.05 96.13l2.19 2.29-1.04-.14-1.55-.86-.66-.9-.17-1.25.39-.4.84 1.26zM57.25 94.47l.55.8.33 1.46-2-1.54-.7-1.18-.1-.75.91 1.07 1.01.14zM60.08 102.26l.22-.07.04-.36.43-.18.96.47 1 .14.72-.61 1.05-.29.86.47.38 1.11.4.61.92-.5.47-1.54-.62-.54-.35-.93.7.18 1.3.6.6 1.15.42 1.51-1.67 1.61-.95 1.97 1.73.55 1.09.75.43.77 1.92 1.02 2.79-2.33 1.34-.07 2.37.29 2.19-.08.79.9.15 1.08-3.91 2.35-1.24.48-1.5-.22-.75.17.23.73-.4.34-.95-.39-1.05.52.45.73-.62.4.14 1.04.65.75-1.62-.39-5.04-2.78-.38-.42 1.42-.14 1.87.56.93-.42.03-.75-1.1-.54-1.07-1.34-.34.61-.73.5-2.8-.13.26-.69-.08-.62-1.85-.43-.52-.61v-.89l-.37-.15-1.05.22.11-.82-.17-1.22.16-1.23-.39-1.21v-1.69zM58.55 104.88l.71.28-.2 1.9-1.02.76-.45-.07-.28-.4.6-.5-.06-.46-.41.28H57l-.53-.61-.1-.75 2.18-.43zM49.45 108.36l.71.23 2.08 1.49 9.27 2.87.44.9h.45l.39-.4.46.07.85.63 1.81.82.26.51h-1.99l-2.09-.58-.74-.75-2.69-1.72-.15.52.28.45-.52.12-2.18-.5-4.23-1.7-1.01-.92-1.4-2.04zM48.35 96.73l.65.8.24 2.51-.35.78-.73.29-.39-.29-.28-1.4.02-.6.68-.61-.09-.68-.28-.65.17-.22.36.07zM61.09 115.55l.85-.14.92.21.32.68 1.8.15.84.53.78.08-.12-.9.34-.07.78.07 1.24.9.24-.61 1.71 1.79.8-.47 1.14.18.6.44.06.43 2.12.82.38.43v.68l-1.34.07.04 1.98-.47.5-1.25-.22-.63-.43-.18.36.35.9-.65.21-1.48-.35-.98.07-.71-.29 1.6-.47-2.27-.43-2.11-.07-.65-.5-.16-1.19.12-.82-1.81-.36-1.06-1.94-1.74-1.54-.04-.28.62-.4z"/><path class="cls-4" d="M79.22 120.82h.22l.77.72.68.07.53.61-.19.29.08.57.5.36.35-.72.58-.43 1.26.07.51.51.75-.15 1.15 1.91.48-.43.78.07.75.57.33.83-.88.79h-1.22l-1.26-1.12-3.38-.36-.51.51.4.32-.21.14-1.48-.36-.52-.53-1.09-.51-1.02-.21-.19-.72-1.04-1.76.91.08.93-.4.59-.65.44-.07zM92.27 117.77l.7.26.35 1.9.69 1.75.72 1.33-.04.43-.46-.07-1.56-.93-.7-.22.25 1.15.71 1.04.73.43 1.23.07.76.68-1.46-.1-.93-.29-2.18-1.29-.89-.9-.35-.93-.01-.75.41-.29 1.43-.07.32-.29-.23-.75-.53-.58 1.04-1.58zM90 134.96l-.15-.36.16-.5.62-.36 1.19-.22.7 1.15.06.5-.28.29-.57.07-1.73-.57zM96.7 136.79l-.91-.07-.95-.47-.76-.65-.16-.43.43-.14 1.36.36.79-.07.4.57-.2.9zM108.4 133.67l.11.14-3.47.57-2.76.22-.33-.14-.43-.58-.13-.93.74-.22.37.15 2.18-.22 3.31.58.41.43zM100.77 135.67l.29-.21 2.74-.29 4.89-1 3.18-.07 2.82-.72 1 .07 1.56.93.45.72-2.06.36-1.26-.07-2.74-.65-.43.14 2.14.94 4.35.29.82.35.19.47.36.29h-3.01l-.61.21.14.29 3.06.43 1.17.43.33.79.8.25.36 1 .65.79.04.33h-.54l-1.06-.54-.75-.58-.24-.86-1.01-.14-1.31-.68-2.84.54-1.16-.61-.35-.94-.94-.28-.38-.5-.95-.36-2.24-.07-.68.64.64.79 2.7 1.76-3.56-.15-.52-.53-.2-.51-2.23-.93.09-.29 2.21-.86.28-.32-.13-.21-1.09.14-1.27.54-2.53.21-1.02-.21-.31-.61.16-.51zM119.2 133.88l-.2.22-1.48-.29-.3-.57 4.84-.44 2.92.44 3.35.21.75.58.9 1.72.06.43-.08.39-.69.58-.95.28-.98.07-.38-.21-.43-.83-1.06-.21h-.75l.07.47-1.13.07-.45-.15.3-.25-3.26-.36-.69-1.15-.36-1zM134.42 136.25l1.2-.14.63.42-.09.29-.72.33-.69-.18-.37-.36.04-.36zM155.93 131.44l2.28-.43 2.26.15 2.37-.44.38.22-.03.72-.65.14-1.92-.21-1.19.14-.14.64-1.79-.21-1.38.64-2.02-.28.76-1.01.05-.35 1.02.28zM132.81 135.17h-.67l-1.46-.61-.86-.5-.03-.18 1.91.18.92.61.19.5zM132.49 137.79l-1.36.07-.59-.32-.1-.72.51-.25 1.1.11.35.43.09.68zM41.86-41.99l-1.02-2.64v-4.49l-2.44-4.07-1.22-6.11 3.16-1.22 1.22-2.75-.92-2.96 1.22-1.22.72-6.82L44-76.92l-.71-1.53 3.97-13.85-.81-4.69 2.24-4.88-1.73-8.56 1.52-1.73.41-3.67-1.22-1.93-1.63-8.76-3.26-13.45 1.53-1.73 1.22-4.68-3.16-10.29.72-1.63 2.13-13.96v-4.37l.82-1.74.92-12.22-1.43-3.97 1.94-7.74-1.74-4.69-.71-13.44-1.73-1.94.71-4.17h1.02l.71-.71.51-16.91-1.22-8.56.2-7.33-2.64-8.76-1.94-12.22 2.14-.51 3.26-3.16-.31-3.67 2.96-2.24 1.73 1.02 1.22 2.65 2.14 1.23 1.53 8.85 6.62 6.52-1.23 2.24.92 4.38-2.14 2.45.72 1.02v2.44l2.44 1.43-.3 2.75 2.44 2.13 3.67 8.87 2.44 8.96 1.22 2.75H77l2.46-.09 1 1.01-.71 8.55-1.02 3.67-11.2 7.84v3.67l1.42 2.24-1.22 5.8 2.24 6.11-1.52 2.45 3.25 6.62-1.01 2.24-3.67.92-2.65 9.37-4.17 7.74-.72 6.92-1.73 2.45 1.73 7.74 1.22 2.04-1.52 1.93-1.43 1.43-.51 5.6-.2 1.53-1.53 1.93 1.22 6.32 2.45 2.03v2.45l4.38 8.55v2.65l2.44 1.02.31 8.05.71 2.13-3.46 7.65-.21 3.66-1.22 1.42 1.73 3.98.92 5.3-2.44 4.17-2.14 1.53-.51 3.36 1.22 7.84.2 1.02 2.96 8.96 1.22 2.04-.71 1.94-3.16 3.15h-.58L59.5-35l-.02.82.47 2.55-.77 6.38.23 4.59.98 2.32 1.66 1.24.35.68.26 1.92-.04.68-.5 1.25-1.52 2.05-.65 3.26.72 5.38.66.9.78.54.2.57.42 4.09.24.79 1.28 1.44.7 2.18-.23 4.49.23.75h1.38l2.67.68 1.5 1.18.34 1.3-.25 1.29-2.44.11-2.89-.33-.63.33.88 1.54 2.54.86 2.15 1.72.21 1.51-.88.64-.57.72-.1 1.4.51 3.84-.16.75.24 1.8.4 1.04.45 5.27-.67 2.19-.94 2.08-.1 1.36-1.41 2.58-2.26 2.48-.41 1.01-.16.71.15 2.08.3 1.29.64.72.62 1.54v1.22l-.5.29-.17.61-.17 2.83-.43 1.8-.33.61-1.8 1.9-1.93 3.69-.77.51-.76 1.47-.78 4.23.23 1.68-.12 1.26.55 4.09.32.29.68 1.93.66.86.56.19.74-.47.43-.86 1.41-.68 3.58.46.71-.86 1.12.18.3.39.86 2.34.43 2 .83 7.43.25.65 1.43 1.61.88.65 2.69.75h10.2l.87.29h.93l3.53-.11 3.21-.36 2.06.07 4.74 1.04 5.95.75 2.86 1.05.97.1.12.43-.65.15-2.16-.36h-2.01l-2.56-1-1.45-.08-2.45.83-.31 1-.66.83-2.95.39-2.84 1.22-.82.57-1.4.33-1.23-.14-1.18.5-1.62.32.37 2.8-.8 3.06.24 4.17-.23.96-.43.79-.49.4-1.02.07-2.74-.68-1.58-.07-3.8-1.19-2.18-1.25-1.06-1.19-.03-1.25 1.46-.54.57.9-.13.75 1.5-.54.56-.79 1.02-.75 2.27-.23 2.02-.9 1.2-.82.71-1.44.1-.9-2.12-.82-1.23-1.06-1.21-1.38-1.94-.36-4.1-.11-2.37.68-1 .68-.11-.82-.44-.68-2.6.39-.1-.75.37-.54 2-.86.48-1.22-.4-1.51-2.13-1.61 1.51-.4.03-.75-.37-1.07-1.65-1.33-2.87-1.69-2.22-.79-.9-.07 6.04 2.94.04.94-.96.21-1.54-.47-1.57-1-.43.18 1.37 1.83-.52 1.15-.92.54-.62-.62-.71-1-.48-1.14-1.36-1.8 1.38 1.94.47 1.79-.02 1.54-1.01-.1-.94-.36-.87-1.47-.09-3.09-1.64-2.47-4.91-3.45-.77-1.5.32-.94h2.11l1.73-.46-.33-1.51-.71-.32-.43.89h-.99l-1.09-.71-1.08-1.37.44-.79 2.17.47-.38-.47-1.13-.86-2.37-.25-1.29-.54-1.34-.96-1.07-1.3 2.21-1.9-.07-2.18.38-.47-.11-.83 2.57-1.36 1.16.32h.77l-.05-.39-1.15-.43-.55-.79 1.02-3.84-.73.25-1.52 1.08-.16 1.22-.72 1.29-1.05-.4-.48-1-.48-1.94-.57-4.2.58-.71.78.07-1.35-1 .24-1.55 2.85-.17 2.04 1.14-.69-1.07-.66-1.66-.69.58-3.68.75-.64-.5-.62-1.33-.9-.97-.38-2.86 1.47.25 1.2 1.36.82 1.32-.49-2 .61-.43 3.98.61 3.1 1.65 1.21-.07-2.45-1.08-1.5-1.94-.79-1.83-.66-.86-.32.93-2.35-.07-.99-.75v-.68l1.23-.83-1.61-.36-2.47-1-.6-.43.81-1.36 1.77-.83 1.52-.36-1.47-1 1.61-1.3-.59-.39-.71-.97-1.47-1-1.31-.68-1.43.07-.87.86-.96.25-2.82-1-1.12-.97-1.21-.68-1.49.61-.98.75.82.43.6 1.11-.28 1.29-1.92-.25-.52-1.29.41-2.91 1.36-.6 1.3-1.04 1.22-1.62 1.45-.18 1.57-.68-.14-1.04-.61-.25-.96.25-.72-.36-.54-.68-.26-1.22 3.17-.43 1.57.25.87.54 1.21-.79 1.19.5 1.07.61-.18 1.04.21.86.8-.68.26.97-.97 1.11-.34.79 1.04 1.11 1.24.18.71-1.4.87-.86.25.86-.15 1.55.12.86.86-.25.08-1.04.6-.58 1.18-.97 1.06-.43-.08-.61.3-1.11.67-1.65-.04-1.04-.81.43-.56.79-.24.86-1.06 1.9-.06-3.55.36-.68.33-.18 2.28-.36-1.61-.36-.08-.61.79-.75 1.28-.47-.08-.61-1.33.11-2.12.86.03-1.47.56-.79.9-.72.77-.18 1.66.9 1 .46.9.4 1.1-.18-.27-1.04h-1.21l-2.72-1.22-1.69-.18.12-1.5-.13-.97.84-.43 1.89.07 1.52-.36 1.67-1.58.24-.89-.36-2.66-.81-1.08-1.06-.25-2.33-1.61-1.37-.47-.66-.61.36-.71 1.1-.83.21-1.08.53-1.07.87-.9-.56-.79.19-1-1.18-.72-.27-1 .09-1.01.36-.64.89-.79.65-2.76-1-3.2 1.22-1.65 1.38.29-1.11-.86-1.18-1.47.57-1.47 1.47.28 1.18 2.12-.23-1.76-.75-3.23h-1.57l-1.64-.57.37-1.47 1.62-1.04 1.09-.27.99-.92-1.61.35h-1.03l-1.14-.47-1.41-1.2-1.68-.13-1.05.58-.07 1.13-.77.66-2.26.56-2.68-.96.09-.93-.69-.91-.91-.31-.72-1.11-.46-1.79-.19-2.34.05-3.69.63-1.97-.76-7.36 1.65-.79.23-.93.77-.97.4-1.76-.13-.63h-.87z"/><path class="cls-4" d="M65.24-46.96l-1.17-2.16-2.96-8.96-.2-1.02-1.22-7.84.51-3.36 2.14-1.53L64.78-76l-.92-5.3-1.73-3.98 1.22-1.42.21-3.66 3.46-7.65-.71-2.13-.31-8.05-2.44-1.02v-2.65l-4.38-8.55v-2.45l-2.45-2.03-1.22-6.32 1.53-1.93.2-1.53.51-5.6 1.43-1.43 1.52-1.93-1.22-2.04-1.73-7.74 1.73-2.45.72-6.92 4.17-7.74 2.65-9.37 3.67-.92 1.01-2.24-3.25-6.62 1.52-2.45-2.24-6.11 1.22-5.8-1.42-2.24v-3.67l11.2-7.84 1.02-3.67.71-8.55-1-1.01-.42-.42 1.22-3.46 2.45-1.43.4-2.44 3.67-1.43 2.24-3.97 3.67 2.44 12.42.51 4.48 7.13 3.36-8.86 10.8-.92 2.69 2.39 4.65 4.13 5.39 6.42 4.08 2.44 5.91 5.61 8.75 1.22 11 6.62 4.18 1.73 3.46 2.14.92-.2 6.62 2.95.71 2.85-2.44 2.96-.92 3.66-1.73.71-1.22 5.4-3.67 5.91-.51 2.44h6.62l8.56 2.14 2.24-.71 1.63 1.02 2.03-.72 2.45 1.23 2.44-2.75 4.59 1.22 2.44-3.87 3.46-1.93 3.87-5.2 1.74-11 1.22.71 3.66-.2 2.24 1.22 2.07 5.6-.13 6.42-1.22 3.87-5.91 3.87-3.36 1.73-8.86 7.13-.92 2.44-2.04.21-7.33 8.55-.41 1.53-6.11 7.54-3 3.92-1.68 2.19-.51 6.32-1.22 4.17v3.67l-2.14 4.17.92 2.45v8.76l-1.74 1.22-.71 1.22 1.02 10.08-1.53 1.74.81 2.85 11.21 7.84 1.73 2.44-1.94 6.42 1.94 2.85 4.38 2.04.2 5.09-7.02 11-.51 2.25-6.32 4.88-10.29 4.08-18.84 3.66-7.54-2.14-.81.51 1.73 4.89 1.53 1.94 5.39 2.99 1.07 3.88 1.26 1.26.19 2.69 1.51 4.59.02 1.11-.37 1.33-1.06 1.15-3.03.64-2.8 1.69-6.99-.18-1.75-.47-1.9-1.04-3.96-1.4-2.87-.68-1.91-1.79-1.73 2.08.45 3.41 1.51 2.9.77 5.04.51 2.15 2.82 1.94 2.55.65-.65 1.11 1.21.75 3.57-.82-.75-1.29-1.3-.65 2.98-.22 2.06-1.29 1.69 1.87 1.07 3.94-.09 1.69-1.23.83-1.94.6-1.67-.07-1.51-.53-.35-1.87-1.14-.9-2.04-.46-1.5.46-1.09 1.01-.98.07-.79.75.12.94 3.27 1.25 2.04.18 1.49.4 1.04.35-.05.36-5.87 2.73-.63 1-.5 1.26-1.35 1.65-.21 1.79.98 2.26.05 2.05.31 2.33-.54 1.72-.8.68-1.28.47-1.02 1.5 1.27 2.05.22.68-.43.9-6.18-.36-1.78.79-1.04 1.33h-1.88l-1.8.71-2.72 2.8-.86 1.22-.37 1.22-1.75 2.69-.24 2.33.47 1.04 1.37 1.98 1.53 1.65 1.83 1.04 4.46 3.47 4.72 1.37 2.35.07 2.2-.25 1.45 1.04.65 1.51.31 2.29-1.09 1.69-.62.39 1 1.69.4 1.33-1.38.43-.02 1.5h-1.44l-1.37.75-2.79 2.34-3.17 2.15-1.36.58-2.26 2.22-2.53 1.72-1.3 2.69-.24 1.61 1.43-.89-.89 4.95-.59 2.01-1.39 1.29-1.71.61-1.9-.07-1.44-.97-2.39-2.8.81 2.65 1.51.58.55.72.08.64-3.94 2.05-1.52 1.11-1.59 5.56-1.15 1.4h1.12l.93-.4 1.77 3.2.82 2.04-.43.86-2.25-.07-1.04.29 1.78.93.97-.14 1.15.21 3.3 3.88 4.18 3.05-1.01.07-2.86-1.05-5.95-.75-4.74-1.04-2.06-.07-3.21.36-3.53.11h-.93l-.87-.29h-10.2l-2.69-.75-.88-.65-1.43-1.61-.25-.65-.83-7.43-.43-2-.86-2.34-.3-.39-.86-.18-.97.86-3.58-.46-1.41.68-.43.86-.74.47-.56-.19-.66-.86-.68-1.93-.32-.29-.55-4.09.12-1.26-.23-1.68.78-4.23.76-1.47.77-.51 1.93-3.69 1.8-1.9.33-.61.43-1.8.17-2.83.17-.61.5-.29v-1.22l-.62-1.54-.64-.72-.17-1.29-.28-2.08.16-.71.41-1.01 2.26-2.48 1.41-2.58.1-1.36.94-2.08.67-2.19-.45-5.27-.4-1.04-.24-1.8.16-.75-.51-3.84.1-1.4.57-.72.88-.64-.21-1.51-2.15-1.72-2.54-.86-.88-1.54.63-.33 2.89.33 2.44-.11.25-1.29-.34-1.3-1.5-1.18-2.67-.68h-1.38l-.23-.75.23-4.49-.7-2.18-1.28-1.44-.24-.79-.42-4.09-.2-.57-.78-.54-.66-.9-.72-5.38.65-3.26 1.52-2.05.5-1.25.04-.68-.26-1.92-.35-.68-1.66-1.24-.98-2.32-.23-4.59.77-6.38-.47-2.55.02-.82 1.83-9.73.23-2.36 3.68.13z"/></g><g clip-path="url(#clip-path-2)"><path class="cls-6" d="M438.37-202.07l-1.02 5.4-.21 5.8-3.97 8.56-1.72 4.69-12.76 12.3-1.92 1.85-6.82 4.69-3.66 4.58-2.96 6.82-7.74 9.37-1.73.21-1.22-3.16-.72-.3-1.52 3.25-.2 2.45-2.96 3.67.71 2.44-1.22 3.36.72 3.16-1.44 5.19.21 12.23.82 3.16-4.9 14.15.21 6.62-5.91 5.4-1.42 8.76-1.22 7.13-6.32 8.04-.81 2.96-5.61 5.6-.47 1.21-1.97 5.1v4.69l-9.99 4.89-1.01 3.87-9.07 1.02-2.13-.21-1.74-2.44-1.22.41-.2 1.73-2.24.71-3.46-1.42-3.67 1.22-2.14-1.22-2.75 1.22-.41.71 1.22 1.73-.5.72h-1.74l-7.13 3.97-.91 1.42-4.18-.51-8.76 3.97-12.73 9.79-1.93 1.63-1.53 2.03-2.96.2-1.93.72-.51.51 2.44 1.93-1.18 4.07-.45 1.53-1.72 2.04.91 2.85v9.37l-.91 3.67-.52 7.74-1.42 1.73v1.22l-8.86 7.33-4.18 7.34-4.58 9.58-8.05 9.26-6.62 5.1-4.18 5.39-2.64 6.42-6.11 6.52-1.53.3-1.22-4.17.51-3.16 1.73-1.94.71-1.52-1.94-1.43-4.17-6.11-4.38-1.94-2.95-3.97-4.38-1.73-5.4-5.6-.51.51-2.65 2.44-1.22-.71V65.8l-3.98-4.89-1.93-1.43-4.18-2.23-2.13 2.74-3.72-.76 3-3.92 6.12-7.54.4-1.53 7.34-8.55 2.03-.21.92-2.44 8.86-7.13 3.36-1.73 5.91-3.87 1.22-3.87.13-6.42-2.07-5.6-2.24-1.22-3.66.2-1.22-.71 1.42-7.54 1.53-5.19-.31-1.63v-3.67l-3.36-2.04-5.6 2.45-2.45-.92-.81-1.73-1.22-4.17-.72-6.12-2.44-6.82-3.15-.21-3.16-2.24-2.96 1.94-4.89-.2-5.6-1.53-1.72.81-1.23-.81.51-14.67-2.25-3.66-.91-6.12.54-1.92 1.09-3.88 3.97-16.19-3.16-6.52-5.4-2.45-1.72-5.19 1.01-2.95.21-3.37-19.05.21-1.53-.92-.4-7.85-3.67-4.17 1.63-1.73-.4-2.14.91-3.26-1.94-3.36 1.22-2.75-4.88-3.87-3.67-1.42-7.84.71-4.18-4.69-3.87-.51-4.89-2.65-1.73-1.93h-1.43l-1.21.2-3.16-2.13-5.91.71-2.65-.51-2.24-3.67-2.65-.71-4.18-3.16-3.15-7.64.71-2.14-1.73-4.68 1.42-4.89-.71-4.18-1.22-.71-1.94 1.93h-7.53l-1.91 1.1-6.65 3.79-6.11 4.18-1.22 1.73-3.67.21-2.75 3.66-4.38 1.93-1.42-1.22-7.64-.2-5.6.52-3.67 1.72-2.45-1.01-1.22-12.94.72-2.75-1.22-1.94-8.77 7.13-6.62.2-3.46-5.8-8.96-.51-.51-.51 1.93-2.65-1.01-2.95-3.36-3.46-3.16-4.18-2.45-3.16.92-1.22-3.36-2.44.41-2.14 2.03-1.02.13-3.65-.02-.01h.02l.07-2.24 6.12-4.59-.51-5.91 2.75-5.6.2-4.18 11-8.04 10.49-2.65 1.53-2.45 5.3-.5 2.95 1.93 1.02-1.73 1.73-3.36 3.87-32.09-2.24-3.35v-3.47l-5.09-4.37-.21-8.56 5.1-2.24 3.66.71.72-1.43-1.23-2.65-3.36-.51-2.75-.71.3-6.62 14.68-.5 2.84-1.03-.4-.4.71-1.73h1.22l2.96 2.13 5.29-4.58 1.02 1.22 3.67 9.47 1.73-.4 7.84 5.09 3.16-1.22 3.16-1.94 1.02.21-.31 3.15 1.22.52 4.18-4.38.51-1.43 4.89-2.04 2.95-2.44 1.63 1.22 2.45-3.36.3-2.24 7.33-4.38.51-1.94-7.13-.71-1.01-2.95-1.23-4.18-1.22-2.44.31-2.65-5.6-5.91-.52-1.02 1.43-.41 1.02.72h4.18l1.93 2.44 5.6.21 1.73-1.23 5.61 4.18 1.73-1.22-.31-3.16 3.67-1.73 1.22-1.23 3.66 1.02 4.49-1.22 1.94-1.73 3.15-1.73 1.43.2 6.42-5.8-.51-2.24 4.88-.71 1.94 2.44-.51 4.89 2.04 1.42 1.43.52 1.42 4.37.82 2.25-3.67 3.86.2 3.98-1.22 6.11.2 2.13 2.44 1.53.31 4.59 7.03 5.7 2.45 1.63 2.74-.41 3.87-3.46 2.24.2 2.96-1.93h3.16l3.87-3.16 4.88 1.02 1.74-1.22 6.82 1.42 2.75-.71-.31-1.23-2.44-2.44 2.24-2.74h3.16l7.84-1.64 3.16 2.65 2.95.2 2.65 2.04 3.67-.81 2.24-1.23 2.44.82 2.65-.51 2.24 1.73 3.16-.81 2.95-2.85 6.62-12.53 3.37-4.38 1.01-2.45 1.23-2.44 3.87 3.46 4.37 17.83 1.54 3.36.71 2.24 1.73 1.73 5.39 2.44 1.43 2.96-.2 3.15-5.4 5.61-3.47 4.68-6.31 3.36.21 2.75-3.16 2.65-1.02 1.43-1.22 3.46-2.14 1.73-2.45 2.65-7.84 2.75 4.89.72v4.88l1.94 2.45-.52-6.42 9.37-4.89 4.38-3.36 1.74.2.4 3.67 1.23 2.44-.72 3.16-2.95.31.82 2.14 1.62.5 2.25-2.14 1.22.72h2.44l3.16-1.22 1.73 1.22 1.02.92 3.67-1.64.91.93-.51 2.94-2.64 4.69.2 1.94 1.22-1.23 4.17-8.34 6.43-5.1 2.13.51.51-.82-.2-1.42 4.07-5.6 5.4-2.44 2.44.91 1.94-.72 5.7 2.25 2.45 2.13 3.16-.4 2.13 2.44 2.45.71 2.95.93 1.73.81 1.02-.31.41 1.02.51 2.44h1.02l1.22-1.52 3.87 1.22 2.95 3.26-.2 1.93-1.53 1.94 2.24-.21.72.92-1.94 2.75-1.02 3.36 1.22.72.31.81-1.02 2.14.71.51 3.67-3.87 2.24-.51 2.45-2.24 4.38-.72 1.21-1.73 10.81 4.18 3.87 1.93 2.65-.71.51 1.02 3.66.71 2.75.72 11.71-1.02 9.98 4.48 15.38 12.22 5.4 6.11 1.93 1.19 5.2 3.19 6.11 2.14 8.56.31 3.15 3.15 2.74 12.57 1.95 8.72z"/><path class="cls-6" d="M213.69 4.69l-1.74 11-3.87 5.19-3.46 1.94-2.44 3.87-4.59-1.23-2.44 2.76-2.45-1.23-2.03.72-1.63-1.02-2.24.71-8.56-2.14h-6.62l.51-2.44 3.67-5.91 1.22-5.4 1.73-.71.92-3.67 2.44-2.95-.71-2.85-6.62-2.96-.92.21-3.46-2.14-4.18-1.73-11-6.62-8.75-1.22-5.91-5.61-4.08-2.44-5.39-6.42-4.65-4.13 2.91-9.52.51-9.06 5.6-11.51 13.65-3.67 12.02-1.22 13.78 5.41-.54 1.92.92 6.11 2.24 3.67-.51 14.67 1.22.81 1.73-.81 5.6 1.52 4.89.21 2.96-1.93 3.15 2.24 3.16.2 2.45 6.82.71 6.12 1.22 4.17.82 1.73 2.44.92 5.6-2.45 3.36 2.04v3.67l.31 1.63-1.53 5.19-1.42 7.54z"/><path class="cls-4" d="M41.86 167.75l-1.02-2.65v-4.48l-2.44-4.07-1.22-6.11 3.16-1.22 1.22-2.75-.92-2.96 1.22-1.22.72-6.82 1.42-2.65-.71-1.53 3.97-13.85-.81-4.69 2.24-4.89-1.73-8.55 1.52-1.73.41-3.67-1.22-1.93-1.63-8.76-3.26-13.45 1.53-1.73 1.22-4.69-3.16-10.28.72-1.63 2.13-13.96v-4.37l.82-1.74.92-12.22-1.43-3.97 1.94-7.74-1.74-4.69-.71-13.44-1.73-1.94.71-4.17h1.02l.71-.72.51-16.9-1.22-8.56.2-7.33-2.64-8.76-1.94-12.22 2.14-.51 3.26-3.16-.31-3.67 2.96-2.24 1.73 1.02 1.22 2.65 2.14 1.22 1.53 8.86 6.62 6.52-1.23 2.24.92 4.38-2.14 2.45.72 1.01v2.45l2.44 1.42-.3 2.75 2.44 2.14 3.67 8.87 2.44 8.96 1.22 2.75H77l2.46-.09 1 1.01-.71 8.55-1.02 3.67L67.53-.2v3.67l1.42 2.24-1.22 5.8 2.24 6.11-1.52 2.45 3.25 6.62-1.01 2.24-3.67.92-2.65 9.37-4.17 7.74-.72 6.92-1.73 2.45 1.73 7.74 1.22 2.04-1.52 1.93-1.43 1.43-.51 5.6-.2 1.53-1.53 1.93 1.22 6.32 2.45 2.03v2.45l4.38 8.55v2.65l2.44 1.02.31 8.04.71 2.14-3.46 7.64-.21 3.67-1.22 1.42 1.73 3.98.92 5.29-2.44 4.18-2.14 1.53-.51 3.36 1.22 7.84.2 1.02 2.96 8.96 1.22 2.04-.71 1.93-3.16 3.16h-.58l-1.34 6.99-.02.82.47 2.55-.77 6.38.23 4.59.98 2.32 1.66 1.23.35.69.26 1.92-.04.68-.5 1.25-1.52 2.05-.65 3.26.72 5.38.66.9.78.54.2.57.42 4.09.24.79 1.28 1.44.7 2.18-.23 4.48.23.76h1.38l2.67.68 1.5 1.18.34 1.3-.25 1.29-2.44.1-2.89-.32-.63.32.88 1.55 2.54.86 2.15 1.72.21 1.51-.88.64-.57.72-.1 1.4.51 3.84-.16.75.24 1.79.4 1.05.45 5.27-.67 2.19-.94 2.08-.1 1.36-1.41 2.58-2.26 2.48-.41 1-.16.72.15 2.08.3 1.29.64.72.62 1.54v1.22l-.5.29-.17.61-.17 2.83-.43 1.8-.33.6-1.8 1.91-1.93 3.69-.77.5-.76 1.48-.78 4.23.23 1.68-.12 1.26.55 4.09.32.29.68 1.93.66.86.56.18.74-.46.43-.86 1.41-.68 3.58.46.71-.86 1.12.18.3.39.86 2.34.43 2 .83 7.43.25.64 1.43 1.62.88.65 2.69.75h10.2l.87.29h.93l3.53-.11 3.21-.36 2.06.07 4.74 1.04 5.95.75 2.86 1.05.97.1.12.43-.65.15-2.16-.36h-2.01l-2.56-1.01-1.45-.07-2.45.83-.31 1-.66.83-2.95.39-2.84 1.22-.82.57-1.4.33-1.23-.15-1.18.51-1.62.32.37 2.8-.8 3.06.24 4.17-.23.96-.43.79-.49.4-1.02.07-2.74-.68-1.58-.07-3.8-1.19-2.18-1.25-1.06-1.19-.03-1.25 1.46-.54.57.9-.13.75 1.5-.54.56-.79 1.02-.75 2.27-.23 2.02-.9 1.2-.83.71-1.43.1-.9-2.12-.82-1.23-1.06-1.21-1.38-1.94-.36-4.1-.11-2.37.68-1 .68-.11-.82-.44-.68-2.6.39-.1-.75.37-.54 2-.86.48-1.22-.4-1.51-2.13-1.61 1.51-.4.03-.75-.37-1.08-1.65-1.32-2.87-1.69-2.22-.79-.9-.07 6.04 2.94.04.93-.96.22-1.54-.47-1.57-1-.43.18 1.37 1.83-.52 1.15-.92.53-.62-.61-.71-1-.48-1.15-1.36-1.79 1.38 1.94.47 1.79-.02 1.54-1.01-.11-.94-.35-.87-1.47-.09-3.09-1.64-2.47-4.91-3.45-.77-1.5.32-.94h2.11l1.73-.46-.33-1.51-.71-.33-.43.9h-.99l-1.09-.71-1.08-1.37.44-.79 2.17.47-.38-.47-1.13-.86-2.37-.25-1.29-.54-1.34-.96-1.07-1.3 2.21-1.9-.07-2.19.38-.46-.11-.83 2.57-1.36 1.16.32h.77l-.05-.39-1.15-.43-.55-.79 1.02-3.84-.73.25-1.52 1.08-.16 1.22-.72 1.29-1.05-.4-.48-1-.48-1.94-.57-4.2.58-.71.78.07-1.35-1.01.24-1.54 2.85-.18 2.04 1.15-.69-1.08-.66-1.65-.69.58-3.68.75-.64-.5-.62-1.33-.9-.97-.38-2.87 1.47.25 1.2 1.37.82 1.32-.49-2 .61-.43 3.98.61 3.1 1.65 1.21-.08-2.45-1.07-1.5-1.94-.79-1.83-.66-.86-.32.93-2.35-.07-.99-.75v-.68l1.23-.83-1.61-.36-2.47-1-.6-.43.81-1.36 1.77-.83 1.52-.36-1.47-1 1.61-1.3-.59-.39-.71-.97-1.47-1-1.31-.68-1.43.07-.87.86-.96.25-2.82-1-1.12-.97-1.21-.69-1.49.62-.98.75.82.43.6 1.11-.28 1.29-1.92-.25-.52-1.29.41-2.91 1.36-.61 1.3-1.04 1.22-1.61 1.45-.18 1.57-.68-.14-1.04-.61-.25-.96.25-.72-.36-.54-.68-.26-1.22 3.17-.43 1.57.25.87.54 1.21-.79 1.19.5 1.07.61-.18 1.04.21.86.8-.68.26.97-.97 1.11-.34.79 1.04 1.11 1.24.18.71-1.4.87-.86.25.86-.15 1.54.12.87.86-.26.08-1.04.6-.57 1.18-.97 1.06-.43-.08-.61.3-1.11.67-1.65-.04-1.04-.81.43-.56.79-.24.86-1.06 1.9-.06-3.55.36-.68.33-.18 2.28-.36-1.61-.36-.08-.61.79-.75 1.28-.47-.08-.61-1.33.11-2.12.86.03-1.47.56-.79.9-.72.77-.18 1.66.9 1 .45.9.41 1.1-.18-.27-1.04h-1.21l-2.72-1.22-1.69-.18.12-1.5-.13-.97.84-.43 1.89.07 1.52-.36 1.67-1.58.24-.9-.36-2.65-.81-1.08-1.06-.25-2.33-1.61-1.37-.47-.66-.61.36-.71 1.1-.83.21-1.08.53-1.07.87-.9-.56-.79.19-1-1.18-.72-.27-1.01.09-1 .36-.64.89-.79.65-2.76-1-3.2 1.22-1.65 1.38.29-1.11-.86-1.18-1.47.57-1.48 1.47.29 1.18 2.12-.23-1.76-.75-3.23h-1.57l-1.64-.57.37-1.47 1.62-1.04 1.09-.27.99-.92-1.61.35h-1.03l-1.14-.47-1.41-1.2-1.68-.13-1.05.57-.07 1.13-.77.67-2.26.55-2.68-.94.09-.94-.69-.91-.91-.31-.72-1.11-.46-1.79-.19-2.34.05-3.69.63-1.97-.76-7.36 1.65-.79.23-.93.77-.97.4-1.76-.13-.63h-.87z"/><path class="cls-4" d="M65.24 162.78l-1.17-2.16-2.96-8.96-.2-1.02-1.22-7.84.51-3.36 2.14-1.53 2.44-4.18-.92-5.29-1.73-3.98 1.22-1.42.21-3.67 3.46-7.64-.71-2.14-.31-8.04-2.44-1.02v-2.65l-4.38-8.55v-2.45l-2.45-2.03-1.22-6.32 1.53-1.93.2-1.53.51-5.6 1.43-1.43 1.52-1.93-1.22-2.04-1.73-7.74 1.73-2.45.72-6.92 4.17-7.74 2.65-9.37 3.67-.92 1.01-2.24-3.25-6.62 1.52-2.45-2.24-6.11 1.22-5.8-1.42-2.24V-.2l11.2-7.84 1.02-3.67.71-8.55-1-1.01-.42-.42 1.22-3.47 2.45-1.42.4-2.44 3.67-1.43 2.24-3.97 3.67 2.44 12.42.51 4.48 7.13 3.36-8.86 10.8-.92 2.69 2.39 4.65 4.13 5.39 6.42 4.08 2.44 5.91 5.61 8.75 1.22 11 6.62 4.18 1.73 3.46 2.14.92-.21 6.62 2.96.71 2.85-2.44 2.95-.92 3.67-1.73.71-1.22 5.4-3.67 5.91-.51 2.44h6.62l8.56 2.14 2.24-.71 1.63 1.02 2.03-.72 2.45 1.23 2.44-2.76 4.59 1.23 2.44-3.87 3.46-1.94 3.87-5.19 1.74-11 1.22.71 3.66-.2 2.24 1.22 2.07 5.6-.13 6.42-1.22 3.87-5.91 3.87-3.36 1.73-8.86 7.13-.92 2.44-2.04.21-7.33 8.55-.41 1.53-6.11 7.54-3 3.92-1.68 2.19-.51 6.31-1.22 4.18v3.67l-2.14 4.17.92 2.45v8.76l-1.74 1.22-.71 1.22 1.02 10.08-1.53 1.74.81 2.85 11.21 7.84 1.73 2.44-1.94 6.42 1.94 2.85 4.38 2.04.2 5.09-7.02 11-.51 2.24-6.32 4.89-10.29 4.08-18.84 3.66-7.54-2.14-.81.51 1.73 4.89 1.53 1.94 5.39 2.99 1.07 3.88 1.26 1.26.19 2.69 1.51 4.59.02 1.11-.37 1.33-1.06 1.15-3.03.64-2.8 1.69-6.99-.18-1.75-.47-1.9-1.04-3.96-1.4-2.87-.68-1.91-1.79-1.73 2.08.45 3.4 1.51 2.91.77 5.04.51 2.15 2.82 1.94 2.55.64-.65 1.12 1.21.75 3.57-.82-.75-1.3-1.3-.64 2.98-.22 2.06-1.29 1.69 1.87 1.07 3.94-.09 1.69-1.23.83-1.94.6-1.67-.07-1.51-.53-.35-1.87-1.14-.9-2.04-.47-1.5.47-1.09 1.01-.98.07-.79.75.12.94 3.27 1.25 2.04.18 1.49.39 1.04.36-.05.36-5.87 2.73-.63 1-.5 1.26-1.35 1.65-.21 1.79.98 2.26.05 2.05.31 2.33-.54 1.72-.8.68-1.28.47-1.02 1.5 1.27 2.05.22.68-.43.9-6.18-.36-1.78.79-1.04 1.32h-1.88l-1.8.72-2.72 2.8-.86 1.22-.37 1.22-1.75 2.69-.24 2.33.47 1.04 1.37 1.97 1.53 1.66 1.83 1.03 4.46 3.48 4.72 1.37 2.35.07 2.2-.25 1.45 1.04.65 1.51.31 2.29-1.09 1.69-.62.39 1 1.69.4 1.32-1.38.43-.02 1.51h-1.44l-1.37.75-2.79 2.34-3.17 2.15-1.36.57-2.26 2.23-2.53 1.72-1.3 2.69-.24 1.61 1.43-.89-.89 4.95-.59 2.01-1.39 1.29-1.71.61-1.9-.08-1.44-.96-2.39-2.8.81 2.65 1.51.58.55.72.08.64-3.94 2.04-1.52 1.12-1.59 5.56-1.15 1.4h1.12l.93-.4 1.77 3.19.82 2.05-.43.86-2.25-.07-1.04.29 1.78.93.97-.14 1.15.21 3.3 3.87 4.18 3.05-1.01.08-2.86-1.05-5.95-.75-4.74-1.04-2.06-.07-3.21.36-3.53.11h-.93l-.87-.29h-10.2l-2.69-.75-.88-.65-1.43-1.62-.25-.64-.83-7.43-.43-2-.86-2.34-.3-.39-.86-.18-.97.86-3.58-.46-1.41.68-.43.86-.74.46-.56-.18-.66-.86-.68-1.93-.32-.29-.55-4.09.12-1.26-.23-1.68.78-4.23.76-1.48.77-.5 1.93-3.69 1.8-1.91.33-.6.43-1.8.17-2.83.17-.61.5-.29v-1.22l-.62-1.54-.64-.72-.17-1.29-.28-2.08.16-.72.41-1 2.26-2.48 1.41-2.58.1-1.36.94-2.08.67-2.19-.45-5.27-.4-1.05-.24-1.79.16-.75-.51-3.84.1-1.4.57-.72.88-.64-.21-1.51-2.15-1.72-2.54-.86-.88-1.55.63-.32 2.89.32 2.44-.1.25-1.29-.34-1.3-1.5-1.18-2.67-.68h-1.38l-.23-.76.23-4.48-.7-2.18-1.28-1.44-.24-.79-.42-4.09-.2-.57-.78-.54-.66-.9-.72-5.38.65-3.26 1.52-2.05.5-1.25.04-.68-.26-1.92-.35-.69-1.66-1.23-.98-2.32-.23-4.59.77-6.38-.47-2.55.02-.82 1.83-9.73.23-2.36 3.68.13z"/></g><g clip-path="url(#clip-path-3)"><path class="cls-6" d="M438.37 26.45l-1.02 5.4-.21 5.8-3.97 8.56-1.72 4.69-12.76 12.3-1.92 1.86-6.82 4.68-3.66 4.58-2.96 6.82-7.74 9.38-1.73.2-1.22-3.16-.72-.3-1.52 3.26-.2 2.44-2.96 3.67.71 2.44-1.22 3.36.72 3.16-1.44 5.19.21 12.23.82 3.16-4.9 14.15.21 6.62-5.91 5.4-1.42 8.76-1.22 7.13-6.32 8.04-.81 2.96-5.61 5.6-.47 1.21-1.97 5.1v4.69l-9.99 4.89-1.01 3.87-9.07 1.02-2.13-.2-1.74-2.45-1.22.41-.2 1.73-2.24.71-3.46-1.42-3.67 1.22-2.14-1.22-2.75 1.22-.41.71 1.22 1.74-.5.71h-1.74l-7.13 3.97-.91 1.42-4.18-.51-8.76 3.97-12.73 9.79-1.93 1.63-1.53 2.03-2.96.2-1.93.72-.51.51 2.44 1.93-1.18 4.07-.45 1.53-1.72 2.04.91 2.85v9.37l-.91 3.67-.52 7.74-1.42 1.73v1.22l-8.86 7.34-4.18 7.33-4.58 9.58-8.05 9.26-6.62 5.1-4.18 5.39-2.64 6.42-6.11 6.52-1.53.3-1.22-4.17.51-3.16 1.73-1.94.71-1.52-1.94-1.42-4.17-6.12-4.38-1.94-2.95-3.97-4.38-1.73-5.4-5.6-.51.51-2.65 2.45-1.22-.72v-2.24l-3.98-4.89-1.93-1.43-4.18-2.23-2.13 2.74-3.72-.76 3-3.92 6.12-7.53.4-1.54 7.34-8.55 2.03-.21.92-2.44 8.86-7.13 3.36-1.73 5.91-3.87 1.22-3.87.13-6.42-2.07-5.6-2.24-1.22-3.66.2-1.22-.71 1.42-7.54 1.53-5.19-.31-1.63v-3.67l-3.36-2.03-5.6 2.44-2.45-.91-.81-1.74-1.22-4.17-.72-6.11-2.44-6.83-3.15-.2-3.16-2.25-2.96 1.94-4.89-.2-5.6-1.53-1.72.82-1.23-.82.51-14.67-2.25-3.66-.91-6.11.54-1.93 1.09-3.88 3.97-16.19-3.16-6.52-5.4-2.45-1.72-5.19 1.01-2.95.21-3.37-19.05.21-1.53-.92-.4-7.84-3.67-4.18 1.63-1.73-.4-2.14.91-3.26-1.94-3.36 1.22-2.75-4.88-3.87-3.67-1.42-7.84.71-4.18-4.69-3.87-.51-4.89-2.65-1.73-1.93h-1.43l-1.21.21-3.16-2.14-5.91.71-2.65-.51-2.24-3.67-2.65-.71-4.18-3.16-3.15-7.63.71-2.15-1.73-4.68 1.42-4.89-.71-4.18-1.22-.71-1.94 1.93h-7.53l-1.91 1.1-6.65 3.8-6.11 4.17-1.22 1.73-3.67.21-2.75 3.67-4.38 1.93-1.42-1.22-7.64-.21-5.6.52-3.67 1.72-2.45-1.01-1.22-12.94.72-2.75-1.22-1.94-8.77 7.13-6.62.21L11 55.07l-8.96-.51-.51-.51 1.93-2.64-1.01-2.96-3.36-3.46-3.16-4.18-2.45-3.16.92-1.22-3.36-2.44.41-2.14 2.03-1.02.13-3.65-.02-.01h.02l.07-2.24 6.12-4.59-.51-5.9 2.75-5.61.2-4.17 11-8.05 10.49-2.65 1.53-2.44 5.3-.51 2.95 1.93 1.02-1.73 1.73-3.36 3.87-32.08-2.24-3.36v-3.47l-5.09-4.37-.21-8.56 5.1-2.24 3.66.71.72-1.42-1.23-2.65-3.36-.51-2.75-.71.3-6.63 14.68-.5 2.84-1.03-.4-.4.71-1.73h1.22l2.96 2.13 5.29-4.58 1.02 1.22 3.67 9.48 1.73-.41 7.84 5.09 3.16-1.22 3.16-1.93 1.02.2-.31 3.15 1.22.52 4.18-4.38.51-1.43 4.89-2.04 2.95-2.44L99-76.52l2.45-3.36.3-2.24 7.33-4.38.51-1.93-7.13-.72-1.01-2.95-1.23-4.18L99-98.72l.31-2.65-5.6-5.91-.52-1.02 1.43-.4 1.02.71h4.18l1.93 2.44 5.6.21 1.73-1.23 5.61 4.18 1.73-1.22-.31-3.16 3.67-1.73 1.22-1.22 3.66 1.02 4.49-1.23 1.94-1.73 3.15-1.73 1.43.2 6.42-5.8-.51-2.24 4.88-.71 1.94 2.44-.51 4.89 2.04 1.42 1.43.52 1.42 4.37.82 2.25-3.67 3.86.2 3.98-1.22 6.11.2 2.14 2.44 1.53.31 4.58 7.03 5.7 2.45 1.63 2.74-.41 3.87-3.46 2.24.2 2.96-1.93h3.16l3.87-3.16 4.88 1.02 1.74-1.22 6.82 1.42 2.75-.71-.31-1.22-2.44-2.44 2.24-2.75h3.16l7.84-1.64 3.16 2.65 2.95.21 2.65 2.03 3.67-.81 2.24-1.22 2.44.81 2.65-.51 2.24 1.73 3.16-.81 2.95-2.85 6.62-12.53 3.37-4.38 1.01-2.44 1.23-2.45 3.87 3.46 4.37 17.83 1.54 3.36.71 2.24 1.73 1.73 5.39 2.44 1.43 2.96-.2 3.15-5.4 5.61-3.47 4.68-6.31 3.36.21 2.75-3.16 2.65-1.02 1.43-1.22 3.46-2.14 1.73-2.45 2.65-7.84 2.75 4.89.72v4.88l1.94 2.45-.52-6.42 9.37-4.89 4.38-3.36 1.74.2.4 3.67 1.23 2.45-.72 3.15-2.95.31.82 2.14 1.62.51 2.25-2.15 1.22.72h2.44l3.16-1.22 1.73 1.22 1.02.92 3.67-1.64.91.93-.51 2.94-2.64 4.69.2 1.94 1.22-1.23 4.17-8.34 6.43-5.1 2.13.51.51-.81-.2-1.43 4.07-5.6 5.4-2.44 2.44.91 1.94-.71 5.7 2.24 2.45 2.14 3.16-.41 2.13 2.44 2.45.71 2.95.93 1.73.81 1.02-.3.41 1.01.51 2.45h1.02l1.22-1.53 3.87 1.22 2.95 3.26-.2 1.93-1.53 1.94 2.24-.2.72.91-1.94 2.75-1.02 3.37 1.22.71.31.81-1.02 2.14.71.51 3.67-3.87 2.24-.51 2.45-2.24 4.38-.71 1.21-1.74 10.81 4.18 3.87 1.94 2.65-.72.51 1.02 3.66.71 2.75.72 11.71-1.02 9.98 4.48 15.38 12.23 5.4 6.1 1.93 1.19 5.2 3.2 6.11 2.13 8.56.31 3.15 3.16 2.74 12.56 1.95 8.72z"/><path class="cls-6" d="M43.29 69.94l7.64.21 1.42 1.22 4.38-1.94 2.75-3.66 3.67-.21 1.22-1.73 6.11-4.17 6.65-3.8 1.91-1.09h7.54l1.93-1.94 1.22.72.71 4.17-1.42 4.89 1.73 4.69-.71 2.13 3.15 7.64 4.18 3.16 2.65.71 2.24 3.67 2.65.51 5.91-.71 3.15 2.14 1.23-.21h1.42l1.73 1.94 4.89 2.64 3.87.51 4.18 4.69 7.84-.71 3.67 1.42 4.89 3.87-1.22 2.75 1.93 3.36-.92 3.26.41 2.14-1.63 1.73 3.67 4.18.41 7.84 1.52.92 19.05-.21-.21 3.37-1.01 2.95 1.73 5.19 5.39 2.45 3.16 6.52-3.97 16.19-1.09 3.88-13.78-5.41-12.02 1.22-13.65 3.67-5.6 11.51-.51 9.07-2.91 9.51-2.69-2.39-10.8.92-3.36 8.86-4.48-7.13-12.42-.51-3.67-2.44-2.24 3.97-3.67 1.43-.4 2.44-2.45 1.43-1.22 3.46.42.42-2.46.09h-4.89l-1.22-2.75-2.44-8.96-3.67-8.86-2.44-2.14.3-2.75-2.44-1.43v-2.44l-.72-1.02 2.14-2.45-.92-4.38 1.23-2.24-6.62-6.51-1.53-8.87-2.14-1.22-1.22-2.64-1.73-1.02-.72-4.38 5.81-8.56 1.02-2.65-3.16-1.02-1.53-3.15-1.22-5.2 1.22-3.16-2.14-4.17 3.87-5.3 1.02-2.95-2.24-7.13 1.02-3.36-.51-4.89 2.24-3.26v-2.44l-10.08-16.1z"/><path class="cls-4" d="M41.86 396.27l-1.02-2.64v-4.49l-2.44-4.07-1.22-6.11 3.16-1.22 1.22-2.75-.92-2.96 1.22-1.22.72-6.82 1.42-2.65-.71-1.53 3.97-13.85-.81-4.69 2.24-4.88-1.73-8.56 1.52-1.73.41-3.67-1.22-1.93-1.63-8.76-3.26-13.45 1.53-1.73 1.22-4.68-3.16-10.29.72-1.63L45.22 266v-4.37l.82-1.74.92-12.22-1.43-3.97 1.94-7.74-1.74-4.69-.71-13.44-1.73-1.93.71-4.18h1.02l.71-.71.51-16.91-1.22-8.56.2-7.33-2.64-8.76-1.94-12.22 2.14-.51 3.26-3.16-.31-3.66 2.96-2.24 1.73 1.02 1.22 2.64 2.14 1.22 1.53 8.87 6.62 6.51-1.23 2.24.92 4.38-2.14 2.45.72 1.02v2.44l2.44 1.43-.3 2.75 2.44 2.14 3.67 8.86 2.44 8.96 1.22 2.75H77l2.46-.09 1 1.01-.71 8.55-1.02 3.67-11.2 7.84v3.67l1.42 2.24-1.22 5.8 2.24 6.12-1.52 2.44 3.25 6.62-1.01 2.24-3.67.92-2.65 9.37-4.17 7.74-.72 6.92-1.73 2.45 1.73 7.74 1.22 2.04-1.52 1.93-1.43 1.43-.51 5.6-.2 1.53-1.53 1.93 1.22 6.32 2.45 2.03v2.45l4.38 8.55v2.65l2.44 1.02.31 8.05.71 2.13-3.46 7.65-.21 3.66-1.22 1.43 1.73 3.97.92 5.3-2.44 4.17-2.14 1.53-.51 3.36 1.22 7.84.2 1.02 2.96 8.96 1.22 2.04-.71 1.94-3.16 3.15h-.58l-1.34 6.99-.02.82.47 2.55-.77 6.38.23 4.6.98 2.31 1.66 1.24.35.68.26 1.92-.04.68-.5 1.25-1.52 2.05-.65 3.26.72 5.38.66.9.78.54.2.57.42 4.09.24.79 1.28 1.44.7 2.18-.23 4.49.23.75h1.38l2.67.68 1.5 1.19.34 1.29-.25 1.29-2.44.11-2.89-.33-.63.33.88 1.54 2.54.86 2.15 1.72.21 1.51-.88.64-.57.72-.1 1.4.51 3.84-.16.75.24 1.8.4 1.04.45 5.27-.67 2.19-.94 2.08-.1 1.36-1.41 2.58-2.26 2.48-.41 1.01-.16.71.15 2.08.3 1.29.64.72.62 1.54v1.22l-.5.29-.17.61-.17 2.83-.43 1.8-.33.61-1.8 1.9-1.93 3.69-.77.51-.76 1.47-.78 4.23.23 1.68-.12 1.26.55 4.09.32.29.68 1.94.66.86.56.18.74-.47.43-.86 1.41-.68 3.58.46.71-.86 1.12.18.3.4.86 2.33.43 2 .83 7.43.25.65 1.43 1.61.88.65 2.69.75h10.2l.87.29h.93l3.53-.11 3.21-.36 2.06.07 4.74 1.04 5.95.75 2.86 1.05.97.1.12.43-.65.15-2.16-.36h-2.01l-2.56-1-1.45-.08-2.45.83-.31 1-.66.83-2.95.39-2.84 1.22-.82.57-1.4.33-1.23-.14-1.18.5-1.62.32.37 2.8-.8 3.06.24 4.17-.23.96-.43.79-.49.4-1.02.07-2.74-.68-1.58-.07-3.8-1.19-2.18-1.25-1.06-1.19-.03-1.25 1.46-.54.57.9-.13.75 1.5-.54.56-.79 1.02-.75 2.27-.23 2.02-.9 1.2-.83.71-1.43.1-.9-2.12-.82-1.23-1.06-1.21-1.38-1.94-.36-4.1-.11-2.37.68-1 .68-.11-.82-.44-.68-2.6.39-.1-.75.37-.54 2-.86.48-1.22-.4-1.5-2.13-1.62 1.51-.4.03-.75-.37-1.07-1.65-1.33-2.87-1.69-2.22-.79-.9-.07 6.04 2.94.04.94-.96.21-1.54-.46-1.57-1.01-.43.18 1.37 1.83-.52 1.15-.92.54-.62-.62-.71-1-.48-1.15-1.36-1.79 1.38 1.94.47 1.79-.02 1.54-1.01-.1-.94-.36-.87-1.47-.09-3.09-1.64-2.47-4.91-3.45-.77-1.5.32-.94h2.11l1.73-.46-.33-1.51-.71-.32-.43.9h-.99l-1.09-.72-1.08-1.37.44-.78 2.17.46-.38-.46-1.13-.87-2.37-.25-1.29-.53-1.34-.97-1.07-1.29 2.21-1.91-.07-2.18.38-.47-.11-.83 2.57-1.36 1.16.32h.77l-.05-.39-1.15-.43-.55-.79 1.02-3.84-.73.25-1.52 1.08-.16 1.22-.72 1.29-1.05-.4-.48-1-.48-1.94-.57-4.2.58-.71.78.07-1.35-1 .24-1.55 2.85-.17 2.04 1.14-.69-1.07-.66-1.65-.69.57-3.68.75-.64-.5-.62-1.33-.9-.97-.38-2.86 1.47.25 1.2 1.36.82 1.33-.49-2.01.61-.43 3.98.61 3.1 1.65 1.21-.07-2.45-1.08-1.5-1.94-.79-1.83-.66-.86-.32.93-2.35-.07-.99-.75v-.68l1.23-.83-1.61-.36-2.47-1-.6-.43.81-1.36 1.77-.83 1.52-.36-1.47-1 1.61-1.29-.59-.4-.71-.97-1.47-1-1.31-.68-1.43.07-.87.86-.96.25-2.82-1-1.12-.97-1.21-.68-1.49.61-.98.75.82.43.6 1.11-.28 1.3-1.92-.26-.52-1.29.41-2.91 1.36-.6 1.3-1.04 1.22-1.62 1.45-.18 1.57-.68-.14-1.04-.61-.25-.96.25-.72-.36-.54-.68-.26-1.22 3.17-.43 1.57.25.87.54 1.21-.79 1.19.5 1.07.61-.18 1.04.21.86.8-.68.26.97-.97 1.11-.34.79 1.04 1.11 1.24.18.71-1.4.87-.86.25.86-.15 1.55.12.86.86-.25.08-1.04.6-.58 1.18-.97 1.06-.43-.08-.61.3-1.11.67-1.65-.04-1.04-.81.43-.56.79-.24.86-1.06 1.9-.06-3.55.36-.68.33-.18 2.28-.36-1.61-.36-.08-.61.79-.75 1.28-.47-.08-.61-1.33.11-2.12.86.03-1.47.56-.79.9-.72.77-.18 1.66.9 1 .46.9.4 1.1-.18-.27-1.04h-1.21l-2.72-1.22-1.69-.18.12-1.5-.13-.97.84-.43 1.89.07 1.52-.36 1.67-1.58.24-.89-.36-2.66-.81-1.08-1.06-.25-2.33-1.61-1.37-.47-.66-.61.36-.71 1.1-.83.21-1.07.53-1.08.87-.9-.56-.79.19-1-1.18-.72-.27-1 .09-1.01.36-.64.89-.79.65-2.76-1-3.2 1.22-1.65 1.38.29-1.11-.86-1.18-1.47.57-1.47 1.47.28 1.18 2.12-.23-1.76-.75-3.23h-1.57l-1.64-.57.37-1.47 1.62-1.04 1.09-.27.99-.91-1.61.34h-1.03l-1.14-.47-1.41-1.2-1.68-.13-1.05.58-.07 1.13-.77.66-2.26.56-2.68-.95.09-.94-.69-.91-.91-.31-.72-1.11-.46-1.79-.19-2.33.05-3.7.63-1.97-.76-7.35 1.65-.8.23-.93.77-.97.4-1.76-.13-.63h-.87z"/><path class="cls-4" d="M-11.78-41.62l3.53 1.57 2.14 5.09 2.75.81 1.73 5.3 3.16 1.22 3.16-.71 2.95.71 5.6-3.16 5.91 1.73 3.87-1.93 9.98 5.4-6.11 10.49v1.93l4.18.21 3.46 4.17-1.02 1.73-2.95-1.93-5.3.51-1.53 2.44-10.49 2.65-11 8.05-.2 4.17-2.75 5.6.51 5.91-6.11 4.59-.08 2.24-.13 3.66-2.03 1.02-.41 2.14 3.36 2.45-.92 1.22 2.45 3.15 3.15 4.18 3.37 3.46 1.01 2.96-1.93 2.64.51.51 8.96.51 3.46 5.81 6.62-.21 8.76-7.12 1.23 1.93-.72 2.75 1.23 12.94 2.44 1.01 3.67-1.73 5.6-.51 10.08 16.1v2.44l-2.24 3.26.51 4.89-1.02 3.36 2.24 7.13-1.02 2.95-3.87 5.3 2.14 4.17-1.22 3.16 1.22 5.2 1.53 3.15 3.16 1.02-1.02 2.65-5.81 8.56.72 4.38-2.96 2.24.31 3.66-3.26 3.16-2.14.51-11.71-7.64-.82-3.16-10.69-6.31-2.96-1.22-7.33-2.45-21.71-10.32-3.07-.41-3.24-3.07-3.58-2.18 1-4.29-1.5-1.21-1.63-2.28-2.1-2.09-.47-.77-.51-2.57.66-1.21.97-.92-.4-2.42-1.28-3.35-2.66-3.04-1.61-3.79-1.98-3.19-2.88-3.82-1.61-4.15-1.18-1.36-1.31-.77-1.04-.92-1.29-3.52-.76-4.74-.46-1.4-3.84-6.13-1.94-5.69-1.26-2.94-2.62-4.94-.49-1.24-.36-2.32-1.28-3.23-6.12-6.02-1.06-2.17-1.94-5.43-1.2-1.55-.44-.14-1.68-2.5-2.96-2.61-1.45-.95-2.68-2.17-1.64-1.54-3.07-2.02-.49-1.1 1.94-2.02.35-1.4-.03-.62-.89-1.25-1.79-1.84-.41-2.82-1.05-1.69-.19-.63-.52-2.97.05-2.17.23-.95 2.59-3.27 2.86-3.27 1.95-1.54 1.51-1.73.04.77.65 2.06.45.44.21 1.73-.83 1.1-1.96.62-.67.92.02.63.61.95.39 2.94.32.48.97-.33 1.53-1.07 1.72.15.9.62.61.92 1.84-.15 1.29.15 1.07 1.73.5 1.39.9 1.54 1.59.19 2.11-.96 1.35-1.54 1.68-.77.29-.33.38-1.54-.05-4.37.32-2.94 2.53-4.08.43-.29.73.62h.43l.69-.48.09-2.01.89-2.03.54-.62 1.28-.95 3.49-1.73 6.88-2.31 2.99-1.4 1.64-1.43 1.75-2.5 1.76-2.02 1.53-1.24 2.3-3.13 2.52-5.14 1.31-3.27h1.55l-1.57-3.74-.17-.96-1.11-2.49-.46-.63-.89-.47.1-1.73h2.15l.38-.44h.74l2.02.77 1.72.29 1.04.63 1.07 1.72.88.81 1.88.92.99 2.83 1.08 1.87 1.24.77v1.11z"/></g><circle cx="80" cy="80" r="78.5" fill="url(#_10_dpi_10_2)"/><g clip-path="url(#clip-path-4)"><path class="cls-10" d="M276.77 1095.46a.44.44 0 01-.43-.32l-2.61-8.91a.61.61 0 010-.19l1.09-6.74a.52.52 0 01.1-.23l3.66-4.08 1.33-2.86-3.83-2.81-.11-.11-8.83-12.93-9.22-4.08a.52.52 0 01-.18-.15l-6.22-8.36-9.22-3.65a.42.42 0 01-.16-.11l-11.19-11.61-.76.76-5.67 5.23a.42.42 0 01-.3.12.46.46 0 01-.23-.06l-2.6-1.52a.45.45 0 01-.23-.39v-4.62l-8.34-10.26-4.07-3-8.53-4.55-4.32 5.55a.46.46 0 01-.35.17h-.09l-7.93-1.63a.45.45 0 01-.33-.28.47.47 0 01.06-.43l6.41-8.36 13-16 .85-3.17a.51.51 0 01.09-.18l15.64-18.24a.46.46 0 01.29-.15l4.07-.42 1.86-4.94a.41.41 0 01.14-.2l18.9-15.2 7.23-3.74 12.42-8.15 2.55-8 .26-13.53-4.31-11.71-4.52-2.46-7.71.43a.46.46 0 01-.23-.06l-2.6-1.52a.46.46 0 01-.22-.47l3-16.08 3.24-11-.64-3.36v-7.65l-6.74-4.09-11.73 5.12a.58.58 0 01-.18 0 .41.41 0 01-.16 0l-5.22-2a.43.43 0 01-.25-.23l-1.73-3.7-2.63-9-1.54-13.05-5.08-14.23-6.44-.41a.52.52 0 01-.23-.08l-6.49-4.58-6 4a.45.45 0 01-.25.07l-10.45-.43h-.1l-11.78-3.22-3.57 1.58a.46.46 0 01-.2 0 .49.49 0 01-.21 0l-2.61-1.74a.45.45 0 01-.2-.39l1.08-31.14-4.71-7.7a.49.49 0 01-.06-.17l-2-13a.55.55 0 010-.18l1.14-4.11 2.33-8.27 8.42-34.36-6.59-13.62-11.37-5.15a.44.44 0 01-.24-.26l-3.68-11.07a.41.41 0 010-.29l2.14-6.24.41-6.63-40.14.43a.46.46 0 01-.23-.06l-3.26-2a.44.44 0 01-.22-.36l-.86-16.58-7.72-8.78a.46.46 0 010-.6l3.32-3.54-.82-4.33a.44.44 0 010-.2l1.89-6.77-4-7a.46.46 0 010-.41l2.46-5.55-10.1-8-7.65-3-16.66 1.52a.42.42 0 01-.33-.16l-8.81-9.87-8.08-1.06a.43.43 0 01-.16 0l-10.42-5.65a.4.4 0 01-.12-.1l-3.57-4h-2.82l-2.53.43h-.07a.5.5 0 01-.26-.08l-6.59-4.46-12.49 1.5h-.08l-5.66-1.09a.45.45 0 01-.29-.21L9.1 573l-5.47-1.47a.41.41 0 01-.15-.07l-8.92-6.74a.45.45 0 01-.14-.19l-6.72-16.28a.42.42 0 010-.31l1.46-4.42-3.64-9.84a.45.45 0 010-.28l3-10.32-1.52-8.59-2.12-1.24-3.88 3.88a.48.48 0 01-.32.13h-15.91l-4 2.28-14.17 8.1-12.94 8.83-2.55 3.63a.42.42 0 01-.35.19l-7.6.43-5.74 7.65a.49.49 0 01-.18.14l-9.35 4.12a.39.39 0 01-.18 0 .48.48 0 01-.3-.11l-2.91-2.5-16.13-.43-11.81 1.09-7.75 3.65a.43.43 0 01-.19 0h-.18l-5.21-2.17a.45.45 0 01-.28-.37l-2.6-27.59a.43.43 0 010-.16l1.47-5.67-2.23-3.54-18.29 14.88a.43.43 0 01-.27.1l-14.13.44a.47.47 0 01-.39-.22l-7.26-12.17-18.87-1.07a.51.51 0 01-.29-.13l-1.09-1.1a.45.45 0 010-.58l4-5.45-2-6-7.11-7.32-6.77-8.95-5.21-6.73a.45.45 0 010-.55l1.68-2.24-6.79-4.94a.47.47 0 01-.18-.45l.87-4.56a.49.49 0 01.24-.32l4.1-2 .26-7.41a.41.41 0 010-.22.14.14 0 010-.06l.15-4.64a.47.47 0 01.18-.35l12.84-9.62-1.06-12.35a.41.41 0 010-.24l5.82-11.87.43-8.81a.47.47 0 01.19-.34l23.45-17.17.16-.07 22.19-5.59 3.17-5.07a.49.49 0 01.34-.21l11.33-1.08a.43.43 0 01.25.07l5.9 3.86 1.93-3.27L-127 374l8.22-68.18-4.68-7a.44.44 0 01-.08-.25v-7.19l-10.7-9.18a.5.5 0 01-.16-.34l-.43-18.25a.43.43 0 01.27-.42l10.85-4.78a.39.39 0 01.18 0h.09l7.48 1.45 1.28-2.54-2.42-5.23-6.9-1.09-5.91-1.53a.46.46 0 01-.34-.45l.65-14.12a.45.45 0 01.44-.43l31.16-1.11 5.35-1.92-.37-.37a.45.45 0 01-.09-.48l1.52-3.69a.44.44 0 01.41-.28h2.61a.43.43 0 01.26.09l6 4.34 11-9.54a.46.46 0 01.3-.11.43.43 0 01.31.16l2.18 2.6.08.12 7.67 19.84 3.32-.78h.1a.55.55 0 01.25.07l16.52 10.75 6.52-2.53 6.65-4.09a.55.55 0 01.24-.07h.17l2.18.44a.45.45 0 01.36.48l-.62 6.4 2 .84 8.62-9 1.07-3a.4.4 0 01.25-.26l10.35-4.32 6.25-5.16a.48.48 0 01.29-.11.46.46 0 01.27.09l3.11 2.33 4.87-6.7.63-4.67a.45.45 0 01.22-.32l15.47-9.25.91-3.43-14.68-1.48a.46.46 0 01-.38-.3L12 203.76l-2.62-8.93-2.56-5.13a.43.43 0 010-.25L7.4 184l-11.8-12.44a.41.41 0 01-.07-.11l-1.1-2.18a.46.46 0 010-.38.42.42 0 01.29-.25l3.05-.86h.13a.44.44 0 01.25.08L.2 169.3H9a.46.46 0 01.35.17l4 5.05 11.58.43 3.57-2.53a.42.42 0 01.26-.08.44.44 0 01.27.09l11.69 8.71 3.22-2.27-.64-6.47a.49.49 0 01.26-.46l7.75-3.65 2.54-2.56a.48.48 0 01.32-.13h.12l7.7 2.14 9.34-2.55 4.06-3.62h.08l6.72-3.7a.43.43 0 01.22-.06h.06l2.84.4 13.33-12-1-4.53a.44.44 0 01.07-.35.46.46 0 01.3-.19l10.42-1.52h.07a.45.45 0 01.35.18l4.12 5.21a.44.44 0 01.1.33L112 155.39l4.08 2.85 3 1.08a.45.45 0 01.28.29l3 9.32 1.74 4.78a.46.46 0 01-.1.46l-7.7 8.1.43 8.29a.41.41 0 010 .11l-2.59 13 .41 4.27 5 3.14a.44.44 0 01.21.36l.65 9.57 14.84 12 5 3.35 5.54-.82 8.15-7.3a.49.49 0 01.31-.11l4.66.42 6.17-4a.44.44 0 01.25-.08h6.57l8.13-6.62a.48.48 0 01.29-.1h.09l10.23 2.13 3.53-2.49a.43.43 0 01.26-.09h.09l14.46 3 5.32-1.38-.52-2.06-5.11-5.12a.44.44 0 010-.6l4.78-5.86a.43.43 0 01.35-.17h6.73l16.63-3.48h.09a.44.44 0 01.29.11l6.62 5.56 6.16.42a.43.43 0 01.24.1L256 212l7.57-1.68 4.71-2.57a.43.43 0 01.22-.06h.14l5.1 1.69 5.53-1.06h.08a.47.47 0 01.28.09l4.6 3.57 6.41-1.66 6.16-5.94 14.09-26.66 7.17-9.35 2.15-5.16 2.62-5.25a.49.49 0 01.32-.24h.09a.44.44 0 01.3.12l8.25 7.38a.43.43 0 01.14.23l9.34 38 3.23 7.08 1.5 4.73 3.55 3.56 11.45 5.23a.47.47 0 01.23.21l3 6.3a.46.46 0 01.05.23l-.44 6.73a.45.45 0 01-.12.28l-11.51 12-7.36 9.94a.64.64 0 01-.15.13l-13.19 7 .41 5.57a.46.46 0 01-.16.38l-6.69 5.61-2.07 2.93-2.58 7.33a.52.52 0 01-.14.19l-4.56 3.7-5.17 5.6a.57.57 0 01-.18.12l-15 5.27 8.62 1.25a.44.44 0 01.38.45v10.26l3.12 3.93-1-12.2a.47.47 0 01.24-.44l20-10.43 9.27-7.13a.47.47 0 01.28-.09l3.75.44a.44.44 0 01.39.39l.87 7.74 2.56 5.15a.45.45 0 010 .3l-1.52 6.73a.45.45 0 01-.39.35l-5.72.59 1.46 3.82 3 .93 4.59-4.38a.46.46 0 01.31-.13.39.39 0 01.23.07l2.49 1.47h5l6.66-2.59a.45.45 0 01.16 0 .47.47 0 01.26.08l3.69 2.62 2 1.79 7.55-3.37a.58.58 0 01.18 0 .43.43 0 01.32.14l2 2a.46.46 0 01.12.4l-1.09 6.29a.35.35 0 01-.06.14l-5.56 9.87.32 3.05 1.88-1.89 8.87-17.74a.44.44 0 01.12-.15l13.7-10.87a.48.48 0 01.28-.1h.1l4.24 1 .83-1.33-.42-2.88a.5.5 0 01.09-.33l8.69-11.95a.37.37 0 01.18-.14l11.51-5.21a.58.58 0 01.19 0h.15l5.05 1.88 4-1.46a.39.39 0 01.15 0 .47.47 0 01.17 0l12.16 4.78a.35.35 0 01.13.08l5.08 4.35 6.53-.83h.06a.46.46 0 01.34.16l4.47 5.1 5.09 1.48 6.31 2 3.58 1.68 2-.59a.27.27 0 01.13 0 .44.44 0 01.41.28l.87 2.17 1 4.93h1.58l2.48-3.09a.46.46 0 01.35-.17.34.34 0 01.14 0l8.25 2.61a.53.53 0 01.2.13l6.29 6.95a.48.48 0 01.11.35l-.44 4.12a.5.5 0 01-.09.23l-2.6 3.31 3.78-.34a.43.43 0 01.35.17l1.52 2a.44.44 0 010 .53l-4.03 5.72-2 6.76 2.29 1.34a.45.45 0 01.2.23l.65 1.74a.47.47 0 010 .35l-2 4.22.89.63 7.55-8a.48.48 0 01.23-.13l4.66-1.05 5.13-4.7a.38.38 0 01.23-.11l9.15-1.49 2.49-3.55a.47.47 0 01.37-.19.51.51 0 01.17 0l23 8.92 8.14 4.06 5.48-1.47a.25.25 0 01.12 0 .43.43 0 01.4.25l1 2 7.6 1.46 5.81 1.52 24.94-2.17a.37.37 0 01.18 0l21.29 9.56a.21.21 0 01.1.06l32.79 26.07 11.53 13 4.05 2.5 11.09 6.82 12.89 4.49 18.18.64a.49.49 0 01.3.14l6.72 6.73a.42.42 0 01.13.22l5.83 26.8 4.16 18.59a.37.37 0 010 .18L729.21 468l-.43 12.31a.47.47 0 010 .17l-8.47 18.25-3.67 10a.36.36 0 01-.11.16l-31.29 30.2-14.55 10-7.74 9.67-6.28 14.5a.39.39 0 01-.06.11l-16.51 20a.43.43 0 01-.3.16l-3.73.44a.43.43 0 01-.42-.29l-2.55-6.56-.94-.4-3 6.48-.43 5.14a.43.43 0 01-.1.24l-6.15 7.64 1.45 5a.45.45 0 010 .28l-2.55 7 1.49 6.61a.55.55 0 010 .22l-3 11 .43 25.95 1.73 6.68a.46.46 0 010 .26l-10.41 30.11.44 14a.43.43 0 01-.15.34l-12.48 11.4-3 18.53-2.61 15.21a.4.4 0 01-.09.2l-13.41 17.08-1.71 6.22a.56.56 0 01-.11.2l-11.89 11.88-1 2.49-4.18 10.8v9.91a.46.46 0 01-.25.41L540 828.38l-2.11 8a.47.47 0 01-.39.34L518.13 839l-4.65-.44a.42.42 0 01-.32-.19l-3.51-4.94-2 .67-.4 3.42a.47.47 0 01-.32.37l-4.78 1.52a.3.3 0 01-.13 0 .47.47 0 01-.17 0l-7.23-3-7.62 2.51h-.14a.46.46 0 01-.23-.06l-4.36-2.49-5.52 2.45-.65 1.14 2.44 3.46a.47.47 0 010 .53l-1.08 1.51a.44.44 0 01-.37.19h-3.58l-15 8.36-1.95 2.99a.45.45 0 01-.38.21h-.05l-8.78-1.07-18.52 8.4-27.1 20.83-4.08 3.43-3.23 4.29a.44.44 0 01-.33.18l-6.24.43-4 1.48-.66.65 4.81 3.81a.45.45 0 01.15.48L384.72 912a.42.42 0 01-.09.16l-3.52 4.16 1.87 5.83a.39.39 0 010 .14v20a.36.36 0 010 .11l-1.98 7.84-1 16.43a.44.44 0 01-.1.26l-2.93 3.57v2.44a.46.46 0 01-.17.35l-18.83 15.58-8.86 15.58-9.76 20.39a.36.36 0 01-.07.1l-17.15 19.76-14.15 10.89-8.88 11.41-5.62 13.63a.38.38 0 01-.09.13l-13 13.91a.44.44 0 01-.24.13l-3.26.65z"/><path d="M108.44 140l4.12 5.22-1.08 10.42 4.34 3 3.05 1.09 3 9.33 1.74 4.79-7.83 8.24.44 8.48-2.6 13 .43 4.55 5.2 3.27.66 9.77 15 12.16 5.22 3.47L146 236l8.26-7.38 4.78.44 6.3-4.14h6.73l8.25-6.72 10.42 2.17 3.7-2.6 14.56 3 5.86-1.52-.66-2.61-5.2-5.2 4.78-5.87h6.73l16.72-3.48 6.74 5.65 6.3.43 5.64 4.35 7.83-1.74 4.77-2.61 5.21 1.73 5.64-1.08 4.78 3.7 6.74-1.74 6.3-6.08L311.3 178l7.18-9.33 2.16-5.22 2.62-5.22 8.25 7.39 9.34 38 3.26 7.16 1.52 4.78 3.68 3.69 11.52 5.21 3 6.3-.44 6.73-11.5 11.95-7.4 10-13.46 7.17.44 5.86-6.73 5.66-2.18 3-2.56 7.41-4.55 3.69-5.22 5.64-16.73 5.88 10.43 1.52v10.42l4.14 5.22-1.07-13.69 20-10.43 9.34-7.17 3.7.43.87 7.82 2.6 5.22-1.52 6.73-6.3.65 1.74 4.57 3.48 1.08 4.78-4.57 2.6 1.54h5.22l6.73-2.62 3.69 2.62 2.18 2 7.81-3.49 2 2-1.1 6.29-5.64 10 .44 4.13 2.6-2.62 8.9-17.8 13.7-10.87 4.55 1.1 1.09-1.74-.44-3 8.69-12 11.52-5.21 5.2 1.94 4.13-1.51 12.07 4.69 5.21 4.55 6.74-.86 4.56 5.21 5.21 1.52 6.3 2 3.69 1.73 2.18-.64.87 2.16 1.08 5.22h2.17l2.61-3.26 8.25 2.61 6.29 6.95-.43 4.12-3.25 4.13 4.78-.43 1.52 1.95-4.14 5.87-2.16 7.17 2.6 1.52.65 1.74-2.17 4.56 1.52 1.08 7.82-8.26 4.78-1.08 5.21-4.78 9.34-1.52 2.6-3.7 23 8.92 8.26 4.12 5.65-1.52 1.08 2.18 7.82 1.5 5.87 1.54 25-2.18 21.29 9.56 32.79 26.07 11.52 13 4.1 2.54 11.1 6.81 13 4.56 18.25.64L721 411l5.83 26.8 4.16 18.59-2.23 11.61-.43 12.37-8.47 18.25-3.68 10L689 534.81l-4.1 4-14.55 10-7.82 9.78-6.3 14.55-16.51 20-3.68.44-2.62-6.74-1.52-.64-3.24 6.94-.44 5.22-6.3 7.82 1.52 5.21-2.6 7.16 1.52 6.74-3.05 11.08.43 26.07 1.74 6.73-10.48 30.1.44 14.12-12.6 11.5-3 18.69-2.6 15.2-13.47 17.16-1.73 6.3-11.95 12-1 2.57-4.21 10.89v10l-21.29 10.42-2.17 8.26-19.33 2.18-4.56-.44-3.69-5.22-2.61.88-.43 3.69-4.8 1.46-7.38-3-7.82 2.6-4.56-2.6-5.86 2.6-.87 1.52 2.6 3.69-1.11 1.49h-3.69l-15.2 8.47-2 3-8.9-1.09-18.69 8.47L401.45 885l-4.13 3.48-3.26 4.33-6.3.44-4.12 1.53-1.09 1.08 5.21 4.12-2.53 8.68-1 3.27-3.68 4.35 1.95 6.07v20l-1.95 7.82-1.1 16.51-3 3.7v2.6l-18.9 15.64-8.9 15.65-9.78 20.41-17.15 19.76-14.13 10.87-8.9 11.5-5.64 13.69-13 13.9-3.26.65-2.6-8.9 1.08-6.74 3.7-4.13 1.52-3.25-4.14-3-8.9-13-9.33-4.14-6.3-8.46-9.34-3.7-11.52-11.94-1.08 1.08-5.65 5.22-2.6-1.52v-4.78l-8.48-10.43-4.12-3-8.92-4.77-4.55 5.85-7.93-1.62 6.41-8.36 13-16.07.87-3.26 15.64-18.24 4.34-.45 2-5.21 18.9-15.2 7.16-3.69 12.6-8.26 2.61-8.25.26-13.68L267 901l-4.78-2.6-7.82.44-2.6-1.52 3-16.07 3.27-11.08-.67-3.48v-7.82l-7.15-4.34-11.95 5.22-5.22-2-1.73-3.7-2.6-8.9-1.54-13-5.21-14.51-6.73-.43-6.74-4.78-6.3 4.13-10.43-.43-11.94-3.27-3.69 1.75-2.61-1.75 1.08-31.27-4.78-7.82-1.94-13 1.15-4.11 2.32-8.27 8.47-34.53-6.74-13.91-11.51-5.22-3.61-11.09 2.17-6.3.43-7.17-40.6.43-3.26-2-.87-16.74L108 643l3.48-3.69-.86-4.56 1.94-7-4.12-7.17 2.6-5.86-10.42-8.26-7.82-3L76.08 605l-8.91-10-8.26-1.09-10.42-5.65-3.69-4.12h-3l-2.6.44-6.78-4.58-12.6 1.52-5.65-1.1-4.78-7.81-5.64-1.52-8.91-6.74-6.73-16.28 1.52-4.57-3.7-10 3-10.42-1.52-8.91-2.6-1.52-4.13 4.12h-16.03l-4.07 2.34-14.17 8.09-13 8.91-2.6 3.69-7.82.44-5.86 7.82-9.35 4.12-3-2.6-16.28-.44-12 1.1-7.81 3.68-5.22-2.16-2.6-27.59 1.52-5.87-2.6-4.13-18.69 15.2-14.12.44-7.38-12.38-19.11-1.08-1.09-1.1 4.12-5.64-2.16-6.3-7.17-7.38-6.74-8.91-5.21-6.74 2-2.6-7.24-5.18.87-4.55 4.34-2.17.27-7.79h-.05.05l.16-4.78 13-9.77-1.09-12.6 5.87-11.95.43-8.9 23.46-17.17 22.37-5.64 3.26-5.22 11.29-1.08 6.3 4.12 2.17-3.68 3.7-7.18 8.25-68.42-4.78-7.16v-7.39l-10.87-9.36-.43-18.25 10.85-4.78 7.82 1.52 1.53-3-2.61-5.65-7.17-1.08-5.86-1.52.64-14.12 31.29-1.08 6.07-2.18-.85-.87 1.51-3.69h2.61l6.3 4.56 11.3-9.81 2.18 2.6 7.81 20.2 3.7-.87 16.72 10.87 6.74-2.61 6.72-4.12 2.18.43-.65 6.72 2.6 1.1 8.9-9.34 1.1-3.05 10.42-4.34 6.3-5.21 3.47 2.6 5.22-7.17.65-4.78 15.63-9.33 1.09-4.12-15.2-1.54-2.17-6.28-2.59-8.92-2.6-5.2.65-5.65-11.94-12.6-1.09-2.18 3.05-.86 2.16 1.52H9l4.09 5.27 11.94.43 3.69-2.61 12 8.91 3.69-2.61-.66-6.74 7.82-3.68 2.6-2.62 7.83 2.13 9.56-2.61 4.14-3.69 6.72-3.7 3 .44 13.68-12.38-1.1-4.78 10.44-1.49m0-.9h-.13l-10.42 1.5a.92.92 0 00-.61.38.86.86 0 00-.14.71l1 4.27-13 11.74-2.63-.38h-.13a1 1 0 00-.44.11l-6.72 3.7a.61.61 0 00-.16.12l-4 3.54-9.06 2.49-7.58-2.12a1 1 0 00-.24 0 .9.9 0 00-.64.27L51 167.9l-7.67 3.62a.88.88 0 00-.51.9l.61 6.21-2.74 1.94L29.26 172a1 1 0 00-.54-.17.91.91 0 00-.52.16l-3.45 2.44-11.21-.41-3.87-4.89a.88.88 0 00-.7-.34H.34l-1.94-1.36a.93.93 0 00-.51-.16 1 1 0 00-.25 0l-3.05.86a.89.89 0 00-.58.51.88.88 0 000 .76l1.1 2.18a1.07 1.07 0 00.15.22l11.67 12.36-.6 5.24a.86.86 0 00.09.5L9 195l2.6 8.84 2.17 6.33a.93.93 0 00.77.6l14.15 1.43L28 215l-15.33 9.15a.92.92 0 00-.43.65l-.61 4.56L7 235.58l-2.74-2.06a.9.9 0 00-.54-.18.87.87 0 00-.57.21L-3 238.67-13.32 243a.93.93 0 00-.5.53l-1 2.87-8.34 8.75-1.42-.6.59-6.06a.91.91 0 00-.72-1l-2.18-.44h-.18a.86.86 0 00-.47.14l-6.65 4.08-6.23 2.41L-56.79 243a.84.84 0 00-.49-.15h-.2l-2.94.7-7.53-19.48a1 1 0 00-.15-.25l-2.18-2.6a.9.9 0 00-.62-.32h-.1a.9.9 0 00-.59.22l-10.75 9.31-5.66-4.09a.87.87 0 00-.52-.17h-2.61a.9.9 0 00-.83.56l-1.52 3.68a.92.92 0 00.08.84l-4.63 1.66-31.19 1.09a.9.9 0 00-.87.86l-.64 14.12a.9.9 0 00.67.91l5.86 1.52h.09l6.7 1 2.22 4.82-1 2-7.15-1.39h-.18a.94.94 0 00-.36.08l-10.85 4.78a.88.88 0 00-.54.84l.43 18.26a.91.91 0 00.32.66l10.54 9.05v7a.89.89 0 00.15.5l4.6 6.88-8.2 67.94-3.62 7-1.66 2.83-5.51-3.6a.89.89 0 00-.5-.15h-.08l-11.31 1.09a.88.88 0 00-.68.42l-3.07 4.9-22 5.55a.89.89 0 00-.31.15l-23.46 17.17a.92.92 0 00-.37.68l-.42 8.72-5.78 11.78a.8.8 0 00-.09.48l1 12.1-12.64 9.47a.9.9 0 00-.36.69l-.15 4.48v.12a1 1 0 000 .49l-.25 7-3.85 1.93a.9.9 0 00-.48.64l-.87 4.55a.89.89 0 00.35.9l6.42 4.68-1.4 1.87a.89.89 0 000 1.09l5.22 6.74 6.73 8.9.07.09 7 7.24 1.95 5.66-3.84 5.26a.91.91 0 00.08 1.17l1.09 1.09a.86.86 0 00.59.27l18.63 1.05 7.14 12a.89.89 0 00.77.44l14.12-.44a.92.92 0 00.54-.2l17.89-14.56 1.86 2.94L-140 524a.82.82 0 000 .31l2.6 27.59a.92.92 0 00.55.75l5.22 2.16a.84.84 0 00.35.07 1 1 0 00.38-.08l7.68-3.62 11.74-1.08 15.91.43 2.79 2.39a.88.88 0 00.59.22.94.94 0 00.36-.08l9.35-4.12a.9.9 0 00.36-.28l5.61-7.48 7.4-.42a.87.87 0 00.69-.38l2.5-3.56 12.8-8.82 14.12-8.07 3.87-2.22h15.83a.88.88 0 00.63-.26l3.65-3.63 1.64 1 1.41 8.29-3 10.22a.86.86 0 000 .57l3.59 9.68-1.42 4.27a.91.91 0 000 .63l6.8 16.25a.94.94 0 00.29.37l8.92 6.74a.81.81 0 00.31.15l5.29 1.42 4.59 7.51a.9.9 0 00.6.42l5.65 1.09a.5.5 0 00.17 0h.11L32.19 581l6.46 4.36a.86.86 0 00.51.16h.15l2.52-.43h2.56l3.43 3.82a.88.88 0 00.24.19l10.42 5.66a1.19 1.19 0 00.32.1l7.92 1 8.69 9.74a.88.88 0 00.67.31h.08l16.51-1.5 7.5 2.91 9.76 7.74-2.32 5.23a.89.89 0 000 .81l3.93 6.84-1.84 6.59a.94.94 0 000 .41l.78 4.1-3.16 3.37a.89.89 0 000 1.21l7.61 8.66.85 16.42a.91.91 0 00.44.73l3.26 2a.93.93 0 00.46.12l39.65-.42-.37 6.08-2.13 6.18a1 1 0 000 .58l3.7 11.03a.93.93 0 00.49.54l11.21 5.08 6.51 13.31-8.39 34.22-2.32 8.24-1.15 4.1a1 1 0 000 .38l1.94 13a1 1 0 00.12.34l4.64 7.59-1.07 31a.9.9 0 00.4.78l2.61 1.75a.91.91 0 00.5.15.86.86 0 00.39-.09l3.38-1.6L191.6 817h.2l10.43.43a.89.89 0 00.5-.15l5.78-3.79 6.23 4.42a.9.9 0 00.47.17l6.14.4 5 13.89 1.52 12.94v.15l2.6 8.9s0 .08.05.13l1.73 3.69a.92.92 0 00.5.47l5.22 2a.87.87 0 00.32.06.94.94 0 00.36-.08l11.52-5 6.32 3.84v7.31a.88.88 0 000 .17l.62 3.26L254 881a.29.29 0 000 .09l-3 16.07a.9.9 0 00.43.95l2.6 1.52a.93.93 0 00.46.12l7.56-.42 4.26 2.31 4.22 11.48-.26 13.38-2.48 7.82-12.29 8.06-7.12 3.67-.15.1-18.9 15.2a.89.89 0 00-.27.39l-1.76 4.68-3.79.39a.9.9 0 00-.59.31l-15.64 18.24a.92.92 0 00-.19.35l-.82 3.08-12.91 15.92-6.42 8.38a.9.9 0 00.53 1.43l7.92 1.63h.19a.91.91 0 00.71-.34l4.09-5.25 8.18 4.37 4 2.94 8.2 10.09v4.46a.9.9 0 00.45.78l2.6 1.52a.93.93 0 00.46.12.89.89 0 00.61-.24l5.65-5.21.46-.46 10.88 11.28a1 1 0 00.32.21l9.1 3.6 6.14 8.26a.93.93 0 00.36.29l9.1 4 8.76 12.82a1.1 1.1 0 00.21.22l3.54 2.6-1.15 2.46-3.61 4a.9.9 0 00-.22.46l-1.08 6.73a.9.9 0 000 .4l2.6 8.9a.92.92 0 00.87.65h.17l3.27-.64a.93.93 0 00.48-.27l13-13.91a.8.8 0 00.18-.27l5.59-13.57 8.76-11.32 14-10.79.13-.13 17.15-19.76a.72.72 0 00.14-.2l9.75-20.39 8.81-15.47L377 973.63a.88.88 0 00.33-.69v-2.28l2.83-3.45a.85.85 0 00.2-.51l1.09-16.43 1.94-7.74a.78.78 0 000-.22v-20a.86.86 0 000-.27l-1.8-5.6 3.36-4a1 1 0 00.18-.34l1-3.27 2.52-8.68a.92.92 0 00-.3-1l-4.41-3.49.23-.23 3.81-1.41 6.17-.43a.92.92 0 00.66-.36l3.2-4.25 4-3.41 27-20.77 18.36-8.32 8.65 1h.11a.91.91 0 00.76-.42l1.83-2.84 14.8-8.25H477a.91.91 0 00.74-.37l1.08-1.52a.9.9 0 000-1l-2.24-3.08.44-.77 5.18-2.3 4.16 2.38a.89.89 0 00.45.12.92.92 0 00.28 0l7.5-2.49 7.07 2.91a1 1 0 00.35.06.84.84 0 00.27 0l4.78-1.52a.88.88 0 00.62-.75l.37-3.13 1.43-.48 3.31 4.67a.9.9 0 00.65.38l4.55.43h.19l19.34-2.18a.9.9 0 00.77-.66l2.06-7.86 20.92-10.24a.91.91 0 00.5-.81v-9.83l4.15-10.72.94-2.4 11.82-11.82a.86.86 0 00.23-.39l1.68-6.13 13.36-17a1 1 0 00.18-.41l2.6-15.2 3-18.38 12.36-11.29a.89.89 0 00.3-.7l-.43-14 10.38-30a1 1 0 000-.52l-1.72-6.63-.43-25.84 3-10.95a.82.82 0 000-.44l-1.46-6.48 2.52-6.91a.89.89 0 000-.56l-1.38-4.76 6-7.46a1 1 0 00.2-.49l.42-5.05 2.81-6 .37.15 2.48 6.39a.9.9 0 00.84.57h.1l3.69-.43a.92.92 0 00.59-.32l16.51-20a1.59 1.59 0 00.13-.22L663.3 559l7.66-9.58 14.44-9.91a.94.94 0 00.12-.09l4.09-3.95 27.19-26.24a.83.83 0 00.22-.34l3.68-10 8.45-18.22a1.05 1.05 0 00.08-.35l.43-12.3 2.17-11.45a.92.92 0 000-.37l-4.16-18.59-5.83-26.79a.92.92 0 00-.25-.45l-6.72-6.73a.92.92 0 00-.6-.27l-18.12-.64-12.81-4.48-11-6.76-4-2.47-11.44-12.89-.12-.11L624 350a1.18 1.18 0 00-.19-.11l-21.29-9.56a.8.8 0 00-.37-.08h-.08l-24.82 2.17-5.71-1.5h-.06l-7.38-1.42-.88-1.78a.9.9 0 00-1-.47l-5.32 1.43-8-4h-.08l-23-8.92a1 1 0 00-.33-.06.89.89 0 00-.73.39l-2.39 3.38-9 1.46a.88.88 0 00-.46.23l-5 4.62-4.54 1a.91.91 0 00-.46.25l-7.28 7.69-.26-.19 1.84-3.87a.94.94 0 000-.7l-.65-1.75a.88.88 0 00-.39-.46l-2-1.16 1.92-6.35 4.05-5.75a.9.9 0 000-1.07l-1.52-1.95a.88.88 0 00-.71-.35h-.08l-2.7.25 1.95-2.49a.92.92 0 00.19-.47l.44-4.12a.92.92 0 00-.23-.69l-6.29-6.95a.87.87 0 00-.39-.26l-8.26-2.61a.84.84 0 00-.27 0 .9.9 0 00-.7.33L479.2 307h-1l-.93-4.5a.88.88 0 000-.15l-.87-2.17a.9.9 0 00-.83-.56 1.09 1.09 0 00-.26 0l-1.85.55-3.46-1.58h-.11l-6.3-2-5-1.45-4.38-5a.91.91 0 00-.68-.31h-.12l-6.33.81-4.91-4.29a1 1 0 00-.26-.16l-12.17-4.78a.88.88 0 00-.33-.07.85.85 0 00-.31.06l-3.82 1.4-4.84-1.8a.85.85 0 00-.31-.06.91.91 0 00-.37.08l-11.52 5.21a.85.85 0 00-.36.29l-8.69 11.95a.9.9 0 00-.16.66l.39 2.71-.57.91-3.92-.94h-.21a.89.89 0 00-.56.2l-13.7 10.87a.78.78 0 00-.24.3l-8.84 17.67-1.16 1.15-.21-2 5.5-9.75a1 1 0 00.1-.29l1.1-6.28a.91.91 0 00-.25-.79l-2-2a.91.91 0 00-.64-.27.94.94 0 00-.36.08l-7.25 3.3-1.74-1.56-.08-.07-3.69-2.61a.88.88 0 00-.84-.11l-6.58 2.56h-4.8l-2.39-1.41a.87.87 0 00-.46-.13.9.9 0 00-.62.25l-4.4 4.21-2.55-.8-1.17-3.06 5.13-.53a.9.9 0 00.79-.7l1.52-6.73a.94.94 0 00-.07-.6l-2.53-5.08-.86-7.66a.9.9 0 00-.79-.79l-3.7-.44h-.1a.91.91 0 00-.55.18l-9.28 7.08-19.91 10.39a.9.9 0 00-.48.87l.86 10.73-2.1-2.65v-10.1a.9.9 0 00-.77-.89l-6.81-1 13.28-4.67a.88.88 0 00.36-.24l5.18-5.59 4.5-3.66a.83.83 0 00.28-.39l2.56-7.27 2-2.84 6.65-5.58a.89.89 0 00.32-.75l-.39-5.28 12.94-6.9a.93.93 0 00.3-.26l7.36-9.93 11.46-11.91a.9.9 0 00.25-.57l.44-6.73a.87.87 0 00-.09-.45l-3-6.3a.88.88 0 00-.44-.43l-11.36-5.14-3.42-3.42-1.42-4.54v-.1l-3.23-7.08-9.31-37.94a1 1 0 00-.28-.46l-8.25-7.38a.9.9 0 00-.6-.23h-.17a.9.9 0 00-.64.48l-2.68 5.21v.05l-2.12 5.11-7.1 9.24-.08.13-14.05 26.59-6 5.81-6.08 1.58-4.43-3.43a.86.86 0 00-.55-.19h-.17l-5.41 1-5-1.65a.92.92 0 00-.28 0 1 1 0 00-.44.11l-4.65 2.54-7.3 1.63-5.3-4.09a1 1 0 00-.49-.19l-6-.41-6.51-5.46a.89.89 0 00-.58-.22h-.18l-16.63 3.47h-6.64a.9.9 0 00-.7.33l-4.78 5.87a.89.89 0 00.06 1.2l5 5 .38 1.51-4.8 1.24-14.34-3h-.19a.92.92 0 00-.52.17l-3.37 2.37-10-2.08h-.19a.89.89 0 00-.56.2l-8 6.52h-6.41a.89.89 0 00-.5.15l-6 4-4.46-.41h-.08a.91.91 0 00-.61.23l-8 7.2-5.24.78-4.89-3.25L121 220.76l-.64-9.38a.91.91 0 00-.42-.71l-4.82-3-.39-4 2.58-12.9a1.64 1.64 0 000-.22l-.42-8.1 7.57-8a.9.9 0 00.19-.93l-1.74-4.79-3-9.29a.89.89 0 00-.55-.57l-2.94-1.06-3.81-2.66 1-9.9a.9.9 0 00-.18-.65l-4.12-5.21a.93.93 0 00-.71-.35z"/><path class="cls-10" d="M140.15 237.3a.49.49 0 01-.25-.08l-5.21-3.47-15-12.2a.43.43 0 01-.17-.32l-.63-9.54-5-3.13a.45.45 0 01-.21-.34l-.44-4.56a.53.53 0 010-.13l2.6-13-.44-8.42a.46.46 0 01.13-.33l7.63-8.05-1.65-4.52-3-9.14-2.84-1a.33.33 0 01-.1-.06l-4.35-3a.45.45 0 01-.19-.42l1.07-10.24-3.85-4.86-10.17 1.48H98a.47.47 0 01-.32-.12L79 123.57l-1.09-1.09a.48.48 0 01-.13-.32.43.43 0 01.14-.32l6.14-5.94-.61-10.9a.45.45 0 01.3-.45l17.69-6.26 2.82-3.22-.26-1.54-5.5.41a.45.45 0 01-.38-.21l-2-3a.49.49 0 01-.06-.17L95 84.23a.48.48 0 010-.33l3.69-5.64a.46.46 0 01.22-.17l8.13-3.21L116.33 62a.45.45 0 01.37-.19.53.53 0 01.2.05l16.72 8.48.12.08 16.72 16.72a.46.46 0 01.13.39l-1.53 9.77v2.47l6.09-2.94a.45.45 0 01.19 0 .33.33 0 01.15 0l7.39 2.61a.39.39 0 01.16.1l9.29 8.85 7.75 3.66a.43.43 0 01.23.25l3 8.26a.4.4 0 010 .15V128a.34.34 0 010 .1l-3 12.38a.5.5 0 01-.23.3l-6.3 3.25h-.11l-6.53 1.48-2 3.84v8.36a.41.41 0 010 .16l-3 8.12 1 3.91 7.12 9.92a.83.83 0 01.07.13l1 3.48L179 186a.44.44 0 01.26.24l3.05 6.73 2.16 4.56 10.42 20a.43.43 0 01-.14.57l-3.75 2.61a.5.5 0 01-.26.08h-.09l-10.22-2.13-8.09 6.6a.48.48 0 01-.28.1h-6.6l-6.18 4.05a.46.46 0 01-.25.08l-4.63-.43-8.1 7.26a.44.44 0 01-.24.11l-5.86.87z"/><path d="M116.7 62.21l16.72 8.48 16.72 16.72-1.52 9.77v3.26l6.73-3.26 7.39 2.61 9.34 8.9 7.82 3.7 3 8.25V128l-3 12.38-6.3 3.25-6.73 1.53-2.18 4.12v8.47l-3 8.26 1.09 4.12 7.17 10 1.08 3.7 7.82 2.6 3 6.74 2.18 4.56 10.42 20-3.69 2.61-10.43-2.17-8.25 6.73h-6.73l-6.3 4.13-4.78-.44L146 236l-5.86.87-5.21-3.48L120 221.2l-.65-9.77-5.21-3.25-.44-4.57 2.61-13-.44-8.47 7.83-8.25-1.75-4.79-3-9.33-3.05-1.09-4.34-3 1.08-10.42-4.2-5.26L98 141.49l-18.66-18.24-1.09-1.09 6.3-6.08L83.9 105l17.81-6.3 3-3.47-.44-2.17-5.86.43-2-3-1.08-6.3 3.77-5.69 8.26-3.25 9.34-13m0-.9a.92.92 0 00-.74.38l-9.18 12.82-8 3.16a.88.88 0 00-.42.34l-3.7 5.65a.9.9 0 00-.13.64l1.09 6.3a.89.89 0 00.13.34l2 3a.9.9 0 00.76.41h.07l5.06-.38.2 1-2.6 3-17.64 6.14a.89.89 0 00-.6.9l.62 10.67-6 5.79a.92.92 0 000 1.29l1.09 1.08 18.69 18.26a.91.91 0 00.63.25h.13l9.91-1.44 3.57 4.52-1 10.06a.91.91 0 00.38.83l4.35 3a.84.84 0 00.21.11l2.63.94 2.9 8.91 1.56 4.29-7.44 7.85a.91.91 0 00-.25.66l.43 8.36-2.58 12.93a.74.74 0 000 .26l.44 4.56a.91.91 0 00.42.68l4.82 3 .62 9.31a.91.91 0 00.33.64l15 12.17a.18.18 0 00.07.05l5.21 3.48a.91.91 0 00.5.15h.14l5.86-.87a1.07 1.07 0 00.47-.22l8-7.13 4.39.4h.08a.88.88 0 00.49-.15l6.08-4h6.46a.9.9 0 00.57-.2l7.92-6.46 10 2.08h.19a.92.92 0 00.52-.17l3.69-2.6a.89.89 0 00.28-1.15l-10.43-20-2.15-4.53-3-6.72a.87.87 0 00-.53-.48l-7.38-2.46-.95-3.24a.84.84 0 00-.13-.27l-7.07-9.86-1-3.69 2.94-8a.81.81 0 00.06-.31v-8.25l1.87-3.56 6.33-1.43a.54.54 0 00.21-.08l6.3-3.25a.91.91 0 00.46-.59l3-12.38a1.49 1.49 0 000-.21v-7.39a1.12 1.12 0 00-.05-.31l-3-8.25a.89.89 0 00-.46-.51l-7.69-3.63-9.23-8.8a.83.83 0 00-.32-.2l-7.39-2.61a.94.94 0 00-.3 0 .92.92 0 00-.39.09L149.52 99v-1.75l1.51-9.7a.89.89 0 00-.25-.78l-16.72-16.72a1.24 1.24 0 00-.23-.17l-16.73-8.47a.85.85 0 00-.4-.1z"/><path d="M-25.15 259.11a.39.39 0 01-.18 0L-28 258a.47.47 0 01-.28-.48l.61-6.44-1.61-.32-6.7 4.11-6.94 2.69a.47.47 0 01-.17 0 .49.49 0 01-.25-.08l-17-11.05a.49.49 0 01-.21-.4v-5.88l-4.17-10.54-2.65-9.89-9.56-10.43-4.07-1.07-4.68-1.56a.45.45 0 01-.3-.34.46.46 0 01.13-.44l13.16-12.72.38-2.7-4.7-4.71-.06-.08-5.31-8.41a.42.42 0 01-.08-.22l-.43-6.94-2.13-3a.42.42 0 01-.09-.27v-23.44a.5.5 0 01.13-.32l3.23-3.44 1.08-4.74 4.14-9-2-4.31-3.89-2-4.68 1.49-11.56 2.22h-.11l-15.34-.66-5.18 3.25a.55.55 0 01-.25.07h-5.31a.46.46 0 01-.36-.17l-17.33-20.63h-3.54l-13.23-1.54-7.86 2.62h-.22l-6.8-1.1-11.81 1.13a.32.32 0 01-.14 0l-4.87-1.54a.44.44 0 01-.27-.23l-3-5.85-6.28-3.47a.47.47 0 01-.24-.34l-1.11-7.52a.55.55 0 01.07-.33l3.68-5.61-.42-5.67-7.86-8.94a.46.46 0 01-.11-.22l-2.17-10.4-6.47-3.34-5.11 1.92a.51.51 0 01-.17 0 .46.46 0 01-.23-.06l-2.66-1.55a.51.51 0 01-.22-.3.46.46 0 01.07-.36l8.35-12.75 3.74-19.38a.51.51 0 01.07-.17l10.17-15.92a.52.52 0 01.17-.16l7.84-4.35 5.24-10.49a.47.47 0 01.42-.26h2.65a.46.46 0 01.36.17.45.45 0 01.1.38l-1.49 8.36 4.43 3.58 1.48.84a.46.46 0 01.23.35l1.11 9.07-.44 7a.5.5 0 01-.09.24l-11.11 15.25 8.41 16.62 4.93 1.85 7.64-4.45 3-7.23-2.64-9-5.27-9.86a.41.41 0 010-.18l-1.11-12.17a.49.49 0 01.18-.41l9.07-7.08.13-.07 21.8-7.92 4.13-4.13a.47.47 0 01.33-.14h.09l5.07 1.05 2.91-2.92a.47.47 0 01.34-.13.3.3 0 01.13 0l10.13 3.08 14.33 1.1a.52.52 0 01.21.07l8.4 5.31a.48.48 0 01.21.28l3 12.43 5.67 3.69 32.79-4.23h14.88a.49.49 0 01.33.13l8.3 8.3 20.5 3.27 18.45-9 3.85-1.3-2.82-2.11a.45.45 0 01-.18-.47.46.46 0 01.35-.36L16.1 6l37.28-2.65h.06L61 4.46a.47.47 0 010 .92L45.08 9.14l-3.65.43-1.11 1.11 3.88 4.1a.43.43 0 01.11.44L44 16.39l5.38 2.49a.44.44 0 01.24.26l3 8 4.22-2.95a.44.44 0 01.27-.09h6a.47.47 0 01.31.12l3.36 2.94 6.85-1.5h.1a.46.46 0 01.23.06l11.44 6.41 4.8 1.09a.48.48 0 01.23.13L92 34.9a.47.47 0 01.06.58L83 49.77l-1.21 8.4L95.33 56h16.44a.47.47 0 01.31.11l5.31 4.65a.46.46 0 01.08.62L108 74.65a.56.56 0 01-.21.17l-8.27 3.26-3.62 5.47 1.1 6.14 1.79 2.78 5.72-.42a.47.47 0 01.46.38l.45 2.21a.46.46 0 01-.11.4l-3.1 3.54a.5.5 0 01-.19.13L84.17 105l.64 10.93a.45.45 0 01-.14.36l-6.07 5.87.77.76 19 18.58a.59.59 0 01.13.23l1.1 4.87a.44.44 0 01-.14.45l-13.92 12.62a.43.43 0 01-.31.12h-.07l-2.94-.43-6.67 3.64-4.16 3.73a.69.69 0 01-.19.1l-9.74 2.65a.37.37 0 01-.24 0l-7.71-2.13-2.46 2.46-.13.09-7.66 3.62.63 6.53a.48.48 0 01-.19.43l-3.77 2.65a.43.43 0 01-.26.09.48.48 0 01-.28-.1l-11.9-8.86-3.49 2.48a.47.47 0 01-.26.08l-12.19-.44a.46.46 0 01-.34-.18l-4.07-5.13H-1.7A.53.53 0 01-2 171l-2-1.43-2.34.67.82 1.65L6.6 184.66a.48.48 0 01.13.38l-.65 5.61 2.59 5.18 2.69 9.17 2.1 6.11 15.19 1.52a.44.44 0 01.34.2.46.46 0 01.06.38l-1.1 4.2a.51.51 0 01-.21.29L12 227.07l-.63 4.65a.54.54 0 01-.08.21L6 239.23a.51.51 0 01-.31.19H5.6a.47.47 0 01-.28-.09l-3.25-2.43-6.13 5.1a.41.41 0 01-.11.07l-10.43 4.35-1 2.9a.34.34 0 01-.1.16l-9.11 9.52a.48.48 0 01-.34.11z" fill="#f2f2f2" fill-rule="evenodd"/><path d="M-131.32-11.45l10.17 3.1 14.38 1.11 8.4 5.31 3.1 12.6 6 3.76 33-4.2h14.82l8.41 8.41L-12.32 22l18.58-9.11 4.65-1.55-3.54-2.66 8.85-2.21 37.16-2.65 7.52 1.1L45 8.68l-3.76.45-1.54 1.54 4.19 4.43-.43 1.55 5.75 2.65 3.25 8.61 4.71-3.3h6l3.54 3.1 7.08-1.55 11.5 6.41 4.87 1.11 1.55 1.55-9.13 14.37-1.31 9.13 14.14-2.27h16.36l5.32 4.65-9.51 13.27-8.41 3.32-3.76 5.75 1.1 6.41 2 3.1 6-.44.45 2.21-3.1 3.54-18.14 6.41.62 11.32-6.41 6.2 1.11 1.1 19 18.59 1.11 4.86-13.92 12.57-3.1-.44-6.85 3.76-4.2 3.76-9.74 2.65-8-2.21-2.66 2.65-8 3.77.67 6.86-3.76 2.65-12.09-9.07-3.76 2.65-12.17-.44-4.2-5.31H-1.7l-2.21-1.55-3.1.89 1.1 2.21L6.26 185l-.66 5.75L8.26 196l2.65 9.07 2.21 6.41 15.48 1.55-1.1 4.21-15.93 9.51-.66 4.87L5.6 239l-3.54-2.7-6.41 5.31L-15 246l-1.11 3.1-9.07 9.51-2.65-1.11.66-6.85-2.21-.44-6.86 4.2-6.86 2.65-17-11.06v-6l-4.2-10.62-2.7-9.89-9.73-10.62-4.2-1.11-4.65-1.54 13.28-12.83.44-3.1-4.87-4.87L-82 177l-.44-7.07-2.21-3.1v-23.44l3.32-3.54 1.1-4.86 4.2-9.07-2.21-4.65-4.2-2.21-4.86 1.55-11.51 2.21-15.48-.66-5.31 3.32h-5.31l-17.48-20.8h-3.76l-13.27-1.54-8 2.65-6.86-1.11-11.72 1.11-4.87-1.54-3.1-6-6.41-3.54-1.11-7.52 3.77-5.75-.45-6-8-9.06-2.13-10.58-6.86-3.54-5.31 2-2.65-1.55 8.4-12.83 3.72-19.47 10.18-15.93 8-4.43 5.31-10.61h2.65l-1.54 8.63 4.64 3.76 1.55.88 1.11 9.07-.45 6.86-11.28 15.48 8.63 17 5.31 2 8-4.64 3.1-7.52-2.66-9.07-5.35-9.89-1.1-12.17 9.07-7.08 21.9-8 4.2-4.2 5.31 1.1 3.1-3.1m0-.93a1 1 0 00-.67.27l-2.73 2.74-4.82-1h-.19a.92.92 0 00-.66.28l-4.06 4.05-21.7 7.89a1.3 1.3 0 00-.26.14l-9.07 7.08a.94.94 0 00-.35.82l1.1 12.17a.89.89 0 00.11.36l5.26 9.86 2.54 8.67-2.85 6.92-7.33 4.24-4.55-1.7-8.21-16.2 11-15a1.12 1.12 0 00.18-.49l.44-6.86a1 1 0 000-.17l-1.1-9.07a.92.92 0 00-.47-.7l-1.48-.85-4.15-3.36 1.44-8.08a.92.92 0 00-.2-.77.94.94 0 00-.72-.33h-2.65a1 1 0 00-.84.51l-5.22 10.34-7.71 4.28a1 1 0 00-.33.32l-10.18 15.92a1.2 1.2 0 00-.13.33l-3.72 19.29-8.31 12.67a.93.93 0 00-.12.73.93.93 0 00.43.59l2.66 1.55a.88.88 0 00.47.13 1 1 0 00.33-.06l4.92-1.85 6.09 3.14 2.13 10.19a1 1 0 00.22.42l7.75 8.83.4 5.35-3.59 5.49a1 1 0 00-.14.65l1.11 7.52a.92.92 0 00.47.68l6.16 3.4 3 5.73a1 1 0 00.55.46l4.87 1.54a.86.86 0 00.28 0h.09l11.6-1.1 6.74 1.09h.15a.79.79 0 00.3 0l7.76-2.58 13.07 1.52h3.43l17.2 20.46a.92.92 0 00.71.33h5.31a.88.88 0 00.5-.14l5.06-3.16 15.19.65h.18l11.5-2.21h.11l4.49-1.43 3.58 1.89 1.89 4-4 8.67a1.34 1.34 0 00-.07.18l-1 4.62-3.14 3.35a.93.93 0 00-.26.64v23.45a1 1 0 00.18.55l2 2.87.43 6.81a1 1 0 00.14.44l5.31 8.41a1 1 0 00.13.16l4.54 4.54-.33 2.32-13 12.61a1 1 0 00-.26.88.93.93 0 00.62.67l4.64 1.55h.06l3.94 1L-67.8 220l2.6 9.73v.1l4.2 10.41V246a1 1 0 00.42.79l17 11.06a.91.91 0 00.5.15.8.8 0 00.34-.07l6.86-2.65.15-.07 6.55-4 1 .2-.58 6a.94.94 0 00.57 1l2.65 1.11a1.15 1.15 0 00.36.07.94.94 0 00.68-.29l9.07-9.51a.94.94 0 00.2-.33l1-2.71L-4 242.47a.79.79 0 00.23-.14l5.85-4.84 3 2.21a.88.88 0 00.56.19h.14a.91.91 0 00.61-.37l5.31-7.31a.91.91 0 00.17-.42l.61-4.42L28 218.08a.93.93 0 00.42-.57l1.11-4.2a.92.92 0 00-.14-.77 1 1 0 00-.67-.4l-14.89-1.49-2-5.84-2.64-9a.44.44 0 00-.06-.16l-2.53-5.06.63-5.47a1 1 0 00-.25-.75l-12.11-12.76-.54-1.08 1.59-.46 1.85 1.3a.9.9 0 00.53.17h8.62l3.92 5a.94.94 0 00.7.35l12.16.45a.9.9 0 00.53-.17l3.21-2.26 11.63 8.66a.94.94 0 00.56.18.88.88 0 00.53-.17l3.84-2.7a.94.94 0 00.39-.85l-.61-6.21 7.37-3.48a1 1 0 00.26-.18l2.27-2.27 7.41 2.11a.73.73 0 00.25 0 1.07 1.07 0 00.25 0l9.73-2.66a1 1 0 00.38-.21l4.12-3.68 6.49-3.56 2.79.4h.13a1 1 0 00.63-.24l13.94-12.64a.92.92 0 00.28-.9L99 141.64a.88.88 0 00-.26-.46l-19-18.58-.42-.43 5.68-5.53a1 1 0 00.29-.73l-.62-10.58 17.47-6.18a.81.81 0 00.39-.27l3.1-3.53a1 1 0 00.22-.8l-.45-2.22a.94.94 0 00-.92-.75h-.07L99 92l-1.6-2.48-1-5.87 3.4-5.19 8.13-3.21a1 1 0 00.42-.32l9.51-13.28a.94.94 0 00-.15-1.25l-5.31-4.64a.93.93 0 00-.62-.23H95.26L82.37 57.6l1.11-7.66 9-14.21a.94.94 0 00-.13-1.16L90.76 33a.88.88 0 00-.45-.25l-4.74-1.08-11.39-6.33a.89.89 0 00-.45-.12h-.2l-6.62 1.45-3.18-2.78a.94.94 0 00-.62-.24h-6a1 1 0 00-.54.17l-3.72 2.62-2.8-7.44a.94.94 0 00-.48-.52l-5-2.32.22-.78a.93.93 0 00-.22-.9L41 10.69l.67-.67 3.44-.41h.11l15.89-3.78A.93.93 0 0061 4l-7.49-1.11h-.2L16.15 5.54a.45.45 0 00-.16 0L7.14 7.78a.91.91 0 00-.69.72.94.94 0 00.36.93L8.92 11 6 12l-.12.05L-12.46 21l-20.21-3.23-8.19-8.19a.94.94 0 00-.66-.27h-14.94l-32.62 4.15-5.37-3.38-3-12.24a.9.9 0 00-.41-.56L-106.27-8a1 1 0 00-.43-.14L-121-9.28l-10-3.06a.84.84 0 00-.27 0z"/><path class="cls-2" d="M73.54 105.49a2.31 2.31 0 112.31-2.31 2.32 2.32 0 01-2.31 2.31z"/><path d="M73.54 101a2.21 2.21 0 11-2.2 2.21 2.21 2.21 0 012.2-2.21m0-.2a2.41 2.41 0 102.46 2.38 2.41 2.41 0 00-2.42-2.41z"/><path class="cls-2" d="M79.15 119.43a2.31 2.31 0 112.31-2.31 2.31 2.31 0 01-2.31 2.31z"/><path d="M79.15 114.91a2.21 2.21 0 11-2.21 2.21 2.2 2.2 0 012.21-2.21m0-.2a2.41 2.41 0 102.41 2.41 2.42 2.42 0 00-2.41-2.41z"/><path class="cls-2" d="M77 90.85a2.31 2.31 0 112.31-2.31A2.32 2.32 0 0177 90.85z"/><path d="M77 86.33a2.21 2.21 0 11-2.21 2.21A2.21 2.21 0 0177 86.33m0-.2a2.41 2.41 0 102.41 2.41A2.41 2.41 0 0077 86.13z"/><path class="cls-2" d="M66.22 84a2.31 2.31 0 112.31-2.31A2.32 2.32 0 0166.22 84z"/><path d="M66.22 79.49A2.21 2.21 0 1164 81.7a2.21 2.21 0 012.2-2.21m0-.21a2.42 2.42 0 102.41 2.42 2.42 2.42 0 00-2.41-2.42z"/><path class="cls-2" d="M67.81 87.7a2.31 2.31 0 112.31-2.31 2.32 2.32 0 01-2.31 2.31z"/><path d="M67.81 83.18a2.21 2.21 0 11-2.2 2.21 2.21 2.21 0 012.2-2.21m0-.2a2.41 2.41 0 102.42 2.41A2.41 2.41 0 0067.81 83z"/><text class="cls-12" transform="translate(24.17 76.42)">Guasipati</text><text class="cls-12" transform="translate(24.17 92.47)">El Callao</text><text class="cls-12" transform="translate(78.15 83.73)">Tumeremo</text><text class="cls-12" transform="translate(24.17 105.72)">El Dorado</text><text class="cls-12" transform="translate(24.17 122.79)">Las Claritas</text><text transform="translate(23.84 51.93)" font-size="8.79" font-family="OpenSans-SemiBold,Open Sans" font-weight="600">VENEZUELA</text><text transform="translate(98.27 118.82)" fill="#4d4d4d" font-size="8.79" font-family="OpenSans-SemiBold,Open Sans" font-weight="600">GUYANA</text><path class="cls-15" d="M60.45 78.14L64.02 80M61.22 88.54l3.77-1.23M83.57 85.39l-3.19 1.92M66.22 103.18h3.8M73.54 119.32l2.21-1.05"/></g><circle cx="80" cy="80" r="78.5" stroke-width="1.29" stroke="#000" stroke-linecap="round" stroke-linejoin="round" fill="none"/></g></svg>