<?xml version="1.0" encoding="UTF-8" standalone="no"?>
<svg
   xmlns:dc="http://purl.org/dc/elements/1.1/"
   xmlns:cc="http://creativecommons.org/ns#"
   xmlns:rdf="http://www.w3.org/1999/02/22-rdf-syntax-ns#"
   xmlns:svg="http://www.w3.org/2000/svg"
   xmlns="http://www.w3.org/2000/svg"
   xmlns:sodipodi="http://sodipodi.sourceforge.net/DTD/sodipodi-0.dtd"
   xmlns:inkscape="http://www.inkscape.org/namespaces/inkscape"
   sodipodi:docname="minimap-guyana-pt.svg"
   inkscape:version="1.0 (4035a4fb49, 2020-05-01)"
   id="svg3413"
   version="1.1"
   viewBox="0 0 57.185631 57.185982"
   height="57.185982mm"
   width="57.185631mm">
  <defs
     id="defs3407">
    <clipPath
       clipPathUnits="userSpaceOnUse"
       id="clipPath3431">
      <path
         d="M 0,589.304 H 1317.13 V 0 H 0 Z"
         id="path3429" />
    </clipPath>
    <pattern
       patternTransform="matrix(0.237444,0,0,0.237444,-7505.4255,5890.3755)"
       patternUnits="userSpaceOnUse"
       x="0"
       y="0"
       width="28.8003"
       height="28.7998"
       id="pattern3487">
      <g
         transform="translate(28.8003,-0.7197)"
         id="g3437">
        <path
           d="M 0,0 C 0.396,0 0.72,0.323 0.72,0.72 0.72,1.118 0.396,1.439 0,1.439 -0.398,1.439 -0.72,1.118 -0.72,0.72 -0.72,0.323 -0.398,0 0,0"
           style="fill:#f66a32;fill-opacity:1;fill-rule:nonzero;stroke:none"
           id="path3435" />
      </g>
      <g
         transform="translate(14.3999,-0.7197)"
         id="g3441">
        <path
           d="M 0,0 C 0.398,0 0.72,0.323 0.72,0.72 0.72,1.118 0.398,1.439 0,1.439 -0.397,1.439 -0.72,1.118 -0.72,0.72 -0.72,0.323 -0.397,0 0,0"
           style="fill:#f66a32;fill-opacity:1;fill-rule:nonzero;stroke:none"
           id="path3439" />
      </g>
      <g
         transform="translate(28.8003,13.6797)"
         id="g3445">
        <path
           d="M 0,0 C 0.396,0 0.72,0.323 0.72,0.721 0.72,1.119 0.396,1.44 0,1.44 -0.398,1.44 -0.72,1.119 -0.72,0.721 -0.72,0.323 -0.398,0 0,0"
           style="fill:#f66a32;fill-opacity:1;fill-rule:nonzero;stroke:none"
           id="path3443" />
      </g>
      <g
         transform="translate(14.3999,13.6797)"
         id="g3449">
        <path
           d="M 0,0 C 0.398,0 0.72,0.323 0.72,0.721 0.72,1.119 0.398,1.44 0,1.44 -0.397,1.44 -0.72,1.119 -0.72,0.721 -0.72,0.323 -0.397,0 0,0"
           style="fill:#f66a32;fill-opacity:1;fill-rule:nonzero;stroke:none"
           id="path3447" />
      </g>
      <g
         transform="translate(7.2002,6.4805)"
         id="g3453">
        <path
           d="M 0,0 C 0.397,0 0.72,0.322 0.72,0.72 0.72,1.118 0.397,1.439 0,1.439 -0.398,1.439 -0.72,1.118 -0.72,0.72 -0.72,0.322 -0.398,0 0,0"
           style="fill:#f66a32;fill-opacity:1;fill-rule:nonzero;stroke:none"
           id="path3451" />
      </g>
      <g
         transform="translate(21.6001,6.4805)"
         id="g3457">
        <path
           d="M 0,0 C 0.398,0 0.72,0.322 0.72,0.72 0.72,1.118 0.398,1.439 0,1.439 -0.398,1.439 -0.72,1.118 -0.72,0.72 -0.72,0.322 -0.398,0 0,0"
           style="fill:#f66a32;fill-opacity:1;fill-rule:nonzero;stroke:none"
           id="path3455" />
      </g>
      <g
         transform="translate(7.2002,20.8809)"
         id="g3461">
        <path
           d="m 0,0 c 0.397,0 0.72,0.322 0.72,0.719 0,0.398 -0.323,0.72 -0.72,0.72 -0.398,0 -0.72,-0.322 -0.72,-0.72 C -0.72,0.322 -0.398,0 0,0"
           style="fill:#f66a32;fill-opacity:1;fill-rule:nonzero;stroke:none"
           id="path3459" />
      </g>
      <g
         transform="translate(21.6001,20.8809)"
         id="g3465">
        <path
           d="m 0,0 c 0.398,0 0.72,0.322 0.72,0.719 0,0.398 -0.322,0.72 -0.72,0.72 -0.398,0 -0.72,-0.322 -0.72,-0.72 C -0.72,0.322 -0.398,0 0,0"
           style="fill:#f66a32;fill-opacity:1;fill-rule:nonzero;stroke:none"
           id="path3463" />
      </g>
      <g
         transform="translate(0,-0.7197)"
         id="g3469">
        <path
           d="M 0,0 C 0.396,0 0.72,0.323 0.72,0.72 0.72,1.118 0.396,1.439 0,1.439 -0.398,1.439 -0.72,1.118 -0.72,0.72 -0.72,0.323 -0.398,0 0,0"
           style="fill:#f66a32;fill-opacity:1;fill-rule:nonzero;stroke:none"
           id="path3467" />
      </g>
      <g
         transform="translate(0,13.6797)"
         id="g3473">
        <path
           d="M 0,0 C 0.396,0 0.72,0.323 0.72,0.721 0.72,1.119 0.396,1.44 0,1.44 -0.398,1.44 -0.72,1.119 -0.72,0.721 -0.72,0.323 -0.398,0 0,0"
           style="fill:#f66a32;fill-opacity:1;fill-rule:nonzero;stroke:none"
           id="path3471" />
      </g>
      <g
         transform="translate(28.8003,28.0801)"
         id="g3477">
        <path
           d="M 0,0 C 0.396,0 0.72,0.323 0.72,0.72 0.72,1.118 0.396,1.439 0,1.439 -0.398,1.439 -0.72,1.118 -0.72,0.72 -0.72,0.323 -0.398,0 0,0"
           style="fill:#f66a32;fill-opacity:1;fill-rule:nonzero;stroke:none"
           id="path3475" />
      </g>
      <g
         transform="translate(14.3999,28.0801)"
         id="g3481">
        <path
           d="M 0,0 C 0.398,0 0.72,0.323 0.72,0.72 0.72,1.118 0.398,1.439 0,1.439 -0.397,1.439 -0.72,1.118 -0.72,0.72 -0.72,0.323 -0.397,0 0,0"
           style="fill:#f66a32;fill-opacity:1;fill-rule:nonzero;stroke:none"
           id="path3479" />
      </g>
      <g
         transform="translate(0,28.0801)"
         id="g3485">
        <path
           d="M 0,0 C 0.396,0 0.72,0.323 0.72,0.72 0.72,1.118 0.396,1.439 0,1.439 -0.398,1.439 -0.72,1.118 -0.72,0.72 -0.72,0.323 -0.398,0 0,0"
           style="fill:#f66a32;fill-opacity:1;fill-rule:nonzero;stroke:none"
           id="path3483" />
      </g>
    </pattern>
    <clipPath
       clipPathUnits="userSpaceOnUse"
       id="clipPath3497">
      <path
         d="m 86.955,365.339 c 0,-44.397 35.99,-80.388 80.387,-80.388 v 0 c 44.397,0 80.388,35.991 80.388,80.388 v 0 c 0,44.397 -35.991,80.388 -80.388,80.388 v 0 c -44.397,0 -80.387,-35.991 -80.387,-80.388"
         id="path3495" />
    </clipPath>
    <clipPath
       clipPathUnits="userSpaceOnUse"
       id="clipPath3633">
      <path
         d="M 0,589.304 H 1317.13 V 0 H 0 Z"
         id="path3631" />
    </clipPath>
    <clipPath
       clipPathUnits="userSpaceOnUse"
       id="clipPath3657">
      <path
         d="M 0,589.304 H 1317.13 V 0 H 0 Z"
         id="path3655" />
    </clipPath>
    <pattern
       patternTransform="matrix(0.237444,0,0,0.237444,-7426.1188,5879.0874)"
       patternUnits="userSpaceOnUse"
       x="0"
       y="0"
       width="28.8003"
       height="28.7998"
       id="pattern3721">
      <g
         transform="translate(28.8003,-0.7197)"
         id="g3671">
        <path
           d="M 0,0 C 0.396,0 0.72,0.323 0.72,0.72 0.72,1.118 0.396,1.439 0,1.439 -0.398,1.439 -0.72,1.118 -0.72,0.72 -0.72,0.323 -0.398,0 0,0"
           style="fill:#f66a32;fill-opacity:1;fill-rule:nonzero;stroke:none"
           id="path3669" />
      </g>
      <g
         transform="translate(14.3999,-0.7197)"
         id="g3675">
        <path
           d="M 0,0 C 0.398,0 0.72,0.323 0.72,0.72 0.72,1.118 0.398,1.439 0,1.439 -0.397,1.439 -0.72,1.118 -0.72,0.72 -0.72,0.323 -0.397,0 0,0"
           style="fill:#f66a32;fill-opacity:1;fill-rule:nonzero;stroke:none"
           id="path3673" />
      </g>
      <g
         transform="translate(28.8003,13.6797)"
         id="g3679">
        <path
           d="M 0,0 C 0.396,0 0.72,0.323 0.72,0.721 0.72,1.119 0.396,1.44 0,1.44 -0.398,1.44 -0.72,1.119 -0.72,0.721 -0.72,0.323 -0.398,0 0,0"
           style="fill:#f66a32;fill-opacity:1;fill-rule:nonzero;stroke:none"
           id="path3677" />
      </g>
      <g
         transform="translate(14.3999,13.6797)"
         id="g3683">
        <path
           d="M 0,0 C 0.398,0 0.72,0.323 0.72,0.721 0.72,1.119 0.398,1.44 0,1.44 -0.397,1.44 -0.72,1.119 -0.72,0.721 -0.72,0.323 -0.397,0 0,0"
           style="fill:#f66a32;fill-opacity:1;fill-rule:nonzero;stroke:none"
           id="path3681" />
      </g>
      <g
         transform="translate(7.2002,6.4805)"
         id="g3687">
        <path
           d="M 0,0 C 0.397,0 0.72,0.322 0.72,0.72 0.72,1.118 0.397,1.439 0,1.439 -0.398,1.439 -0.72,1.118 -0.72,0.72 -0.72,0.322 -0.398,0 0,0"
           style="fill:#f66a32;fill-opacity:1;fill-rule:nonzero;stroke:none"
           id="path3685" />
      </g>
      <g
         transform="translate(21.6001,6.4805)"
         id="g3691">
        <path
           d="M 0,0 C 0.398,0 0.72,0.322 0.72,0.72 0.72,1.118 0.398,1.439 0,1.439 -0.398,1.439 -0.72,1.118 -0.72,0.72 -0.72,0.322 -0.398,0 0,0"
           style="fill:#f66a32;fill-opacity:1;fill-rule:nonzero;stroke:none"
           id="path3689" />
      </g>
      <g
         transform="translate(7.2002,20.8809)"
         id="g3695">
        <path
           d="m 0,0 c 0.397,0 0.72,0.322 0.72,0.719 0,0.398 -0.323,0.72 -0.72,0.72 -0.398,0 -0.72,-0.322 -0.72,-0.72 C -0.72,0.322 -0.398,0 0,0"
           style="fill:#f66a32;fill-opacity:1;fill-rule:nonzero;stroke:none"
           id="path3693" />
      </g>
      <g
         transform="translate(21.6001,20.8809)"
         id="g3699">
        <path
           d="m 0,0 c 0.398,0 0.72,0.322 0.72,0.719 0,0.398 -0.322,0.72 -0.72,0.72 -0.398,0 -0.72,-0.322 -0.72,-0.72 C -0.72,0.322 -0.398,0 0,0"
           style="fill:#f66a32;fill-opacity:1;fill-rule:nonzero;stroke:none"
           id="path3697" />
      </g>
      <g
         transform="translate(0,-0.7197)"
         id="g3703">
        <path
           d="M 0,0 C 0.396,0 0.72,0.323 0.72,0.72 0.72,1.118 0.396,1.439 0,1.439 -0.398,1.439 -0.72,1.118 -0.72,0.72 -0.72,0.323 -0.398,0 0,0"
           style="fill:#f66a32;fill-opacity:1;fill-rule:nonzero;stroke:none"
           id="path3701" />
      </g>
      <g
         transform="translate(0,13.6797)"
         id="g3707">
        <path
           d="M 0,0 C 0.396,0 0.72,0.323 0.72,0.721 0.72,1.119 0.396,1.44 0,1.44 -0.398,1.44 -0.72,1.119 -0.72,0.721 -0.72,0.323 -0.398,0 0,0"
           style="fill:#f66a32;fill-opacity:1;fill-rule:nonzero;stroke:none"
           id="path3705" />
      </g>
      <g
         transform="translate(28.8003,28.0801)"
         id="g3711">
        <path
           d="M 0,0 C 0.396,0 0.72,0.323 0.72,0.72 0.72,1.118 0.396,1.439 0,1.439 -0.398,1.439 -0.72,1.118 -0.72,0.72 -0.72,0.323 -0.398,0 0,0"
           style="fill:#f66a32;fill-opacity:1;fill-rule:nonzero;stroke:none"
           id="path3709" />
      </g>
      <g
         transform="translate(14.3999,28.0801)"
         id="g3715">
        <path
           d="M 0,0 C 0.398,0 0.72,0.323 0.72,0.72 0.72,1.118 0.398,1.439 0,1.439 -0.397,1.439 -0.72,1.118 -0.72,0.72 -0.72,0.323 -0.397,0 0,0"
           style="fill:#f66a32;fill-opacity:1;fill-rule:nonzero;stroke:none"
           id="path3713" />
      </g>
      <g
         transform="translate(0,28.0801)"
         id="g3719">
        <path
           d="M 0,0 C 0.396,0 0.72,0.323 0.72,0.72 0.72,1.118 0.396,1.439 0,1.439 -0.398,1.439 -0.72,1.118 -0.72,0.72 -0.72,0.323 -0.398,0 0,0"
           style="fill:#f66a32;fill-opacity:1;fill-rule:nonzero;stroke:none"
           id="path3717" />
      </g>
    </pattern>
    <clipPath
       clipPathUnits="userSpaceOnUse"
       id="clipPath3731">
      <path
         d="m 86.955,154.188 c 0,-44.397 35.99,-80.388 80.387,-80.388 v 0 c 44.397,0 80.388,35.991 80.388,80.388 v 0 c 0,44.397 -35.991,80.388 -80.388,80.388 v 0 c -44.397,0 -80.387,-35.991 -80.387,-80.388"
         id="path3729" />
    </clipPath>
    <clipPath
       clipPathUnits="userSpaceOnUse"
       id="clipPath3859">
      <path
         d="M 0,589.304 H 1317.13 V 0 H 0 Z"
         id="path3857" />
    </clipPath>
    <clipPath
       clipPathUnits="userSpaceOnUse"
       id="clipPath3883">
      <path
         d="M 0,589.304 H 1317.13 V 0 H 0 Z"
         id="path3881" />
    </clipPath>
  </defs>
  <sodipodi:namedview
     inkscape:window-maximized="1"
     inkscape:window-y="-8"
     inkscape:window-x="-8"
     inkscape:window-height="745"
     inkscape:window-width="1366"
     showgrid="false"
     inkscape:document-rotation="0"
     inkscape:current-layer="g3423"
     inkscape:document-units="mm"
     inkscape:cy="-48.845743"
     inkscape:cx="297.43078"
     inkscape:zoom="0.7"
     inkscape:pageshadow="2"
     inkscape:pageopacity="0.0"
     borderopacity="1.0"
     bordercolor="#666666"
     pagecolor="#ffffff"
     id="base" />
  <metadata
     id="metadata3410">
    <rdf:RDF>
      <cc:Work
         rdf:about="">
        <dc:format>image/svg+xml</dc:format>
        <dc:type
           rdf:resource="http://purl.org/dc/dcmitype/StillImage" />
        <dc:title></dc:title>
      </cc:Work>
    </rdf:RDF>
  </metadata>
  <g
     transform="translate(-66.054192,-192.09778)"
     id="layer1"
     inkscape:groupmode="layer"
     inkscape:label="Layer 1">
    <g
       id="g3423"
       inkscape:label="mapas_materias"
       transform="matrix(0.35277777,0,0,-0.35277777,35.612187,275.08491)">
      <g
         transform="translate(-1.0714284,6.2519266e-4)"
         id="g3651">
        <g
           id="g3653"
           clip-path="url(#clipPath3657)">
          <g
             id="g3667"
             transform="translate(248.0555,154.3536)">
            <path
               d="m 0,0 c 0,-44.396 -35.991,-80.388 -80.388,-80.388 -44.397,0 -80.387,35.992 -80.387,80.388 0,44.397 35.99,80.388 80.387,80.388 C -35.991,80.388 0,44.397 0,0"
               style="fill:url(#pattern3721);fill-opacity:1;fill-rule:nonzero;stroke:none"
               id="path3723" />
          </g>
        </g>
      </g>
      <g
         id="g3725">
        <g
           id="g3727"
           clip-path="url(#clipPath3731)">
          <g
             id="g3733"
             transform="translate(559.9832,-81.3466)">
            <path
               d="m 0,0 -1.482,-7.836 -0.297,-8.42 -5.76,-12.419 -2.508,-6.802 -18.502,-17.856 -2.786,-2.687 -9.902,-6.793 -5.321,-6.65 -4.286,-9.903 -11.232,-13.595 -2.507,-0.297 -1.779,4.583 -1.034,0.44 -2.21,-4.726 -0.297,-3.55 -4.286,-5.32 1.033,-3.549 -1.77,-4.871 1.033,-4.583 -2.076,-7.539 0.297,-17.739 1.186,-4.583 -7.099,-20.542 0.297,-9.606 -8.573,-7.827 -2.067,-12.716 -1.77,-10.343 -9.166,-11.673 -1.177,-4.286 -8.133,-8.132 -0.682,-1.753 -2.868,-7.404 v -6.803 l -14.485,-7.09 -1.474,-5.616 -13.156,-1.483 -3.1,0.297 -2.516,3.549 -1.77,-0.593 -0.297,-2.516 -3.252,-1.034 -5.024,2.067 -5.319,-1.77 -3.101,1.77 -3.99,-1.77 -0.593,-1.033 1.771,-2.517 -0.738,-1.033 h -2.515 l -10.343,-5.76 -1.33,-2.067 -6.058,0.737 -12.715,-5.76 -18.466,-14.198 -2.813,-2.364 -2.22,-2.947 -4.286,-0.297 -2.803,-1.042 -0.737,-0.737 3.54,-2.804 -1.716,-5.904 -0.647,-2.228 -2.507,-2.956 1.33,-4.134 v -13.596 l -1.33,-5.32 -0.746,-11.233 -2.066,-2.515 v -1.771 l -12.86,-10.639 -6.056,-10.649 -6.651,-13.892 -11.673,-13.444 -9.615,-7.395 -6.056,-7.827 -3.837,-9.31 -8.87,-9.462 -2.219,-0.44 -1.771,6.056 0.738,4.583 2.515,2.813 1.033,2.21 -2.812,2.067 -6.056,8.869 -6.353,2.813 -4.287,5.761 -6.353,2.515 -7.836,8.123 -0.737,-0.736 -3.846,-3.55 -1.77,1.033 v 3.253 l -5.769,7.1 -2.804,2.066 -6.066,3.244 -3.1,-3.98 -5.391,1.105 4.357,5.688 8.87,10.936 0.593,2.22 10.64,12.409 2.956,0.306 1.33,3.541 12.859,10.343 4.87,2.515 8.574,5.618 1.779,5.616 0.18,9.309 -2.993,8.133 -3.253,1.77 -5.32,-0.296 -1.77,1.033 2.067,10.936 2.22,7.54 -0.45,2.363 v 5.319 l -4.871,2.957 -8.131,-3.55 -3.55,1.33 -1.178,2.517 -1.77,6.056 -1.042,8.869 -3.541,9.903 -4.583,0.297 -4.583,3.253 -4.286,-2.813 -7.099,0.296 -8.123,2.22 -2.508,-1.186 -1.779,1.186 0.737,21.279 -3.253,5.32 -1.321,8.869 0.782,2.795 1.582,5.625 5.76,23.499 -4.583,9.463 -7.836,3.549 -2.507,7.531 1.474,4.286 0.295,4.879 -27.631,-0.297 -2.22,1.331 -0.593,11.385 -5.32,6.057 2.363,2.516 -0.584,3.1 1.321,4.727 -2.803,4.879 1.769,3.99 -7.089,5.617 -5.32,2.066 -11.376,-1.033 -6.066,6.802 -5.617,0.737 -7.089,3.847 -2.517,2.803 h -2.066 l -1.771,-0.296 -4.583,3.099 -8.572,-1.033 -3.846,0.746 -3.254,5.32 -3.837,1.033 -6.065,4.583 -4.574,11.08 1.034,3.109 -2.517,6.794 2.067,7.09 -1.034,6.066 -1.77,1.033 -2.813,-2.803 h -10.935 l -2.768,-1.591 -9.642,-5.509 -8.869,-6.057 -1.771,-2.515 -5.32,-0.297 -3.99,-5.32 -6.362,-2.804 -2.066,1.771 -11.08,0.297 -8.133,-0.746 -5.32,-2.508 -3.549,1.474 -1.771,18.772 1.034,3.99 -1.77,2.813 -12.716,-10.344 -9.605,-0.296 -5.025,8.42 -13.002,0.737 -0.737,0.746 2.804,3.837 -1.474,4.286 -4.88,5.024 -4.583,6.065 -3.55,4.583 1.331,1.77 -4.871,3.549 0.594,3.101 2.946,1.474 0.19,5.301 -0.036,0.019 h 0.036 l 0.107,3.252 8.87,6.65 -0.737,8.573 3.99,8.132 0.296,6.057 15.96,11.682 15.222,3.838 2.22,3.548 7.683,0.738 4.286,-2.804 1.474,2.507 2.516,4.879 5.617,46.557 -3.253,4.871 v 5.032 l -7.387,6.344 -0.297,12.419 7.387,3.253 5.32,-1.033 1.042,2.067 -1.779,3.846 -4.879,0.737 -3.99,1.033 0.44,9.607 21.288,0.736 4.134,1.483 -0.584,0.593 1.033,2.507 h 1.771 l 4.286,-3.1 7.683,6.65 1.483,-1.77 5.319,-13.749 2.517,0.593 11.376,-7.396 4.583,1.779 4.574,2.804 1.483,-0.296 -0.441,-4.574 1.771,-0.746 6.056,6.353 0.746,2.076 7.09,2.956 4.286,3.541 2.364,-1.77 3.549,4.879 0.441,3.253 10.639,6.353 0.737,2.804 -10.343,1.042 -1.474,4.277 -1.779,6.066 -1.77,3.54 0.44,3.847 -8.123,8.573 -0.746,1.482 2.076,0.584 1.473,-1.033 h 6.066 l 2.804,-3.55 8.123,-0.296 2.516,1.779 8.132,-6.066 2.517,1.78 -0.449,4.583 5.32,2.507 1.769,1.779 5.32,-1.483 6.507,1.78 2.812,2.507 4.573,2.516 2.077,-0.296 9.309,8.42 -0.736,3.252 7.09,1.034 2.803,-3.55 -0.737,-7.09 2.957,-2.066 2.075,-0.746 2.068,-6.345 1.185,-3.261 -5.328,-5.608 0.296,-5.769 -1.77,-8.87 0.296,-3.1 3.541,-2.219 0.45,-6.65 10.199,-8.276 3.55,-2.363 3.98,0.592 5.616,5.024 3.253,-0.297 4.286,2.813 h 4.583 l 5.618,4.574 7.089,-1.473 2.516,1.77 9.903,-2.067 3.99,1.033 -0.45,1.779 -3.54,3.541 3.253,3.989 h 4.583 l 11.376,2.373 4.583,-3.846 4.286,-0.297 3.837,-2.956 5.329,1.186 3.245,1.77 3.549,-1.177 3.837,0.737 3.253,-2.516 4.583,1.186 4.286,4.134 9.607,18.179 4.879,6.353 1.473,3.55 1.781,3.549 5.616,-5.023 6.352,-25.872 2.22,-4.87 1.033,-3.253 2.508,-2.516 7.836,-3.54 2.066,-4.287 -0.296,-4.583 -7.827,-8.132 -5.032,-6.794 -9.157,-4.879 0.297,-3.99 -4.583,-3.846 -1.483,-2.067 -1.77,-5.023 -3.101,-2.516 -3.55,-3.837 -11.384,-3.999 7.098,-1.034 v -7.09 l 2.813,-3.55 -0.746,9.31 13.596,7.1 6.353,4.879 2.517,-0.296 0.592,-5.32 1.771,-3.55 -1.033,-4.583 -4.287,-0.44 1.186,-3.109 2.363,-0.737 3.253,3.109 1.771,-1.043 h 3.55 l 4.583,1.78 2.506,-1.78 1.483,-1.329 5.32,2.372 1.33,-1.339 -0.746,-4.278 -3.837,-6.802 0.296,-2.812 1.771,1.779 6.056,12.113 9.319,7.396 3.1,-0.746 0.738,1.186 -0.297,2.067 5.913,8.132 7.836,3.54 3.54,-1.32 2.812,1.033 8.277,-3.253 3.549,-3.1 4.583,0.584 3.101,-3.541 3.549,-1.033 4.286,-1.339 2.508,-1.177 1.482,0.44 0.593,-1.473 0.737,-3.55 h 1.474 l 1.779,2.22 5.616,-1.78 4.278,-4.727 -0.296,-2.803 -2.211,-2.813 3.253,0.297 1.033,-1.33 -2.812,-3.99 -1.474,-4.88 1.769,-1.033 0.442,-1.186 -1.475,-3.1 1.033,-0.737 5.321,5.616 3.253,0.737 3.549,3.253 6.353,1.033 1.771,2.517 15.671,-6.066 5.617,-2.804 3.846,1.034 0.737,-1.483 5.32,-1.024 3.989,-1.043 16.993,1.483 14.486,-6.506 22.312,-17.739 7.836,-8.86 2.795,-1.725 7.548,-4.637 8.87,-3.1 12.419,-0.441 4.573,-4.583 3.973,-18.233 z"
               style="fill:#ffffff;fill-opacity:1;fill-rule:evenodd;stroke:none"
               id="path3735" />
          </g>
          <g
             id="g3737"
             transform="translate(559.9832,-81.3466)">
            <path
               d="m 0,0 -1.482,-7.836 -0.297,-8.42 -5.76,-12.419 -2.508,-6.802 -18.502,-17.856 -2.786,-2.687 -9.902,-6.793 -5.321,-6.65 -4.286,-9.903 -11.232,-13.595 -2.507,-0.297 -1.779,4.583 -1.034,0.44 -2.21,-4.726 -0.297,-3.55 -4.286,-5.32 1.033,-3.549 -1.77,-4.871 1.033,-4.583 -2.076,-7.539 0.297,-17.739 1.186,-4.583 -7.099,-20.542 0.297,-9.606 -8.573,-7.827 -2.067,-12.716 -1.77,-10.343 -9.166,-11.673 -1.177,-4.286 -8.133,-8.132 -0.682,-1.753 -2.868,-7.404 v -6.803 l -14.485,-7.09 -1.474,-5.616 -13.156,-1.483 -3.1,0.297 -2.516,3.549 -1.77,-0.593 -0.297,-2.516 -3.252,-1.034 -5.024,2.067 -5.319,-1.77 -3.101,1.77 -3.99,-1.77 -0.593,-1.033 1.771,-2.517 -0.738,-1.033 h -2.515 l -10.343,-5.76 -1.33,-2.067 -6.058,0.737 -12.715,-5.76 -18.466,-14.198 -2.813,-2.364 -2.22,-2.947 -4.286,-0.297 -2.803,-1.042 -0.737,-0.737 3.54,-2.804 -1.716,-5.904 -0.647,-2.228 -2.507,-2.956 1.33,-4.134 v -13.596 l -1.33,-5.32 -0.746,-11.233 -2.066,-2.515 v -1.771 l -12.86,-10.639 -6.056,-10.649 -6.651,-13.892 -11.673,-13.444 -9.615,-7.395 -6.056,-7.827 -3.837,-9.31 -8.87,-9.462 -2.219,-0.44 -1.771,6.056 0.738,4.583 2.515,2.813 1.033,2.21 -2.812,2.067 -6.056,8.869 -6.353,2.813 -4.287,5.761 -6.353,2.515 -7.836,8.123 -0.737,-0.736 -3.846,-3.55 -1.77,1.033 v 3.253 l -5.769,7.1 -2.804,2.066 -6.066,3.244 -3.1,-3.98 -5.391,1.105 4.357,5.688 8.87,10.936 0.593,2.22 10.64,12.409 2.956,0.306 1.33,3.541 12.859,10.343 4.87,2.515 8.574,5.618 1.779,5.616 0.18,9.309 -2.993,8.133 -3.253,1.77 -5.32,-0.296 -1.77,1.033 2.067,10.936 2.22,7.54 -0.45,2.363 v 5.319 l -4.871,2.957 -8.131,-3.55 -3.55,1.33 -1.178,2.517 -1.77,6.056 -1.042,8.869 -3.541,9.903 -4.583,0.297 -4.583,3.253 -4.286,-2.813 -7.099,0.296 -8.123,2.22 -2.508,-1.186 -1.779,1.186 0.737,21.279 -3.253,5.32 -1.321,8.869 0.782,2.795 1.582,5.625 5.76,23.499 -4.583,9.463 -7.836,3.549 -2.507,7.531 1.474,4.286 0.295,4.879 -27.631,-0.297 -2.22,1.331 -0.593,11.385 -5.32,6.057 2.363,2.516 -0.584,3.1 1.321,4.727 -2.803,4.879 1.769,3.99 -7.089,5.617 -5.32,2.066 -11.376,-1.033 -6.066,6.802 -5.617,0.737 -7.089,3.847 -2.517,2.803 h -2.066 l -1.771,-0.296 -4.583,3.099 -8.572,-1.033 -3.846,0.746 -3.254,5.32 -3.837,1.033 -6.065,4.583 -4.574,11.08 1.034,3.109 -2.517,6.794 2.067,7.09 -1.034,6.066 -1.77,1.033 -2.813,-2.803 h -10.935 l -2.768,-1.591 -9.642,-5.509 -8.869,-6.057 -1.771,-2.515 -5.32,-0.297 -3.99,-5.32 -6.362,-2.804 -2.066,1.771 -11.08,0.297 -8.133,-0.746 -5.32,-2.508 -3.549,1.474 -1.771,18.772 1.034,3.99 -1.77,2.813 -12.716,-10.344 -9.605,-0.296 -5.025,8.42 -13.002,0.737 -0.737,0.746 2.804,3.837 -1.474,4.286 -4.88,5.024 -4.583,6.065 -3.55,4.583 1.331,1.77 -4.871,3.549 0.594,3.101 2.946,1.474 0.19,5.301 -0.036,0.019 h 0.036 l 0.107,3.252 8.87,6.65 -0.737,8.573 3.99,8.132 0.296,6.057 15.96,11.682 15.222,3.838 2.22,3.548 7.683,0.738 4.286,-2.804 1.474,2.507 2.516,4.879 5.617,46.557 -3.253,4.871 v 5.032 l -7.387,6.344 -0.297,12.419 7.387,3.253 5.32,-1.033 1.042,2.067 -1.779,3.846 -4.879,0.737 -3.99,1.033 0.44,9.607 21.288,0.736 4.134,1.483 -0.584,0.593 1.033,2.507 h 1.771 l 4.286,-3.1 7.683,6.65 1.483,-1.77 5.319,-13.749 2.517,0.593 11.376,-7.396 4.583,1.779 4.574,2.804 1.483,-0.296 -0.441,-4.574 1.771,-0.746 6.056,6.353 0.746,2.076 7.09,2.956 4.286,3.541 2.364,-1.77 3.549,4.879 0.441,3.253 10.639,6.353 0.737,2.804 -10.343,1.042 -1.474,4.277 -1.779,6.066 -1.77,3.54 0.44,3.847 -8.123,8.573 -0.746,1.482 2.076,0.584 1.473,-1.033 h 6.066 l 2.804,-3.55 8.123,-0.296 2.516,1.779 8.132,-6.066 2.517,1.78 -0.449,4.583 5.32,2.507 1.769,1.779 5.32,-1.483 6.507,1.78 2.812,2.507 4.573,2.516 2.077,-0.296 9.309,8.42 -0.736,3.252 7.09,1.034 2.803,-3.55 -0.737,-7.09 2.957,-2.066 2.075,-0.746 2.068,-6.345 1.185,-3.261 -5.328,-5.608 0.296,-5.769 -1.77,-8.87 0.296,-3.1 3.541,-2.219 0.45,-6.65 10.199,-8.276 3.55,-2.363 3.98,0.592 5.616,5.024 3.253,-0.297 4.286,2.813 h 4.583 l 5.618,4.574 7.089,-1.473 2.516,1.77 9.903,-2.067 3.99,1.033 -0.45,1.779 -3.54,3.541 3.253,3.989 h 4.583 l 11.376,2.373 4.583,-3.846 4.286,-0.297 3.837,-2.956 5.329,1.186 3.245,1.77 3.549,-1.177 3.837,0.737 3.253,-2.516 4.583,1.186 4.286,4.134 9.607,18.179 4.879,6.353 1.473,3.55 1.781,3.549 5.616,-5.023 6.352,-25.872 2.22,-4.87 1.033,-3.253 2.508,-2.516 7.836,-3.54 2.066,-4.287 -0.296,-4.583 -7.827,-8.132 -5.032,-6.794 -9.157,-4.879 0.297,-3.99 -4.583,-3.846 -1.483,-2.067 -1.77,-5.023 -3.101,-2.516 -3.55,-3.837 -11.384,-3.999 7.098,-1.034 v -7.09 l 2.813,-3.55 -0.746,9.31 13.596,7.1 6.353,4.879 2.517,-0.296 0.592,-5.32 1.771,-3.55 -1.033,-4.583 -4.287,-0.44 1.186,-3.109 2.363,-0.737 3.253,3.109 1.771,-1.043 h 3.55 l 4.583,1.78 2.506,-1.78 1.483,-1.329 5.32,2.372 1.33,-1.339 -0.746,-4.278 -3.837,-6.802 0.296,-2.812 1.771,1.779 6.056,12.113 9.319,7.396 3.1,-0.746 0.738,1.186 -0.297,2.067 5.913,8.132 7.836,3.54 3.54,-1.32 2.812,1.033 8.277,-3.253 3.549,-3.1 4.583,0.584 3.101,-3.541 3.549,-1.033 4.286,-1.339 2.508,-1.177 1.482,0.44 0.593,-1.473 0.737,-3.55 h 1.474 l 1.779,2.22 5.616,-1.78 4.278,-4.727 -0.296,-2.803 -2.211,-2.813 3.253,0.297 1.033,-1.33 -2.812,-3.99 -1.474,-4.88 1.769,-1.033 0.442,-1.186 -1.475,-3.1 1.033,-0.737 5.321,5.616 3.253,0.737 3.549,3.253 6.353,1.033 1.771,2.517 15.671,-6.066 5.617,-2.804 3.846,1.034 0.737,-1.483 5.32,-1.024 3.989,-1.043 16.993,1.483 14.486,-6.506 22.312,-17.739 7.836,-8.86 2.795,-1.725 7.548,-4.637 8.87,-3.1 12.419,-0.441 4.573,-4.583 3.973,-18.233 z"
               style="fill:none;stroke:#000000;stroke-width:1.354;stroke-linecap:round;stroke-linejoin:round;stroke-miterlimit:4;stroke-dasharray:none;stroke-opacity:1"
               id="path3739" />
          </g>
          <g
             id="g3741"
             transform="translate(314.4998,46.7867)">
            <path
               d="M 0,0 -1.474,1.33 1.33,3.1 3.55,2.363 3.847,1.33 Z"
               style="fill:#ffffff;fill-opacity:1;fill-rule:evenodd;stroke:none"
               id="path3743" />
          </g>
          <g
             id="g3745"
             transform="translate(314.4998,46.7867)">
            <path
               d="M 0,0 -1.474,1.33 1.33,3.1 3.55,2.363 3.847,1.33 Z"
               style="fill:none;stroke:#000000;stroke-width:1.354;stroke-linecap:round;stroke-linejoin:round;stroke-miterlimit:4;stroke-dasharray:none;stroke-opacity:1"
               id="path3747" />
          </g>
          <g
             id="g3749"
             transform="translate(306.6726,56.2491)">
            <path
               d="m 0,0 -1.033,-0.593 -1.483,1.33 1.771,1.77 1.482,-0.297 z"
               style="fill:#ffffff;fill-opacity:1;fill-rule:evenodd;stroke:none"
               id="path3751" />
          </g>
          <g
             id="g3753"
             transform="translate(306.6726,56.2491)">
            <path
               d="m 0,0 -1.033,-0.593 -1.483,1.33 1.771,1.77 1.482,-0.297 z"
               style="fill:none;stroke:#000000;stroke-width:1.354;stroke-linecap:round;stroke-linejoin:round;stroke-miterlimit:4;stroke-dasharray:none;stroke-opacity:1"
               id="path3755" />
          </g>
          <g
             id="g3757"
             transform="translate(317.3133,43.8302)">
            <path
               d="m 0,0 6.793,1.474 12.419,-2.507 -5.032,-11.97 -3.541,-3.549 0.297,-1.78 -1.331,-1.77 -5.319,-0.44 -2.22,-1.034 -1.779,0.737 -4.574,-3.549 -5.616,-0.441 -2.517,1.77 -5.319,-1.77 -2.804,2.508 0.404,1.967 -1.662,3.685 2.579,3.217 -2.066,1.034 0.296,7.098 2.22,1.474 V 0 l 4.286,2.957 z"
               style="fill:#ffffff;fill-opacity:1;fill-rule:evenodd;stroke:none"
               id="path3759" />
          </g>
          <g
             id="g3761"
             transform="translate(317.3133,43.8302)">
            <path
               d="m 0,0 6.793,1.474 12.419,-2.507 -5.032,-11.97 -3.541,-3.549 0.297,-1.78 -1.331,-1.77 -5.319,-0.44 -2.22,-1.034 -1.779,0.737 -4.574,-3.549 -5.616,-0.441 -2.517,1.77 -5.319,-1.77 -2.804,2.508 0.404,1.967 -1.662,3.685 2.579,3.217 -2.066,1.034 0.296,7.098 2.22,1.474 V 0 l 4.286,2.957 z"
               style="fill:none;stroke:#000000;stroke-width:1.354;stroke-linecap:round;stroke-linejoin:round;stroke-miterlimit:4;stroke-dasharray:none;stroke-opacity:1"
               id="path3763" />
          </g>
          <g
             id="g3765"
             transform="translate(282.8689,37.5494)">
            <path
               d="m 0,0 5.032,1.401 -1.043,-5.023 -3.54,-5.616 -5.76,-2.813 -1.33,1.043 1.771,3.468 3.099,2.516 z"
               style="fill:#ffffff;fill-opacity:1;fill-rule:evenodd;stroke:none"
               id="path3767" />
          </g>
          <g
             id="g3769"
             transform="translate(282.8689,37.5494)">
            <path
               d="m 0,0 5.032,1.401 -1.043,-5.023 -3.54,-5.616 -5.76,-2.813 -1.33,1.043 1.771,3.468 3.099,2.516 z"
               style="fill:none;stroke:#000000;stroke-width:1.354;stroke-linecap:round;stroke-linejoin:round;stroke-miterlimit:4;stroke-dasharray:none;stroke-opacity:1"
               id="path3771" />
          </g>
          <g
             id="g3773"
             transform="translate(292.4754,37.9171)">
            <path
               d="M 0,0 1.042,-0.449 0,-2.516 h -1.771 z"
               style="fill:#ffffff;fill-opacity:1;fill-rule:evenodd;stroke:none"
               id="path3775" />
          </g>
          <g
             id="g3777"
             transform="translate(292.4754,37.9171)">
            <path
               d="M 0,0 1.042,-0.449 0,-2.516 h -1.771 z"
               style="fill:none;stroke:#000000;stroke-width:1.354;stroke-linecap:round;stroke-linejoin:round;stroke-miterlimit:4;stroke-dasharray:none;stroke-opacity:1"
               id="path3779" />
          </g>
          <g
             id="g3781"
             transform="translate(296.3211,46.3375)">
            <path
               d="M 0,0 -3.541,-2.067 -4.583,-0.288 -1.33,2.22 0,1.482 Z"
               style="fill:#ffffff;fill-opacity:1;fill-rule:evenodd;stroke:none"
               id="path3783" />
          </g>
          <g
             id="g3785"
             transform="translate(296.3211,46.3375)">
            <path
               d="M 0,0 -3.541,-2.067 -4.583,-0.288 -1.33,2.22 0,1.482 Z"
               style="fill:none;stroke:#000000;stroke-width:1.354;stroke-linecap:round;stroke-linejoin:round;stroke-miterlimit:4;stroke-dasharray:none;stroke-opacity:1"
               id="path3787" />
          </g>
          <g
             id="g3789"
             transform="translate(310.2137,52.4029)">
            <path
               d="M 0,0 1.779,-0.296 2.517,-1.779 0,-3.549 l -5.616,0.296 -0.738,1.771 z"
               style="fill:#ffffff;fill-opacity:1;fill-rule:evenodd;stroke:none"
               id="path3791" />
          </g>
          <g
             id="g3793"
             transform="translate(310.2137,52.4029)">
            <path
               d="M 0,0 1.779,-0.296 2.517,-1.779 0,-3.549 l -5.616,0.296 -0.738,1.771 z"
               style="fill:none;stroke:#000000;stroke-width:1.354;stroke-linecap:round;stroke-linejoin:round;stroke-miterlimit:4;stroke-dasharray:none;stroke-opacity:1"
               id="path3795" />
          </g>
          <g
             id="g3797"
             transform="translate(98.8299,209.069)">
            <path
               d="m 0,0 -2.171,5.754 -3.842,1.772 0.292,1.037 -2.805,2.957 1.033,1.03 2.514,0.298 10.64,2.513 -5.027,0.739 -24.827,-1.775 -5.911,-1.477 2.364,-1.772 -3.104,-1.036 -12.415,-6.061 -13.891,2.219 -5.618,5.614 h -7.092 -2.809 l -22.019,-2.806 -3.992,2.514 -2.069,8.421 -5.614,3.547 -9.608,0.741 -6.799,2.067 -2.068,-2.067 -3.548,0.736 -2.808,-2.808 -14.631,-5.319 -6.059,-4.729 0.738,-8.13 3.547,-6.649 1.774,-6.061 -2.069,-5.024 -5.321,-3.103 -3.547,1.329 -5.763,11.381 7.537,10.346 0.296,4.58 -0.739,6.06 -1.034,0.59 -3.103,2.513 1.033,5.763 h -1.774 l -3.546,-7.091 -5.32,-2.957 -6.799,-10.64 -2.512,-13.008 -5.617,-8.571 1.774,-1.036 3.547,1.334 4.581,-2.365 1.477,-7.096 5.322,-6.057 0.297,-3.994 -2.514,-3.842 0.74,-5.024 4.284,-2.364 2.07,-3.993 3.252,-1.031 7.832,0.739 4.583,-0.739 5.319,1.772 8.868,-1.033 h 2.512 l 11.677,-13.896 h 3.546 l 3.545,2.219 10.346,-0.444 7.688,1.477 3.249,1.037 2.808,-1.477 1.477,-3.106 -2.805,-6.06 -0.741,-3.25 -2.216,-2.364 v -15.667 l 1.477,-2.067 0.295,-4.729 3.549,-5.617 3.249,-3.254 -0.295,-2.067 -8.868,-8.574 3.104,-1.033 2.81,-0.739 6.501,-7.096 1.776,-6.647 2.807,-7.094 v -3.993 l 11.379,-7.389 4.583,1.772 4.58,2.808 1.478,-0.294 -0.442,-4.581 1.773,-0.741 6.06,6.355 0.739,2.07 7.093,2.957 4.286,3.547 2.364,-1.775 3.547,4.878 0.444,3.252 10.64,6.355 0.739,2.808 -10.346,1.036 -1.477,4.283 -1.772,6.063 -1.775,3.544 0.443,3.842 -8.129,8.573 -0.739,1.48 2.069,0.59 1.481,-1.036 h 6.058 l 2.808,-3.544 8.126,-0.298 2.514,1.772 8.13,-6.057 2.513,1.772 -0.446,4.583 5.321,2.513 1.772,1.772 5.322,-1.477 6.504,1.774 2.808,2.511 4.58,2.514 2.07,-0.298 9.311,8.424 -0.738,3.252 -12.71,12.415 -0.738,0.739 4.282,4.139 -0.44,7.538 12.117,4.285 2.069,2.364 -0.297,1.478 -3.988,-0.295 -1.331,2.07 -0.738,4.285 2.512,3.841 5.618,2.216 6.354,8.869 -3.55,3.103 h -6.354 -4.58 l -9.447,-1.513 0.876,6.096 6.057,9.604 -1.033,1.036 -3.252,0.739 L 14.231,1.174 9.503,0.138 7.138,2.208 H 3.147 Z"
               style="fill:#ffffff;fill-opacity:1;fill-rule:evenodd;stroke:none"
               id="path3799" />
          </g>
          <g
             id="g3801"
             transform="translate(98.8299,209.069)">
            <path
               d="m 0,0 -2.171,5.754 -3.842,1.772 0.292,1.037 -2.805,2.957 1.033,1.03 2.514,0.298 10.64,2.513 -5.027,0.739 -24.827,-1.775 -5.911,-1.477 2.364,-1.772 -3.104,-1.036 -12.415,-6.061 -13.891,2.219 -5.618,5.614 h -7.092 -2.809 l -22.019,-2.806 -3.992,2.514 -2.069,8.421 -5.614,3.547 -9.608,0.741 -6.799,2.067 -2.068,-2.067 -3.548,0.736 -2.808,-2.808 -14.631,-5.319 -6.059,-4.729 0.738,-8.13 3.547,-6.649 1.774,-6.061 -2.069,-5.024 -5.321,-3.103 -3.547,1.329 -5.763,11.381 7.537,10.346 0.296,4.58 -0.739,6.06 -1.034,0.59 -3.103,2.513 1.033,5.763 h -1.774 l -3.546,-7.091 -5.32,-2.957 -6.799,-10.64 -2.512,-13.008 -5.617,-8.571 1.774,-1.036 3.547,1.334 4.581,-2.365 1.477,-7.096 5.322,-6.057 0.297,-3.994 -2.514,-3.842 0.74,-5.024 4.284,-2.364 2.07,-3.993 3.252,-1.031 7.832,0.739 4.583,-0.739 5.319,1.772 8.868,-1.033 h 2.512 l 11.677,-13.896 h 3.546 l 3.545,2.219 10.346,-0.444 7.688,1.477 3.249,1.037 2.808,-1.477 1.477,-3.106 -2.805,-6.06 -0.741,-3.25 -2.216,-2.364 v -15.667 l 1.477,-2.067 0.295,-4.729 3.549,-5.617 3.249,-3.254 -0.295,-2.067 -8.868,-8.574 3.104,-1.033 2.81,-0.739 6.501,-7.096 1.776,-6.647 2.807,-7.094 v -3.993 l 11.379,-7.389 4.583,1.772 4.58,2.808 1.478,-0.294 -0.442,-4.581 1.773,-0.741 6.06,6.355 0.739,2.07 7.093,2.957 4.286,3.547 2.364,-1.775 3.547,4.878 0.444,3.252 10.64,6.355 0.739,2.808 -10.346,1.036 -1.477,4.283 -1.772,6.063 -1.775,3.544 0.443,3.842 -8.129,8.573 -0.739,1.48 2.069,0.59 1.481,-1.036 h 6.058 l 2.808,-3.544 8.126,-0.298 2.514,1.772 8.13,-6.057 2.513,1.772 -0.446,4.583 5.321,2.513 1.772,1.772 5.322,-1.477 6.504,1.774 2.808,2.511 4.58,2.514 2.07,-0.298 9.311,8.424 -0.738,3.252 -12.71,12.415 -0.738,0.739 4.282,4.139 -0.44,7.538 12.117,4.285 2.069,2.364 -0.297,1.478 -3.988,-0.295 -1.331,2.07 -0.738,4.285 2.512,3.841 5.618,2.216 6.354,8.869 -3.55,3.103 h -6.354 -4.58 l -9.447,-1.513 0.876,6.096 6.057,9.604 -1.033,1.036 -3.252,0.739 L 14.231,1.174 9.503,0.138 7.138,2.208 H 3.147 Z"
               style="fill:none;stroke:#000000;stroke-width:1;stroke-linecap:round;stroke-linejoin:round;stroke-miterlimit:4;stroke-dasharray:none;stroke-opacity:1"
               id="path3803" />
          </g>
          <g
             id="g3805"
             transform="translate(121.9305,218.8136)">
            <path
               d="m 0,0 0.297,-1.772 -3.55,-2.516 h -8.129 l 3.106,3.106 V 6.355 L -2.955,7.388 0,7.094 Z"
               style="fill:#ffffff;fill-opacity:1;fill-rule:evenodd;stroke:none"
               id="path3807" />
          </g>
          <g
             id="g3809"
             transform="translate(121.9305,218.8136)">
            <path
               d="m 0,0 0.297,-1.772 -3.55,-2.516 h -8.129 l 3.106,3.106 V 6.355 L -2.955,7.388 0,7.094 Z"
               style="fill:none;stroke:#000000;stroke-width:1;stroke-linecap:round;stroke-linejoin:round;stroke-miterlimit:4;stroke-dasharray:none;stroke-opacity:1"
               id="path3811" />
          </g>
          <g
             id="g3813"
             transform="translate(157.993,67.5646)">
            <path
               d="m 0,0 c -0.098,0 -0.194,0.029 -0.277,0.084 l -3.55,2.365 -10.235,8.306 c -0.107,0.088 -0.173,0.217 -0.183,0.355 l -0.426,6.395 -3.33,2.08 c -0.132,0.082 -0.218,0.222 -0.233,0.376 l -0.298,3.103 c -0.004,0.049 -0.002,0.099 0.008,0.146 l 1.761,8.807 -0.291,5.704 c -0.007,0.136 0.042,0.27 0.136,0.369 l 5.11,5.389 -1.08,2.964 -1.996,6.135 -1.839,0.656 c -0.042,0.015 -0.082,0.036 -0.119,0.061 l -2.957,2.07 c -0.148,0.104 -0.229,0.281 -0.21,0.462 l 0.718,6.891 -2.5,3.161 -6.809,-0.992 c -0.024,-0.004 -0.048,-0.006 -0.072,-0.006 -0.13,0 -0.255,0.051 -0.349,0.142 l -12.71,12.416 -0.743,0.743 c -0.094,0.095 -0.147,0.224 -0.146,0.358 10e-4,0.134 0.056,0.262 0.152,0.355 l 4.117,3.98 -0.426,7.308 c -0.013,0.222 0.122,0.426 0.332,0.5 l 11.994,4.242 1.82,2.08 -0.161,0.803 c 0,0 -3.573,-0.264 -3.585,-0.264 -0.169,0 -0.328,0.086 -0.421,0.23 l -1.331,2.069 c -0.036,0.057 -0.06,0.12 -0.072,0.186 l -0.738,4.285 c -0.022,0.125 0.005,0.253 0.075,0.359 l 2.512,3.842 c 0.057,0.086 0.139,0.153 0.235,0.191 l 5.48,2.162 6.269,8.748 c 0.097,0.135 0.25,0.209 0.406,0.209 0.076,0 0.154,-0.017 0.226,-0.054 l 11.379,-5.766 c 0.047,-0.023 0.09,-0.054 0.128,-0.092 L 7.149,102.537 c 0.114,-0.113 0.165,-0.273 0.141,-0.431 l -1.036,-6.652 0.004,-1.343 3.867,1.87 c 0.068,0.033 0.144,0.05 0.218,0.05 0.056,0 0.112,-0.01 0.167,-0.029 l 5.024,-1.774 c 0.067,-0.024 0.127,-0.061 0.178,-0.11 l 6.296,-6.002 5.25,-2.479 c 0.118,-0.056 0.21,-0.156 0.255,-0.279 l 2.069,-5.616 c 0.021,-0.055 0.031,-0.114 0.031,-0.173 v -5.024 c 0,-0.04 -0.005,-0.08 -0.014,-0.119 l -2.07,-8.425 c -0.034,-0.14 -0.128,-0.259 -0.256,-0.325 L 22.987,63.46 c -0.038,-0.02 -0.078,-0.034 -0.119,-0.043 l -4.355,-0.986 -1.315,-2.492 v -5.642 c 0,-0.059 -0.011,-0.117 -0.031,-0.172 l -2.015,-5.469 0.675,-2.567 4.824,-6.72 c 0.034,-0.046 0.058,-0.097 0.074,-0.151 l 0.665,-2.265 5.073,-1.69 c 0.132,-0.044 0.24,-0.141 0.298,-0.268 l 2.07,-4.583 1.472,-3.095 7.086,-13.58 c 0.116,-0.222 0.049,-0.496 -0.156,-0.64 L 34.72,11.325 c -0.085,-0.06 -0.186,-0.092 -0.288,-0.092 -0.035,0 -0.069,0.004 -0.102,0.011 L 27.47,12.672 22.038,8.243 C 21.948,8.17 21.837,8.13 21.722,8.13 H 17.291 L 13.131,5.404 C 13.049,5.35 12.953,5.322 12.856,5.322 c -0.015,0 -3.081,0.28 -3.081,0.28 L 4.321,0.72 C 4.249,0.655 4.158,0.613 4.062,0.598 L 0.073,0.005 C 0.049,0.002 0.024,0 0,0"
               style="fill:#f2f2f2;fill-opacity:1;fill-rule:evenodd;stroke:none"
               id="path3815" />
          </g>
          <g
             id="g3817"
             transform="translate(142.032,187.8898)">
            <path
               d="m 0,0 c -0.314,0 -0.62,-0.148 -0.813,-0.417 l -6.184,-8.629 -5.343,-2.108 c -0.191,-0.076 -0.356,-0.21 -0.47,-0.383 l -2.512,-3.841 c -0.139,-0.212 -0.192,-0.469 -0.149,-0.718 l 0.739,-4.285 c 0.022,-0.132 0.072,-0.258 0.144,-0.371 l 1.331,-2.07 c 0.185,-0.287 0.502,-0.459 0.841,-0.459 0.024,0 0.049,10e-4 0.074,0.003 l 3.108,0.23 0.026,-0.128 -1.572,-1.796 -11.871,-4.198 c -0.42,-0.149 -0.691,-0.557 -0.665,-1.001 l 0.414,-7.079 -3.952,-3.821 c -0.193,-0.186 -0.303,-0.442 -0.305,-0.71 -0.003,-0.268 0.102,-0.526 0.293,-0.716 l 0.738,-0.738 12.718,-12.424 c 0.188,-0.184 0.439,-0.284 0.699,-0.284 0.048,0 0.096,0.003 0.145,0.01 l 6.522,0.951 2.195,-2.776 -0.696,-6.689 c -0.037,-0.361 0.123,-0.714 0.421,-0.923 l 2.957,-2.069 c 0.073,-0.051 0.153,-0.093 0.237,-0.123 l 1.608,-0.573 1.915,-5.885 0.984,-2.707 -4.896,-5.164 c -0.189,-0.199 -0.287,-0.466 -0.273,-0.739 l 0.288,-5.641 -1.75,-8.746 c -0.019,-0.096 -0.024,-0.194 -0.014,-0.292 l 0.297,-3.103 c 0.03,-0.309 0.202,-0.588 0.465,-0.752 l 3.114,-1.945 0.409,-6.14 c 0.019,-0.277 0.152,-0.534 0.368,-0.709 l 10.196,-8.279 c 0.025,-0.019 0.05,-0.038 0.076,-0.055 l 3.549,-2.365 c 0.166,-0.11 0.359,-0.168 0.555,-0.168 0.049,0 0.099,0.004 0.147,0.011 l 3.988,0.593 c 0.193,0.028 0.374,0.113 0.519,0.243 l 5.293,4.737 2.819,-0.258 c 0.029,-0.003 0.06,-0.004 0.09,-0.004 0.195,0 0.385,0.056 0.548,0.164 l 4.036,2.644 h 4.282 c 0.23,0 0.454,0.079 0.631,0.225 l 5.249,4.279 6.626,-1.38 c 0.068,-0.014 0.136,-0.021 0.204,-0.021 0.205,0 0.406,0.063 0.576,0.183 l 2.513,1.772 c 0.411,0.288 0.543,0.835 0.311,1.28 l -7.094,13.597 -1.461,3.071 -2.06,4.564 c -0.115,0.254 -0.331,0.449 -0.596,0.538 l -4.825,1.607 -0.592,2.014 c -0.031,0.108 -0.081,0.21 -0.146,0.301 l -4.771,6.646 -0.611,2.325 1.961,5.32 c 0.041,0.111 0.061,0.228 0.061,0.347 v 5.517 l 1.15,2.179 4.13,0.935 c 0.083,0.019 0.164,0.048 0.239,0.087 l 4.286,2.216 c 0.257,0.133 0.443,0.369 0.512,0.65 l 2.069,8.424 c 0.019,0.078 0.029,0.158 0.029,0.239 v 5.024 c 0,0.118 -0.021,0.235 -0.061,0.345 l -2.07,5.617 c -0.09,0.246 -0.274,0.446 -0.511,0.558 l -5.176,2.445 -6.238,5.946 c -0.102,0.097 -0.224,0.172 -0.357,0.219 l -5.024,1.774 c -0.108,0.039 -0.221,0.058 -0.333,0.058 -0.15,0 -0.298,-0.034 -0.435,-0.1 l -3.148,-1.522 v 0.544 l 1.024,6.577 c 0.05,0.315 -0.055,0.635 -0.28,0.861 l -11.38,11.376 c -0.074,0.075 -0.161,0.137 -0.255,0.184 L 0.451,-0.108 C 0.307,-0.035 0.152,0 0,0 m -0.001,-1 11.379,-5.766 11.38,-11.376 -1.037,-6.652 v -2.216 l 4.583,2.216 5.024,-1.775 6.355,-6.057 5.322,-2.514 2.069,-5.616 v -5.024 l -2.069,-8.425 -4.286,-2.215 -4.58,-1.037 -1.48,-2.805 v -5.765 l -2.069,-5.617 0.738,-2.808 4.878,-6.796 0.738,-2.516 5.322,-1.773 2.07,-4.582 1.477,-3.103 7.093,-13.598 -2.513,-1.772 -7.093,1.477 -5.617,-4.58 h -4.58 l -4.286,-2.808 -3.252,0.297 -5.616,-5.026 -3.988,-0.593 -3.55,2.365 -10.196,8.278 -0.444,6.65 -3.546,2.216 -0.298,3.103 1.774,8.868 -0.295,5.766 5.323,5.613 -1.186,3.255 -2.066,6.352 -2.071,0.739 -2.957,2.07 0.739,7.093 -2.805,3.547 -7.094,-1.033 -12.71,12.415 -0.738,0.738 4.282,4.14 -0.441,7.537 12.118,4.285 2.069,2.365 -0.297,1.477 -3.988,-0.295 -1.331,2.07 -0.738,4.285 2.512,3.842 5.618,2.215 6.354,8.869"
               style="fill:#000000;fill-opacity:1;fill-rule:nonzero;stroke:none"
               id="path3819" />
          </g>
          <g
             id="g3821"
             transform="translate(232.9197,87.5738)">
            <path
               d="M 0,0 -4.282,0.297 -8.866,4.139 -20.245,1.774 h -4.582 l -3.25,-3.99 3.544,-3.547 0.447,-1.772 -3.991,-1.036 -9.904,2.067 -7.094,13.598 -1.477,3.103 -2.07,4.582 -5.321,1.773 -0.739,2.516 -4.878,6.796 -0.738,2.808 2.069,5.617 v 5.765 l 1.48,2.805 4.58,1.037 4.286,2.215 2.07,8.425 4.285,5.321 9.902,-1.036 5.321,-2.067 2.219,0.59 1.772,2.216 8.424,-0.441 0.739,-0.593 3.841,1.772 9.608,-0.441 7.427,-2.21 L 7.392,53.205 1.036,43.598 1.331,30.742 8.13,20.101 7.392,16.998 5.321,12.71 4.878,6.652 Z"
               style="fill:#ffffff;fill-opacity:1;fill-rule:evenodd;stroke:none"
               id="path3823" />
          </g>
          <g
             id="g3825"
             transform="translate(232.9197,87.5738)">
            <path
               d="M 0,0 -4.282,0.297 -8.866,4.139 -20.245,1.774 h -4.582 l -3.25,-3.99 3.544,-3.547 0.447,-1.772 -3.991,-1.036 -9.904,2.067 -7.094,13.598 -1.477,3.103 -2.07,4.582 -5.321,1.773 -0.739,2.516 -4.878,6.796 -0.738,2.808 2.069,5.617 v 5.765 l 1.48,2.805 4.58,1.037 4.286,2.215 2.07,8.425 4.285,5.321 9.902,-1.036 5.321,-2.067 2.219,0.59 1.772,2.216 8.424,-0.441 0.739,-0.593 3.841,1.772 9.608,-0.441 7.427,-2.21 L 7.392,53.205 1.036,43.598 1.331,30.742 8.13,20.101 7.392,16.998 5.321,12.71 4.878,6.652 Z"
               style="fill:none;stroke:#000000;stroke-width:1;stroke-linecap:round;stroke-linejoin:round;stroke-miterlimit:4;stroke-dasharray:none;stroke-opacity:1"
               id="path3827" />
          </g>
          <g
             id="g3829"
             transform="translate(232.9197,87.5738)">
            <path
               d="m 0,0 3.845,-2.955 5.321,1.183 3.252,1.772 3.544,-1.18 3.842,0.739 3.252,-2.514 4.583,1.183 4.285,4.136 9.606,18.178 4.879,6.358 1.477,3.547 -2.513,6.352 L 42.12,39.315 25.128,52.466 7.725,57.647 7.392,53.205 1.036,43.598 1.331,30.742 8.13,20.101 7.392,16.998 5.321,12.71 4.878,6.652 Z"
               style="fill:#ffffff;fill-opacity:1;fill-rule:evenodd;stroke:none"
               id="path3831" />
          </g>
          <g
             id="g3833"
             transform="translate(232.9197,87.5738)">
            <path
               d="m 0,0 3.845,-2.955 5.321,1.183 3.252,1.772 3.544,-1.18 3.842,0.739 3.252,-2.514 4.583,1.183 4.285,4.136 9.606,18.178 4.879,6.358 1.477,3.547 -2.513,6.352 L 42.12,39.315 25.128,52.466 7.725,57.647 7.392,53.205 1.036,43.598 1.331,30.742 8.13,20.101 7.392,16.998 5.321,12.71 4.878,6.652 Z"
               style="fill:none;stroke:#000000;stroke-width:1;stroke-linecap:round;stroke-linejoin:round;stroke-miterlimit:4;stroke-dasharray:none;stroke-opacity:1"
               id="path3835" />
          </g>
          <g
             id="g3837"
             transform="translate(-106.4289,27.6031)">
            <path
               d="m 0,0 v 5.518 l -1.148,0.195 -2.923,1.119 h -1.072 l -1.669,0.265 -4.281,3.359 -1.89,0.904 -1.723,1.598 -2.133,0.907 -1.407,-0.212 -1,-1.814 -0.566,-0.479 h -2.73 l -5.833,0.694 h -1.22 l -2.703,-0.694 -3.328,0.267 -0.604,1.119 -0.786,3.145 -0.869,1.598 -3.63,2.929 -8.279,4.531 -9.081,3.891 -1.306,0.904 -0.621,0.904 -0.281,0.91 -1.485,1.81 -0.074,1.811 0.756,1.813 1.165,1.331 3.533,0.692 0.124,1.811 -0.737,2.505 0.331,2.717 1.251,4.051 3.236,2.026 0.818,0.267 3.962,-0.267 3.895,1.386 0.801,0.719 0.598,0.879 1.756,7.27 3.718,5.17 3.374,3.412 0.778,1.331 0.207,0.904 -0.066,1.598 -2.032,-1.598 -1.455,-0.212 -1.837,0.212 -2.134,0.907 -0.3,2.025 0.119,2.505 1.248,4.741 -0.091,2.24 -1.44,6.126 -1.391,7.887 0.528,2.023 1.372,2.238 -0.054,1.386 -1.191,4.743 0.119,6.713 -0.24,1.171 -1.359,2.241 -3.414,2.45 -0.893,1.598 -1.642,5.598 -0.884,1.383 h 0.586 l -0.063,1.546 2.027,1.811 0.094,2.452 1.016,0.213 1.509,-1.119 0.988,0.906 2.567,4.049 1.571,1.598 -0.034,0.852 -0.866,0.907 -0.618,0.212 -0.081,2.026 -0.936,2.025 -1.499,0.907 0.092,3.141 0.403,0.907 5.186,-5.862 2.854,-4.263 1.302,-0.852 0.946,1.971 -1.082,6.289 -0.663,0.691 -0.238,1.119 0.401,0.907 4.833,3.569 2.161,2.025 0.793,0.907 2.31,4.423 1.213,1.384 3.916,0.854 1.772,2.026 -0.001,4.902 0.639,4.688 0.178,6.501 0.531,1.331 2.019,1.971 6.055,4.69 1.015,0.212 2.934,-0.185 3.074,-0.027 0.658,-0.639 0.306,-2.717 0.245,3.042 8.003,5.004 5.32,3.103 9.311,0.739 15.519,8.868 3.25,6.058 h 18.031 l -5.617,-6.352 -7.093,-2.811 H 44.95 l -3.547,-7.091 -5.319,-2.957 -6.799,-10.641 -2.513,-13.007 -5.616,-8.571 1.774,-1.036 3.547,1.334 4.581,-2.365 1.477,-7.096 5.321,-6.057 0.297,-3.994 -2.513,-3.842 0.74,-5.024 4.284,-2.364 2.069,-3.993 3.252,-1.031 7.832,0.739 4.583,-0.739 5.32,1.772 8.868,-1.033 H 75.1 l 11.676,-13.896 h 3.547 l 3.545,2.219 10.346,-0.444 7.687,1.477 3.249,1.036 2.809,-1.477 1.477,-3.105 -2.805,-6.061 -0.741,-3.249 -2.216,-2.364 V 88.643 l 1.476,-2.067 0.295,-4.729 3.55,-5.617 3.249,-3.254 -0.295,-2.067 -8.868,-8.574 3.104,-1.033 2.81,-0.739 6.501,-7.096 1.775,-6.647 2.808,-7.094 v -3.993 l -2.514,-0.59 -5.321,13.746 -1.476,1.772 -7.687,-6.649 -4.284,3.103 h -1.774 l -1.034,-2.514 0.59,-0.589 -4.139,-1.481 -21.282,-0.738 -0.442,-9.607 3.991,-1.034 4.878,-0.738 1.772,-3.842 -1.034,-2.069 -5.321,1.033 -7.389,-3.252 0.295,-12.415 7.39,-6.352 V -1.51 l 3.252,-4.875 -5.617,-46.555 -2.512,-4.878 -5.025,6.06 -6.06,0.295 v 2.808 l 8.868,15.224 -14.484,7.832 -5.616,-2.808 -8.572,2.513 -8.129,-4.583 -4.285,1.034 -4.583,-1.034 -4.58,1.775 -2.512,7.683 -3.992,1.183 -3.103,7.388 -11.379,5.027 -1.478,4.139 z"
               style="fill:#ffffff;fill-opacity:1;fill-rule:nonzero;stroke:none"
               id="path3839" />
          </g>
          <g
             id="g3841"
             transform="translate(-106.4289,27.6031)">
            <path
               d="m 0,0 v 5.518 l -1.148,0.195 -2.923,1.119 h -1.072 l -1.669,0.265 -4.281,3.359 -1.89,0.904 -1.723,1.598 -2.133,0.907 -1.407,-0.212 -1,-1.814 -0.566,-0.479 h -2.73 l -5.833,0.694 h -1.22 l -2.703,-0.694 -3.328,0.267 -0.604,1.119 -0.786,3.145 -0.869,1.598 -3.63,2.929 -8.279,4.531 -9.081,3.891 -1.306,0.904 -0.621,0.904 -0.281,0.91 -1.485,1.81 -0.074,1.811 0.756,1.813 1.165,1.331 3.533,0.692 0.124,1.811 -0.737,2.505 0.331,2.717 1.251,4.051 3.236,2.026 0.818,0.267 3.962,-0.267 3.895,1.386 0.801,0.719 0.598,0.879 1.756,7.27 3.718,5.17 3.374,3.412 0.778,1.331 0.207,0.904 -0.066,1.598 -2.032,-1.598 -1.455,-0.212 -1.837,0.212 -2.134,0.907 -0.3,2.025 0.119,2.505 1.248,4.741 -0.091,2.24 -1.44,6.126 -1.391,7.887 0.528,2.023 1.372,2.238 -0.054,1.386 -1.191,4.743 0.119,6.713 -0.24,1.171 -1.359,2.241 -3.414,2.45 -0.893,1.598 -1.642,5.598 -0.884,1.383 h 0.586 l -0.063,1.546 2.027,1.811 0.094,2.452 1.016,0.213 1.509,-1.119 0.988,0.906 2.567,4.049 1.571,1.598 -0.034,0.852 -0.866,0.907 -0.618,0.212 -0.081,2.026 -0.936,2.025 -1.499,0.907 0.092,3.141 0.403,0.907 5.186,-5.862 2.854,-4.263 1.302,-0.852 0.946,1.971 -1.082,6.289 -0.663,0.691 -0.238,1.119 0.401,0.907 4.833,3.569 2.161,2.025 0.793,0.907 2.31,4.423 1.213,1.384 3.916,0.854 1.772,2.026 -0.001,4.902 0.639,4.688 0.178,6.501 0.531,1.331 2.019,1.971 6.055,4.69 1.015,0.212 2.934,-0.185 3.074,-0.027 0.658,-0.639 0.306,-2.717 0.245,3.042 8.003,5.004 5.32,3.103 9.311,0.739 15.519,8.868 3.25,6.058 h 18.031 l -5.617,-6.352 -7.093,-2.811 H 44.95 l -3.547,-7.091 -5.319,-2.957 -6.799,-10.641 -2.513,-13.007 -5.616,-8.571 1.774,-1.036 3.547,1.334 4.581,-2.365 1.477,-7.096 5.321,-6.057 0.297,-3.994 -2.513,-3.842 0.74,-5.024 4.284,-2.364 2.069,-3.993 3.252,-1.031 7.832,0.739 4.583,-0.739 5.32,1.772 8.868,-1.033 H 75.1 l 11.676,-13.896 h 3.547 l 3.545,2.219 10.346,-0.444 7.687,1.477 3.249,1.036 2.809,-1.477 1.477,-3.105 -2.805,-6.061 -0.741,-3.249 -2.216,-2.364 V 88.643 l 1.476,-2.067 0.295,-4.729 3.55,-5.617 3.249,-3.254 -0.295,-2.067 -8.868,-8.574 3.104,-1.033 2.81,-0.739 6.501,-7.096 1.775,-6.647 2.808,-7.094 v -3.993 l -2.514,-0.59 -5.321,13.746 -1.476,1.772 -7.687,-6.649 -4.284,3.103 h -1.774 l -1.034,-2.514 0.59,-0.589 -4.139,-1.481 -21.282,-0.738 -0.442,-9.607 3.991,-1.034 4.878,-0.738 1.772,-3.842 -1.034,-2.069 -5.321,1.033 -7.389,-3.252 0.295,-12.415 7.39,-6.352 V -1.51 l 3.252,-4.875 -5.617,-46.555 -2.512,-4.878 -5.025,6.06 -6.06,0.295 v 2.808 l 8.868,15.224 -14.484,7.832 -5.616,-2.808 -8.572,2.513 -8.129,-4.583 -4.285,1.034 -4.583,-1.034 -4.58,1.775 -2.512,7.683 -3.992,1.183 -3.103,7.388 -11.379,5.027 -1.478,4.139 z"
               style="fill:none;stroke:#000000;stroke-width:1;stroke-linecap:round;stroke-linejoin:round;stroke-miterlimit:4;stroke-dasharray:none;stroke-opacity:1"
               id="path3843" />
          </g>
          <g
             id="g3845"
             transform="translate(-93.2043,17.4205)">
            <path
               d="m 0,0 5.123,-2.266 3.104,-7.388 3.992,-1.182 2.511,-7.684 4.581,-1.774 4.583,1.033 4.285,-1.033 8.129,4.583 8.572,-2.514 5.615,2.808 14.484,-7.832 -8.868,-15.223 v -2.808 l 6.06,-0.295 5.025,-6.06 -1.478,-2.511 -4.286,2.806 -7.685,-0.739 -2.218,-3.547 -15.221,-3.841 -15.962,-11.677 -0.295,-6.06 -3.99,-8.128 0.739,-8.573 -8.868,-6.65 -0.112,-3.252 -0.184,-5.318 -2.954,-1.478 -0.592,-3.103 4.877,-3.549 -1.331,-1.772 3.548,-4.58 4.58,-6.063 4.878,-5.024 1.478,-4.285 -2.809,-3.842 0.74,-0.739 13.005,-0.741 5.025,-8.422 9.606,0.295 12.709,10.345 1.775,-2.808 -1.034,-3.99 1.773,-18.771 3.547,-1.477 5.32,2.511 8.128,0.741 14.632,-23.353 v -3.547 l -3.252,-4.729 0.739,-7.091 -1.477,-4.881 3.252,-10.345 -1.479,-4.282 -5.616,-7.687 3.105,-6.06 -1.774,-4.583 1.774,-7.537 2.215,-4.58 4.583,-1.477 -1.48,-3.845 -8.423,-12.413 1.035,-6.354 -4.287,-3.253 0.444,-5.318 -4.729,-4.583 -3.104,-0.739 -16.996,11.084 -1.181,4.583 -15.518,9.161 -4.287,1.775 -10.642,3.546 -31.501,14.973 -4.46,0.606 -4.703,4.446 -5.189,3.166 1.448,6.22 -2.169,1.758 -2.377,3.304 -3.048,3.037 -0.679,1.12 -0.735,3.731 0.953,1.755 1.411,1.334 -0.58,3.517 -1.854,4.847 -3.859,4.424 -2.344,5.489 -2.869,4.636 -4.174,5.542 -2.339,6.021 -1.712,1.97 -1.899,1.119 -1.517,1.334 -1.863,5.115 -1.107,6.873 -0.667,2.026 -5.576,8.896 -2.819,8.262 -1.829,4.26 -3.801,7.168 -0.707,1.811 -0.525,3.356 -1.847,4.688 -8.886,8.739 -1.541,3.148 -2.804,7.884 -1.75,2.238 -0.642,0.215 -2.439,3.621 -4.296,3.784 -2.104,1.386 -3.882,3.142 -2.384,2.24 -4.458,2.93 -0.699,1.598 2.81,2.932 0.503,2.023 -0.036,0.907 -1.293,1.81 -2.593,2.665 -0.606,4.104 -1.51,2.449 -0.282,0.907 -0.759,4.316 0.069,3.145 0.335,1.383 3.759,4.743 4.15,4.743 2.837,2.237 2.192,2.505 0.046,-1.118 0.948,-2.985 0.66,-0.639 0.297,-2.505 -1.206,-1.599 -2.84,-0.907 -0.972,-1.331 0.037,-0.906 0.885,-1.384 0.561,-4.263 0.468,-0.692 1.395,0.477 2.229,1.546 2.497,-0.212 1.304,-0.907 0.884,-1.331 2.674,0.212 1.861,-0.212 1.563,-2.505 0.716,-2.026 1.311,-2.235 2.301,-0.267 3.067,1.387 1.96,2.234 2.441,1.119 0.419,0.48 0.544,2.24 -0.059,6.339 0.462,4.263 3.665,5.914 0.618,0.427 1.06,-0.904 h 0.634 l 0.996,0.692 0.125,2.929 1.299,2.933 0.791,0.906 1.846,1.384 5.07,2.505 9.985,3.356 4.334,2.023 2.379,2.081 2.537,3.621 2.565,2.933 2.22,1.81 3.329,4.531 3.651,7.457 1.907,4.746 h 2.243 l -2.266,5.435 -0.251,1.385 -1.61,3.622 -0.669,0.907 -1.296,0.691 0.142,2.505 h 3.121 l 0.562,0.64 h 1.071 l 2.923,-1.119 2.505,-0.427 1.5,-0.907 1.563,-2.502 1.268,-1.172 2.735,-1.333 1.433,-4.104 1.573,-2.717 1.791,-1.119 z"
               style="fill:#ffffff;fill-opacity:1;fill-rule:nonzero;stroke:none"
               id="path3847" />
          </g>
          <g
             id="g3849"
             transform="translate(-93.2043,17.4205)">
            <path
               d="m 0,0 5.123,-2.266 3.104,-7.388 3.992,-1.182 2.511,-7.684 4.581,-1.774 4.583,1.033 4.285,-1.033 8.129,4.583 8.572,-2.514 5.615,2.808 14.484,-7.832 -8.868,-15.223 v -2.808 l 6.06,-0.295 5.025,-6.06 -1.478,-2.511 -4.286,2.806 -7.685,-0.739 -2.218,-3.547 -15.221,-3.841 -15.962,-11.677 -0.295,-6.06 -3.99,-8.128 0.739,-8.573 -8.868,-6.65 -0.112,-3.252 -0.184,-5.318 -2.954,-1.478 -0.592,-3.103 4.877,-3.549 -1.331,-1.772 3.548,-4.58 4.58,-6.063 4.878,-5.024 1.478,-4.285 -2.809,-3.842 0.74,-0.739 13.005,-0.741 5.025,-8.422 9.606,0.295 12.709,10.345 1.775,-2.808 -1.034,-3.99 1.773,-18.771 3.547,-1.477 5.32,2.511 8.128,0.741 14.632,-23.353 v -3.547 l -3.252,-4.729 0.739,-7.091 -1.477,-4.881 3.252,-10.345 -1.479,-4.282 -5.616,-7.687 3.105,-6.06 -1.774,-4.583 1.774,-7.537 2.215,-4.58 4.583,-1.477 -1.48,-3.845 -8.423,-12.413 1.035,-6.354 -4.287,-3.253 0.444,-5.318 -4.729,-4.583 -3.104,-0.739 -16.996,11.084 -1.181,4.583 -15.518,9.161 -4.287,1.775 -10.642,3.546 -31.501,14.973 -4.46,0.606 -4.703,4.446 -5.189,3.166 1.448,6.22 -2.169,1.758 -2.377,3.304 -3.048,3.037 -0.679,1.12 -0.735,3.731 0.953,1.755 1.411,1.334 -0.58,3.517 -1.854,4.847 -3.859,4.424 -2.344,5.489 -2.869,4.636 -4.174,5.542 -2.339,6.021 -1.712,1.97 -1.899,1.119 -1.517,1.334 -1.863,5.115 -1.107,6.873 -0.667,2.026 -5.576,8.896 -2.819,8.262 -1.829,4.26 -3.801,7.168 -0.707,1.811 -0.525,3.356 -1.847,4.688 -8.886,8.739 -1.541,3.148 -2.804,7.884 -1.75,2.238 -0.642,0.215 -2.439,3.621 -4.296,3.784 -2.104,1.386 -3.882,3.142 -2.384,2.24 -4.458,2.93 -0.699,1.598 2.81,2.932 0.503,2.023 -0.036,0.907 -1.293,1.81 -2.593,2.665 -0.606,4.104 -1.51,2.449 -0.282,0.907 -0.759,4.316 0.069,3.145 0.335,1.383 3.759,4.743 4.15,4.743 2.837,2.237 2.192,2.505 0.046,-1.118 0.948,-2.985 0.66,-0.639 0.297,-2.505 -1.206,-1.599 -2.84,-0.907 -0.972,-1.331 0.037,-0.906 0.885,-1.384 0.561,-4.263 0.468,-0.692 1.395,0.477 2.229,1.546 2.497,-0.212 1.304,-0.907 0.884,-1.331 2.674,0.212 1.861,-0.212 1.563,-2.505 0.716,-2.026 1.311,-2.235 2.301,-0.267 3.067,1.387 1.96,2.234 2.441,1.119 0.419,0.48 0.544,2.24 -0.059,6.339 0.462,4.263 3.665,5.914 0.618,0.427 1.06,-0.904 h 0.634 l 0.996,0.692 0.125,2.929 1.299,2.933 0.791,0.906 1.846,1.384 5.07,2.505 9.985,3.356 4.334,2.023 2.379,2.081 2.537,3.621 2.565,2.933 2.22,1.81 3.329,4.531 3.651,7.457 1.907,4.746 h 2.243 l -2.266,5.435 -0.251,1.385 -1.61,3.622 -0.669,0.907 -1.296,0.691 0.142,2.505 h 3.121 l 0.562,0.64 h 1.071 l 2.923,-1.119 2.505,-0.427 1.5,-0.907 1.563,-2.502 1.268,-1.172 2.735,-1.333 1.433,-4.104 1.573,-2.717 1.791,-1.119 z"
               style="fill:none;stroke:#000000;stroke-width:1;stroke-linecap:round;stroke-linejoin:round;stroke-miterlimit:4;stroke-dasharray:none;stroke-opacity:1"
               id="path3851" />
          </g>
        </g>
      </g>
      <g
         id="g3853">
        <g
           id="g3855"
           clip-path="url(#clipPath3859)">
          <g
             id="g3861"
             transform="translate(247.7303,154.1881)">
            <path
               d="m 0,0 c 0,-44.397 -35.991,-80.388 -80.388,-80.388 -44.397,0 -80.387,35.991 -80.387,80.388 0,44.396 35.99,80.388 80.387,80.388 C -35.991,80.388 0,44.396 0,0 Z"
               style="fill:none;stroke:#000000;stroke-width:1.326;stroke-linecap:round;stroke-linejoin:round;stroke-miterlimit:4;stroke-dasharray:none;stroke-opacity:1"
               id="path3863" />
          </g>
        </g>
      </g>
      <text
         transform="matrix(1,0,0,-1,130.5723,140.7266)"
         style="font-variant:normal;font-weight:600;font-stretch:normal;font-size:11px;font-family:'Open Sans SemiBold';-inkscape-font-specification:OpenSans-SemiBold;writing-mode:lr-tb;fill:#000000;fill-opacity:1;fill-rule:nonzero;stroke:none"
         id="text3867"><tspan
           x="0 7.9860001 16.148001 19.503 26.774 35.387001"
           y="0"
           sodipodi:role="line"
           id="tspan3865">GUIANA</tspan></text>
      <text
         transform="matrix(1,0,0,-1,180.7461,114.9561)"
         style="font-variant:normal;font-weight:600;font-stretch:normal;font-size:9px;font-family:'Open Sans SemiBold';-inkscape-font-specification:OpenSans-SemiBold;writing-mode:lr-tb;fill:#4d4d4d;fill-opacity:1;fill-rule:nonzero;stroke:none"
         id="text3871"><tspan
           x="0 4.9499998 11.628 17.379 20.124001 27.171 33.119999 41.426998"
           y="0"
           sodipodi:role="line"
           id="tspan3869">SURINAME</tspan></text>
      <text
         transform="matrix(1,0,0,-1,168.748,166.1074)"
         style="font-variant:normal;font-weight:600;font-stretch:normal;font-size:11px;font-family:'Open Sans SemiBold';-inkscape-font-specification:OpenSans-SemiBold;writing-mode:lr-tb;fill:#000000;fill-opacity:1;fill-rule:nonzero;stroke:none"
         id="text3875"><tspan
           x="0 7.8759999 14.102 20.7064 25.3374 31.343399 37.569401 41.782398 48.386799 57.263802"
           y="0"
           sodipodi:role="line"
           id="tspan3873">Georgetown</tspan></text>
      <g
         id="g3877">
        <g
           id="g3879"
           clip-path="url(#clipPath3883)">
          <g
             id="g3885"
             transform="translate(168.7488,159.6422)">
            <path
               d="m 0,0 c -1.304,0 -2.365,1.061 -2.365,2.365 0,1.303 1.061,2.364 2.365,2.364 1.304,0 2.364,-1.061 2.364,-2.364 C 2.364,1.061 1.304,0 0,0"
               style="fill:#f66a32;fill-opacity:1;fill-rule:nonzero;stroke:none"
               id="path3887" />
          </g>
          <g
             id="g3889"
             transform="translate(168.7488,164.4767)">
            <path
               d="m 0,0 c -1.362,0 -2.471,-1.108 -2.471,-2.47 0,-1.362 1.109,-2.47 2.471,-2.47 1.361,0 2.47,1.108 2.47,2.47 C 2.47,-1.108 1.361,0 0,0 m 0,-0.21 c 1.247,0 2.259,-1.012 2.259,-2.26 0,-1.248 -1.012,-2.259 -2.259,-2.259 -1.248,0 -2.26,1.011 -2.26,2.259 0,1.248 1.012,2.26 2.26,2.26"
               style="fill:#000000;fill-opacity:1;fill-rule:nonzero;stroke:none"
               id="path3891" />
          </g>
        </g>
      </g>
    </g>
  </g>
</svg>
