<svg xmlns="http://www.w3.org/2000/svg" viewBox="0 0 160 160"><defs><clipPath id="clip-path"><circle class="cls-1" cx="79.84" cy="-376.96" r="77.84"/></clipPath><clipPath id="clip-path-2"><circle class="cls-1" cx="79.84" cy="-135.92" r="77.84"/></clipPath><clipPath id="clip-path-3"><circle class="cls-1" cx="79.84" cy="80.08" r="77.84"/></clipPath><pattern id="_10_dpi_10_2" data-name="10 dpi 10% 2" width="28.8" height="28.8" patternTransform="matrix(.23 0 0 .23 442.54 -240.05)" patternUnits="userSpaceOnUse"><path class="cls-1" d="M0 0h28.8v28.8H0z"/><circle class="cls-2" cx="28.8" cy="28.8" r=".72"/><path class="cls-2" d="M14.4 29.52a.72.72 0 10-.72-.72.72.72 0 00.72.72zM28.8 15.12a.72.72 0 10-.72-.72.72.72 0 00.72.72zM14.4 15.12a.72.72 0 10-.72-.72.72.72 0 00.72.72zM7.2 22.32a.72.72 0 10-.72-.72.72.72 0 00.72.72zM21.6 22.32a.72.72 0 10-.72-.72.72.72 0 00.72.72zM7.2 7.92a.72.72 0 10-.72-.72.72.72 0 00.72.72zM21.6 7.92a.72.72 0 10-.72-.72.72.72 0 00.72.72z"/><circle class="cls-2" cy="28.8" r=".72"/><path class="cls-2" d="M0 15.12a.72.72 0 000-1.44.72.72 0 00-.72.72.72.72 0 00.72.72zM28.8.72a.72.72 0 00.72-.72.72.72 0 00-.72-.72.72.72 0 00-.72.72.72.72 0 00.72.72zM14.4.72a.72.72 0 00.72-.72.72.72 0 00-.72-.72.72.72 0 00-.72.72.72.72 0 00.72.72zM0 .72A.72.72 0 00.72 0 .72.72 0 000-.72.72.72 0 00-.72 0 .72.72 0 000 .72z"/></pattern><style>.cls-1{fill:none}.cls-2{fill:#f66a32}.cls-4,.cls-5{fill:#fff;stroke:#000;stroke-linecap:round;stroke-linejoin:round;stroke-width:.93px}.cls-4{fill-rule:evenodd}.cls-14{letter-spacing:.01em}</style></defs><g id="MAPAS"><g clip-path="url(#clip-path)"><path class="cls-4" d="M436.09-206.3l-1.02 5.37-.2 5.77-3.94 8.5-1.72 4.66-12.67 12.22-1.91 1.84-6.78 4.66-3.64 4.55-2.94 6.78-7.69 9.31-1.72.2-1.22-3.13-.7-.31-1.52 3.24-.2 2.43-2.93 3.64.7 2.43-1.21 3.34.71 3.14-1.42 5.16.2 12.15.81 3.13-4.86 14.07.2 6.58-5.87 5.36-1.41 8.71-1.21 7.08-6.28 7.99-.81 2.94-5.57 5.57-.46 1.2-1.97 5.07v4.66l-9.92 4.85-1 3.85-9.01 1.01-2.13-.2-1.72-2.43-1.21.4-.21 1.73-2.22.71-3.44-1.42-3.65 1.21-2.12-1.21-2.73 1.21-.41.71 1.22 1.72-.51.71h-1.72l-7.08 3.94-.91 1.42-4.15-.51-8.71 3.95-12.64 9.72L280.64-5l-1.52 2.02-2.93.2-1.93.72-.5.5 2.43 1.92-1.18 4.04-.44 1.53-1.72 2.02.91 2.83v9.31l-.91 3.65-.51 7.69-1.42 1.72v1.21l-8.8 7.29-4.15 7.29-4.55 9.51-8 9.21-6.58 5.06-4.15 5.36-2.63 6.38-6.07 6.48-1.52.3-1.21-4.15.5-3.14 1.73-1.92.7-1.52-1.92-1.41-4.15-6.07-4.35-1.93-2.93-3.94-4.35-1.73-5.37-5.56-.51.5-2.63 2.43-1.21-.7v-2.23l-3.95-4.86-1.92-1.42-4.15-2.22-2.13 2.73-3.69-.76 2.98-3.89 6.08-7.49.4-1.52 7.29-8.5 2.02-.21.91-2.43 8.81-7.08 3.33-1.72 5.88-3.85 1.21-3.84.13-6.38-2.05-5.57-2.23-1.21-3.64.21-1.21-.71 1.41-7.49 1.52-5.16-.31-1.62v-3.65l-3.33-2.02-5.57 2.43-2.43-.91-.81-1.72-1.21-4.15-.71-6.07-2.43-6.78-3.14-.21-3.14-2.22-2.93 1.92-4.86-.2-5.56-1.52-1.72.81-1.22-.81.51-14.57-2.23-3.65-.91-6.07.54-1.91 1.08-3.86 3.95-16.09-3.14-6.48-5.37-2.43-1.71-5.15 1.01-2.94.2-3.34-18.92.2-1.52-.91-.41-7.79-3.64-4.15 1.62-1.72-.4-2.13.9-3.23-1.92-3.34 1.21-2.74-4.85-3.84-3.65-1.42-7.79.71-4.15-4.66-3.84-.5-4.86-2.64-1.72-1.92h-1.42l-1.21.21-3.14-2.13-5.87.71-2.63-.51-2.23-3.64-2.63-.71-4.15-3.14-3.13-7.59.7-2.13-1.72-4.65 1.42-4.85-.71-4.16-1.21-.7-1.93 1.92h-7.49l-1.89 1.09-6.61 3.77-6.07 4.14-1.21 1.73-3.64.2-2.74 3.64-4.35 1.92-1.42-1.21-7.59-.2-5.57.51-3.64 1.72-2.43-1.01-1.21-12.86.71-2.73-1.22-1.93-8.7 7.09-6.58.2-3.44-5.77-8.9-.5-.51-.51 1.92-2.63-1.01-2.93-3.34-3.44-3.14-4.16-2.43-3.13.91-1.22-3.33-2.43.4-2.12 2.02-1.01.13-3.63-.02-.01h.02l.08-2.23 6.07-4.55-.51-5.87 2.74-5.57.2-4.15 10.93-8 10.42-2.63 1.52-2.43 5.26-.5 2.94 1.92 1.01-1.72 1.72-3.34 3.85-31.88-2.23-3.34v-3.44l-5.06-4.35-.2-8.5 5.05-2.23 3.65.71.71-1.42-1.22-2.63-3.34-.51-2.73-.7.3-6.58 14.58-.5 2.83-1.02-.4-.41.71-1.71h1.21l2.94 2.12 5.26-4.55 1.01 1.21 3.64 9.41 1.73-.4 7.79 5.06 3.13-1.22 3.14-1.92 1.01.21-.3 3.13 1.21.51 4.15-4.35.51-1.42 4.86-2.03 2.93-2.42 1.62 1.21 2.43-3.34.3-2.23 7.29-4.35.5-1.92-7.08-.71-1.01-2.93-1.22-4.16-1.21-2.42.3-2.63-5.56-5.87-.51-1.02 1.42-.4 1.01.71h4.15l1.92 2.43 5.56.2 1.73-1.22 5.57 4.16 1.72-1.22-.31-3.14 3.65-1.72 1.21-1.21 3.64 1.01 4.46-1.22 1.92-1.71 3.13-1.73 1.42.21 6.38-5.77-.5-2.23 4.85-.71 1.92 2.44-.5 4.85 2.02 1.42 1.42.51 1.42 4.34.81 2.24-3.65 3.83.2 3.95-1.21 6.08.2 2.12 2.43 1.52.31 4.56 6.98 5.66 2.43 1.62 2.73-.41 3.84-3.44 2.23.21 2.94-1.93h3.13l3.85-3.13 4.85 1.01 1.73-1.21 6.78 1.41 2.73-.71-.31-1.21-2.42-2.43 2.23-2.73h3.13l7.79-1.63 3.14 2.64 2.94.2 2.62 2.03 3.65-.82 2.23-1.21 2.43.81 2.62-.51 2.23 1.73 3.14-.82 2.94-2.83 6.57-12.45 3.34-4.35 1.01-2.43 1.22-2.43 3.85 3.44 4.35 17.72 1.52 3.33.71 2.23 1.71 1.72 5.37 2.43 1.41 2.93-.2 3.14-5.36 5.57-3.44 4.65-6.28 3.34.21 2.74-3.14 2.63-1.02 1.42-1.21 3.44-2.12 1.72-2.43 2.62-7.8 2.74 4.86.71v4.86l1.93 2.43-.51-6.38 9.31-4.86 4.35-3.34 1.72.2.41 3.64 1.21 2.44-.71 3.13-2.93.31.81 2.12 1.62.51 2.23-2.13 1.21.71h2.43l3.14-1.21 1.71 1.21 1.02.91 3.64-1.62.91.92-.51 2.93-2.63 4.65.21 1.93 1.21-1.22 4.15-8.29 6.38-5.07 2.12.51.51-.81-.21-1.41 4.05-5.57 5.37-2.43 2.42.91 1.93-.71 5.67 2.23 2.42 2.12 3.14-.4 2.13 2.43 2.43.7 2.93.92 1.72.81 1.01-.31.41 1.01.51 2.43h1l1.22-1.52 3.85 1.22 2.93 3.24-.21 1.92-1.51 1.92 2.23-.2.71.91-1.93 2.73-1.01 3.35 1.21.7.3.81-1.01 2.13.71.5 3.65-3.84 2.22-.51 2.43-2.22 4.35-.71 1.22-1.73 10.73 4.16 3.84 1.92 2.64-.71.5 1.01 3.64.71 2.74.71 11.63-1.01 9.92 4.45 15.28 12.15 5.37 6.06 1.91 1.19 5.17 3.17 6.07 2.12 8.51.31 3.13 3.13 2.72 12.49 1.94 8.66z"/><path class="cls-4" d="M212.83-.85l-1.72 10.93-3.84 5.16-3.44 1.92-2.43 3.85-4.56-1.22-2.42 2.73-2.43-1.21-2.03.71-1.62-1.01-2.22.71-8.5-2.13h-6.58l.5-2.43 3.65-5.87 1.21-5.36 1.72-.71.91-3.64 2.43-2.94-.71-2.83-6.57-2.94-.92.21-3.44-2.13-4.14-1.72-10.93-6.58-8.71-1.21-5.87-5.57-4.05-2.43-5.36-6.37-4.62-4.11 2.9-9.46.5-9 5.57-11.44 13.56-3.64 11.94-1.22 13.7 5.38-.54 1.91.91 6.07 2.23 3.65-.51 14.57 1.22.81 1.72-.81 5.56 1.52 4.86.2 2.93-1.92 3.14 2.22 3.14.21 2.43 6.78.71 6.07 1.21 4.15.81 1.72 2.43.91 5.57-2.43 3.34 2.02v3.65l.3 1.62-1.52 5.16-1.42 7.49z"/><path class="cls-5" d="M42.11 161.17l-1.02-2.63v-4.45l-2.43-4.05-1.21-6.07 3.14-1.22 1.21-2.73-.91-2.93 1.22-1.22.7-6.78 1.42-2.63-.71-1.52 3.95-13.76-.81-4.66 2.23-4.85-1.72-8.51 1.51-1.72.41-3.64-1.22-1.92-1.61-8.71-3.24-13.35 1.51-1.73 1.22-4.65-3.14-10.22.71-1.62 2.13-13.87v-4.35l.81-1.72.91-12.14-1.42-3.95 1.92-7.69-1.72-4.66-.71-13.35-1.72-1.93.71-4.15h1.01l.71-.71.51-16.79-1.22-8.51.21-7.28-2.64-8.7-1.92-12.15 2.13-.51L46.26-80l-.31-3.64 2.94-2.22 1.72 1.01 1.21 2.63L53.95-81l1.52 8.8 6.57 6.48-1.21 2.22.91 4.35-2.12 2.43.7 1.01v2.43l2.43 1.42-.3 2.73L64.88-47l3.64 8.8 2.43 8.91 1.21 2.73h4.86l2.44-.09 1 1-.71 8.5-1.01 3.65-11.13 7.79v3.64L69.03.16l-1.22 5.77L70.04 12l-1.52 2.43 3.24 6.58-1.01 2.22-3.65.91-2.63 9.31-4.15 7.7-.7 6.88-1.73 2.43 1.73 7.69 1.21 2.02-1.52 1.92-1.42 1.42-.5 5.57-.21 1.52-1.51 1.92 1.21 6.27 2.43 2.03v2.43l4.35 8.5v2.63l2.43 1.01.3 8 .71 2.12-3.44 7.59-.2 3.64-1.22 1.42 1.73 3.95.91 5.26-2.43 4.15-2.13 1.52-.51 3.34 1.22 7.79.2 1.01 2.94 8.91 1.21 2.02-.71 1.92-3.13 3.14h-.58l-1.33 6.94-.01.82.46 2.53-.77 6.34.23 4.57.97 2.3 1.66 1.23.34.67.26 1.91-.04.68-.5 1.24-1.51 2.04-.64 3.24.71 5.35.66.89.77.53.21.57.41 4.06.24.79 1.27 1.43.7 2.17-.23 4.45.23.75h1.36l2.67.68 1.49 1.18.33 1.28-.25 1.28-2.43.11-2.86-.32-.63.32.87 1.53 2.53.86 2.14 1.71.2 1.5-.87.64-.57.71-.1 1.39.51 3.81-.16.75.24 1.79.39 1.03.45 5.24-.66 2.17-.93 2.07-.11 1.36-1.4 2.56-2.24 2.46-.41 1-.16.71.15 2.07.3 1.28.63.72.62 1.53v1.21l-.5.28-.17.61-.17 2.82-.42 1.78-.33.6-1.79 1.89-1.92 3.67-.76.5-.75 1.47-.78 4.2.23 1.68-.12 1.24.54 4.07.32.28.67 1.93.66.85.56.18.74-.46.42-.86 1.4-.67 3.56.46.71-.86 1.11.18.3.39.85 2.32.43 2 .82 7.38.25.64 1.42 1.6.88.64 2.67.75h10.14l.86.28h.92l3.51-.1 3.19-.36 2.05.07 4.71 1.04 5.91.74 2.84 1.04.97.11.12.42-.65.15-2.14-.36h-2.01l-2.54-1-1.44-.07-2.43.82-.32 1-.65.82-2.93.39-2.82 1.21-.82.57-1.38.32-1.23-.14-1.17.5-1.61.32.37 2.78-.8 3.05.24 4.13-.22.96-.44.79-.49.39-1 .07-2.73-.67-1.57-.08-3.78-1.17-2.16-1.25-1.05-1.18-.04-1.24 1.45-.54.57.89-.12.75 1.48-.53.56-.79 1.01-.74 2.26-.24 2.01-.89 1.19-.82.7-1.42.1-.9-2.11-.81-1.22-1.06-1.2-1.37-1.92-.36-4.08-.1-2.35.67-.99.68-.11-.82-.44-.68-2.59.4-.1-.75.37-.54 1.99-.85.47-1.21-.39-1.5-2.12-1.6 1.5-.4.03-.74-.36-1.07-1.64-1.32-2.86-1.68-2.2-.78-.9-.08 6.01 2.93.03.93-.95.21-1.53-.46-1.56-1-.42.18 1.35 1.81-.51 1.14-.92.54-.62-.61-.7-.99-.47-1.14-1.35-1.79 1.37 1.93.46 1.78-.02 1.53-1-.1-.93-.36-.87-1.46-.09-3.07-1.63-2.46-4.87-3.42-.78-1.5.32-.92h2.1l1.72-.47-.33-1.49-.71-.32-.42.89h-.98L53 287.6l-1.08-1.35.44-.78 2.16.46-.38-.46-1.13-.86-2.35-.25-1.28-.53-1.34-.97-1.06-1.28 2.19-1.89-.06-2.17.38-.46-.11-.82 2.55-1.36 1.15.32h.77l-.06-.39-1.13-.43-.55-.78 1.01-3.82-.73.25-1.51 1.07-.15 1.21-.72 1.29-1.04-.4-.48-.99-.48-1.93-.56-4.17.58-.71.77.07-1.34-1 .24-1.53 2.83-.18 2.03 1.14-.68-1.07-.67-1.64-.69.57-3.64.75-.64-.5-.62-1.32-.89-.96-.39-2.85 1.47.25 1.2 1.35.81 1.32-.49-1.99.61-.43 3.95.6 3.08 1.64 1.2-.07-2.43-1.07-1.5-1.92-.78-1.82-.65-.86-.33.93-2.32-.07-.99-.75v-.68l1.23-.82-1.61-.35-2.45-1-.6-.43.81-1.35 1.76-.82 1.51-.36-1.47-.99 1.61-1.29-.59-.39-.7-.96-1.47-1-1.3-.68-1.42.07-.87.86-.95.25-2.8-1-1.11-.96-1.21-.68-1.47.61-.98.74.82.43.59 1.11-.27 1.28-1.91-.25-.52-1.28.41-2.89 1.34-.6 1.3-1.04 1.21-1.6 1.44-.18 1.56-.68-.14-1.03-.6-.25-.96.25-.71-.36-.54-.67-.25-1.22 3.15-.43 1.56.25.86.54 1.2-.79 1.18.5 1.06.61-.18 1.03.21.86.8-.68.26.96-.97 1.11-.33.78 1.03 1.11 1.23.18.71-1.39.87-.86.24.86-.15 1.53.12.85.85-.24.09-1.04.59-.57 1.17-.96 1.06-.43-.09-.61.3-1.1.67-1.64-.04-1.03-.8.42-.56.79-.24.85-1.05 1.89-.06-3.53.36-.67.32-.18 2.27-.36-1.6-.35-.08-.61.79-.75 1.27-.46-.08-.61-1.32.11-2.11.86.03-1.47.56-.78.89-.71.77-.18 1.64.89.99.45.91.41 1.08-.18-.26-1.04h-1.21l-2.7-1.21-1.68-.18.12-1.49-.13-.97.83-.43 1.89.08 1.51-.36 1.66-1.57.23-.89-.35-2.64-.81-1.07-1.05-.25-2.31-1.6-1.37-.46-.65-.61.35-.71 1.1-.82.2-1.07.53-1.07.86-.89-.55-.79.19-.99-1.18-.72-.26-.99.09-1 .36-.64.88-.79.65-2.74-1-3.17 1.21-1.65 1.37.29-1.09-.86-1.19-1.46.57-1.46 1.47.29 1.17 2.1-.23-1.74-.75-3.22H54.2l-1.63-.56.38-1.47 1.61-1.03 1.07-.27.99-.9-1.6.33H54l-1.14-.46-1.4-1.19-1.67-.13-1.03.57-.08 1.12-.77.66-2.24.55-2.67-.94.1-.93-.69-.9-.9-.31-.72-1.1-.46-1.78-.18-2.32.05-3.67.62-1.96-.75-7.31 1.64-.78.23-.93.76-.96.4-1.75-.13-.63h-.86z"/><path class="cls-5" d="M65.34 156.23l-1.17-2.14-2.94-8.91-.2-1.01-1.22-7.79.51-3.34 2.13-1.52 2.43-4.15-.91-5.26-1.73-3.95 1.22-1.42.2-3.64 3.44-7.59-.71-2.12-.3-8-2.43-1.01v-2.63l-4.35-8.5v-2.43l-2.43-2.03-1.21-6.27 1.51-1.92.21-1.52.5-5.57 1.42-1.42 1.52-1.92-1.21-2.02-1.73-7.69 1.73-2.43.7-6.88 4.15-7.7 2.63-9.31 3.65-.91 1.01-2.22-3.24-6.58L70.04 12l-2.23-6.07L69.03.16l-1.42-2.23v-3.64l11.13-7.79 1.01-3.65.71-8.5-1-1-.41-.42 1.21-3.44 2.43-1.41.4-2.43 3.65-1.42 2.22-3.94 3.65 2.42 12.34.51 4.46 7.08 3.34-8.8 10.72-.91 2.67 2.37 4.62 4.11 5.36 6.37 4.05 2.43 5.87 5.57 8.71 1.21 10.93 6.58 4.14 1.72 3.44 2.13.92-.21 6.57 2.94.71 2.83-2.43 2.94-.91 3.64-1.72.71-1.21 5.36-3.65 5.87-.5 2.43h6.58l8.5 2.13 2.22-.71 1.62 1.01 2.03-.71 2.43 1.21 2.42-2.73 4.56 1.22 2.43-3.85 3.44-1.92 3.84-5.16 1.72-10.93 1.22.71 3.64-.21 2.23 1.22 2.05 5.56-.13 6.38-1.21 3.84-5.87 3.85-3.34 1.72-8.81 7.09-.91 2.42-2.02.21-7.29 8.5-.4 1.51-6.08 7.5-2.98 3.89-1.67 2.18-.51 6.27-1.21 4.15v3.64l-2.13 4.15.91 2.43v8.7l-1.72 1.22-.7 1.21 1.01 10.02-1.52 1.72.81 2.84 11.13 7.79 1.72 2.43-1.92 6.38 1.92 2.83 4.35 2.02.2 5.06-6.98 10.93-.5 2.23-6.28 4.86-10.22 4.04-18.72 3.65-7.49-2.13-.81.51 1.72 4.85 1.52 1.93 5.36 2.97 1.06 3.85 1.25 1.26.18 2.67 1.5 4.56.03 1.11-.37 1.32-1.05 1.14-3.01.64-2.78 1.67-6.95-.18-1.74-.46-1.89-1.03-3.93-1.39-2.86-.68-1.89-1.78-1.72 2.07.45 3.38 1.5 2.89.76 5.01.51 2.13 2.8 1.93 2.53.64-.65 1.11 1.22.74 3.54-.82-.74-1.28-1.3-.64 2.96-.21 2.05-1.29 1.68 1.86 1.06 3.92-.09 1.67-1.22.82-1.93.61-1.66-.07-1.5-.54-.34-1.85-1.13-.89-2.04-.47-1.49.47-1.07.99-.98.08-.79.75.12.92 3.25 1.25 2.03.18 1.48.39 1.03.36-.04.35-5.84 2.71-.63 1-.5 1.25-1.34 1.64-.2 1.78.97 2.24.05 2.04.31 2.31-.54 1.71-.8.68-1.27.47-1.01 1.49 1.26 2.03.22.68-.42.89-6.15-.36-1.77.79-1.03 1.32h-1.87l-1.78.71-2.71 2.78-.85 1.21-.37 1.21-1.73 2.68-.25 2.31.47 1.04 1.36 1.96 1.52 1.64 1.82 1.03 4.43 3.46 4.7 1.35 2.32.07 2.19-.24 1.44 1.03.65 1.5.31 2.28-1.08 1.67-.62.4.99 1.67.4 1.32-1.37.43-.03 1.49h-1.43l-1.36.75-2.77 2.32-3.14 2.14-1.36.57-2.24 2.21-2.52 1.71-1.29 2.67-.23 1.61 1.42-.89-.89 4.92-.59 1.99-1.38 1.28-1.7.61-1.88-.07-1.43-.97-2.38-2.77.8 2.63 1.51.57.54.72.08.64-3.92 2.03-1.5 1.1-1.58 5.53-1.15 1.39H101l.93-.39 1.76 3.17.81 2.03-.42.86-2.24-.08-1.04.29 1.78.93.96-.15 1.15.22 3.27 3.85 4.15 3.03-1 .07-2.84-1.04-5.91-.74-4.71-1.04-2.05-.07-3.19.36-3.51.1h-.92l-.86-.28H76.98l-2.67-.75-.88-.64-1.42-1.6-.25-.64-.82-7.38-.43-2-.85-2.32-.3-.39-.86-.18-.96.86-3.56-.46-1.4.67-.42.86-.74.46-.56-.18-.66-.85-.67-1.93-.32-.28-.54-4.07.12-1.24-.23-1.68.78-4.2.75-1.47.76-.5 1.92-3.67 1.79-1.89.33-.6.42-1.78.17-2.82.17-.61.5-.28v-1.21l-.62-1.53-.63-.72-.18-1.28-.27-2.07.16-.71.41-1 2.24-2.46 1.4-2.56.11-1.36.93-2.07.66-2.17-.45-5.24-.39-1.03-.24-1.79.16-.75-.51-3.81.1-1.39.57-.71.87-.64-.2-1.5-2.14-1.71-2.53-.86-.87-1.53.63-.32 2.86.32 2.43-.11.25-1.28-.33-1.28-1.49-1.18-2.67-.68h-1.36l-.23-.75.23-4.45-.7-2.17-1.27-1.43-.24-.79-.41-4.06-.21-.57-.77-.53-.66-.89-.71-5.35.64-3.24 1.51-2.04.5-1.24.04-.68-.26-1.91-.34-.67-1.66-1.23-.97-2.3-.23-4.57.77-6.34-.46-2.53.01-.82 1.82-9.66.23-2.35 3.66.13z"/></g><g clip-path="url(#clip-path-2)"><path class="cls-4" d="M436.09 34.75l-1.02 5.36-.2 5.77-3.94 8.5-1.72 4.66-12.67 12.23-1.91 1.84-6.78 4.65-3.64 4.55-2.94 6.78-7.69 9.31-1.72.21-1.22-3.14-.7-.3-1.52 3.23-.2 2.43-2.93 3.65.7 2.43-1.21 3.33.71 3.14-1.42 5.16.2 12.15.81 3.14-4.86 14.07.2 6.57-5.87 5.36-1.41 8.71-1.21 7.08-6.28 8-.81 2.93-5.57 5.57-.46 1.2-1.97 5.07v4.66l-9.92 4.85-1 3.85-9.01 1.01-2.13-.2-1.72-2.43-1.21.41-.21 1.72-2.22.71-3.44-1.42-3.65 1.21-2.12-1.21-2.73 1.21-.41.71 1.22 1.72-.51.71h-1.72l-7.08 3.95-.91 1.41-4.15-.5-8.71 3.94-12.64 9.73-1.93 1.61-1.52 2.02-2.93.2-1.93.72-.5.5 2.43 1.92-1.18 4.05-.44 1.52-1.72 2.03.91 2.83v9.31l-.91 3.64-.51 7.69-1.42 1.72v1.22l-8.8 7.28-4.15 7.29-4.55 9.52-8 9.2-6.58 5.07-4.15 5.36-2.63 6.37-6.07 6.48-1.52.3-1.21-4.15.5-3.13 1.73-1.93.7-1.51-1.92-1.42-4.15-6.07-4.35-1.93-2.93-3.94-4.35-1.72-5.37-5.57-.51.51-2.63 2.43-1.21-.71v-2.23l-3.95-4.86-1.92-1.41-4.15-2.22-2.13 2.72-3.69-.76 2.98-3.89 6.08-7.49.4-1.52 7.29-8.5 2.02-.21.91-2.42 8.81-7.08 3.33-1.73 5.88-3.84 1.21-3.85.13-6.37-2.05-5.57-2.23-1.22-3.64.21-1.21-.71 1.41-7.49 1.52-5.16-.31-1.62v-3.64l-3.33-2.03-5.57 2.43-2.43-.91-.81-1.72-1.21-4.15-.71-6.07-2.43-6.78-3.14-.2-3.14-2.23-2.93 1.92-4.86-.2-5.56-1.52-1.72.81-1.22-.81.51-14.57-2.23-3.64-.91-6.08.54-1.91 1.08-3.85 3.95-16.09-3.14-6.48-5.37-2.43-1.71-5.16 1.01-2.93.2-3.35-18.92.21-1.52-.91-.41-7.8-3.64-4.15 1.62-1.72-.4-2.12.9-3.24-1.92-3.34 1.21-2.73-4.85-3.85-3.65-1.41-7.79.7-4.15-4.66-3.84-.5-4.86-2.63-1.72-1.92h-1.42l-1.21.2-3.14-2.12-5.87.7-2.63-.51-2.23-3.64-2.63-.71-4.15-3.13-3.13-7.59.7-2.13-1.72-4.65 1.42-4.86-.71-4.15-1.21-.71-1.93 1.92h-7.49l-1.89 1.09-6.61 3.77-6.07 4.15-1.21 1.72-3.64.2-2.74 3.65-4.35 1.92-1.42-1.21-7.59-.21-5.57.51-3.64 1.72-2.43-1.01-1.21-12.85.71-2.74-1.22-1.92-8.7 7.08-6.58.2-3.44-5.76-8.9-.51-.51-.51 1.92-2.62-1.01-2.94-3.34-3.44-3.14-4.15-2.43-3.14.91-1.21-3.33-2.43.4-2.13 2.02-1.01.13-3.63-.02-.01h.02l.08-2.23 6.07-4.55-.51-5.87 2.74-5.57.2-4.15 10.93-8 10.42-2.62L25.61.04l5.26-.51 2.94 1.92 1.01-1.72 1.72-3.34 3.85-31.88-2.23-3.33v-3.45l-5.06-4.34-.2-8.51 5.05-2.22 3.65.7.71-1.41-1.22-2.64-3.34-.5-2.73-.71.3-6.58 14.58-.5L52.73-70l-.4-.4.71-1.72h1.21L57.19-70l5.26-4.55 1.01 1.21 3.64 9.42 1.73-.41 7.79 5.06 3.13-1.21 3.14-1.92 1.01.2-.3 3.13 1.21.51 4.15-4.35.51-1.42 4.86-2.02 2.93-2.43 1.62 1.21 2.43-3.34.3-2.23 7.29-4.34.5-1.93-7.08-.71-1.01-2.93-1.22-4.15-1.21-2.43.3-2.63-5.56-5.87-.51-1.02 1.42-.4 1.01.71h4.15l1.92 2.43 5.56.21 1.73-1.22 5.57 4.15 1.72-1.22-.31-3.14 3.65-1.71 1.21-1.22 3.64 1.01 4.46-1.21 1.92-1.72 3.13-1.72 1.42.2 6.38-5.77-.5-2.22 4.85-.71 1.92 2.43-.5 4.85 2.02 1.42 1.42.51 1.42 4.34.81 2.24-3.65 3.84.2 3.95-1.21 6.07.2 2.13 2.43 1.51.31 4.56 6.98 5.66 2.43 1.62 2.73-.4 3.84-3.44 2.23.2 2.94-1.93h3.13l3.85-3.13 4.85 1.01 1.73-1.21 6.78 1.41 2.73-.7-.31-1.22-2.42-2.43 2.23-2.73h3.13l7.79-1.62 3.14 2.63 2.94.21 2.62 2.02 3.65-.81 2.23-1.21 2.43.8 2.62-.5 2.23 1.72 3.14-.81 2.94-2.83 6.57-12.45 3.34-4.35 1.01-2.43 1.22-2.43 3.85 3.44 4.35 17.71 1.52 3.34.71 2.23 1.71 1.72 5.37 2.42 1.41 2.94-.2 3.13-5.36 5.57-3.44 4.66-6.28 3.34.21 2.73-3.14 2.63-1.02 1.42-1.21 3.44-2.12 1.72-2.43 2.63-7.8 2.74 4.86.7v4.86l1.93 2.43-.51-6.37 9.31-4.87 4.35-3.34 1.72.21.41 3.64 1.21 2.43-.71 3.14-2.93.3.81 2.13 1.62.5 2.23-2.13 1.21.72h2.43l3.14-1.22 1.71 1.22 1.02.91 3.64-1.63.91.92-.51 2.93-2.63 4.66.21 1.92 1.21-1.22 4.15-8.29 6.38-5.06 2.12.51.51-.81-.21-1.42 4.05-5.57 5.37-2.42 2.42.9 1.93-.71 5.67 2.23 2.42 2.12 3.14-.4 2.13 2.43 2.43.71 2.93.91 1.72.81 1.01-.3.41 1.01.51 2.43h1l1.22-1.52 3.85 1.22 2.93 3.23-.21 1.92-1.51 1.93 2.23-.2.71.91-1.93 2.73-1.01 3.34 1.21.71.3.81-1.01 2.12.71.51 3.65-3.85 2.22-.5 2.43-2.23 4.35-.71 1.22-1.72 10.73 4.15 3.84 1.92 2.64-.71.5 1.02 3.64.7 2.74.71 11.63-1.01 9.92 4.45 15.28 12.15 5.37 6.07 1.91 1.18 5.17 3.18 6.07 2.12 8.51.3 3.13 3.14 2.72 12.48 1.94 8.67z"/><path class="cls-4" d="M43.52 77.96l7.59.2 1.42 1.22 4.35-1.92 2.74-3.65 3.64-.2 1.21-1.72 6.07-4.15 6.61-3.77 1.9-1.09h7.48l1.93-1.92 1.21.71.71 4.15-1.42 4.86 1.72 4.65-.71 2.13 3.14 7.59 4.15 3.14 2.63.7 2.23 3.65 2.63.5 5.87-.71 3.14 2.13 1.21-.2h1.42l1.72 1.92 4.86 2.63 3.84.51 4.15 4.65 7.79-.71 3.65 1.42 4.85 3.85-1.21 2.73 1.92 3.34-.91 3.23.41 2.13-1.62 1.72 3.64 4.15.41 7.8 1.52.9 18.92-.2-.2 3.34-1.02 2.94 1.73 5.16 5.36 2.43 3.14 6.47-3.95 16.1-1.08 3.85-13.7-5.37-11.94 1.21-13.56 3.65-5.57 11.43-.5 9.01-2.9 9.45-2.67-2.37-10.72.91-3.34 8.81-4.46-7.09-12.34-.5-3.65-2.43-2.22 3.95-3.65 1.41-.4 2.43-2.43 1.42-1.21 3.44.41.42-2.44.09h-4.86l-1.21-2.74-2.43-8.9-3.64-8.81-2.43-2.12.3-2.74-2.43-1.41v-2.43l-.7-1.01 2.12-2.43-.91-4.35 1.21-2.23-6.57-6.48-1.52-8.8-2.13-1.22-1.21-2.63-1.72-1.01-.71-4.35 5.77-8.5 1.01-2.63-3.14-1.02-1.52-3.13-1.21-5.16 1.21-3.14-2.12-4.15 3.84-5.27 1.02-2.93-2.23-7.08 1.01-3.34-.51-4.86 2.23-3.24v-2.43L43.52 77.96z"/><path class="cls-5" d="M42.11 402.21l-1.02-2.63v-4.45l-2.43-4.05-1.21-6.07 3.14-1.21 1.21-2.74-.91-2.93 1.22-1.21.7-6.79 1.42-2.63-.71-1.51 3.95-13.77-.81-4.65 2.23-4.86-1.72-8.5 1.51-1.72.41-3.64-1.22-1.93-1.61-8.7-3.24-13.36 1.51-1.72 1.22-4.66-3.14-10.22.71-1.62 2.13-13.86v-4.35l.81-1.73.91-12.14-1.42-3.95 1.92-7.69-1.72-4.65-.71-13.36-1.72-1.92.71-4.15h1.01l.71-.71.51-16.8-1.22-8.5.21-7.29-2.64-8.7-1.92-12.15 2.13-.5 3.24-3.14-.31-3.64 2.94-2.23 1.72 1.01 1.21 2.63 2.13 1.22 1.52 8.8 6.57 6.48-1.21 2.23.91 4.35-2.12 2.43.7 1.01v2.43l2.43 1.41-.3 2.74 2.43 2.12 3.64 8.81 2.43 8.9 1.21 2.74h4.86l2.44-.09 1 1-.71 8.5-1.01 3.64-11.13 7.79v3.65l1.42 2.22-1.22 5.77 2.23 6.07-1.52 2.43 3.24 6.58-1.01 2.23-3.65.91-2.63 9.31-4.15 7.69-.7 6.88-1.73 2.43 1.73 7.69 1.21 2.02-1.52 1.93-1.42 1.42-.5 5.56-.21 1.52-1.51 1.92 1.21 6.28 2.43 2.02v2.43l4.35 8.5v2.63l2.43 1.01.3 8 .71 2.12-3.44 7.59-.2 3.65-1.22 1.41 1.73 3.95.91 5.26-2.43 4.15-2.13 1.52-.51 3.34 1.22 7.79.2 1.01 2.94 8.91 1.21 2.02-.71 1.93-3.13 3.13h-.58l-1.33 6.94-.01.82.46 2.53-.77 6.35.23 4.56.97 2.3 1.66 1.23.34.68.26 1.9-.04.68-.5 1.25-1.51 2.03-.64 3.24.71 5.35.66.89.77.54.21.57.41 4.06.24.78 1.27 1.43.7 2.17-.23 4.46.23.75h1.36l2.67.67 1.49 1.18.33 1.29-.25 1.28-2.43.1-2.86-.32-.63.32.87 1.54 2.53.85 2.14 1.71.2 1.5-.87.64-.57.71-.1 1.39.51 3.82-.16.75.24 1.78.39 1.03.45 5.24-.66 2.18-.93 2.06-.11 1.36-1.4 2.56-2.24 2.46-.41 1-.16.72.15 2.06.3 1.29.63.71.62 1.53v1.21l-.5.29-.17.6-.17 2.82-.42 1.78-.33.61-1.79 1.89-1.92 3.67-.76.5-.75 1.46-.78 4.2.23 1.68-.12 1.25.54 4.06.32.29.67 1.92.66.86.56.17.74-.46.42-.85 1.4-.68 3.56.46.71-.85 1.11.17.3.4.85 2.31.43 2 .82 7.38.25.64 1.42 1.6.88.64 2.67.75h10.14l.86.29h.92l3.51-.11 3.19-.36 2.05.08 4.71 1.03 5.91.75 2.84 1.03.97.11.12.43-.65.14-2.14-.36h-2.01l-2.54-.99-1.44-.08-2.43.82-.32 1-.65.82-2.93.39-2.82 1.22-.82.56-1.38.33-1.23-.15-1.17.5-1.61.32.37 2.78-.8 3.05.24 4.14-.22.96-.44.78-.49.39-1 .08-2.73-.68-1.57-.07-3.78-1.18-2.16-1.25-1.05-1.17-.04-1.25 1.45-.53.57.89-.12.75 1.48-.54.56-.78 1.01-.75 2.26-.23 2.01-.9 1.19-.81.7-1.43.1-.89-2.11-.82-1.22-1.05-1.2-1.37-1.92-.36-4.08-.11-2.35.68-.99.67-.11-.81-.44-.68-2.59.39-.1-.75.37-.53 1.99-.86.47-1.21-.39-1.5-2.12-1.6 1.5-.39.03-.75-.36-1.07-1.64-1.32-2.86-1.68-2.2-.78-.9-.07 6.01 2.92.03.93-.95.21-1.53-.46-1.56-1-.42.18 1.35 1.82-.51 1.14-.92.53-.62-.6-.7-1-.47-1.14-1.35-1.78 1.37 1.92.46 1.78-.02 1.54-1-.11-.93-.36-.87-1.46-.09-3.07-1.63-2.45-4.87-3.43-.78-1.49.32-.93h2.1l1.72-.46-.33-1.5-.71-.32-.42.89h-.98l-1.08-.71-1.08-1.36.44-.78 2.16.46-.38-.46-1.13-.86-2.35-.25-1.28-.53-1.34-.96-1.06-1.29 2.19-1.88-.06-2.18.38-.46-.11-.82 2.55-1.36 1.15.32h.77l-.06-.39-1.13-.43-.55-.78 1.01-3.81-.73.25-1.51 1.06-.15 1.22-.72 1.28-1.04-.39-.48-1-.48-1.92-.56-4.18.58-.71.77.07-1.34-.99.24-1.54 2.83-.17 2.03 1.13-.68-1.06-.67-1.64-.69.57-3.64.75-.64-.5-.62-1.32-.89-.97-.39-2.85 1.47.25 1.2 1.36.81 1.32-.49-2 .61-.43 3.95.61 3.08 1.64 1.2-.07-2.43-1.07-1.5-1.93-.78-1.82-.65-.85-.33.93-2.32-.08-.99-.74v-.68l1.23-.82-1.61-.36-2.45-.99-.6-.43.81-1.36 1.76-.82 1.51-.35-1.47-1 1.61-1.29-.59-.39-.7-.96-1.47-1-1.3-.67-1.42.07-.87.85-.95.25-2.8-.99-1.11-.97-1.21-.68-1.47.61-.98.75.82.43.59 1.1-.27 1.29-1.91-.26-.52-1.28.41-2.89 1.34-.6 1.3-1.03 1.21-1.61 1.44-.18 1.56-.67-.14-1.04-.6-.25-.96.25-.71-.35-.54-.68-.25-1.22 3.15-.42 1.56.25.86.53 1.2-.78 1.18.5 1.06.6-.18 1.04.21.85.8-.67.26.96-.97 1.1-.33.79 1.03 1.1 1.23.18.71-1.39.87-.86.24.86-.15 1.53.12.86.85-.25.09-1.03.59-.58 1.17-.96 1.06-.43-.09-.6.3-1.11.67-1.64-.04-1.03-.8.43-.56.78-.24.86-1.05 1.89-.06-3.53.36-.68.32-.18 2.27-.35-1.6-.36-.08-.61.79-.74 1.27-.47-.08-.61-1.32.11-2.11.86.03-1.46.56-.79.89-.71.77-.18 1.64.89.99.45.91.41 1.08-.18-.26-1.03h-1.21l-2.7-1.21-1.68-.18.12-1.5-.13-.96.83-.43 1.89.07 1.51-.36 1.66-1.57.23-.88-.35-2.64-.81-1.07-1.05-.25-2.31-1.6-1.37-.47-.65-.6.35-.72 1.1-.82.2-1.07.53-1.07.86-.89-.55-.78.19-1-1.18-.71-.26-1 .09-1 .36-.64.88-.78.65-2.75-1-3.17 1.21-1.64 1.37.28-1.09-.85-1.19-1.46.57-1.47 1.47.29 1.17 2.1-.23-1.74-.75-3.21H54.2l-1.63-.57.38-1.46 1.61-1.04 1.07-.26.99-.91-1.6.34H54l-1.14-.47-1.4-1.19-1.67-.13-1.03.57-.08 1.13-.77.66-2.24.55-2.67-.94.1-.93-.69-.91-.9-.31-.72-1.1-.46-1.78-.18-2.32.05-3.67.62-1.96-.75-7.31 1.64-.78.23-.93.76-.96.4-1.75-.13-.63h-.86zM-20.25-39.86v-3.78l-.79-.13-2-.77h-.73l-1.14-.18-2.94-2.3-1.29-.62-1.18-1.09-1.46-.62-.96.14-.69 1.24-.39.33h-1.87l-3.99-.47h-.84l-1.85.47-2.28-.18-.41-.77-.54-2.15-.59-1.09-2.49-2.01-5.67-3.1-6.22-2.67-.89-.62-.42-.61-.2-.63-1.01-1.24-.06-1.24.52-1.24.8-.91 2.42-.48.08-1.23-.5-1.72.23-1.86.85-2.78 2.22-1.38.56-.18 2.71.18 2.67-.95.55-.49.41-.61 1.2-4.97 2.55-3.54 2.31-2.34.53-.91.14-.62-.04-1.1-1.4 1.1-.99.14-1.26-.14-1.46-.62-.21-1.39.08-1.71.86-3.25-.06-1.53-.99-4.2-.95-5.4.36-1.39.94-1.53-.04-.95-.81-3.24.08-4.6-.17-.8-.93-1.54-2.34-1.68-.61-1.09-1.12-3.83-.61-.95h.41l-.05-1.06 1.39-1.24.06-1.68.7-.14 1.03.76.68-.62 1.76-2.77 1.07-1.1-.02-.58-.59-.62-.42-.14-.06-1.39-.64-1.39-1.03-.62.06-2.15.28-.62 3.55 4.01 1.96 2.92.89.58.64-1.34-.74-4.31-.45-.47-.16-.77.27-.62 3.31-2.45 1.48-1.38.54-.62 1.59-3.03.83-.95 2.68-.59 1.21-1.38v-3.36l.44-3.21.12-4.45.36-.91 1.39-1.35 4.14-3.21.7-.15 2.01.13 2.1.02.45.43.21 1.87.17-2.09 5.48-3.43 3.64-2.12 6.38-.51 10.63-6.07L8.1-188h12.35l-3.85 4.35-4.86 1.93h-1.21l-2.43 4.85-3.64 2.03-4.66 7.28-1.72 8.91-3.84 5.87 1.21.71 2.43-.91 3.14 1.62 1.01 4.86 3.64 4.14.21 2.74-1.72 2.63.5 3.44 2.93 1.62 1.42 2.73 2.23.71 5.36-.51 3.14.51 3.64-1.22 6.07.71h1.73l7.99 9.52h2.43l2.43-1.52 7.08.3 5.27-1.01 2.22-.71 1.92 1.01 1.02 2.13-1.92 4.15-.51 2.22-1.52 1.62v10.73l1.01 1.42.2 3.23 2.43 3.85 2.23 2.23-.2 1.41-6.08 5.88 2.13.7 1.92.51 4.46 4.86 1.21 4.55 1.92 4.86v2.73l-1.72.41-3.64-9.42-1.01-1.21L57.18-70l-2.93-2.12h-1.21l-.71 1.72.4.4-2.83 1.02-14.58.5-.3 6.58 2.73.71 3.34.5 1.22 2.64-.71 1.41-3.64-.7-5.06 2.22.2 8.5 5.06 4.35v3.44l2.23 3.34-3.85 31.88-1.72 3.34-3.44-4.15-4.15-.2v-1.92l6.07-10.43-9.92-5.36-3.84 1.92-5.87-1.72-5.57 3.14-2.93-.71-3.14.71-3.14-1.21-1.72-5.27-2.73-.8-2.13-5.07-7.79-3.44-1.01-2.83-3.76-2.25z"/><path class="cls-5" d="M-11.19-32.89l3.5 1.55 2.13 5.07 2.73.8 1.72 5.27 3.14 1.21 3.14-.71 2.93.71 5.57-3.14 5.87 1.72 3.84-1.92 9.92 5.36-6.07 10.43v1.92l4.15.2 3.44 4.15-1.01 1.72-2.94-1.92-5.26.51-1.52 2.43L13.67 5.1 2.74 13.09l-.2 4.15-2.74 5.57.51 5.87-6.07 4.55-.08 2.23-.13 3.64-2.02 1.01-.4 2.13 3.34 2.43-.92 1.21 2.43 3.14 3.14 4.15 3.34 3.44 1.01 2.93-1.92 2.63.51.51 8.9.51 3.44 5.76 6.58-.2 8.7-7.08 1.22 1.92-.71 2.73 1.21 12.86 2.43 1.01 3.65-1.72 5.56-.51 10.02 15.99v2.43l-2.23 3.24.51 4.86-1.01 3.34 2.23 7.08-1.02 2.93-3.84 5.27 2.12 4.15-1.21 3.14 1.21 5.16 1.52 3.13 3.14 1.02-1.01 2.63-5.77 8.5.71 4.35-2.94 2.23.31 3.64-3.24 3.14-2.13.5-11.64-7.59-.81-3.14-10.62-6.27-2.94-1.21-7.29-2.43-21.57-10.26-3.05-.41-3.22-3.04-3.55-2.17.99-4.26-1.49-1.21-1.63-2.26-2.08-2.08-.47-.76-.5-2.56.65-1.2.97-.92-.4-2.4-1.27-3.32-2.64-3.03-1.61-3.76-1.96-3.18-2.86-3.79-1.6-4.12-1.17-1.35-1.3-.77-1.04-.91-1.28-3.5-.75-4.71-.46-1.39-3.82-6.09-1.93-5.66-1.25-2.92-2.61-4.9-.48-1.24-.36-2.3-1.26-3.21-6.09-5.99-1.06-2.15-1.92-5.4-1.19-1.53-.44-.15-1.67-2.48-2.94-2.59-1.45-.95-2.65-2.15-1.64-1.53-3.05-2.01-.48-1.1 1.93-2 .34-1.39-.02-.62-.89-1.24-1.78-1.82-.41-2.81-1.03-1.68-.2-.62-.52-2.96.05-2.15.23-.95 2.57-3.25 2.85-3.24 1.94-1.54 1.5-1.71.03.76.65 2.05.45.44.21 1.71-.83 1.1-1.94.62-.67.91.03.62.6.95.38 2.92.33.47.95-.33 1.53-1.05 1.71.14.89.62.61.91 1.83-.14 1.27.14 1.07 1.72.49 1.38.9 1.54 1.57.18 2.1-.95 1.35-1.53 1.67-.77.28-.33.38-1.53-.04-4.34.31-2.92 2.51-4.05.43-.29.72.62h.44l.68-.48.09-2 .88-2.01.55-.62 1.26-.95 3.47-1.71 6.84-2.3 2.97-1.39 1.63-1.42 1.73-2.48 1.76-2.01 1.52-1.24 2.28-3.1 2.5-5.11 1.31-3.25h1.53l-1.55-3.72-.17-.95-1.11-2.48-.45-.62-.89-.47.1-1.72h2.13l.39-.44h.73l2 .77 1.72.29 1.03.62 1.07 1.72.86.8 1.88.91.98 2.81 1.08 1.86 1.22.77.01 1.1z"/></g><circle cx="80.16" cy="79.92" r="77.84" fill="url(#_10_dpi_10_2)"/><g clip-path="url(#clip-path-3)"><path class="cls-4" d="M436.09 250.75l-1.02 5.36-.2 5.77-3.94 8.5-1.72 4.66-12.67 12.23-1.91 1.84-6.78 4.65-3.64 4.55-2.94 6.78-7.69 9.31-1.72.21-1.22-3.14-.7-.3-1.52 3.23-.2 2.43-2.93 3.65.7 2.43-1.21 3.33.71 3.14-1.42 5.16.2 12.15.81 3.14-4.86 14.07.2 6.57-5.87 5.36-1.41 8.71-1.21 7.08-6.28 8-.81 2.93-5.57 5.57-.46 1.2-1.97 5.07v4.66l-9.92 4.85-1 3.85-9.01 1.01-2.13-.2-1.72-2.43-1.21.41-.21 1.72-2.22.71-3.44-1.42-3.65 1.21-2.12-1.21-2.73 1.21-.41.71 1.22 1.72-.51.71h-1.72l-7.08 3.95-.91 1.41-4.15-.5-8.71 3.94-12.64 9.73-1.93 1.61-1.52 2.02-2.93.2-1.93.72-.5.5 2.43 1.92-1.18 4.05-.44 1.52-1.72 2.03.91 2.83v9.31l-.91 3.64-.51 7.69-1.42 1.72v1.22l-8.8 7.28-4.15 7.29-4.55 9.52-8 9.2-6.58 5.07-4.15 5.36-2.63 6.37-6.07 6.48-1.52.3-1.21-4.15.5-3.13 1.73-1.93.7-1.51-1.92-1.42-4.15-6.07-4.35-1.93-2.93-3.94-4.35-1.72-5.37-5.57-.51.51-2.63 2.43-1.21-.71v-2.23l-3.95-4.86-1.92-1.41-4.15-2.22-2.13 2.72-3.69-.76 2.98-3.89 6.08-7.49.4-1.52 7.29-8.5 2.02-.21.91-2.42 8.81-7.08 3.33-1.73 5.88-3.84 1.21-3.85.13-6.37-2.05-5.57-2.23-1.22-3.64.21-1.21-.71 1.41-7.49 1.52-5.16-.31-1.62v-3.64l-3.33-2.03-5.57 2.43-2.43-.91-.81-1.72-1.21-4.15-.71-6.07-2.43-6.78-3.14-.2-3.14-2.23-2.93 1.92-4.86-.2-5.56-1.52-1.72.81-1.22-.81.51-14.57-2.23-3.64-.91-6.08.54-1.91 1.08-3.85 3.95-16.09-3.14-6.48-5.37-2.43-1.71-5.16 1.01-2.93.2-3.35-18.92.21-1.52-.91-.41-7.8-3.64-4.15 1.62-1.72-.4-2.12.9-3.24-1.92-3.34 1.21-2.73-4.85-3.85-3.65-1.42-7.79.71-4.15-4.66-3.84-.5-4.86-2.63-1.72-1.92h-1.42l-1.21.2-3.14-2.12-5.87.7-2.63-.51-2.23-3.64-2.63-.71-4.15-3.13-3.13-7.59.7-2.13-1.72-4.65 1.42-4.86-.71-4.15-1.21-.71-1.93 1.92h-7.49l-1.89 1.09-6.61 3.77-6.07 4.15-1.21 1.72-3.64.2-2.74 3.65-4.35 1.92-1.42-1.21-7.59-.21-5.57.51-3.64 1.72-2.43-1.01-1.21-12.85.71-2.74-1.22-1.92-8.7 7.08-6.58.2-3.44-5.76-8.9-.51-.51-.51 1.92-2.62-1.01-2.94-3.34-3.44-3.14-4.15-2.43-3.14.91-1.21-3.33-2.43.4-2.13 2.02-1.01.13-3.63-.02-.01h.02l.08-2.23 6.07-4.55-.51-5.87 2.74-5.57.2-4.15 10.93-8 10.42-2.62 1.52-2.44 5.26-.5 2.94 1.92 1.01-1.72 1.72-3.34 3.85-31.88-2.23-3.33v-3.45l-5.06-4.34-.2-8.51 5.05-2.22 3.65.7.71-1.41-1.22-2.64-3.34-.5-2.73-.71.3-6.58 14.58-.5 2.83-1.02-.4-.4.71-1.72h1.21l2.94 2.12 5.26-4.55 1.01 1.21 3.64 9.42 1.73-.41 7.79 5.07 3.13-1.22 3.14-1.92 1.01.2-.3 3.13 1.21.51 4.15-4.35.51-1.42 4.86-2.02 2.93-2.43 1.62 1.21 2.43-3.34.3-2.22 7.29-4.36.5-1.92-7.08-.71-1.01-2.93-1.22-4.15-1.21-2.43.3-2.63-5.56-5.87-.51-1.02 1.42-.4 1.01.71h4.15l1.92 2.43 5.56.21 1.73-1.22 5.57 4.15 1.72-1.22-.31-3.13 3.65-1.72 1.21-1.22 3.64 1.01 4.46-1.21 1.92-1.72 3.13-1.72 1.42.2 6.38-5.77-.5-2.22 4.85-.71 1.92 2.43-.5 4.85 2.02 1.42 1.42.51 1.42 4.34.81 2.24-3.65 3.84.2 3.95-1.21 6.07.2 2.12 2.43 1.52.31 4.56 6.98 5.66 2.43 1.62 2.73-.4 3.84-3.44 2.23.2 2.94-1.92h3.13l3.85-3.14 4.85 1.01 1.73-1.21 6.78 1.41 2.73-.7-.31-1.22-2.42-2.43 2.23-2.73h3.13l7.79-1.62 3.14 2.63 2.94.2 2.62 2.03 3.65-.81 2.23-1.22 2.43.81 2.62-.5 2.23 1.72 3.14-.81 2.94-2.83 6.57-12.45 3.34-4.35 1.01-2.43 1.22-2.43 3.85 3.44 4.35 17.71 1.52 3.34.71 2.22 1.71 1.73 5.37 2.42 1.41 2.94-.2 3.14-5.36 5.56-3.44 4.66-6.28 3.34.21 2.73-3.14 2.63-1.02 1.42-1.21 3.44-2.12 1.72-2.43 2.63-7.8 2.74 4.86.7v4.86l1.93 2.43-.51-6.38 9.31-4.86 4.35-3.34 1.72.21.41 3.64 1.21 2.43-.71 3.14-2.93.3.81 2.13 1.62.5 2.23-2.13 1.21.72h2.43l3.14-1.22 1.71 1.22 1.02.91 3.64-1.63.91.92-.51 2.93-2.63 4.66.21 1.92 1.21-1.21 4.15-8.3 6.38-5.06 2.12.51.51-.82-.21-1.41 4.05-5.57 5.37-2.42 2.42.9 1.93-.71 5.67 2.23 2.42 2.12 3.14-.4 2.13 2.43 2.43.71 2.93.91 1.72.81 1.01-.3.41 1.01.51 2.43h1l1.22-1.52 3.85 1.21 2.93 3.24-.21 1.92-1.51 1.93 2.23-.21.71.92-1.93 2.73-1.01 3.34 1.21.71.3.81-1.01 2.12.71.51 3.65-3.85 2.22-.5 2.43-2.23 4.35-.71 1.22-1.72 10.73 4.15 3.84 1.92 2.64-.71.5 1.02 3.64.7 2.74.71 11.63-1.01 9.92 4.45 15.28 12.15 5.37 6.07 1.91 1.18 5.17 3.17 6.07 2.13 8.51.3 3.13 3.14 2.72 12.48 1.94 8.67z"/><path d="M84.81 157.91a.58.58 0 01-.18 0l-1.21-.51a.46.46 0 01-.28-.47l.26-2.72-.42-.08-3 1.82-3.22 1.25a.32.32 0 01-.16 0 .5.5 0 01-.26-.08l-7.79-5.06a.46.46 0 01-.21-.39V149l-1.89-4.78-1.2-4.49-4.25-4.65-1.79-.47-2.21-.71a.46.46 0 01-.31-.34.51.51 0 01.13-.44l6-5.76.15-1-2.06-2.06-.07-.08-2.43-3.85a.52.52 0 01-.07-.22l-.19-3.1-.94-1.31a.5.5 0 01-.08-.27v-10.76a.45.45 0 01.12-.31l1.43-1.53.48-2.1 1.86-4-.85-1.79-1.61-.85-2 .65-5.32 1h-.11l-6.94-.3-2.3 1.44a.45.45 0 01-.25.07h-2.47a.46.46 0 01-.35-.16L31 87.47h-1.5l-6-.7L19.89 88h-.22l-3.08-.5-5.35.5h-.14l-2.23-.71A.49.49 0 018.6 87l-1.35-2.59-2.81-1.56a.45.45 0 01-.24-.33l-.5-3.44a.4.4 0 01.07-.32l1.63-2.5-.18-2.43-3.54-4a.41.41 0 01-.1-.21L.61 65l-2.76-1.43-2.24.84a.41.41 0 01-.16 0 .46.46 0 01-.23-.06L-6 63.62a.45.45 0 01-.21-.29.45.45 0 01.06-.33l3.8-5.8 1.7-8.81a.38.38 0 01.06-.16l4.66-7.29a.49.49 0 01.16-.16l3.52-2 2.37-4.73a.44.44 0 01.41-.26h1.21a.49.49 0 01.36.17.44.44 0 01.1.38L11.54 38l1.91 1.55.65.36a.46.46 0 01.23.34l.51 4.15-.2 3.23a.54.54 0 01-.09.24l-5 6.85 3.74 7.38 2.05.77L18.66 61 20 57.83l-1.17-4-2.43-4.46a.49.49 0 01-.06-.17l-.5-5.57a.46.46 0 01.17-.41L20.16 40l.13-.07 9.92-3.6 1.85-1.85a.47.47 0 01.33-.14h.09l2.19.45 1.24-1.23a.47.47 0 01.33-.14h.13L41 34.83l6.53.5a.58.58 0 01.21.07l3.84 2.43a.53.53 0 01.21.28l1.37 5.59 2.43 1.53 14.91-1.9h6.84a.49.49 0 01.33.13l3.74 3.74 9.22 1.47L99 44.59l1.34-.45-.91-.69a.44.44 0 01-.17-.46.45.45 0 01.34-.36l4-1 17.11-1.23h.07l3.44.5a.47.47 0 010 .91L117 43.53l-1.61.2-.28.27 1.61 1.7a.43.43 0 01.11.44l-.09.33 2.26 1.05a.44.44 0 01.24.26l1.28 3.38 1.67-1.16a.44.44 0 01.27-.09h2.73a.52.52 0 01.31.12l1.44 1.26 3-.66h.1a.46.46 0 01.23.06l5.2 2.91 2.16.49a.46.46 0 01.23.12l.71.71a.45.45 0 01.06.57l-4.1 6.5-.49 3.45 5.85-.94h7.56a.46.46 0 01.3.11l2.43 2.13a.46.46 0 01.07.62l-4.35 6.07a.45.45 0 01-.2.16L142 75l-1.54 2.36.45 2.66.72 1.11 2.49-.19a.47.47 0 01.45.38l.2 1a.45.45 0 01-.1.39l-1.42 1.62a.52.52 0 01-.19.14l-8 2.81.28 4.82a.46.46 0 01-.14.36L132.64 95l8.87 8.67a.59.59 0 01.13.23l.5 2.23a.48.48 0 01-.14.45l-6.38 5.77a.47.47 0 01-.31.11h-.06l-1.27-.18-2.98 1.62-1.88 1.68a.52.52 0 01-.19.11l-4.46 1.21h-.24l-3.38-.94-1 1a.3.3 0 01-.13.09l-3.35 1.59.28 2.81a.46.46 0 01-.2.42l-1.72 1.22a.5.5 0 01-.26.08.47.47 0 01-.28-.09l-5.3-3.95-1.45 1a.41.41 0 01-.26.09l-5.58-.21a.46.46 0 01-.35-.17l-1.78-2.25h-3.93a.41.41 0 01-.26-.09l-.84-.58-.66.19.22.45 5.52 5.82a.46.46 0 01.12.37l-.28 2.5 1.15 2.3 1.24 4.23.91 2.63 6.79.68a.46.46 0 01.4.58l-.5 1.92a.46.46 0 01-.21.28l-7.1 4.24-.27 2a.48.48 0 01-.09.21l-2.43 3.34a.45.45 0 01-.3.18h-.07a.42.42 0 01-.28-.1l-1.33-1-2.65 2.26-.11.08-4.67 1.92-.44 1.23a.54.54 0 01-.1.16l-4.15 4.35a.45.45 0 01-.34.17z" fill="#f2f2f2" fill-rule="evenodd"/><path d="M36.24 33.87l4.65 1.42 6.58.51 3.85 2.42L52.73 44l2.73 1.72 15.08-1.92h6.78l3.85 3.85 9.51 1.51 8.5-4.16 2.13-.7-1.62-1.22 4-1 17-1.21 3.44.5-7.29 1.72-1.72.21-.7.7 1.92 2-.2.71 2.63 1.21 1.48 3.94 2.16-1.51h2.73l1.62 1.42 3.24-.71 5.31 2.94 2.23.51.71.71-4.15 6.58-.6 4.2 6.47-1h7.49l2.43 2.13-4.35 6.07-3.85 1.52-1.69 2.57.5 2.93.92 1.42 2.73-.2.2 1-1.42 1.62-8.32 2.94.3 5.16L132 95l.51.5 8.7 8.51.51 2.22-6.41 5.77-1.41-.2-3.14 1.72-1.92 1.72-4.46 1.21-3.64-1-1.21 1.22-3.65 1.72.31 3.13-1.72 1.22-5.57-4.15-1.72 1.21-5.57-.2-1.92-2.43h-4.15l-1-.71-1.42.41.51 1 5.56 5.87-.3 2.63 1.22 2.43 1.21 4.15 1 2.93 7.08.71-.5 1.93-7.29 4.35-.3 2.22-2.43 3.34-1.62-1.21-2.93 2.43-4.86 2-.47 1.44-4.15 4.35-1.21-.51.3-3.13-1-.2-3.14 1.92-3.13 1.21-7.8-5.06v-2.73l-1.92-4.86-1.21-4.55-4.46-4.86-1.92-.51-2.13-.7 6.08-5.87.2-1.42-2.23-2.23-2.48-3.84-.2-3.24-1-1.42v-10.73l1.52-1.62.5-2.22 1.93-4.15-1-2.13-1.92-1-2.22.71-5.27 1L44 95l-2.4 1.52h-2.43l-8-9.52h-1.71l-6.08-.7-3.64 1.21L16.6 87l-5.36.51L9 86.8l-1.4-2.73-2.94-1.62L4.15 79l1.73-2.63-.21-2.74L2 69.5l-1-4.86L-2.12 63l-2.43.91-1.21-.71 3.84-5.87 1.72-8.89 4.66-7.28 3.64-2 2.43-4.85h1.21L11 38.22 13.16 40l.71.4.51 4.15-.21 3.14L9 54.72l4 7.79 2.43.91L19 61.3l1.42-3.44-1.22-4.15-2.4-4.56-.5-5.56 4.15-3.24 10-3.64 1.92-1.93 2.43.51 1.42-1.42m0-.92a.91.91 0 00-.66.27l-1.06 1.06-1.94-.4a.62.62 0 00-.19 0 .93.93 0 00-.66.27L30 35.91l-9.83 3.57a.77.77 0 00-.25.14l-4.15 3.24a.91.91 0 00-.35.81l.5 5.57a.89.89 0 00.11.35l2.38 4.47 1.1 3.75-1.18 2.85-3 1.74-1.68-.63-3.52-7 4.82-6.63a.86.86 0 00.18-.48l.2-3.14a1 1 0 000-.17l-.51-4.15a1 1 0 00-.46-.7l-.64-.36-1.64-1.33.61-3.41a.92.92 0 00-.92-1.09h-1.24a.94.94 0 00-.83.51l-2.3 4.6L4 40.35a.82.82 0 00-.33.31L-1 48a1 1 0 00-.13.32L-2.79 57l-3.75 5.71a1 1 0 00-.13.72.94.94 0 00.44.59l1.21.71a.9.9 0 00.47.13 1 1 0 00.33-.06l2-.77L.2 65.26l.92 4.42a1 1 0 00.21.43L4.77 74l.16 2.11-1.55 2.39a.86.86 0 00-.14.64l.5 3.44a1 1 0 00.47.68l2.69 1.48 1.29 2.49a.94.94 0 00.54.46l2.23.7a.87.87 0 00.28 0h.09l5.24-.49 3 .48h.15a.93.93 0 00.29 0l3.45-1.15 5.87.68h1.39l7.72 9.18a.94.94 0 00.71.33h2.45a.87.87 0 00.49-.14l2.19-1.36 6.79.29h.18l5.26-1h.11l1.85-.59 1.31.69.69 1.45-1.74 3.76-.06.18-.45 2-1.35 1.44a.93.93 0 00-.25.63v10.73a.88.88 0 00.18.54l.85 1.2.19 3a1 1 0 00.14.44l2.43 3.85a1.83 1.83 0 00.13.16l1.9 1.9-.1.64-5.84 5.65a.94.94 0 00-.26.87.93.93 0 00.61.68L59 135l1.66.44 4.19 4.56 1.15 4.32a.38.38 0 000 .1l1.86 4.7v2.55a.93.93 0 00.42.78l7.79 5.06a.92.92 0 00.51.15 1 1 0 00.33-.06l3.14-1.22.15-.07 2.65-1.62-.21 2.16a.93.93 0 00.56.94l1.22.51a.84.84 0 00.35.07.9.9 0 00.67-.29l4.15-4.35a1 1 0 00.21-.33l.36-1 4.48-1.87a.72.72 0 00.24-.14l2.37-2 1 .78a1 1 0 00.56.18H99a1 1 0 00.61-.37l2.43-3.34a.91.91 0 00.17-.42l.24-1.79 6.9-4.12a.94.94 0 00.43-.56l.5-1.92a.92.92 0 00-.8-1.16L103 135l-.82-2.37-1.18-4.09a1.11 1.11 0 00-.07-.16l-1.09-2.18.27-2.35a.9.9 0 00-.24-.75l-5-5.32.2.14a.93.93 0 00.53.17h3.7l1.65 2.08a.92.92 0 00.69.35l5.56.2a.9.9 0 00.53-.17l1.17-.83 5 3.75a1 1 0 00.56.18.94.94 0 00.53-.16l1.72-1.22a.93.93 0 00.39-.85l-.24-2.48 3-1.45a.68.68 0 00.26-.18l.83-.83 3.12.87h.25a1.07 1.07 0 00.25 0l4.45-1.22a1 1 0 00.37-.2l1.85-1.65 2.77-1.52 1.11.16h.13a.94.94 0 00.62-.24l6.38-5.77a.91.91 0 00.28-.89l-.5-2.23a1 1 0 00-.26-.46L133.3 95l2.25-2.18a.89.89 0 00.28-.72l-.26-4.47 7.64-2.7a.87.87 0 00.39-.26l1.4-1.61a.91.91 0 00.21-.79l-.2-1a.94.94 0 00-.91-.74h-.07l-2.18.16-.51-.79-.42-2.39 1.36-2.08 3.6-1.43a.92.92 0 00.41-.32l4.35-6.07a.93.93 0 00-.14-1.24l-2.43-2.13a1 1 0 00-.61-.22h-7.64l-5.22.83.39-2.73 4-6.41a.93.93 0 00-.13-1.15l-.7-.71a1 1 0 00-.45-.25l-2.1-.47-5.15-2.87a.89.89 0 00-.45-.12h-.2l-2.78.61-1.27-1.11a.91.91 0 00-.61-.23h-2.73a.9.9 0 00-.53.17l-1.18.82-1.07-2.82a.88.88 0 00-.47-.51l-1.92-.89a.91.91 0 00-.23-.83l-1.18-1.24L117 44h.11l7.28-1.72a.92.92 0 00.72-.94.94.94 0 00-.79-.88l-3.45-.5h-.2l-17 1.22h-.16l-4.05 1a.94.94 0 00-.68.72.93.93 0 00.35.92l.21.16-.45.15h-.11l-8.24 4-8.93-1.42L78 43.14a.92.92 0 00-.66-.28h-6.91l-14.75 1.89-2.14-1.34L52.22 38a1 1 0 00-.41-.56L48 35a1 1 0 00-.43-.14l-6.48-.5L36.51 33a.84.84 0 00-.27 0z"/><path class="cls-4" d="M136.12 45.21l.21 1.21-2.43 1.72h-5.57l2.13-2.12v-5.17l3.64-.7 2.02.2v4.86z"/><path d="M158.64 146.43l-6.79-5.52-.29-4.35a.47.47 0 00-.21-.36l-2.24-1.4-.17-1.83 1.2-6a.49.49 0 000-.12l-.2-3.75 3.51-3.7a.45.45 0 00.1-.47l-.81-2.23-1.41-4.34a.49.49 0 00-.29-.29l-1.35-.48-1.69-1.23.47-4.59a.43.43 0 00-.09-.33l-1.97-2.44a.49.49 0 00-.37-.18H146l-4.64.67-8.72-8.49 2.59-2.5a.46.46 0 00.14-.36l-.28-4.82 8-2.81a.52.52 0 00.19-.14l1.42-1.62a.45.45 0 00.1-.39l-.2-1a.47.47 0 00-.45-.38l-2.49.19-.72-1.11-.45-2.66L142 75l3.71-1.46a.45.45 0 00.2-.16l4.09-5.72 7.37 3.73L165 79l-.68 4.32v1.59a.44.44 0 00.22.39.42.42 0 00.24.07.45.45 0 00.2 0l3-1.44 3.11 1.07 4.28 4.08.12.08 3.51 1.62 1.32 3.59v3.31l-1.35 5.5-2.7 1.4-3.08.69a.45.45 0 00-.3.24l-1 1.92a.54.54 0 00-.05.22v3.86l-1.39 3.77a.45.45 0 000 .28l.5 1.92a.52.52 0 00.07.15l3.3 4.59.48 1.65a.47.47 0 00.3.31l3.45 1.15 1.33 3 1 2.14 4.68 9-1.23.87-4.66-1h-.09a.47.47 0 00-.3.1l-3.71 3h-3a.5.5 0 00-.26.08l-2.8 1.83-2.11-.19a.42.42 0 00-.3.12l-3.75 3.35-2.41.36z" fill-rule="evenodd" fill="#fff"/><path d="M150.18 68.25l6.95 3.53 7.35 7.35-.63 4.09a.68.68 0 000 .14v1.52a.92.92 0 00.44.78.87.87 0 00.49.14 1 1 0 00.41-.09l2.81-1.35 2.88 1 4.21 4a.85.85 0 00.25.17l3.3 1.56 1.23 3.34v3.16l-1.29 5.25-2.46 1.27-3 .68a.91.91 0 00-.61.47l-1 1.93a.92.92 0 00-.11.43v3.78l-1.4 3.72a1 1 0 000 .56l.5 1.92a1 1 0 00.15.31l3.25 4.52.46 1.57a.94.94 0 00.59.62l3.26 1.09 1.26 2.78 1 2.16 4.48 8.59-.73.51-4.46-.93h-.19a1 1 0 00-.59.21l-3.59 2.93h-2.8a.92.92 0 00-.51.15l-2.67 1.75-1.9-.18h-.09a.89.89 0 00-.61.24l-3.64 3.25-2.11.32-2.09-1.4-6.64-5.39-.27-4.15a.92.92 0 00-.44-.72l-2-1.28-.22-1.55 1.19-5.94a.9.9 0 000-.23l-.18-3.55 3.37-3.56a.92.92 0 00.2-1l-.8-2.2-1.42-4.35a1 1 0 00-.57-.59l-1.3-.46-1.47-1 .44-4.32a.9.9 0 00-.19-.67l-1.92-2.43a1 1 0 00-.73-.35h-.13l-4.41.64-8.2-8 2.25-2.18a.89.89 0 00.28-.72l-.26-4.47 7.64-2.7a.87.87 0 00.39-.26l1.42-1.6a.91.91 0 00.21-.79l-.2-1a.94.94 0 00-.91-.74h-.07l-2.18.16-.51-.79-.42-2.39 1.36-2.08 3.6-1.43a.92.92 0 00.41-.32l3.89-5.43m-.29-1.18l-4.35 6.07-3.85 1.52-1.69 2.63.5 2.93.92 1.42 2.73-.2.2 1-1.42 1.62-8.32 2.94.3 5.16L132 95l.51.5 8.7 8.51 4.86-.71 1.92 2.43-.5 4.85 2 1.42 1.42.51 1.41 4.35.82 2.23-3.65 3.84.2 3.95-1.22 6.12.2 2.13 2.43 1.51.3 4.56 7 5.67 2.43 1.61 2.73-.4 3.84-3.44 2.23.2 2.94-1.92h3.13l3.85-3.14 4.86 1 1.72-1.21-4.86-9.31-1-2.13-1.44-3.13-3.64-1.21-.51-1.72-3.34-4.66-.51-1.92 1.42-3.84v-3.95l1-1.92 3.13-.71 2.94-1.52 1.41-5.77v-3.49l-1.41-3.85-3.65-1.72-4.35-4.14-3.44-1.22-3.14 1.52v-1.52l.71-4.55-7.77-7.81-7.79-4z"/><path class="cls-5" d="M-20.25 176.14v-3.78l-.79-.13-2-.77h-.73l-1.14-.18-2.94-2.3-1.29-.62-1.18-1.09-1.46-.62-.96.14-.69 1.24-.39.33h-1.87l-3.99-.47h-.84l-1.85.47-2.28-.18-.41-.77-.54-2.15-.59-1.09-2.49-2.01-5.67-3.1-6.22-2.67-.89-.62-.42-.61-.2-.63-1.01-1.24-.06-1.24.52-1.24.8-.91 2.42-.47.08-1.24-.5-1.72.23-1.86.85-2.77 2.22-1.39.56-.19 2.71.19 2.67-.95.55-.49.41-.61 1.2-4.97 2.55-3.54 2.31-2.34.53-.91.14-.62-.04-1.1-1.4 1.1-.99.14-1.26-.14-1.46-.62-.21-1.39.08-1.71.86-3.25-.06-1.53-.99-4.2-.95-5.4.36-1.39.94-1.53-.04-.95-.81-3.24.08-4.6-.17-.8-.93-1.54-2.34-1.68-.61-1.09-1.12-3.83-.61-.95h.41l-.05-1.06 1.39-1.24.06-1.68.7-.14 1.03.76.68-.62 1.76-2.77 1.07-1.1-.02-.58-.59-.62-.42-.14-.06-1.39-.64-1.39-1.03-.62.06-2.15.28-.62 3.55 4.01 1.96 2.92.89.58.64-1.34-.74-4.31-.45-.47-.16-.77.27-.62 3.31-2.44 1.48-1.39.54-.62 1.59-3.03.83-.95 2.68-.58 1.21-1.39V57.2l.44-3.21.12-4.45.36-.91 1.39-1.35 4.14-3.21.7-.15 2.01.13 2.1.02.45.44.21 1.86.17-2.09 5.48-3.43 3.64-2.12 6.38-.51 10.63-6.07L8.1 28h12.35l-3.85 4.35-4.86 1.93h-1.21L8.1 39.13l-3.64 2.03-4.66 7.29-1.72 8.9-3.84 5.87 1.21.71 2.43-.91 3.14 1.62 1.01 4.86 3.64 4.14.21 2.74-1.72 2.63.5 3.44 2.93 1.62 1.42 2.73 2.23.71L16.6 87l3.14.51 3.64-1.21 6.07.7h1.73l7.99 9.52h2.43L44.03 95l7.08.3 5.27-1.01 2.22-.71 1.92 1.01 1.02 2.13-1.92 4.15-.51 2.22-1.52 1.62v10.73l1.01 1.42.2 3.23 2.43 3.85 2.23 2.23-.2 1.41-6.08 5.88 2.13.7 1.92.51 4.46 4.86 1.21 4.55 1.92 4.86v2.73l-1.72.41-3.64-9.42-1.01-1.21-5.27 4.55-2.93-2.12h-1.21l-.71 1.72.4.4-2.83 1.02-14.58.5-.3 6.58 2.73.71 3.34.5 1.22 2.64-.71 1.41-3.64-.7-5.06 2.22.2 8.5 5.06 4.35v3.45l2.23 3.33-3.85 31.88-1.72 3.34-3.44-4.15-4.15-.2v-1.92l6.07-10.43-9.92-5.36-3.84 1.92-5.87-1.72-5.57 3.14-2.93-.71-3.14.71-3.14-1.21-1.72-5.27-2.73-.81-2.13-5.06-7.79-3.44-1.01-2.83-3.76-2.25z"/></g><circle cx="79.84" cy="80.08" r="77.84" stroke-width="1.28" stroke="#000" stroke-linecap="round" stroke-linejoin="round" fill="none"/><text transform="translate(38.04 63.82)" font-family="OpenSans-SemiBold,Open Sans" font-weight="600" font-size="10.65">VENEZUELA</text><text transform="translate(82.41 97.88)" font-size="8.72" font-family="OpenSans-SemiBold,Open Sans" font-weight="600" fill="#f66a32"><tspan class="cls-14">Arc</tspan><tspan x="14.11" y="0">o </tspan><tspan class="cls-14" x="21.69" y="0">d</tspan><tspan x="27.21" y="0">a </tspan><tspan class="cls-14" x="0" y="8.71">mineraçã</tspan><tspan x="40.22" y="8.71">o </tspan><tspan class="cls-14" x="0" y="17.43">d</tspan><tspan x="5.52" y="17.43">o </tspan><tspan x="13.11" y="17.43" letter-spacing=".01em">Orinoc</tspan><tspan x="41.87" y="17.43">o</tspan></text><path d="M142.83 84.11l-8.39 3 .31 5.21-3 2.87.51.51 1.2 1.17-1.26 1.72-1.56.39-1-1.76-3.91.19-6.06-4.88h-3.12l-.79-.78V88l-4.29-1-6.06 1.75L101 87l-.78-3.33h-1.4l-1.95 1.37-.78.59-3.32-1 .39 2.74H91.4l-.78-1-3.72-1.69-3.9 1-2.15-.39-.4 2.71-1.17 1.57.59 1.17 1.37 4.1L78.7 99l-2.7.73-.78-3.13-3.13 3.52-5.67 1.37-.58-1-1.37-.78.39-1.57v-2l-1.37-.78-2-.39 1-2.35h2.34v-1.49l.39-1.95 1.17-1.37V83.9s2.15-.39 2.35-.78a29.93 29.93 0 013.91-2.35l1.56-2.93h2l1.17-.39 2.34-.19 2.93-2.55 2.94.59h3.12l3.52 2.54 2.34-1.56h1.57l.58-.78-1-1 .58-.78 1.7-.37 1.41-.35 2.15 1 2-.58 1-.78 2.35-.59h1.75l1.18-.78 2-1h2l1.36.2 1.18-1.57 1.17.2 1-1.17 3.71 2h7.42l.59 2.34 3.13 3.72 4.3-1.76 1.36 1.56 1.57.59h.05l-.64 1 .51 3 .92 1.43 2.76-.21.21 1z" fill-rule="evenodd" fill="#f66a32"/></g></svg>