<svg xmlns="http://www.w3.org/2000/svg" viewBox="0 0 160 160"><defs><clipPath id="clip-path"><circle class="cls-1" cx="79.84" cy="80.08" r="78.34"/></clipPath><pattern id="_10_dpi_10_2" data-name="10 dpi 10% 2" width="28.8" height="28.8" patternTransform="matrix(.23 0 0 .23 216.18 -254.37)" patternUnits="userSpaceOnUse"><path class="cls-1" d="M0 0h28.8v28.8H0z"/><circle class="cls-2" cx="28.8" cy="28.8" r=".72"/><path class="cls-2" d="M14.4 29.52a.72.72 0 10-.72-.72.72.72 0 00.72.72zM28.8 15.12a.72.72 0 10-.72-.72.72.72 0 00.72.72zM14.4 15.12a.72.72 0 10-.72-.72.72.72 0 00.72.72zM7.2 22.32a.72.72 0 10-.72-.72.72.72 0 00.72.72zM21.6 22.32a.72.72 0 10-.72-.72.72.72 0 00.72.72zM7.2 7.92a.72.72 0 10-.72-.72.72.72 0 00.72.72zM21.6 7.92a.72.72 0 10-.72-.72.72.72 0 00.72.72z"/><circle class="cls-2" cy="28.8" r=".72"/><path class="cls-2" d="M0 15.12a.72.72 0 000-1.44.72.72 0 00-.72.72.72.72 0 00.72.72zM28.8.72a.72.72 0 00.72-.72.72.72 0 00-.72-.72.72.72 0 00-.72.72.72.72 0 00.72.72zM14.4.72a.72.72 0 00.72-.72.72.72 0 00-.72-.72.72.72 0 00-.72.72.72.72 0 00.72.72zM0 .72A.72.72 0 00.72 0 .72.72 0 000-.72.72.72 0 00-.72 0 .72.72 0 000 .72z"/></pattern><style>.cls-1{fill:none}.cls-2{fill:#f66a32}.cls-6{fill:#fff;stroke:#000;stroke-linecap:round;stroke-linejoin:round;fill-rule:evenodd;stroke-width:.97px}.cls-9{font-size:10.72px;font-family:OpenSans-SemiBold,Open Sans;font-weight:600}</style></defs><g id="MAPAS"><circle cx="80.16" cy="79.92" r="78.34" fill="url(#_10_dpi_10_2)"/><g clip-path="url(#clip-path)"><path fill-rule="evenodd" stroke-width="1.32" stroke="#000" stroke-linecap="round" stroke-linejoin="round" fill="#fff" d="M462.49 309.62l-1.45 7.64-.29 8.2-5.61 12.1-2.44 6.63-18.03 17.41-2.72 2.61-9.65 6.62-5.18 6.48-4.18 9.66-10.95 13.25-2.44.28-1.74-4.46-1-.43-2.16 4.61-.28 3.46-4.18 5.18 1 3.46-1.72 4.74 1.01 4.47-2.03 7.35.29 17.29 1.16 4.46-6.92 20.02.29 9.36-8.35 7.63-2.02 12.39-1.72 10.08-8.94 11.38-1.14 4.18-7.93 7.92-.67 1.71-2.79 7.21v6.63l-14.12 6.91-1.43 5.48-12.82 1.44-3.02-.29-2.46-3.46-1.72.58-.29 2.45-3.17 1.01-4.9-2.01-5.18 1.72-3.02-1.72-3.89 1.72-.58 1.01 1.73 2.45-.72 1.01h-2.45l-10.08 5.61-1.3 2.02-5.9-.72-12.39 5.61-18 13.84-2.74 2.3-2.16 2.87-4.18.29-2.73 1.02-.72.72 3.45 2.73-1.67 5.75-.63 2.17-2.45 2.89 1.3 4.03v13.25l-1.3 5.18-.73 10.95-2.01 2.45v1.72l-12.53 10.37-5.9 10.38-6.48 13.54-11.38 13.1-9.37 7.21-5.9 7.62-3.74 9.08-8.65 9.22-2.16.43-1.72-5.91.71-4.46 2.46-2.74 1-2.16-2.74-2.01-5.9-8.64-6.19-2.75-4.18-5.61-6.19-2.45-7.64-7.92-.71.72-3.75 3.46-1.73-1.01v-3.17l-5.62-6.92-2.73-2.01-5.91-3.16-3.03 3.88-5.25-1.08 4.25-5.54 8.64-10.66.58-2.16 10.37-12.1 2.88-.29 1.3-3.46 12.53-10.07 4.74-2.46 8.36-5.47 1.73-5.47.18-9.08-2.92-7.92-3.17-1.73-5.18.29-1.73-1.01 2.02-10.65 2.16-7.35-.44-2.3v-5.19l-4.75-2.88-7.92 3.46-3.46-1.3-1.15-2.45-1.72-5.9-1.02-8.65-3.45-9.65-4.47-.28-4.46-3.18-4.18 2.75-6.92-.29-7.91-2.17-2.45 1.16-1.73-1.16.72-20.73-3.17-5.19-1.29-8.64.76-2.72 1.54-5.49 5.62-22.9-4.47-9.22-7.64-3.46-2.44-7.34 1.44-4.17.29-4.76-26.93.29-2.17-1.3-.58-11.09-5.18-5.9 2.3-2.46-.57-3.02 1.29-4.61-2.73-4.75 1.72-3.89-6.9-5.47-5.19-2.02-11.09 1.01-5.91-6.63-5.47-.72-6.91-3.74-2.45-2.74H5.48l-1.72.29-4.47-3.02-8.35 1.01-3.75-.73-3.17-5.18-3.74-1.01-5.91-4.47-4.46-10.79 1.01-3.03-2.46-6.63 2.02-6.9-1.01-5.92-1.72-1-2.74 2.73h-10.66l-2.7 1.55-9.39 5.37-8.65 5.9-1.72 2.45-5.19.29-3.89 5.19-6.2 2.73-2.01-1.73-10.8-.29-7.93.73-5.18 2.44-3.46-1.43-1.72-18.3 1-3.88-1.72-2.75-12.39 10.08-9.37.29-4.89-8.2-12.67-.72-.72-.73 2.73-3.74-1.43-4.17-4.76-4.9-4.47-5.91-3.46-4.47 1.3-1.72-4.75-3.46.58-3.02 2.87-1.44.19-5.17-.04-.01h.04l.1-3.17 8.65-6.48-.72-8.36 3.89-7.92.29-5.91 15.55-11.38 14.83-3.74 2.17-3.46 7.49-.72 4.17 2.73 1.44-2.44 2.45-4.75 5.47-45.38-3.17-4.74v-4.91l-7.19-6.18-.29-12.1 7.19-3.17 5.19 1 1.02-2.01-1.74-3.75-4.75-.72-3.89-1 .43-9.36 20.74-.72 4.03-1.45-.57-.58 1.01-2.44h1.72l4.18 3.02 7.49-6.48 1.44 1.73 5.19 13.39 2.45-.57 11.09 7.2 4.46-1.73 4.46-2.73 1.45.29-.43 4.45 1.72.73 5.9-6.19.73-2.02 6.91-2.88 4.18-3.45 2.3 1.72 3.46-4.75.43-3.17 10.37-6.2.72-2.73-10.08-1.01-1.44-4.17-1.73-5.91-1.73-3.45.43-3.75-7.92-8.36-.72-1.44 2.02-.57 1.44 1.01h5.91l2.73 3.46 7.92.28 2.45-1.73 7.92 5.91 2.46-1.73-.44-4.47 5.18-2.44 1.73-1.74 5.18 1.45 6.34-1.73 2.74-2.45 4.46-2.45 2.03.29 9.07-8.21-.72-3.17 6.91-1 2.73 3.45-.72 6.91 2.88 2.02 2.03.73 2.01 6.18 1.16 3.18-5.2 5.46.29 5.62-1.72 8.65.29 3.02 3.45 2.16.44 6.48 9.94 8.07 3.45 2.3 3.88-.58 5.48-4.89 3.17.29 4.18-2.74h4.46l5.48-4.46 6.9 1.43 2.46-1.72 9.65 2.01 3.89-1-.44-1.74-3.45-3.45 3.17-3.89h4.46l11.09-2.31 4.47 3.75 4.17.29 3.74 2.88 5.2-1.16 3.16-1.72 3.46 1.15 3.74-.72 3.17 2.45 4.46-1.16 4.18-4.03 9.36-17.71 4.76-6.19 1.43-3.46 1.74-3.46 5.47 4.9 6.19 25.21 2.17 4.74 1 3.17 2.45 2.46 7.63 3.45 2.02 4.17-.29 4.47-7.63 7.93-4.9 6.62-8.93 4.75.29 3.89-4.46 3.75-1.45 2.01-1.73 4.9-3.02 2.45-3.46 3.74-11.09 3.9 6.92 1v6.91l2.74 3.46-.73-9.07 13.25-6.92 6.19-4.76 2.45.29.58 5.19 1.73 3.46-1.01 4.46-4.18.43 1.16 3.03 2.3.72 3.17-3.03 1.73 1.02h3.46l4.46-1.74 2.45 1.74 1.44 1.29 5.19-2.31 1.29 1.31-.72 4.17-3.74 6.62.28 2.75 1.73-1.74 5.9-11.8 9.08-7.21 3.03.73.71-1.16-.29-2.01 5.77-7.93 7.63-3.45 3.45 1.29 2.74-1.01 8.07 3.17 3.46 3.02 4.46-.57 3.03 3.45 3.46 1.01 4.17 1.31 2.45 1.14 1.44-.43.58 1.44.72 3.46h1.43l1.74-2.17 5.47 1.74 4.17 4.61-.29 2.73-2.15 2.74 3.17-.29 1 1.3-2.74 3.88-1.43 4.76 1.72 1.01.43 1.15-1.43 3.02 1 .72 5.19-5.47 3.17-.72 3.46-3.17 6.19-1.01 1.72-2.45 15.27 5.91 5.48 2.73 3.75-1 .71 1.44 5.19 1 3.89 1.02 16.56-1.45 14.11 6.34 21.75 17.29 7.64 8.63 2.72 1.69 7.35 4.52 8.65 3.02 12.1.43 4.46 4.46 3.87 17.77 2.76 12.33z"/><path class="cls-6" d="M13.07 26.6l-2.11-5.61-3.75-1.73.29-1.01-2.74-2.88 1.01-1 2.45-.29 10.37-2.45-4.9-.72-24.2 1.73-5.76 1.44 2.31 1.72-3.02 1.01-12.11 5.91-13.53-2.16-5.48-5.47h-9.65l-21.45 2.73-3.9-2.45-2.01-8.21-5.47-3.45-9.37-.73-6.62-2.01-2.02 2.01-3.46-.71-2.73 2.73-14.26 5.19-5.9 4.61.72 7.92 3.45 6.48 1.73 5.9-2.02 4.9-5.18 3.02-3.46-1.29-5.62-11.09 7.35-10.08.29-4.47-.72-5.9-1.01-.58-3.02-2.45 1-5.61h-1.73l-3.45 6.91-5.19 2.88-6.62 10.37-2.45 12.67-5.47 8.36 1.72 1.01 3.46-1.3 4.47 2.3 1.44 6.92 5.18 5.9.29 3.89-2.45 3.75.72 4.89 4.18 2.31 2.01 3.89 3.17 1 7.64-.72 4.46.72 5.19-1.72 8.64 1h2.45l11.38 13.55h3.45l3.46-2.17 10.08.43 7.49-1.43 3.17-1.01 2.74 1.44 1.43 3.02-2.73 5.91-.72 3.16-2.16 2.31v15.27l1.44 2.01.29 4.61 3.45 5.47 3.17 3.18-.29 2.01-8.64 8.35 3.03 1.01 2.73.72 6.34 6.92 1.73 6.48 2.74 6.91v3.89l11.09 7.2 4.46-1.73 4.47-2.73 1.44.29-.43 4.46 1.72.72 5.91-6.19.72-2.02 6.91-2.88 4.18-3.46 2.3 1.73 3.46-4.75.43-3.17 10.37-6.19.72-2.74-10.08-1.01-1.44-4.18-1.73-5.9-1.73-3.46.44-3.74-7.93-8.36-.72-1.44 2.02-.57 1.44 1.01h5.9l2.74 3.45 7.92.29 2.45-1.73 7.92 5.91 2.45-1.73-.43-4.47 5.18-2.45 1.73-1.72 5.19 1.44 6.34-1.73 2.73-2.45 4.47-2.45 2.01.29 9.08-8.21-.72-3.17-12.39-12.1-.72-.72 4.17-4.03-.42-7.35 11.8-4.17 2.02-2.31-.29-1.44-3.88.29-1.3-2.02-.72-4.17 2.45-3.75 5.47-2.16 6.19-8.64-3.45-3.02H41.06l-9.21 1.47.86-5.94 5.9-9.36-1.01-1.01-3.17-.72-7.49-4.18-4.61 1.01-2.3-2.01h-3.89l-3.07 2.15z"/><path class="cls-6" d="M35.59 17.1l.29 1.73-3.46 2.45h-7.93l3.03-3.03v-7.34l5.19-1.01 2.88.29v6.91z"/><path d="M70.73 164.5a.5.5 0 01-.27-.08L67 162.11 57 154a.48.48 0 01-.18-.35l-.42-6.23-3.24-2a.46.46 0 01-.23-.36l-.29-3a.66.66 0 010-.14l1.71-8.58-.28-5.56a.49.49 0 01.13-.36l5-5.25-1-2.89-2-6-1.79-.64a.24.24 0 01-.11-.06l-2.88-2a.47.47 0 01-.21-.45l.7-6.71-2.44-3.08-6.63 1h-.07a.48.48 0 01-.34-.14L30.06 89l-.72-.72a.49.49 0 01-.15-.35.56.56 0 01.15-.35l4-3.88-.42-7.12a.51.51 0 01.32-.49L45 72l1.78-2-.16-.78-3.49.26a.52.52 0 01-.42-.23l-1.29-2a.45.45 0 01-.12-.25l-.72-4.18a.48.48 0 01.07-.35l2.45-3.74a.53.53 0 01.23-.19l5.34-2.11 6.11-8.52a.48.48 0 01.39-.21.46.46 0 01.23.06l11.08 5.64a.38.38 0 01.13.09L77.7 64.57a.47.47 0 01.13.42l-1 6.49v1.3L80.6 71a.5.5 0 01.21 0 .45.45 0 01.16 0l4.9 1.73a.45.45 0 01.17.11l6.14 5.85L97.29 81a.47.47 0 01.25.27l2 5.48a.47.47 0 010 .17v5.01l-2 8.21a.49.49 0 01-.25.31l-4.18 2.16H93l-4.25 1-1.28 2.43v5.49a.47.47 0 010 .17l-2 5.33.65 2.5 4.71 6.55a1 1 0 01.07.15l.65 2.21 4.94 1.64a.51.51 0 01.29.27l2 4.46 1.43 3 6.91 13.23a.5.5 0 01-.15.63l-2.45 1.72a.49.49 0 01-.28.09h-.1l-6.69-1.39-5.29 4.32a.51.51 0 01-.31.11h-4.27l-4 2.65a.45.45 0 01-.27.08l-3-.27-5.32 4.76a.58.58 0 01-.25.12l-3.89.57z" fill="#f2f2f2" fill-rule="evenodd"/><path d="M55.17 48.21l11.09 5.62 11.09 11.09-1 6.48v2.16l4.47-2.16 4.9 1.73L91.9 79l5.19 2.45 2 5.48v4.89l-2 8.21-4.18 2.16-4.46 1L87 106v5.61l-2 5.48.72 2.73 4.75 6.63.72 2.45 5.19 1.73 2 4.46 1.44 3 6.92 13.25-2.45 1.72-6.92-1.43-5.47 4.46h-4.46l-4.18 2.74-3.17-.29-5.47 4.89-3.89.58-3.46-2.3-9.94-8.07-.43-6.48-3.46-2.16-.29-3 1.73-8.65-.28-5.62 5.18-5.47-1.15-3.17-2-6.19-2-.72-2.88-2 .72-6.91-2.77-3.5-6.91 1L30.4 88.68l-.72-.68 4.18-4-.43-7.35 11.8-4.17 2-2.31-.23-1.51-3.92.34-1.3-2-.72-4.17L43.51 59 49 56.85l6.19-8.64m0-1a1 1 0 00-.8.4l-6 8.41-5.21 2.06a.93.93 0 00-.46.37l-2.45 3.74a1 1 0 00-.14.7l.72 4.18a.93.93 0 00.14.36l1.3 2a1 1 0 00.82.45h.07l3-.22v.12l-1.53 1.75-11.55 4.13a1 1 0 00-.65 1l.41 6.9-3.86 3.7a1 1 0 000 1.39l.72.72 12.4 12.11a1 1 0 00.68.28h.14l6.36-.93 2.13 2.7-.68 6.47a1 1 0 00.41.9L54 113a1 1 0 00.23.12l1.57.56 1.86 5.73 1 2.64-4.77 5a1 1 0 00-.27.72l.28 5.5-1.7 8.52a1.42 1.42 0 000 .29l.29 3a1 1 0 00.46.74l3 1.89.4 6a1 1 0 00.36.7l9.94 8.06.07.06 3.46 2.3a1 1 0 00.54.17h.14l3.89-.58a1 1 0 00.51-.24l5.15-4.62 2.75.26h.09a1 1 0 00.53-.16l3.94-2.58h4.18a.92.92 0 00.61-.22l5.12-4.17 6.46 1.35h.2a1 1 0 00.56-.18l2.45-1.73a1 1 0 00.3-1.24l-6.91-13.25-1.43-3-2-4.45a1 1 0 00-.58-.52L92 128.11l-.58-2a.86.86 0 00-.14-.29l-4.65-6.48-.63-2.23 1.91-5.19a1 1 0 00.06-.34v-5.37l1.12-2.13 4-.91a1.13 1.13 0 00.24-.08l4.17-2.16a1 1 0 00.5-.64l2-8.21a.85.85 0 000-.23V87a1 1 0 00-.06-.34l-2-5.47a1 1 0 00-.5-.55l-5-2.38-6.08-5.8a1.13 1.13 0 00-.35-.21l-4.9-1.73a.86.86 0 00-.32 0 1 1 0 00-.42.09L77.32 72v-.53l1-6.41a1 1 0 00-.28-.84L67 53.14a.94.94 0 00-.3-.14l-11.08-5.66a1 1 0 00-.44-.1z"/><path class="cls-6" d="M143.75 145l-4.17-.29-4.47-3.74-11.09 2.3h-4.47l-3.16 3.89 3.45 3.46.44 1.72-3.89 1.01-9.66-2.01-6.91-13.25-1.44-3.03-2.02-4.46-5.18-1.73-.72-2.45-4.75-6.63-.72-2.73 2.01-5.48v-5.61l1.44-2.74 4.47-1.01 4.17-2.16 2.02-8.21 4.18-5.18 9.65 1 5.18 2.02 2.17-.58 1.72-2.15 8.21.43.72.57 3.75-1.72 9.36.43 7.24 2.15-.33 4.33-6.19 9.36.29 12.53 6.62 10.37-.72 3.02-2.01 4.18-.44 5.91-4.75 6.48z"/><path class="cls-6" d="M143.75 145l3.75 2.88 5.18-1.15 3.17-1.73 3.46 1.15 3.74-.72 3.17 2.45 4.47-1.15 4.17-4.04 9.36-17.71 4.76-6.2 1.44-3.45-2.45-6.19-3.17-2.45-16.56-12.82-16.96-5.05-.33 4.33-6.19 9.36.29 12.53 6.62 10.37-.72 3.02-2.01 4.18-.44 5.91-4.75 6.48z"/></g><circle cx="79.84" cy="80.08" r="78.34" stroke-width="1.29" stroke="#000" stroke-linecap="round" stroke-linejoin="round" fill="none"/><text class="cls-9" transform="translate(44.01 93.2)">GUYANA</text><text transform="translate(92.9 118.32)" font-size="8.77" fill="#4d4d4d" font-family="OpenSans-SemiBold,Open Sans" font-weight="600">SURINAME</text><text class="cls-9" transform="translate(81.21 68.46)"><tspan letter-spacing="-.01em">Georgetow</tspan><tspan x="55.78" y="0">n</tspan></text><path class="cls-2" d="M81.21 74.77a2.31 2.31 0 112.31-2.31 2.31 2.31 0 01-2.31 2.31z"/><path d="M81.21 70.26a2.2 2.2 0 11-2.2 2.2 2.19 2.19 0 012.2-2.2m0-.21a2.41 2.41 0 102.41 2.41 2.41 2.41 0 00-2.41-2.41z"/></g></svg>