<svg xmlns="http://www.w3.org/2000/svg" viewBox="0 0 160 160"><defs><clipPath id="clip-path"><circle class="cls-1" cx="79.84" cy="80.08" r="77.84"/></clipPath><pattern id="_10_dpi_10_2" data-name="10 dpi 10% 2" width="28.8" height="28.8" patternTransform="matrix(.23 0 0 .23 442.54 -246.81)" patternUnits="userSpaceOnUse"><path class="cls-1" d="M0 0h28.8v28.8H0z"/><circle class="cls-2" cx="28.8" cy="28.8" r=".72"/><path class="cls-2" d="M14.4 29.52a.72.72 0 10-.72-.72.72.72 0 00.72.72zM28.8 15.12a.72.72 0 10-.72-.72.72.72 0 00.72.72zM14.4 15.12a.72.72 0 10-.72-.72.72.72 0 00.72.72zM7.2 22.32a.72.72 0 10-.72-.72.72.72 0 00.72.72zM21.6 22.32a.72.72 0 10-.72-.72.72.72 0 00.72.72zM7.2 7.92a.72.72 0 10-.72-.72.72.72 0 00.72.72zM21.6 7.92a.72.72 0 10-.72-.72.72.72 0 00.72.72z"/><circle class="cls-2" cy="28.8" r=".72"/><path class="cls-2" d="M0 15.12a.72.72 0 000-1.44.72.72 0 00-.72.72.72.72 0 00.72.72zM28.8.72a.72.72 0 00.72-.72.72.72 0 00-.72-.72.72.72 0 00-.72.72.72.72 0 00.72.72zM14.4.72a.72.72 0 00.72-.72.72.72 0 00-.72-.72.72.72 0 00-.72.72.72.72 0 00.72.72zM0 .72A.72.72 0 00.72 0 .72.72 0 000-.72.72.72 0 00-.72 0 .72.72 0 000 .72z"/></pattern><style>.cls-1{fill:none}.cls-2{fill:#f66a32}.cls-5{fill:#fff;stroke:#000;stroke-linecap:round;stroke-linejoin:round;stroke-width:.93px;fill-rule:evenodd}.cls-12{letter-spacing:.01em}</style></defs><g id="MAPAS"><circle cx="80.16" cy="79.92" r="77.84" fill="url(#_10_dpi_10_2)"/><g clip-path="url(#clip-path)"><path class="cls-5" d="M436.09 250.75l-1.02 5.36-.2 5.77-3.94 8.5-1.72 4.66-12.67 12.23-1.91 1.84-6.78 4.65-3.64 4.55-2.94 6.78-7.69 9.31-1.72.21-1.22-3.14-.7-.3-1.52 3.23-.2 2.43-2.93 3.65.7 2.43-1.21 3.33.71 3.14-1.42 5.16.2 12.15.81 3.14-4.86 14.07.2 6.57-5.87 5.36-1.41 8.71-1.21 7.08-6.28 8-.81 2.93-5.57 5.57-.46 1.2-1.97 5.07v4.66l-9.92 4.85-1 3.85-9.01 1.01-2.13-.2-1.72-2.43-1.21.41-.21 1.72-2.22.71-3.44-1.42-3.65 1.21-2.12-1.21-2.73 1.21-.41.71 1.22 1.72-.51.71h-1.72l-7.08 3.95-.91 1.41-4.15-.5-8.71 3.94-12.64 9.73-1.93 1.61-1.52 2.02-2.93.2-1.93.72-.5.5 2.43 1.92-1.18 4.05-.44 1.52-1.72 2.03.91 2.83v9.31l-.91 3.64-.51 7.69-1.42 1.72v1.22l-8.8 7.28-4.15 7.29-4.55 9.52-8 9.2-6.58 5.07-4.15 5.36-2.63 6.37-6.07 6.48-1.52.3-1.21-4.15.5-3.13 1.73-1.93.7-1.51-1.92-1.42-4.15-6.07-4.35-1.93-2.93-3.94-4.35-1.72-5.37-5.57-.51.51-2.63 2.43-1.21-.71v-2.23l-3.95-4.86-1.92-1.41-4.15-2.22-2.13 2.72-3.69-.76 2.98-3.89 6.08-7.49.4-1.52 7.29-8.5 2.02-.21.91-2.42 8.81-7.08 3.33-1.73 5.88-3.84 1.21-3.85.13-6.37-2.05-5.57-2.23-1.22-3.64.21-1.21-.71 1.41-7.49 1.52-5.16-.31-1.62v-3.64l-3.33-2.03-5.57 2.43-2.43-.91-.81-1.72-1.21-4.15-.71-6.07-2.43-6.78-3.14-.2-3.14-2.23-2.93 1.92-4.86-.2-5.56-1.52-1.72.81-1.22-.81.51-14.57-2.23-3.64-.91-6.08.54-1.91 1.08-3.85 3.95-16.09-3.14-6.48-5.37-2.43-1.71-5.16 1.01-2.93.2-3.35-18.92.21-1.52-.91-.41-7.8-3.64-4.15 1.62-1.72-.4-2.12.9-3.24-1.92-3.34 1.21-2.73-4.85-3.85-3.65-1.42-7.79.71-4.15-4.66-3.84-.5-4.86-2.63-1.72-1.92h-1.42l-1.21.2-3.14-2.12-5.87.7-2.63-.51-2.23-3.64-2.63-.71-4.15-3.13-3.13-7.59.7-2.13-1.72-4.65 1.42-4.86-.71-4.15-1.21-.71-1.93 1.92h-7.49l-1.89 1.09-6.61 3.77-6.07 4.15-1.21 1.72-3.64.2-2.74 3.65-4.35 1.92-1.42-1.21-7.59-.21-5.57.51-3.64 1.72-2.43-1.01-1.21-12.85.71-2.74-1.22-1.92-8.7 7.08-6.58.2-3.44-5.76-8.9-.51-.51-.51 1.92-2.62-1.01-2.94-3.34-3.44-3.14-4.15-2.43-3.14.91-1.21-3.33-2.43.4-2.13 2.02-1.01.13-3.63-.02-.01h.02l.08-2.23 6.07-4.55-.51-5.87 2.74-5.57.2-4.15 10.93-8 10.42-2.62 1.52-2.44 5.26-.5 2.94 1.92 1.01-1.72 1.72-3.34 3.85-31.88-2.23-3.33v-3.45l-5.06-4.34-.2-8.51 5.05-2.22 3.65.7.71-1.41-1.22-2.64-3.34-.5-2.73-.71.3-6.58 14.58-.5 2.83-1.02-.4-.4.71-1.72h1.21l2.94 2.12 5.26-4.55 1.01 1.21 3.64 9.42 1.73-.41 7.79 5.07 3.13-1.22 3.14-1.92 1.01.2-.3 3.13 1.21.51 4.15-4.35.51-1.42 4.86-2.02 2.93-2.43 1.62 1.21 2.43-3.34.3-2.22 7.29-4.36.5-1.92-7.08-.71-1.01-2.93-1.22-4.15-1.21-2.43.3-2.63-5.56-5.87-.51-1.02 1.42-.4 1.01.71h4.15l1.92 2.43 5.56.21 1.73-1.22 5.57 4.15 1.72-1.22-.31-3.13 3.65-1.72 1.21-1.22 3.64 1.01 4.46-1.21 1.92-1.72 3.13-1.72 1.42.2 6.38-5.77-.5-2.22 4.85-.71 1.92 2.43-.5 4.85 2.02 1.42 1.42.51 1.42 4.34.81 2.24-3.65 3.84.2 3.95-1.21 6.07.2 2.12 2.43 1.52.31 4.56 6.98 5.66 2.43 1.62 2.73-.4 3.84-3.44 2.23.2 2.94-1.92h3.13l3.85-3.14 4.85 1.01 1.73-1.21 6.78 1.41 2.73-.7-.31-1.22-2.42-2.43 2.23-2.73h3.13l7.79-1.62 3.14 2.63 2.94.2 2.62 2.03 3.65-.81 2.23-1.22 2.43.81 2.62-.5 2.23 1.72 3.14-.81 2.94-2.83 6.57-12.45 3.34-4.35 1.01-2.43 1.22-2.43 3.85 3.44 4.35 17.71 1.52 3.34.71 2.22 1.71 1.73 5.37 2.42 1.41 2.94-.2 3.14-5.36 5.56-3.44 4.66-6.28 3.34.21 2.73-3.14 2.63-1.02 1.42-1.21 3.44-2.12 1.72-2.43 2.63-7.8 2.74 4.86.7v4.86l1.93 2.43-.51-6.38 9.31-4.86 4.35-3.34 1.72.21.41 3.64 1.21 2.43-.71 3.14-2.93.3.81 2.13 1.62.5 2.23-2.13 1.21.72h2.43l3.14-1.22 1.71 1.22 1.02.91 3.64-1.63.91.92-.51 2.93-2.63 4.66.21 1.92 1.21-1.21 4.15-8.3 6.38-5.06 2.12.51.51-.82-.21-1.41 4.05-5.57 5.37-2.42 2.42.9 1.93-.71 5.67 2.23 2.42 2.12 3.14-.4 2.13 2.43 2.43.71 2.93.91 1.72.81 1.01-.3.41 1.01.51 2.43h1l1.22-1.52 3.85 1.21 2.93 3.24-.21 1.92-1.51 1.93 2.23-.21.71.92-1.93 2.73-1.01 3.34 1.21.71.3.81-1.01 2.12.71.51 3.65-3.85 2.22-.5 2.43-2.23 4.35-.71 1.22-1.72 10.73 4.15 3.84 1.92 2.64-.71.5 1.02 3.64.7 2.74.71 11.63-1.01 9.92 4.45 15.28 12.15 5.37 6.07 1.91 1.18 5.17 3.17 6.07 2.13 8.51.3 3.13 3.14 2.72 12.48 1.94 8.67z"/><path d="M84.81 157.91a.58.58 0 01-.18 0l-1.21-.51a.46.46 0 01-.28-.47l.26-2.72-.42-.08-3 1.82-3.22 1.25a.32.32 0 01-.16 0 .5.5 0 01-.26-.08l-7.79-5.06a.46.46 0 01-.21-.39V149l-1.89-4.78-1.2-4.49-4.25-4.65-1.79-.47-2.21-.71a.46.46 0 01-.31-.34.51.51 0 01.13-.44l6-5.76.15-1-2.06-2.06-.07-.08-2.43-3.85a.52.52 0 01-.07-.22l-.19-3.1-.94-1.31a.5.5 0 01-.08-.27v-10.76a.45.45 0 01.12-.31l1.43-1.53.48-2.1 1.86-4-.85-1.79-1.61-.85-2 .65-5.32 1h-.11l-6.94-.29-2.3 1.44a.45.45 0 01-.25.07h-2.47a.46.46 0 01-.35-.16L31 87.47h-1.5l-6-.7L19.89 88h-.22l-3.08-.5-5.35.5h-.14l-2.23-.71A.49.49 0 018.6 87l-1.35-2.59-2.81-1.56a.45.45 0 01-.24-.33l-.5-3.44a.4.4 0 01.07-.32l1.63-2.5-.18-2.43-3.54-4a.41.41 0 01-.1-.21L.61 65l-2.76-1.43-2.24.84a.41.41 0 01-.16 0 .46.46 0 01-.23-.06L-6 63.62a.45.45 0 01-.21-.29.45.45 0 01.06-.33l3.8-5.8 1.7-8.81a.38.38 0 01.06-.16l4.66-7.29a.49.49 0 01.16-.16l3.52-2 2.37-4.73a.44.44 0 01.41-.26h1.21a.49.49 0 01.36.17.44.44 0 01.1.38L11.54 38l1.91 1.55.65.36a.46.46 0 01.23.34l.51 4.15-.2 3.23a.54.54 0 01-.09.24l-5 6.85 3.74 7.38 2.05.77L18.66 61 20 57.83l-1.17-4-2.43-4.46a.49.49 0 01-.06-.17l-.5-5.57a.46.46 0 01.17-.41L20.16 40l.13-.07 9.92-3.6 1.85-1.85a.47.47 0 01.33-.14h.09l2.19.45 1.24-1.23a.47.47 0 01.33-.14h.13L41 34.83l6.53.5a.58.58 0 01.21.07l3.84 2.43a.53.53 0 01.21.28l1.37 5.59 2.43 1.53 14.91-1.9h6.84a.49.49 0 01.33.13l3.74 3.74 9.22 1.47L99 44.59l1.34-.45-.91-.69a.44.44 0 01-.17-.46.45.45 0 01.34-.36l4-1 17.11-1.23h.07l3.44.5a.47.47 0 010 .91L117 43.53l-1.61.2-.28.27 1.61 1.7a.43.43 0 01.11.44l-.09.33 2.26 1.05a.44.44 0 01.24.26l1.28 3.38 1.67-1.16a.44.44 0 01.27-.09h2.73a.52.52 0 01.31.12l1.44 1.26 3-.66h.1a.46.46 0 01.23.06l5.2 2.91 2.16.49a.46.46 0 01.23.12l.71.71a.45.45 0 01.06.57l-4.1 6.5-.49 3.45 5.85-.94h7.56a.46.46 0 01.3.11l2.43 2.13a.46.46 0 01.07.62l-4.35 6.07a.45.45 0 01-.2.16L142 75l-1.54 2.36.45 2.66.72 1.11 2.49-.19a.47.47 0 01.45.38l.2 1a.45.45 0 01-.1.39l-1.42 1.62a.52.52 0 01-.19.14l-8 2.81.28 4.82a.46.46 0 01-.14.36L132.64 95l8.87 8.67a.59.59 0 01.13.23l.5 2.23a.48.48 0 01-.14.45l-6.38 5.77a.47.47 0 01-.31.11h-.06l-1.27-.18-2.98 1.62-1.88 1.68a.52.52 0 01-.19.11l-4.46 1.21h-.24l-3.38-.94-1 1a.3.3 0 01-.13.09l-3.35 1.59.28 2.81a.46.46 0 01-.2.42l-1.72 1.22a.5.5 0 01-.26.08.47.47 0 01-.28-.09l-5.3-3.95-1.45 1a.41.41 0 01-.26.09l-5.58-.21a.46.46 0 01-.35-.17l-1.78-2.25h-3.93a.41.41 0 01-.26-.09l-.84-.58-.66.19.22.45 5.52 5.82a.46.46 0 01.12.37l-.28 2.5 1.15 2.3 1.24 4.23.91 2.63 6.79.68a.46.46 0 01.4.58l-.5 1.92a.46.46 0 01-.21.28l-7.1 4.24-.27 2a.48.48 0 01-.09.21l-2.43 3.34a.45.45 0 01-.3.18h-.07a.47.47 0 01-.28-.09l-1.33-1-2.65 2.25-.11.08-4.67 1.92-.44 1.23a.54.54 0 01-.1.16l-4.15 4.35a.45.45 0 01-.34.17z" fill="#f2f2f2" fill-rule="evenodd"/><path d="M36.24 33.87l4.65 1.42 6.58.51 3.85 2.42L52.73 44l2.73 1.72 15.08-1.92h6.78l3.85 3.85 9.51 1.51 8.5-4.16 2.13-.7-1.62-1.22 4-1 17-1.21 3.44.5-7.29 1.72-1.72.21-.7.7 1.92 2-.2.71 2.63 1.21 1.48 3.94 2.16-1.51h2.73l1.62 1.42 3.24-.71 5.31 2.94 2.23.51.71.71-4.15 6.58-.6 4.2 6.47-1h7.49l2.43 2.13-4.35 6.07-3.85 1.52-1.69 2.57.5 2.93.92 1.42 2.73-.2.2 1-1.42 1.62-8.32 2.94.3 5.16L132 95l.51.5 8.7 8.51.51 2.22-6.41 5.77-1.41-.2-3.14 1.72-1.92 1.72-4.46 1.21-3.64-1-1.21 1.22-3.65 1.72.31 3.13-1.72 1.22-5.57-4.15-1.72 1.21-5.57-.2-1.92-2.43h-4.15l-1-.71-1.42.41.51 1 5.56 5.87-.3 2.63 1.22 2.43 1.21 4.15 1 2.93 7.08.71-.5 1.93-7.29 4.35-.3 2.22-2.43 3.34-1.62-1.21-2.93 2.43-4.86 2-.47 1.44-4.15 4.35-1.21-.51.3-3.13-1-.2-3.14 1.92-3.13 1.21-7.8-5.06v-2.73l-1.92-4.86-1.21-4.55-4.46-4.86-1.92-.51-2.13-.7 6.08-5.87.2-1.42-2.23-2.23-2.48-3.84-.2-3.24-1-1.42v-10.73l1.52-1.62.5-2.22 1.93-4.15-1-2.13-1.92-1-2.22.71-5.27 1L44 95l-2.4 1.52h-2.43l-8-9.52h-1.71l-6.08-.7-3.64 1.21L16.6 87l-5.36.51L9 86.8l-1.4-2.73-2.94-1.62L4.15 79l1.73-2.63-.21-2.74L2 69.5l-1-4.86L-2.12 63l-2.43.91-1.21-.71 3.84-5.87 1.72-8.9 4.66-7.29 3.64-2 2.43-4.85h1.21L11 38.22 13.16 40l.71.4.51 4.15-.21 3.14L9 54.72l4 7.79 2.43.91L19 61.3l1.42-3.44-1.22-4.15-2.4-4.56-.5-5.56 4.15-3.24 10-3.64 1.92-1.93 2.43.51 1.42-1.42m0-.92a.91.91 0 00-.66.27l-1.06 1.06-1.94-.4a.62.62 0 00-.19 0 .93.93 0 00-.66.27L30 35.91l-9.83 3.57a.77.77 0 00-.25.14l-4.15 3.24a.91.91 0 00-.35.81l.5 5.57a.89.89 0 00.11.35l2.38 4.47 1.1 3.75-1.18 2.85-3 1.74-1.68-.63-3.52-7 4.82-6.63a.86.86 0 00.18-.48l.2-3.14a1 1 0 000-.17l-.51-4.15a1 1 0 00-.46-.7l-.64-.36-1.64-1.33.61-3.41a.92.92 0 00-.92-1.09h-1.24a.94.94 0 00-.83.51l-2.3 4.6L4 40.35a.82.82 0 00-.33.31L-1 48a1 1 0 00-.13.32L-2.79 57l-3.75 5.71a1 1 0 00-.13.72.94.94 0 00.44.59l1.21.71a.9.9 0 00.47.13 1 1 0 00.33-.06l2-.77L.2 65.26l.92 4.43a1 1 0 00.21.42L4.77 74l.16 2.11-1.55 2.39a.86.86 0 00-.14.64l.5 3.44a1 1 0 00.47.68l2.69 1.48 1.29 2.49a.94.94 0 00.54.46l2.23.7a.87.87 0 00.28 0h.09l5.24-.49 3 .48h.15a.93.93 0 00.29 0l3.45-1.15 5.87.68h1.39l7.72 9.18a.94.94 0 00.71.33h2.45a.87.87 0 00.49-.14l2.19-1.36 6.79.29h.18l5.26-1h.11l1.85-.59 1.31.69.69 1.45-1.74 3.76-.06.18-.45 2-1.35 1.44a.93.93 0 00-.25.63v10.73a.88.88 0 00.18.54l.85 1.2.19 3a1 1 0 00.14.44l2.43 3.85a1.83 1.83 0 00.13.16l1.9 1.9-.1.64-5.84 5.65a.94.94 0 00-.26.87.93.93 0 00.61.68L59 135l1.66.44 4.19 4.56 1.15 4.32a.38.38 0 000 .1l1.86 4.7v2.55a.93.93 0 00.42.78l7.79 5.06a.92.92 0 00.51.15 1 1 0 00.33-.06l3.14-1.22.15-.07 2.65-1.62-.21 2.16a.93.93 0 00.56.94l1.22.51a.84.84 0 00.35.07.9.9 0 00.67-.29l4.15-4.35a1 1 0 00.21-.33l.36-1 4.48-1.87a.72.72 0 00.24-.14l2.37-2 1 .78a1 1 0 00.56.18H99a1 1 0 00.61-.37l2.43-3.34a.91.91 0 00.17-.42l.24-1.79 6.9-4.12a.94.94 0 00.43-.56l.5-1.92a.92.92 0 00-.8-1.16L103 135l-.82-2.37-1.18-4.09a1.11 1.11 0 00-.07-.16l-1.09-2.18.27-2.35a.9.9 0 00-.24-.75l-5-5.32.2.14a.93.93 0 00.53.17h3.7l1.65 2.08a.92.92 0 00.69.35l5.56.2a.9.9 0 00.53-.17l1.17-.83 5 3.75a1 1 0 00.56.18.94.94 0 00.53-.16l1.72-1.22a.93.93 0 00.39-.85l-.24-2.48 3-1.45a.68.68 0 00.26-.18l.83-.83 3.12.87h.25a1.07 1.07 0 00.25 0l4.45-1.22a1 1 0 00.37-.2l1.85-1.65 2.77-1.52 1.11.16h.13a.94.94 0 00.62-.24l6.38-5.77a.91.91 0 00.28-.89l-.5-2.23a1 1 0 00-.26-.46L133.3 95l2.25-2.18a.89.89 0 00.28-.72l-.26-4.47 7.64-2.7a.87.87 0 00.39-.26l1.4-1.61a.91.91 0 00.21-.79l-.2-1a.94.94 0 00-.91-.74h-.07l-2.18.16-.51-.79-.42-2.39 1.36-2.08 3.6-1.43a.92.92 0 00.41-.32l4.35-6.07a.93.93 0 00-.14-1.24l-2.43-2.13a1 1 0 00-.61-.22h-7.64l-5.22.83.39-2.73 4-6.41a.93.93 0 00-.13-1.15l-.7-.71a1 1 0 00-.45-.25l-2.1-.47-5.15-2.87a.89.89 0 00-.45-.12h-.2l-2.78.61-1.27-1.11a.91.91 0 00-.61-.23h-2.73a.9.9 0 00-.53.17l-1.18.82-1.07-2.82a.88.88 0 00-.47-.51l-1.92-.89a.91.91 0 00-.23-.83l-1.18-1.24L117 44h.11l7.28-1.72a.92.92 0 00.72-.94.94.94 0 00-.79-.88l-3.45-.5h-.2l-17 1.22h-.16l-4.05 1a.94.94 0 00-.68.72.93.93 0 00.35.92l.21.16-.45.15h-.11l-8.24 4-8.93-1.42L78 43.14a.92.92 0 00-.66-.28h-6.91l-14.75 1.89-2.14-1.34L52.22 38a1 1 0 00-.41-.56L48 35a1 1 0 00-.43-.14l-6.48-.5L36.51 33a.84.84 0 00-.27 0z"/><path class="cls-5" d="M136.12 45.21l.21 1.21-2.43 1.72h-5.57l2.13-2.12v-5.17l3.64-.7 2.02.2v4.86z"/><path d="M158.64 146.43l-6.79-5.52-.29-4.35a.47.47 0 00-.21-.36l-2.24-1.4-.17-1.83 1.2-6a.49.49 0 000-.12l-.2-3.75 3.51-3.7a.45.45 0 00.1-.47l-.81-2.23-1.41-4.34a.49.49 0 00-.29-.29l-1.35-.48-1.69-1.23.47-4.59a.43.43 0 00-.09-.33l-1.97-2.44a.49.49 0 00-.37-.18H146l-4.64.67-8.72-8.49 2.59-2.5a.46.46 0 00.14-.36l-.28-4.82 8-2.81a.52.52 0 00.19-.14l1.42-1.62a.45.45 0 00.1-.39l-.2-1a.47.47 0 00-.45-.38l-2.49.19-.72-1.11-.45-2.66L142 75l3.71-1.46a.45.45 0 00.2-.16l4.09-5.72 7.37 3.73L165 79l-.68 4.32v1.59a.44.44 0 00.22.39.42.42 0 00.24.07.45.45 0 00.2 0l3-1.44 3.11 1.07 4.28 4.08.12.08 3.51 1.62 1.32 3.59v3.31l-1.35 5.5-2.7 1.4-3.08.69a.45.45 0 00-.3.24l-1 1.92a.54.54 0 00-.05.22v3.86l-1.39 3.77a.45.45 0 000 .28l.5 1.92a.52.52 0 00.07.15l3.3 4.59.48 1.65a.47.47 0 00.3.31l3.45 1.15 1.33 3 1 2.14 4.68 9-1.23.87-4.66-1h-.09a.47.47 0 00-.3.1l-3.71 3h-3a.5.5 0 00-.26.08l-2.8 1.83-2.11-.19a.42.42 0 00-.3.12l-3.75 3.35-2.41.36z" fill-rule="evenodd" fill="#fff"/><path d="M150.18 68.25l6.95 3.53 7.35 7.35-.63 4.09a.68.68 0 000 .14v1.52a.92.92 0 00.44.78.87.87 0 00.49.14 1 1 0 00.41-.09l2.81-1.35 2.88 1 4.21 4a.85.85 0 00.25.17l3.3 1.56 1.23 3.34v3.16l-1.29 5.25-2.46 1.27-3 .68a.91.91 0 00-.61.47l-1 1.93a.92.92 0 00-.11.43v3.78l-1.4 3.72a1 1 0 000 .56l.5 1.92a1 1 0 00.15.31l3.25 4.52.46 1.57a.94.94 0 00.59.62l3.26 1.09 1.26 2.78 1 2.16 4.48 8.59-.73.51-4.46-.93h-.19a1 1 0 00-.59.21l-3.59 2.93h-2.8a.92.92 0 00-.51.15l-2.67 1.75-1.9-.18h-.09a.89.89 0 00-.61.24l-3.64 3.25-2.11.32-2.09-1.4-6.64-5.39-.27-4.15a.92.92 0 00-.44-.72l-2-1.28-.22-1.55 1.19-5.94a.9.9 0 000-.23l-.18-3.55 3.37-3.56a.92.92 0 00.2-1l-.8-2.2-1.42-4.35a1 1 0 00-.57-.59l-1.3-.46-1.47-1 .44-4.32a.9.9 0 00-.19-.67l-1.92-2.43a1 1 0 00-.73-.35h-.13l-4.41.64-8.2-8 2.25-2.18a.89.89 0 00.28-.72l-.26-4.47 7.64-2.7a.87.87 0 00.39-.26l1.42-1.6a.91.91 0 00.21-.79l-.2-1a.94.94 0 00-.91-.74h-.07l-2.18.16-.51-.79-.42-2.39 1.36-2.08 3.6-1.43a.92.92 0 00.41-.32l3.89-5.43m-.29-1.18l-4.35 6.07-3.85 1.52-1.69 2.63.5 2.93.92 1.42 2.73-.2.2 1-1.42 1.62-8.32 2.94.3 5.16L132 95l.51.5 8.7 8.51 4.86-.71 1.92 2.43-.5 4.85 2 1.42 1.42.51 1.41 4.35.82 2.23-3.65 3.84.2 3.95-1.22 6.12.2 2.13 2.43 1.51.3 4.56 7 5.67 2.43 1.61 2.73-.4 3.84-3.44 2.23.2 2.94-1.92h3.13l3.85-3.14 4.86 1 1.72-1.21-4.86-9.31-1-2.13-1.44-3.13-3.64-1.21-.51-1.72-3.34-4.66-.51-1.92 1.42-3.84v-3.95l1-1.92 3.13-.71 2.94-1.52 1.41-5.77v-3.49l-1.41-3.84-3.65-1.73-4.35-4.14-3.44-1.22-3.14 1.52v-1.52l.71-4.55-7.77-7.81-7.79-4z"/><path stroke-width=".93" stroke="#000" stroke-linecap="round" stroke-linejoin="round" fill="#fff" d="M-20.25 176.14v-3.78l-.79-.13-2-.77h-.73l-1.14-.18-2.94-2.3-1.29-.62-1.18-1.09-1.46-.62-.96.14-.69 1.24-.39.33h-1.87l-3.99-.47h-.84l-1.85.47-2.28-.18-.41-.77-.54-2.15-.59-1.09-2.49-2.01-5.67-3.1-6.22-2.67-.89-.62-.42-.61-.2-.63-1.01-1.24-.06-1.24.52-1.24.8-.91 2.42-.47.08-1.24-.5-1.72.23-1.86.85-2.77 2.22-1.39.56-.19 2.71.19 2.67-.95.55-.49.41-.61 1.2-4.97 2.55-3.54 2.31-2.34.53-.91.14-.62-.04-1.1-1.4 1.1-.99.14-1.26-.14-1.46-.62-.21-1.39.08-1.71.86-3.25-.06-1.53-.99-4.2-.95-5.4.36-1.39.94-1.53-.04-.95-.81-3.24.08-4.6-.17-.8-.93-1.54-2.34-1.68-.61-1.09-1.12-3.83-.61-.95h.41l-.05-1.06 1.39-1.24.06-1.68.7-.14 1.03.76.68-.62 1.76-2.77 1.07-1.1-.02-.58-.59-.62-.42-.14-.06-1.39-.64-1.39-1.03-.62.06-2.15.28-.62 3.55 4.01 1.96 2.92.89.58.64-1.34-.74-4.31-.45-.47-.16-.77.27-.62 3.31-2.44 1.48-1.39.54-.62 1.59-3.03.83-.95 2.68-.58 1.21-1.39V57.2l.44-3.21.12-4.45.36-.91 1.39-1.35 4.14-3.21.7-.15 2.01.13 2.1.02.45.44.21 1.86.17-2.09 5.48-3.43 3.64-2.12 6.38-.51 10.63-6.07L8.1 28h12.35l-3.85 4.35-4.86 1.93h-1.21L8.1 39.13l-3.64 2.03-4.66 7.29-1.72 8.9-3.84 5.87 1.21.71 2.43-.91 3.14 1.62 1.01 4.86 3.64 4.14.21 2.74-1.72 2.63.5 3.44 2.93 1.62 1.42 2.73 2.23.71L16.6 87l3.14.51 3.64-1.21 6.07.7h1.73l7.99 9.52h2.43L44.03 95l7.08.3 5.27-1.01 2.22-.71 1.92 1.01 1.02 2.13-1.92 4.15-.51 2.22-1.52 1.62v10.73l1.01 1.42.2 3.23 2.43 3.85 2.23 2.23-.2 1.41-6.08 5.88 2.13.7 1.92.51 4.46 4.86 1.21 4.55 1.92 4.86v2.73l-1.72.41-3.64-9.42-1.01-1.21-5.27 4.55-2.93-2.12h-1.21l-.71 1.72.4.4-2.83 1.02-14.58.5-.3 6.58 2.73.71 3.34.5 1.22 2.64-.71 1.41-3.64-.7-5.06 2.22.2 8.5 5.06 4.35v3.45l2.23 3.33-3.85 31.88-1.72 3.34-3.44-4.15-4.15-.2v-1.92l6.07-10.43-9.92-5.36-3.84 1.92-5.87-1.72-5.57 3.14-2.93-.71-3.14.71-3.14-1.21-1.72-5.27-2.73-.81-2.13-5.06-7.79-3.44-1.01-2.83-3.76-2.25z"/></g><circle cx="79.84" cy="80.08" r="77.84" stroke-width="1.28" stroke="#000" stroke-linecap="round" stroke-linejoin="round" fill="none"/><text transform="translate(38.04 63.82)" font-family="OpenSans-SemiBold,Open Sans" font-weight="600" font-size="10.65">VENEZUELA</text><text transform="translate(82.75 100.36)" font-size="8.72" font-family="OpenSans-SemiBold,Open Sans" font-weight="600" fill="#f66a32"><tspan class="cls-12">Orinoc</tspan><tspan x="28.76" y="0">o </tspan><tspan class="cls-12" x="0" y="10.46">Minin</tspan><tspan x="24.42" y="10.46">g </tspan><tspan x="31.53" y="10.46" letter-spacing=".01em">Ar</tspan><tspan x="41.23" y="10.46">c</tspan></text><path d="M142.83 84.11l-8.39 3 .31 5.21-3 2.87.51.51 1.2 1.17-1.26 1.72-1.56.39-1-1.76-3.91.19-6.06-4.88h-3.12l-.79-.78V88l-4.29-1-6.06 1.75L101 87l-.78-3.33h-1.4l-1.95 1.37-.78.59-3.32-1 .39 2.74H91.4l-.78-1-3.72-1.69-3.9 1-2.15-.39-.4 2.71-1.17 1.57.59 1.17 1.37 4.1L78.7 99l-2.7.73-.78-3.13-3.13 3.52-5.67 1.37-.58-1-1.37-.78.39-1.57v-2l-1.37-.78-2-.39 1-2.35h2.34v-1.49l.39-1.95 1.17-1.37V83.9s2.15-.39 2.35-.78a29.93 29.93 0 013.91-2.35l1.56-2.93h2l1.17-.39 2.34-.19 2.93-2.55 2.94.59h3.12l3.52 2.54 2.34-1.56h1.57l.58-.78-1-1 .58-.78 1.7-.37 1.41-.35 2.15 1 2-.58 1-.78 2.35-.59h1.75l1.18-.78 2-1h2l1.36.2 1.18-1.57 1.17.2 1-1.17 3.71 2h7.42l.59 2.34 3.13 3.72 4.3-1.76 1.36 1.56 1.57.59h.05l-.64 1 .51 3 .92 1.43 2.76-.21.21 1z" fill-rule="evenodd" fill="#f66a32"/></g></svg>