<svg xmlns="http://www.w3.org/2000/svg" viewBox="0 0 35.46 16.81"><defs><style>.cls-1{fill:#f66a32;}</style></defs><g id="Camada_2" data-name="Camada 2"><g id="_Exemplo_do_grid_" data-name="[Exemplo do grid]"><path d="M5,4.85,5.81,6A7.47,7.47,0,0,0,7,7.18,9,9,0,0,0,6.55,5.5,10,10,0,0,0,6,4.16c-.17-.35-.33-.7-.47-1.05a2.64,2.64,0,0,1-.2-.93A2.06,2.06,0,0,1,5.92.62,2.45,2.45,0,0,1,7.68,0,2.31,2.31,0,0,1,9.44.69a2.24,2.24,0,0,1,.65,1.57,2.16,2.16,0,0,1-.18.85,9.11,9.11,0,0,1-.47.94,11.06,11.06,0,0,0-.62,1.36,11.38,11.38,0,0,0-.5,1.81A5.92,5.92,0,0,0,9.5,6.12q.5-.62.93-1.23A10.22,10.22,0,0,1,11.5,3.52,1.92,1.92,0,0,1,13,3a2.24,2.24,0,0,1,1.66.72,2.4,2.4,0,0,1,.71,1.72,2,2,0,0,1-.78,1.82,4.82,4.82,0,0,1-2.35.59c-.66,0-1.25.11-1.78.18A6.11,6.11,0,0,0,9,8.37a6,6,0,0,0,1.85.51l1.86.18a3.24,3.24,0,0,1,1.94.67,2,2,0,0,1,.69,1.57,2.62,2.62,0,0,1-.73,1.91A2.21,2.21,0,0,1,13,14a1.94,1.94,0,0,1-1.52-.58A9.58,9.58,0,0,1,10.43,12l-.86-1.18A6.32,6.32,0,0,0,8.39,9.59a7.11,7.11,0,0,0,.43,1.68c.2.48.41.93.62,1.34a8.61,8.61,0,0,1,.49,1,2.62,2.62,0,0,1,.2,1,2.1,2.1,0,0,1-.66,1.56,2.36,2.36,0,0,1-1.75.65A2.53,2.53,0,0,1,6,16.22a2.07,2.07,0,0,1-.64-1.62,2.76,2.76,0,0,1,.16-.9,7.51,7.51,0,0,1,.47-1c.21-.41.42-.85.62-1.33A6.77,6.77,0,0,0,7,9.62,6.71,6.71,0,0,0,5.9,10.75L5,12a13,13,0,0,1-1.07,1.38,1.94,1.94,0,0,1-1.49.57,2.25,2.25,0,0,1-1.73-.78A2.65,2.65,0,0,1,0,11.3,1.81,1.81,0,0,1,.9,9.58a4,4,0,0,1,2-.52l1.72-.18a6.5,6.5,0,0,0,1.71-.43,10.34,10.34,0,0,0-4.12-.69A2.28,2.28,0,0,1,.71,7.14,2,2,0,0,1,0,5.54,2.59,2.59,0,0,1,.69,3.75,2.25,2.25,0,0,1,2.44,3a1.93,1.93,0,0,1,1.49.54A10.87,10.87,0,0,1,5,4.85Z"/><path class="cls-1" d="M25.07,4.85,25.92,6a7.05,7.05,0,0,0,1.15,1.18,9,9,0,0,0-.41-1.68,10,10,0,0,0-.6-1.34c-.18-.35-.33-.7-.47-1.05a2.64,2.64,0,0,1-.2-.93A2.06,2.06,0,0,1,26,.62,2.45,2.45,0,0,1,27.79,0a2.31,2.31,0,0,1,1.76.69,2.24,2.24,0,0,1,.65,1.57,2.16,2.16,0,0,1-.18.85,9.11,9.11,0,0,1-.47.94,11.06,11.06,0,0,0-.62,1.36,11.38,11.38,0,0,0-.5,1.81,5.92,5.92,0,0,0,1.18-1.1q.5-.62.93-1.23a10.22,10.22,0,0,1,1.07-1.37A1.92,1.92,0,0,1,33.09,3a2.24,2.24,0,0,1,1.66.72,2.4,2.4,0,0,1,.71,1.72,2,2,0,0,1-.78,1.82,4.82,4.82,0,0,1-2.35.59c-.66,0-1.25.11-1.78.18a6.11,6.11,0,0,0-1.43.39A6,6,0,0,0,31,8.88l1.86.18a3.24,3.24,0,0,1,1.94.67,2,2,0,0,1,.69,1.57,2.62,2.62,0,0,1-.73,1.91,2.21,2.21,0,0,1-1.6.74,1.94,1.94,0,0,1-1.52-.58A9.58,9.58,0,0,1,30.54,12l-.86-1.18A6.32,6.32,0,0,0,28.5,9.59a7.11,7.11,0,0,0,.43,1.68c.2.48.41.93.62,1.34a8.61,8.61,0,0,1,.49,1,2.62,2.62,0,0,1,.2,1,2.1,2.1,0,0,1-.66,1.56,2.36,2.36,0,0,1-1.75.65,2.53,2.53,0,0,1-1.76-.59,2.07,2.07,0,0,1-.64-1.62,2.76,2.76,0,0,1,.16-.9,7.51,7.51,0,0,1,.47-1c.21-.41.42-.85.62-1.33a6.77,6.77,0,0,0,.46-1.73A6.71,6.71,0,0,0,26,10.75c-.31.42-.62.82-.9,1.21A13,13,0,0,1,24,13.34a1.94,1.94,0,0,1-1.49.57,2.25,2.25,0,0,1-1.73-.78,2.65,2.65,0,0,1-.71-1.83A1.82,1.82,0,0,1,21,9.58a4,4,0,0,1,2-.52l1.72-.18a6.5,6.5,0,0,0,1.71-.43,10.34,10.34,0,0,0-4.12-.69,2.26,2.26,0,0,1-1.51-.62,2,2,0,0,1-.71-1.6,2.59,2.59,0,0,1,.69-1.79A2.25,2.25,0,0,1,22.55,3,1.93,1.93,0,0,1,24,3.52,12,12,0,0,1,25.07,4.85Z"/></g></g></svg>