<svg xmlns="http://www.w3.org/2000/svg" viewBox="0 0 222.94 95.96">
  <g data-name="Camada 2">
    <g data-name="[Exemplo do grid]">
      <path d="M24.26 25.56v-6.27a3.29 3.29 0 001.95-.39 1.93 1.93 0 00.47-1.5V7.7L20.9 25.56h-6.51L8.52 8.65v9a3 3 0 00.1.88A1 1 0 009 19a1.54 1.54 0 00.74.23 10.41 10.41 0 001.21.05v6.27H0v-6.26a4.32 4.32 0 002.13-.39 1.63 1.63 0 00.64-1.5V8.85a1.64 1.64 0 00-.64-1.51A4.3 4.3 0 000 6.94V.68h16.08L20 12.35 23.35.68h15.88v6.26a4.23 4.23 0 00-2.12.4 1.65 1.65 0 00-.63 1.51v8.55a1.65 1.65 0 00.63 1.5 4.25 4.25 0 002.12.39v6.27zM59.16 19.29a4.75 4.75 0 001.16-.11 1.44 1.44 0 00.75-.45 2 2 0 00.38-.91 9.57 9.57 0 00.1-1.47h5.91v9.21H43.38v-6.27a4.27 4.27 0 002.13-.39 1.63 1.63 0 00.65-1.5V8.85a1.64 1.64 0 00-.65-1.51 4.25 4.25 0 00-2.13-.4V.68h24.08v9.2h-5.91a9.77 9.77 0 00-.1-1.47 1.88 1.88 0 00-.38-.89 1.5 1.5 0 00-.75-.45 4.64 4.64 0 00-1.16-.13h-3v4.5h5.39v3h-5.43v4.86zM71.61 25.56v-6.27a4.32 4.32 0 002.13-.39 1.63 1.63 0 00.64-1.5V8.85a1.64 1.64 0 00-.64-1.51 4.3 4.3 0 00-2.13-.4V.68h17.9a15.17 15.17 0 014.18.49 6.78 6.78 0 012.72 1.4 5.08 5.08 0 011.45 2.18 8.61 8.61 0 01.43 2.82 7 7 0 01-1.37 4.54 5.63 5.63 0 01-4.37 1.83v.2a7 7 0 012.4.54 4.15 4.15 0 011.51 1.14 4.46 4.46 0 01.78 1.69 10.18 10.18 0 01.22 2.24v.9a1.28 1.28 0 00.22.73.78.78 0 00.68.31.74.74 0 00.69-.31 1.27 1.27 0 00.2-.73v-4.3h2v4.3a6.4 6.4 0 01-.37 2.23 4.27 4.27 0 01-1.19 1.79 5.59 5.59 0 01-2.18 1.17 11.32 11.32 0 01-3.32.42 10.09 10.09 0 01-3.24-.44 4.6 4.6 0 01-2-1.19 4.21 4.21 0 01-1-1.76 8.16 8.16 0 01-.28-2.12v-1.3a12.91 12.91 0 00-.15-2.19A3.07 3.07 0 0087 16a1.62 1.62 0 00-.9-.62 5.24 5.24 0 00-1.35-.15h-.41v2.42a1.57 1.57 0 00.5 1.29 3 3 0 001.78.39v6.27zM84.35 12.2h1.49a2.32 2.32 0 002-.69 3 3 0 00.53-1.9 3.12 3.12 0 00-.53-2 2.45 2.45 0 00-2-.63h-1.49zM116.08 0a10.93 10.93 0 012.12.19 10.69 10.69 0 011.8.48 8.85 8.85 0 011.4.62 9.58 9.58 0 011 .6V.68h5.57v9.2H122a5.46 5.46 0 00-.25-1.88 3.36 3.36 0 00-.75-1.24 2.71 2.71 0 00-1.09-.68 4.56 4.56 0 00-1.36-.2 3.59 3.59 0 00-1.7.38 2.86 2.86 0 00-1.16 1.22 7.43 7.43 0 00-.69 2.25 20.76 20.76 0 00-.23 3.41 20.48 20.48 0 00.24 3.43 6.85 6.85 0 00.75 2.23 3 3 0 001.3 1.2 4.26 4.26 0 001.86.38 3.57 3.57 0 001.4-.28 3.3 3.3 0 001.19-.85 4 4 0 00.81-1.44 6.35 6.35 0 00.3-2.08h5.88a12.1 12.1 0 01-.68 4.06 8.75 8.75 0 01-2.11 3.34 10.14 10.14 0 01-3.65 2.28 14.52 14.52 0 01-5.25.85 17.87 17.87 0 01-5.18-.74 11.49 11.49 0 01-4.26-2.34 10.85 10.85 0 01-2.87-4.08 15.35 15.35 0 01-1.06-6 15 15 0 011.08-6 11 11 0 016.86-6.36 15.15 15.15 0 014.7-.74zM148.37.68v6.26a3 3 0 00-1.79.4 1.59 1.59 0 00-.5 1.31v7.81a5.32 5.32 0 00.14 1.2 2.78 2.78 0 00.46 1 2.38 2.38 0 00.88.71 3.33 3.33 0 001.4.26 3 3 0 002.36-.85 3.38 3.38 0 00.75-2.31V8.72a1.48 1.48 0 00-.63-1.41 3.46 3.46 0 00-1.72-.37V.68h11.13v6.26a3.74 3.74 0 00-1.74.33 1.44 1.44 0 00-.61 1.38v8.06a14.23 14.23 0 01-.39 3.23 7.51 7.51 0 01-1.56 3.06 8.53 8.53 0 01-3.3 2.31 14.47 14.47 0 01-5.68.93 18.37 18.37 0 01-4.42-.47 12.09 12.09 0 01-3.15-1.2 7.28 7.28 0 01-2-1.74 8.22 8.22 0 01-1.17-2 8.48 8.48 0 01-.55-2 13.53 13.53 0 01-.13-1.82V8.85a1.64 1.64 0 00-.65-1.51 4.23 4.23 0 00-2.12-.4V.68zM165 25.56v-6.27a4.27 4.27 0 002.13-.39 1.63 1.63 0 00.65-1.5V8.85a1.64 1.64 0 00-.65-1.51 4.25 4.25 0 00-2.13-.4V.68h17.9a15.17 15.17 0 014.18.49 6.78 6.78 0 012.72 1.4 5.08 5.08 0 011.45 2.18 8.61 8.61 0 01.43 2.82 7 7 0 01-1.37 4.54 5.63 5.63 0 01-4.37 1.83v.2a7.09 7.09 0 012.41.54 4.2 4.2 0 011.5 1.14 4.32 4.32 0 01.78 1.69 10.18 10.18 0 01.22 2.24v.9a1.28 1.28 0 00.22.73.78.78 0 00.68.31.74.74 0 00.69-.31 1.28 1.28 0 00.21-.73v-4.3h1.94v4.3a6.64 6.64 0 01-.36 2.23 4.39 4.39 0 01-1.2 1.79 5.52 5.52 0 01-2.18 1.17 11.32 11.32 0 01-3.32.42 10.09 10.09 0 01-3.24-.44 4.66 4.66 0 01-2-1.19 4.21 4.21 0 01-1-1.76 8.16 8.16 0 01-.27-2.12v-1.3a12.77 12.77 0 00-.16-2.19 3 3 0 00-.5-1.3 1.62 1.62 0 00-.9-.62 5.24 5.24 0 00-1.35-.15h-.41v2.42a1.57 1.57 0 00.5 1.29 3 3 0 001.78.39v6.27zm12.74-13.36h1.49a2.32 2.32 0 002-.69 3 3 0 00.53-1.9 3.12 3.12 0 00-.53-2 2.45 2.45 0 00-2-.63h-1.49zM200.14 8.85a8 8 0 01-.65-.73 4.2 4.2 0 00-.59-.6 2.71 2.71 0 00-.75-.42 3.52 3.52 0 00-1.15-.16V.68h14.85v6.26a2.87 2.87 0 00-2 .49c-.32.33-.31.74 0 1.22l2.33 3.24h.13l2.32-3.24c.39-.44.43-.83.12-1.18a2.84 2.84 0 00-2.07-.53V.68h10.18v6.26a3.33 3.33 0 00-.89.11 2.16 2.16 0 00-.71.32 4.5 4.5 0 00-.68.6c-.23.24-.51.53-.83.88l-4.85 6v2.6a1.63 1.63 0 00.64 1.5 4.32 4.32 0 002.13.39v6.27h-15.41v-6.32a4.25 4.25 0 002.12-.39 1.63 1.63 0 00.65-1.5v-2.6zM9.21 40.62a7.83 7.83 0 011.5.13 8.18 8.18 0 011.28.34 7.84 7.84 0 011 .44 8 8 0 01.69.43v-.86h4v6.52h-4.25a4 4 0 00-.2-1.34 2.33 2.33 0 00-.53-.87 1.89 1.89 0 00-.77-.48 3 3 0 00-1-.14 2.54 2.54 0 00-1.21.27 2 2 0 00-.82.86 5.34 5.34 0 00-.48 1.6 16.24 16.24 0 00-.16 2.41 13.71 13.71 0 00.18 2.43A4.8 4.8 0 009 53.94a2.17 2.17 0 00.91.87 2.91 2.91 0 001.31.27 2.45 2.45 0 001-.2 2.24 2.24 0 00.84-.6 3 3 0 00.58-1 4.52 4.52 0 00.21-1.47H18a8.52 8.52 0 01-.48 2.87A6.24 6.24 0 0116 57a7.24 7.24 0 01-2.59 1.62 10.44 10.44 0 01-3.72.6 12.52 12.52 0 01-3.67-.53 8.07 8.07 0 01-3-1.65 7.79 7.79 0 01-2-2.89 11 11 0 01-.74-4.25A10.64 10.64 0 011 45.69a8 8 0 012-2.89 7.84 7.84 0 012.85-1.65 10.36 10.36 0 013.36-.53zM34.59 50.87h-4.12v2.22a1.09 1.09 0 00.36.92 2.05 2.05 0 001.26.28v4.44H21.45v-4.44A3 3 0 0023 54a1.15 1.15 0 00.41-1v-6.11a1.17 1.17 0 00-.41-1.07 3 3 0 00-1.51-.28V41.1h10.6v4.44a2.05 2.05 0 00-1.26.28 1.12 1.12 0 00-.36.93v1.93h4.12v-1.93a1.12 1.12 0 00-.36-.93 2.06 2.06 0 00-1.23-.28V41.1h10.61v4.44a2.94 2.94 0 00-1.5.28 1.17 1.17 0 00-.45 1.07V53a1.15 1.15 0 00.45 1 2.94 2.94 0 001.5.28v4.44H33v-4.43a2.06 2.06 0 001.23-.29 1.09 1.09 0 00.36-.92zM56.09 52.58h-3.78l-.17.51a.94.94 0 000 .86c.14.23.44.34.91.34h.68v4.44H46.3v-4.44h.49A1.5 1.5 0 0048 54a4.21 4.21 0 00.57-1L51 46.89a1.27 1.27 0 00.09-1q-.18-.33-1.05-.33h-.25V41.1h12.28v4.44h-.24c-.59 0-.94.12-1.06.35a1.23 1.23 0 00.1 1L63.33 53c.09.22.18.42.25.58a1.31 1.31 0 00.29.42 1 1 0 00.44.26 2.89 2.89 0 00.73.08h.49v4.44H54.65v-4.49h.65a1 1 0 00.92-.34.89.89 0 000-.86zm-3.17-1.87h2.55L54.27 47h-.09zM84.56 47.5h-4a2.93 2.93 0 00-.42-1.13 3.37 3.37 0 00-.81-.91 3.64 3.64 0 00-2.27-.81 2.36 2.36 0 00-1.23.29.89.89 0 00-.46.8.94.94 0 00.42.8 4 4 0 001.1.53c.45.14 1 .29 1.55.42s1.18.3 1.78.5a15.13 15.13 0 011.78.73 6.08 6.08 0 011.56 1.09 5.1 5.1 0 011.1 1.62 5.73 5.73 0 01.42 2.3 4.66 4.66 0 01-.61 2.43 5.07 5.07 0 01-1.64 1.65 7.6 7.6 0 01-2.37.95 12.73 12.73 0 01-2.78.3 10.56 10.56 0 01-5.28-1.38v1h-4v-6.47h4a3.86 3.86 0 001.39 2.21 3.7 3.7 0 002.34.81 2.14 2.14 0 001.31-.33.93.93 0 00.43-.75 1.12 1.12 0 00-.71-1 9.66 9.66 0 00-1.77-.64l-2.3-.63a8.92 8.92 0 01-2.31-1 5.79 5.79 0 01-1.76-1.76 5.06 5.06 0 01-.72-2.85 4.6 4.6 0 01.57-2.31 5.16 5.16 0 011.5-1.69 6.72 6.72 0 012.19-1 9.37 9.37 0 012.62-.36 10.48 10.48 0 013.26.45 8.79 8.79 0 012.12.93V41.1h4zM88.19 58.73v-4.44A3 3 0 0089.7 54a1.15 1.15 0 00.45-1v-6.11a1.17 1.17 0 00-.45-1.07 3 3 0 00-1.51-.28V41.1h11v4.44a2.94 2.94 0 00-1.5.28 1.17 1.17 0 00-.45 1.07V53a1.15 1.15 0 00.43 1 2.94 2.94 0 001.5.28v4.44zM123.55 41.1v4.44a2 2 0 00-1.39.35 1.39 1.39 0 00-.33 1v11.84h-7.19L108.39 49v4.14q0 .78.45 1a3.93 3.93 0 001.51.21v4.44h-8.24v-4.5a3 3 0 001.51-.28 1.14 1.14 0 00.46-1.06v-6.06a1.15 1.15 0 00-.46-1.07 3 3 0 00-1.51-.28V41.1h9.41l6 9.37v-3.58a1.38 1.38 0 00-.33-1.07 2.28 2.28 0 00-1.38-.28V41.1zM141.1 58.73l-.4-1.19a6.62 6.62 0 01-2.08 1.19 8.17 8.17 0 01-3 .52 12.52 12.52 0 01-3.67-.53 8.1 8.1 0 01-3-1.65 7.66 7.66 0 01-2-2.89 10.84 10.84 0 01-.75-4.25 10.29 10.29 0 01.79-4.24 8.12 8.12 0 015-4.54 10.64 10.64 0 013.36-.53 10.07 10.07 0 011.82.15 9.88 9.88 0 011.42.39 7.14 7.14 0 011 .49l.68.43v-1h4v6.52H140a3.13 3.13 0 00-.76-2 2.56 2.56 0 00-2-.78 3 3 0 00-1.21.23 2.34 2.34 0 00-1 .82 4.55 4.55 0 00-.67 1.58 10.34 10.34 0 00-.25 2.51 16.23 16.23 0 00.16 2.43 4.81 4.81 0 00.51 1.58 2.06 2.06 0 00.86.87 2.8 2.8 0 001.27.27h.43a2.72 2.72 0 00.49-.13 1.81 1.81 0 00.41-.23.51.51 0 00.17-.4v-.66a1 1 0 00-.38-.85 2.48 2.48 0 00-1.44-.3v-4.01h10.11v3.95a2.94 2.94 0 00-1.51.29 1.13 1.13 0 00-.46 1.06v4.9zM178.06 41.1v7h-3.93v-1.39a3.28 3.28 0 00-.18-1 1.08 1.08 0 00-.44-.54 1.58 1.58 0 00-.78-.17h-.75v8a1.16 1.16 0 00.46 1.06 3 3 0 001.51.28v4.44h-11v-4.49a2.94 2.94 0 001.5-.28 1.15 1.15 0 00.45-1.06v-7.9h-.73a1.56 1.56 0 00-.78.17 1.1 1.1 0 00-.45.54 3 3 0 00-.18 1v1.39h-3.95v-7zM193.92 50.87h-4.12v2.22a1.09 1.09 0 00.35.92 2.07 2.07 0 001.26.28v4.44h-10.64v-4.44a3 3 0 001.51-.28 1.15 1.15 0 00.45-1.06v-6.06a1.17 1.17 0 00-.45-1.07 3 3 0 00-1.51-.28V41.1h10.64v4.44a2.07 2.07 0 00-1.26.28 1.11 1.11 0 00-.35.93v1.93h4.12v-1.93a1.12 1.12 0 00-.36-.93 2.09 2.09 0 00-1.26-.28V41.1h10.63v4.44a2.94 2.94 0 00-1.5.28 1.17 1.17 0 00-.45 1.07V53a1.15 1.15 0 00.45 1.06 2.94 2.94 0 001.5.28v4.44H192.3v-4.49a2.09 2.09 0 001.26-.28 1.09 1.09 0 00.36-.92zM217.06 54.29a3.79 3.79 0 00.82-.08 1 1 0 00.52-.32 1.18 1.18 0 00.27-.64 5.86 5.86 0 00.08-1h4.19v6.52h-17.07v-4.48a3 3 0 001.51-.28 1.14 1.14 0 00.46-1.06v-6.06a1.15 1.15 0 00-.46-1.07 3 3 0 00-1.51-.28V41.1h17.07v6.52h-4.19a5.86 5.86 0 00-.08-1 1.14 1.14 0 00-.27-.63 1 1 0 00-.52-.32 3.21 3.21 0 00-.82-.09h-2.16v3.18h3.82v2.12h-3.82v3.45zM.26 84.49A10.14 10.14 0 011 80.41a8 8 0 012.16-2.94A9.61 9.61 0 016.5 75.7a14.6 14.6 0 014.25-.59 14.53 14.53 0 014.25.59 9.35 9.35 0 013.32 1.77 8 8 0 012.16 2.94 11.07 11.07 0 010 8.14 8.21 8.21 0 01-2.41 3.17 1.79 1.79 0 00.55.43 1.61 1.61 0 00.76.18 1.47 1.47 0 00.95-.27 1.56 1.56 0 00.49-.67 2.94 2.94 0 00.2-.85c0-.3.05-.57.07-.8h1.11a9.13 9.13 0 01-.94 4.69A3.21 3.21 0 0118.32 96a3.69 3.69 0 01-2.32-.71 5.4 5.4 0 01-1.54-1.9c-.64.16-1.23.27-1.77.35a13.61 13.61 0 01-2 .12 14.27 14.27 0 01-4.25-.59 9.16 9.16 0 01-3.32-1.78A8 8 0 011 88.55a10 10 0 01-.74-4.06zm8.09 0v1.46c0 .46 0 .84.09 1.2a4 4 0 011-.63 3.1 3.1 0 011.39-.29 4.08 4.08 0 011.17.16 6 6 0 011 .39c0-.33.06-.69.07-1.06s0-.79 0-1.23a23.79 23.79 0 00-.07-2.44 5.37 5.37 0 00-.38-1.6 1.84 1.84 0 00-.74-.87 2.29 2.29 0 00-1.16-.27 2.32 2.32 0 00-1.18.27 1.88 1.88 0 00-.73.87 5.37 5.37 0 00-.38 1.6 23.79 23.79 0 00-.08 2.44zm2.4 5.18a1.9 1.9 0 001.75-.84 2.85 2.85 0 00-.95-.91 2.29 2.29 0 00-1.17-.35 1.29 1.29 0 00-1 .33 1 1 0 00-.28.66.9.9 0 00.5.84 2.45 2.45 0 001.15.27zM35.5 75.59v4.48a2.11 2.11 0 00-1.27.28 1.12 1.12 0 00-.36.93v5.57a3.88 3.88 0 00.1.85 1.81 1.81 0 00.33.73 1.58 1.58 0 00.63.51 2.36 2.36 0 001 .19 2.15 2.15 0 001.69-.61 2.46 2.46 0 00.53-1.65v-5.54a1.07 1.07 0 00-.45-1 2.46 2.46 0 00-1.23-.25v-4.49h7.95v4.48a2.65 2.65 0 00-1.25.23 1 1 0 00-.43 1V87a10 10 0 01-.28 2.31 5.3 5.3 0 01-1.11 2.19A6.2 6.2 0 0139 93.18a10.37 10.37 0 01-4 .66 13.13 13.13 0 01-3.15-.33 8.36 8.36 0 01-2.23-.88 5.15 5.15 0 01-1.46-1.23 5.88 5.88 0 01-.91-1.4 6.19 6.19 0 01-.39-1.44 10.4 10.4 0 01-.1-1.3v-5.83a1.18 1.18 0 00-.45-1.08 3.05 3.05 0 00-1.52-.28v-4.48zM47.37 93.34v-4.47a3 3 0 001.52-.28 1.16 1.16 0 00.45-1.07v-6.09a1.18 1.18 0 00-.45-1.08 3 3 0 00-1.52-.28v-4.48h11.05v4.48a3 3 0 00-1.51.28 1.16 1.16 0 00-.46 1.08v6.09a1.14 1.14 0 00.46 1.07 3 3 0 001.51.28v4.47zM70.51 75.11a9.06 9.06 0 011.52.13 8.47 8.47 0 011.28.35 7.42 7.42 0 011 .44 8 8 0 01.69.43v-.87h4v6.57h-4.24a4 4 0 00-.2-1.35 2.61 2.61 0 00-.53-.88 2 2 0 00-.78-.48 3 3 0 00-1-.14 2.56 2.56 0 00-1.22.27 2.06 2.06 0 00-.83.87 5.43 5.43 0 00-.48 1.6 15.39 15.39 0 00-.16 2.44 15.09 15.09 0 00.17 2.44 5.19 5.19 0 00.53 1.59 2.19 2.19 0 00.91.88 3 3 0 001.33.27 2.66 2.66 0 001-.2 2.39 2.39 0 00.85-.61 3 3 0 00.58-1 4.63 4.63 0 00.21-1.48h4.19a8.63 8.63 0 01-.48 2.89 6.16 6.16 0 01-1.51 2.38 7.17 7.17 0 01-2.6 1.63 10.53 10.53 0 01-3.75.6 12.38 12.38 0 01-3.69-.53 8.25 8.25 0 01-3-1.66 8.09 8.09 0 01-2-2.91 11 11 0 01-.75-4.27 10.72 10.72 0 01.77-4.27 7.92 7.92 0 014.89-4.58 10.82 10.82 0 013.3-.55zM91.91 83l2.39-1.49a1.29 1.29 0 00.58-.5.59.59 0 00.08-.47.67.67 0 00-.32-.35 1.13 1.13 0 00-.56-.13v-4.47h9.73v4.48a4.9 4.9 0 00-1.35.16 5.45 5.45 0 00-1.29.58l-2.5 1.47 4 5.24c.15.21.29.4.43.56a2.33 2.33 0 00.46.43 2.22 2.22 0 00.58.27 3.15 3.15 0 00.82.09v4.47H94.08v-4.47a1.49 1.49 0 00.76-.14.66.66 0 00.29-.36.64.64 0 000-.41 1.09 1.09 0 00-.15-.29l-1.74-2.17-1.33.81v1.36a4 4 0 000 .54.65.65 0 00.15.37.81.81 0 00.4.22 2.6 2.6 0 00.7.07v4.47H82.83v-4.47a3.05 3.05 0 001.52-.28 1.16 1.16 0 00.45-1.07v-6.09a1.18 1.18 0 00-.45-1.08 3.05 3.05 0 00-1.52-.28v-4.48h10.36v4.48a2.6 2.6 0 00-.7.07.81.81 0 00-.4.22.68.68 0 00-.15.37 4.33 4.33 0 000 .55zM124 82h-4a2.93 2.93 0 00-.43-1.14 3.57 3.57 0 00-.81-.92 3.64 3.64 0 00-2.29-.81 2.33 2.33 0 00-1.23.29.92.92 0 00-.47.81.94.94 0 00.42.8 3.83 3.83 0 001.11.53c.46.15 1 .29 1.57.43s1.18.3 1.79.51a15.93 15.93 0 011.79.72 6.19 6.19 0 011.56 1.1 5.11 5.11 0 011.17 1.68 5.83 5.83 0 01.42 2.32 4.6 4.6 0 01-.61 2.44 5.06 5.06 0 01-1.65 1.67 7.62 7.62 0 01-2.39 1 12.82 12.82 0 01-2.79.3 10.58 10.58 0 01-5.32-1.39v1.06h-4v-6.62h4a3.92 3.92 0 001.4 2.22 3.77 3.77 0 002.36.81 2.17 2.17 0 001.32-.33.93.93 0 00.43-.75 1.14 1.14 0 00-.72-1 9.66 9.66 0 00-1.77-.64l-2.32-.64a9 9 0 01-2.32-1 5.89 5.89 0 01-1.78-1.77 5.15 5.15 0 01-.72-2.87 4.64 4.64 0 01.57-2.32 5.29 5.29 0 011.52-1.71 6.9 6.9 0 012.2-1 9.77 9.77 0 012.63-.35 10.63 10.63 0 013.29.45 8.86 8.86 0 012.13.94v-1.23h4zM127.69 93.34v-4.47a3.05 3.05 0 001.52-.28 1.16 1.16 0 00.45-1.07v-6.09a1.18 1.18 0 00-.45-1.08 3.05 3.05 0 00-1.52-.28v-4.48h11.05v4.48a3 3 0 00-1.52.28 1.18 1.18 0 00-.45 1.08v6.09a1.16 1.16 0 00.45 1.07 3 3 0 001.52.28v4.47zM152.75 80.07a3 3 0 00-1.51.28 1.18 1.18 0 00-.45 1.08v7.44h2.41a3.34 3.34 0 00.83-.09.93.93 0 00.53-.41 2.12 2.12 0 00.27-.86 11.32 11.32 0 00.08-1.47h4.21v7.3H141.7v-4.47a3 3 0 001.52-.28 1.17 1.17 0 00.46-1.07v-6.09a1.18 1.18 0 00-.46-1.08 3 3 0 00-1.52-.28v-4.48h11.05zM162.6 81.43a4.21 4.21 0 00-.27-.62 1.27 1.27 0 00-.33-.43 1.36 1.36 0 00-.53-.24 3.93 3.93 0 00-.84-.07v-4.48h10.46v4.48c-1.2 0-1.66.4-1.38 1.21l1.87 5.85h.11l1.92-5.85c.28-.81-.18-1.21-1.38-1.21v-4.48h7v4.48a3.77 3.77 0 00-.83.07 1.2 1.2 0 00-.87.67c-.08.16-.17.37-.27.62l-4.67 11.91h-5.35zM193 88.87a3.2 3.2 0 00.82-.08 1 1 0 00.53-.32 1.21 1.21 0 00.27-.64 6.06 6.06 0 00.08-1h4.21v6.56H181.7v-4.52a3 3 0 001.52-.28 1.14 1.14 0 00.46-1.07v-6.09a1.16 1.16 0 00-.46-1.08 3 3 0 00-1.52-.28v-4.48h17.17v6.57h-4.21a6.06 6.06 0 00-.08-1 1.21 1.21 0 00-.27-.64 1 1 0 00-.53-.31 3.15 3.15 0 00-.82-.09h-2.17v3.2h3.84v2.08h-3.84v3.47zM201.84 93.34v-4.47a3 3 0 001.51-.28 1.14 1.14 0 00.46-1.07v-6.09a1.16 1.16 0 00-.46-1.08 3 3 0 00-1.51-.28v-4.48h12.76a11 11 0 013 .35 5.07 5.07 0 011.94 1 3.7 3.7 0 011 1.56 6.33 6.33 0 01.3 2 5 5 0 01-1 3.24 4 4 0 01-3.12 1.3v.15a5.15 5.15 0 011.71.38 2.84 2.84 0 011.08.82 3 3 0 01.55 1.2 7 7 0 01.16 1.6v.64a.91.91 0 00.16.52.53.53 0 00.48.22.56.56 0 00.5-.22 1 1 0 00.14-.52v-3.05h1.39v3.06a4.73 4.73 0 01-.26 1.59 3.31 3.31 0 01-.85 1.28 3.93 3.93 0 01-1.56.83 8 8 0 01-2.37.3 7.12 7.12 0 01-2.31-.31 3.27 3.27 0 01-1.4-.85 3 3 0 01-.71-1.26 5.73 5.73 0 01-.2-1.51V89a9.45 9.45 0 00-.1-1.56 2.38 2.38 0 00-.36-.93 1.2 1.2 0 00-.64-.44 3.91 3.91 0 00-1-.1h-.29v1.72a1.11 1.11 0 00.36.92 2.09 2.09 0 001.27.28v4.47zm9.08-9.53H212a1.65 1.65 0 001.39-.49 2.09 2.09 0 00.38-1.35 2.2 2.2 0 00-.38-1.46 1.74 1.74 0 00-1.39-.44h-1.06zM.12 65.32h222.82v3.04H.12zM.12 30.85h222.82v3.04H.12"/>
    </g>
  </g>
</svg>
