<svg xmlns="http://www.w3.org/2000/svg" viewBox="0 0 220.26 89.8"><g id="Camada_2" data-name="Camada 2"><g id="_Exemplo_do_grid_" data-name="[Exemplo do grid]"><path d="M21.54,22.7V17.13a2.91,2.91,0,0,0,1.73-.35,1.69,1.69,0,0,0,.42-1.33V6.84L18.56,22.7H12.78l-5.22-15v8a2.81,2.81,0,0,0,.09.79.9.9,0,0,0,.32.46,1.43,1.43,0,0,0,.66.21c.29,0,.65,0,1.08,0V22.7H0V17.13a3.83,3.83,0,0,0,1.89-.35,1.45,1.45,0,0,0,.57-1.33V7.86a1.44,1.44,0,0,0-.57-1.34A3.72,3.72,0,0,0,0,6.17V.6H14.28L17.73,11,20.73.6h14.1V6.17A3.67,3.67,0,0,0,33,6.52a1.46,1.46,0,0,0-.56,1.34v7.59A1.46,1.46,0,0,0,33,16.78a3.78,3.78,0,0,0,1.88.35V22.7Z"/><path d="M52.53,17.13a4.27,4.27,0,0,0,1-.1,1.23,1.23,0,0,0,.66-.4,1.64,1.64,0,0,0,.34-.8,7.81,7.81,0,0,0,.09-1.31H59.9V22.7H38.52V17.13a3.83,3.83,0,0,0,1.89-.35A1.45,1.45,0,0,0,41,15.45V7.86a1.44,1.44,0,0,0-.57-1.34,3.72,3.72,0,0,0-1.89-.35V.6H59.9V8.78H54.65a7.81,7.81,0,0,0-.09-1.31,1.56,1.56,0,0,0-.34-.79,1.23,1.23,0,0,0-.66-.4,3.77,3.77,0,0,0-1-.11h-2.7v4h4.79v2.65H49.83v4.32Z"/><path d="M63.59,22.7V17.13a3.83,3.83,0,0,0,1.89-.35,1.45,1.45,0,0,0,.57-1.33V7.86a1.44,1.44,0,0,0-.57-1.34,3.72,3.72,0,0,0-1.89-.35V.6H79.47A13.64,13.64,0,0,1,83.19,1,6.09,6.09,0,0,1,85.6,2.28a4.43,4.43,0,0,1,1.29,1.94,7.58,7.58,0,0,1,.38,2.5,6.25,6.25,0,0,1-1.21,4,5,5,0,0,1-3.89,1.63v.18a6.15,6.15,0,0,1,2.14.48,3.49,3.49,0,0,1,1.34,1,3.84,3.84,0,0,1,.69,1.5,9.17,9.17,0,0,1,.2,2v.79a1.08,1.08,0,0,0,.19.65A.8.8,0,0,0,88,19a1.15,1.15,0,0,0,.18-.65V14.52h1.72v3.81a5.81,5.81,0,0,1-.32,2,3.88,3.88,0,0,1-1.06,1.58A5,5,0,0,1,86.54,23a10.45,10.45,0,0,1-3,.36,9.19,9.19,0,0,1-2.87-.38A4.29,4.29,0,0,1,79,21.87a3.63,3.63,0,0,1-.87-1.57,6.78,6.78,0,0,1-.25-1.88V17.27a11.33,11.33,0,0,0-.14-1.95,2.66,2.66,0,0,0-.44-1.15,1.41,1.41,0,0,0-.8-.55,4.63,4.63,0,0,0-1.2-.13H74.9v2.14a1.41,1.41,0,0,0,.44,1.15,2.67,2.67,0,0,0,1.58.35V22.7ZM74.9,10.83h1.32A2.06,2.06,0,0,0,78,10.22a2.62,2.62,0,0,0,.47-1.68A2.78,2.78,0,0,0,78,6.72a2.19,2.19,0,0,0-1.73-.55H74.9Z"/><path d="M103.07,0A10.11,10.11,0,0,1,105,.17a10.61,10.61,0,0,1,1.6.42,9.27,9.27,0,0,1,1.25.56,7.66,7.66,0,0,1,.85.53V.6h4.95V8.78h-5.25a4.8,4.8,0,0,0-.25-1.68,2.91,2.91,0,0,0-.66-1.1,2.36,2.36,0,0,0-1-.6,4,4,0,0,0-1.21-.18,3.09,3.09,0,0,0-1.51.34,2.54,2.54,0,0,0-1,1.09,6.82,6.82,0,0,0-.6,2,19.91,19.91,0,0,0-.2,3,17.3,17.3,0,0,0,.22,3,5.89,5.89,0,0,0,.66,2,2.63,2.63,0,0,0,1.13,1.09,3.65,3.65,0,0,0,1.65.34,3.12,3.12,0,0,0,1.24-.25,2.78,2.78,0,0,0,1.06-.75,3.53,3.53,0,0,0,.72-1.28,5.54,5.54,0,0,0,.27-1.84h5.22a10.71,10.71,0,0,1-.6,3.6,7.87,7.87,0,0,1-1.88,3,9.08,9.08,0,0,1-3.24,2,13.11,13.11,0,0,1-4.67.75,15.62,15.62,0,0,1-4.59-.66,10.08,10.08,0,0,1-3.78-2.07A9.71,9.71,0,0,1,92.79,17a13.53,13.53,0,0,1-.94-5.32,13.53,13.53,0,0,1,1-5.32,10.38,10.38,0,0,1,2.52-3.62A10,10,0,0,1,98.9.66,13.28,13.28,0,0,1,103.07,0Z"/><path d="M131.74.6V6.17a2.63,2.63,0,0,0-1.59.35,1.4,1.4,0,0,0-.44,1.16v6.93a4.68,4.68,0,0,0,.12,1.07,2.47,2.47,0,0,0,.41.9,2,2,0,0,0,.78.63,2.83,2.83,0,0,0,1.24.24,2.66,2.66,0,0,0,2.1-.76,3,3,0,0,0,.66-2.05V7.74a1.31,1.31,0,0,0-.55-1.25,3,3,0,0,0-1.53-.32V.6h9.88V6.17a3.22,3.22,0,0,0-1.54.29,1.25,1.25,0,0,0-.54,1.22v7.16a12.26,12.26,0,0,1-.36,2.87A6.55,6.55,0,0,1,139,20.44a7.7,7.7,0,0,1-2.93,2.06,13.07,13.07,0,0,1-5,.81,16.49,16.49,0,0,1-3.92-.41,10.61,10.61,0,0,1-2.79-1.09,6.32,6.32,0,0,1-1.81-1.54,7.06,7.06,0,0,1-1-1.78,7.58,7.58,0,0,1-.49-1.8,12,12,0,0,1-.12-1.61V7.86a1.44,1.44,0,0,0-.57-1.34,3.72,3.72,0,0,0-1.89-.35V.6Z"/><path d="M146.51,22.7V17.13a3.83,3.83,0,0,0,1.89-.35,1.45,1.45,0,0,0,.57-1.33V7.86a1.44,1.44,0,0,0-.57-1.34,3.72,3.72,0,0,0-1.89-.35V.6H162.4a13.56,13.56,0,0,1,3.71.44,6.09,6.09,0,0,1,2.41,1.24,4.43,4.43,0,0,1,1.29,1.94,7.58,7.58,0,0,1,.39,2.5,6.25,6.25,0,0,1-1.22,4,5,5,0,0,1-3.88,1.63v.18a6.09,6.09,0,0,1,2.13.48,3.49,3.49,0,0,1,1.34,1,3.84,3.84,0,0,1,.69,1.5,9.17,9.17,0,0,1,.2,2v.79a1.09,1.09,0,0,0,.2.65.67.67,0,0,0,.6.28.66.66,0,0,0,.61-.28,1.15,1.15,0,0,0,.18-.65V14.52h1.73v3.81a5.81,5.81,0,0,1-.33,2,3.85,3.85,0,0,1-1,1.58A5.06,5.06,0,0,1,169.46,23a10.38,10.38,0,0,1-3,.36,9.26,9.26,0,0,1-2.88-.38,4.25,4.25,0,0,1-1.74-1.06A3.65,3.65,0,0,1,161,20.3a6.78,6.78,0,0,1-.25-1.88V17.27a11.47,11.47,0,0,0-.13-1.95,2.66,2.66,0,0,0-.45-1.15,1.41,1.41,0,0,0-.8-.55,4.63,4.63,0,0,0-1.2-.13h-.36v2.14a1.41,1.41,0,0,0,.44,1.15,2.7,2.7,0,0,0,1.59.35V22.7Zm11.31-11.87h1.32a2.06,2.06,0,0,0,1.73-.61,2.62,2.62,0,0,0,.48-1.68,2.77,2.77,0,0,0-.48-1.82,2.19,2.19,0,0,0-1.73-.55h-1.32Z"/><path d="M175.85,22.7V17.13a3.83,3.83,0,0,0,1.89-.35,1.45,1.45,0,0,0,.57-1.33V7.86a1.44,1.44,0,0,0-.57-1.34,3.72,3.72,0,0,0-1.89-.35V.6h13.76V6.17a3.72,3.72,0,0,0-1.89.35,1.46,1.46,0,0,0-.56,1.34v7.59a1.46,1.46,0,0,0,.56,1.33,3.83,3.83,0,0,0,1.89.35V22.7Z"/><path d="M193.44,11.67a12.54,12.54,0,0,1,1-5.08,9.84,9.84,0,0,1,2.69-3.65,11.61,11.61,0,0,1,4.13-2.2,19.24,19.24,0,0,1,10.57,0,11.45,11.45,0,0,1,4.13,2.2,10,10,0,0,1,2.69,3.65,12.72,12.72,0,0,1,.95,5.08,12.62,12.62,0,0,1-.95,5.06,9.91,9.91,0,0,1-2.69,3.66,11.33,11.33,0,0,1-4.13,2.22,19.5,19.5,0,0,1-10.57,0,11.49,11.49,0,0,1-4.13-2.22,9.8,9.8,0,0,1-2.69-3.66A12.45,12.45,0,0,1,193.44,11.67Zm10.09,0a28.71,28.71,0,0,0,.13,3,7,7,0,0,0,.47,2,2.33,2.33,0,0,0,.91,1.09,3.28,3.28,0,0,0,2.91,0,2.24,2.24,0,0,0,.92-1.09,6.67,6.67,0,0,0,.48-2,28.71,28.71,0,0,0,.13-3,28.9,28.9,0,0,0-.13-3,6.51,6.51,0,0,0-.48-2A2.24,2.24,0,0,0,208,5.56a3.28,3.28,0,0,0-2.91,0,2.33,2.33,0,0,0-.91,1.09,6.85,6.85,0,0,0-.47,2A28.9,28.9,0,0,0,203.53,11.67Z"/><path d="M12.66,37.28V42a2.24,2.24,0,0,0-1.35.3,1.19,1.19,0,0,0-.37,1v5.91a3.91,3.91,0,0,0,.1.91,2.08,2.08,0,0,0,.35.77,1.75,1.75,0,0,0,.66.54,2.5,2.5,0,0,0,1.06.2A2.26,2.26,0,0,0,14.9,51a2.58,2.58,0,0,0,.56-1.74V43.37A1.14,1.14,0,0,0,15,42.3,2.55,2.55,0,0,0,13.68,42V37.28h8.43V42a2.92,2.92,0,0,0-1.32.25,1.08,1.08,0,0,0-.46,1v6.1a10.65,10.65,0,0,1-.3,2.45,5.61,5.61,0,0,1-1.18,2.33,6.55,6.55,0,0,1-2.49,1.75,11.2,11.2,0,0,1-4.3.69,13.59,13.59,0,0,1-3.34-.35,8.62,8.62,0,0,1-2.37-.93A5.35,5.35,0,0,1,4.8,54a6.22,6.22,0,0,1-.89-1.52A6.45,6.45,0,0,1,3.5,51a9.93,9.93,0,0,1-.1-1.37V43.47a1.26,1.26,0,0,0-.49-1.15A3.2,3.2,0,0,0,1.3,42V37.28Z"/><path d="M48.13,37.28V42a2.15,2.15,0,0,0-1.48.37,1.54,1.54,0,0,0-.35,1.08V56.11H38.62L32,45.67v4.42q0,.82.48,1a4.14,4.14,0,0,0,1.61.23v4.74H25.25V51.37a3.2,3.2,0,0,0,1.61-.3,1.24,1.24,0,0,0,.49-1.13V43.47a1.26,1.26,0,0,0-.49-1.15,3.2,3.2,0,0,0-1.61-.3V37.28h10l6.39,10V43.47a1.5,1.5,0,0,0-.35-1.15,2.48,2.48,0,0,0-1.48-.3V37.28Z"/><path d="M61.19,49.54h-4l-.18.55A1,1,0,0,0,57,51c.15.25.48.37,1,.37h.73v4.74h-8V51.37h.52A1.57,1.57,0,0,0,52.49,51a4.18,4.18,0,0,0,.61-1.06l2.62-6.47a1.43,1.43,0,0,0,.1-1.1c-.13-.23-.5-.35-1.12-.35h-.27V37.28H67.57V42h-.26c-.63,0-1,.13-1.13.37a1.35,1.35,0,0,0,.11,1.08l2.62,6.47c.1.23.19.44.28.62a1.55,1.55,0,0,0,.3.44,1,1,0,0,0,.48.28,2.71,2.71,0,0,0,.77.09h.52v4.74H59.64V51.37h.71a1.08,1.08,0,0,0,1-.37.93.93,0,0,0,0-.91Zm-3.39-2h2.73l-1.28-3.93h-.1Z"/><path d="M98.13,47.71h-4.4v2.38a1.16,1.16,0,0,0,.38,1,2.22,2.22,0,0,0,1.34.3v4.74H84.09V51.37a3.2,3.2,0,0,0,1.61-.3,1.21,1.21,0,0,0,.49-1.13V43.47a1.24,1.24,0,0,0-.49-1.15,3.2,3.2,0,0,0-1.61-.3V37.28H95.45V42a2.22,2.22,0,0,0-1.34.3,1.17,1.17,0,0,0-.38,1v2.06h4.4V43.31a1.17,1.17,0,0,0-.39-1A2.22,2.22,0,0,0,96.4,42V37.28h11.35V42a3.16,3.16,0,0,0-1.6.3,1.26,1.26,0,0,0-.48,1.15v6.47a1.23,1.23,0,0,0,.48,1.13,3.16,3.16,0,0,0,1.6.3v4.74H96.4V51.37a2.22,2.22,0,0,0,1.34-.3,1.16,1.16,0,0,0,.39-1Z"/><path d="M122.26,37.28V42a2.24,2.24,0,0,0-1.35.3,1.2,1.2,0,0,0-.38,1v5.91a3.91,3.91,0,0,0,.1.91,2.25,2.25,0,0,0,.35.77,1.71,1.71,0,0,0,.67.54,2.49,2.49,0,0,0,1,.2,2.25,2.25,0,0,0,1.79-.65,2.53,2.53,0,0,0,.57-1.74V43.37a1.12,1.12,0,0,0-.48-1.07,2.51,2.51,0,0,0-1.3-.28V37.28h8.42V42a2.84,2.84,0,0,0-1.31.25,1.08,1.08,0,0,0-.46,1v6.1a10.68,10.68,0,0,1-.31,2.45,5.71,5.71,0,0,1-1.17,2.33,6.59,6.59,0,0,1-2.5,1.75,11.11,11.11,0,0,1-4.29.69,13.67,13.67,0,0,1-3.35-.35,8.62,8.62,0,0,1-2.37-.93A5.3,5.3,0,0,1,114.4,54a5.92,5.92,0,0,1-.89-1.52,6.49,6.49,0,0,1-.42-1.53,9.93,9.93,0,0,1-.1-1.37V43.47a1.24,1.24,0,0,0-.49-1.15,3.2,3.2,0,0,0-1.61-.3V37.28Z"/><path d="M146.78,51.37a3.67,3.67,0,0,0,.88-.09,1.11,1.11,0,0,0,.56-.34,1.46,1.46,0,0,0,.29-.69,6.73,6.73,0,0,0,.07-1.11h4.48v7H134.84V51.37a3.2,3.2,0,0,0,1.61-.3,1.21,1.21,0,0,0,.49-1.13V43.47a1.24,1.24,0,0,0-.49-1.15,3.2,3.2,0,0,0-1.61-.3V37.28h18.22v7h-4.48a6.81,6.81,0,0,0-.07-1.11,1.38,1.38,0,0,0-.29-.68,1.11,1.11,0,0,0-.56-.34,3.62,3.62,0,0,0-.88-.1h-2.3v3.4h4.08v2.27h-4.08v3.68Z"/><path d="M167.92,42a3.16,3.16,0,0,0-1.6.3,1.26,1.26,0,0,0-.48,1.15v7.9h2.55a3.22,3.22,0,0,0,.89-.11,1,1,0,0,0,.56-.42,2.62,2.62,0,0,0,.29-.92,12.68,12.68,0,0,0,.08-1.56h4.47v7.75H156.2V51.37a3.2,3.2,0,0,0,1.61-.3,1.24,1.24,0,0,0,.49-1.13V43.47a1.26,1.26,0,0,0-.49-1.15,3.2,3.2,0,0,0-1.61-.3V37.28h11.72Z"/><path d="M189.55,42a3.2,3.2,0,0,0-1.61.3,1.26,1.26,0,0,0-.48,1.15v7.9H190a3.15,3.15,0,0,0,.88-.11.91.91,0,0,0,.56-.42,2.27,2.27,0,0,0,.29-.92,11,11,0,0,0,.08-1.56h4.48v7.75H177.83V51.37a3.23,3.23,0,0,0,1.61-.3,1.23,1.23,0,0,0,.48-1.13V43.47a1.26,1.26,0,0,0-.48-1.15,3.23,3.23,0,0,0-1.61-.3V37.28h11.72Z"/><path d="M209.64,49.54h-4l-.18.55a1,1,0,0,0,0,.91,1.08,1.08,0,0,0,1,.37h.72v4.74h-8V51.37h.53a1.57,1.57,0,0,0,1.23-.37,4.18,4.18,0,0,0,.61-1.06l2.62-6.47a1.42,1.42,0,0,0,.09-1.1c-.12-.23-.49-.35-1.12-.35h-.26V37.28H216V42h-.26c-.63,0-1,.13-1.13.37a1.31,1.31,0,0,0,.11,1.08l2.62,6.47.27.62a1.55,1.55,0,0,0,.3.44,1,1,0,0,0,.48.28,2.78,2.78,0,0,0,.78.09h.52v4.74H208.09V51.37h.7a1.09,1.09,0,0,0,1-.37,1,1,0,0,0,0-.91Zm-3.39-2H209l-1.28-3.93h-.1Z"/><path d="M12.26,84.62a3.79,3.79,0,0,0,.9-.09,1.11,1.11,0,0,0,.57-.34,1.45,1.45,0,0,0,.29-.7,6.84,6.84,0,0,0,.08-1.13h4.55v7.09H.12V84.62a3.33,3.33,0,0,0,1.64-.3,1.25,1.25,0,0,0,.49-1.15V76.58a1.25,1.25,0,0,0-.49-1.16,3.33,3.33,0,0,0-1.64-.3V70.29H18.65v7.09H14.1A6.84,6.84,0,0,0,14,76.25a1.37,1.37,0,0,0-.29-.69,1.2,1.2,0,0,0-.57-.35,3.79,3.79,0,0,0-.9-.09H9.92v3.45h4.15v2.31H9.92v3.74Z"/><path d="M45.13,70.29v4.83a2.14,2.14,0,0,0-1.5.37,1.52,1.52,0,0,0-.36,1.09V89.45H35.45L28.66,78.82v4.5c0,.57.17.92.5,1.07a4.06,4.06,0,0,0,1.64.23v4.83H21.85V84.62a3.33,3.33,0,0,0,1.64-.3A1.25,1.25,0,0,0,24,83.17V76.58a1.25,1.25,0,0,0-.49-1.16,3.33,3.33,0,0,0-1.64-.3V70.29H32.07l6.5,10.18V76.58a1.51,1.51,0,0,0-.35-1.16,2.56,2.56,0,0,0-1.51-.3V70.29Z"/><path d="M70.1,75.12a3.31,3.31,0,0,0-1.64.3A1.27,1.27,0,0,0,68,76.58v8h2.6a3.39,3.39,0,0,0,.9-.1,1,1,0,0,0,.57-.44,2.43,2.43,0,0,0,.29-.93,11.26,11.26,0,0,0,.08-1.58H77v7.88H58.17V84.62a3.33,3.33,0,0,0,1.64-.3,1.25,1.25,0,0,0,.49-1.15V76.58a1.25,1.25,0,0,0-.49-1.16,3.33,3.33,0,0,0-1.64-.3V70.29H70.1Z"/><path d="M90.54,82.76H86.43l-.18.56a1,1,0,0,0,0,.93,1.1,1.1,0,0,0,1,.37H88v4.83H79.9V84.62h.53a1.62,1.62,0,0,0,1.26-.37,4.34,4.34,0,0,0,.62-1.08L85,76.58a1.41,1.41,0,0,0,.1-1.11c-.12-.24-.5-.35-1.14-.35h-.27V70.29H97v4.83h-.26c-.64,0-1,.12-1.15.37a1.33,1.33,0,0,0,.11,1.09l2.67,6.59c.1.24.19.45.28.63a1.61,1.61,0,0,0,.3.45,1.07,1.07,0,0,0,.49.28,2.86,2.86,0,0,0,.79.09h.53v4.83H89V84.62h.71a1.13,1.13,0,0,0,1-.37,1,1,0,0,0,0-.93Zm-3.45-2h2.77l-1.3-4h-.1Z"/><path d="M131.58,77.25h-4.29a3.27,3.27,0,0,0-.46-1.24,4,4,0,0,0-.88-1,4.1,4.1,0,0,0-1.16-.64,3.88,3.88,0,0,0-1.31-.23,2.59,2.59,0,0,0-1.33.31,1,1,0,0,0-.5.88,1,1,0,0,0,.45.86,4.33,4.33,0,0,0,1.2.57c.49.16,1.06.32,1.69.46s1.28.33,1.93.55a15.33,15.33,0,0,1,1.93.79,6.33,6.33,0,0,1,1.69,1.18,5.39,5.39,0,0,1,1.2,1.76,6.31,6.31,0,0,1,.45,2.5,5,5,0,0,1-.66,2.64,5.37,5.37,0,0,1-1.78,1.8,8.14,8.14,0,0,1-2.58,1,13.55,13.55,0,0,1-3,.33,12,12,0,0,1-2.91-.35,12.3,12.3,0,0,1-2.83-1.15v1.15h-4.29V82.36h4.29a4.26,4.26,0,0,0,1.51,2.4,4.07,4.07,0,0,0,2.55.88,2.34,2.34,0,0,0,1.42-.36,1,1,0,0,0,.47-.81,1.21,1.21,0,0,0-.78-1.11,9.57,9.57,0,0,0-1.92-.69l-2.5-.69a9.57,9.57,0,0,1-2.5-1.11A6.14,6.14,0,0,1,114.75,79a5.51,5.51,0,0,1-.78-3.09,5.12,5.12,0,0,1,.61-2.51,5.78,5.78,0,0,1,1.64-1.84,7.38,7.38,0,0,1,2.38-1.13,10.1,10.1,0,0,1,2.84-.39,11.59,11.59,0,0,1,3.55.48,10,10,0,0,1,2.3,1V70.29h4.29Z"/><path d="M147.67,84.62a3.7,3.7,0,0,0,.89-.09,1,1,0,0,0,.57-.34,1.46,1.46,0,0,0,.3-.7,7,7,0,0,0,.07-1.13h4.56v7.09H135.52V84.62a3.31,3.31,0,0,0,1.64-.3,1.26,1.26,0,0,0,.5-1.15V76.58a1.25,1.25,0,0,0-.5-1.16,3.31,3.31,0,0,0-1.64-.3V70.29h18.54v7.09H149.5a7,7,0,0,0-.07-1.13,1.38,1.38,0,0,0-.3-.69,1.11,1.11,0,0,0-.57-.35,3.7,3.7,0,0,0-.89-.09h-2.34v3.45h4.15v2.31h-4.15v3.74Z"/><path d="M169.18,75.12a3.26,3.26,0,0,0-1.63.3,1.25,1.25,0,0,0-.49,1.16v8h2.6a3.29,3.29,0,0,0,.9-.1,1,1,0,0,0,.57-.44,2.27,2.27,0,0,0,.29-.93,11,11,0,0,0,.09-1.58h4.55v7.88H157.25V84.62a3.31,3.31,0,0,0,1.64-.3,1.26,1.26,0,0,0,.5-1.15V76.58a1.25,1.25,0,0,0-.5-1.16,3.31,3.31,0,0,0-1.64-.3V70.29h11.93Z"/><path d="M179.82,76.58c-.11-.26-.2-.49-.3-.67a1.55,1.55,0,0,0-.36-.45,1.37,1.37,0,0,0-.57-.27,4.47,4.47,0,0,0-.91-.07V70.29H189v4.83c-1.29,0-1.78.43-1.48,1.31l2,6.31h.11l2.07-6.31c.31-.88-.19-1.31-1.48-1.31V70.29h7.56v4.83a4.47,4.47,0,0,0-.91.07,1.37,1.37,0,0,0-.57.27,1.55,1.55,0,0,0-.36.45c-.09.18-.18.41-.3.67l-5,12.87h-5.78Z"/><path d="M210,82.76h-4.11l-.19.56a1,1,0,0,0,0,.93c.16.25.48.37,1,.37h.74v4.83h-8.1V84.62h.53a1.61,1.61,0,0,0,1.25-.37,4.05,4.05,0,0,0,.62-1.08l2.67-6.59a1.45,1.45,0,0,0,.1-1.11c-.13-.24-.51-.35-1.14-.35h-.27V70.29h13.37v4.83h-.26c-.65,0-1,.12-1.16.37a1.41,1.41,0,0,0,.11,1.09l2.67,6.59.28.63a1.44,1.44,0,0,0,.31.45,1,1,0,0,0,.48.28,2.91,2.91,0,0,0,.79.09h.53v4.83H208.44V84.62h.72a1.12,1.12,0,0,0,1-.37,1,1,0,0,0,0-.93Zm-3.45-2h2.77l-1.3-4h-.11Z"/><rect x="0.12" y="62.33" width="219.59" height="3"/><polyline points="0.12 28.28 219.71 28.28 219.71 31.27 0.12 31.27"/></g></g></svg>