<svg xmlns="http://www.w3.org/2000/svg" viewBox="0 0 219.71 94.57"><g id="Camada_2" data-name="Camada 2"><g id="_Exemplo_do_grid_" data-name="[Exemplo do grid]"><path d="M23.91,25.19V19a3.09,3.09,0,0,0,1.92-.4,1.86,1.86,0,0,0,.46-1.47V7.59L20.6,25.19H14.19L8.39,8.53v8.82a3.24,3.24,0,0,0,.1.87,1,1,0,0,0,.36.51,1.65,1.65,0,0,0,.73.24c.32,0,.72.05,1.19.05v6.17H0V19a4.06,4.06,0,0,0,2.1-.4,1.59,1.59,0,0,0,.63-1.47V8.73a1.64,1.64,0,0,0-.63-1.5A4.19,4.19,0,0,0,0,6.84V.67H15.85l3.83,11.5L23,.67H38.66V6.84a4.17,4.17,0,0,0-2.09.39A1.65,1.65,0,0,0,36,8.73v8.42a1.61,1.61,0,0,0,.62,1.47,4,4,0,0,0,2.09.4v6.17Z"/><path d="M58.31,19a4.63,4.63,0,0,0,1.14-.12,1.43,1.43,0,0,0,.73-.44,2,2,0,0,0,.38-.89,9.38,9.38,0,0,0,.1-1.45h5.82v9.07H42.76V19a4,4,0,0,0,2.09-.4,1.57,1.57,0,0,0,.64-1.47V8.73a1.62,1.62,0,0,0-.64-1.5,4.17,4.17,0,0,0-2.09-.39V.67H66.48V9.74H60.66a9.38,9.38,0,0,0-.1-1.45,1.88,1.88,0,0,0-.38-.88A1.43,1.43,0,0,0,59.45,7a4.59,4.59,0,0,0-1.14-.13h-3v4.43h5.31v3H55.31V19Z"/><path d="M70.58,25.19V19a4.11,4.11,0,0,0,2.1-.4,1.59,1.59,0,0,0,.63-1.47V8.73a1.64,1.64,0,0,0-.63-1.5,4.24,4.24,0,0,0-2.1-.39V.67H88.21a15.13,15.13,0,0,1,4.12.48A6.71,6.71,0,0,1,95,2.53a5,5,0,0,1,1.43,2.15,8.4,8.4,0,0,1,.43,2.78,6.93,6.93,0,0,1-1.35,4.47,5.55,5.55,0,0,1-4.31,1.81v.2a6.69,6.69,0,0,1,2.37.53,3.9,3.9,0,0,1,1.48,1.12,4.22,4.22,0,0,1,.77,1.67,9.81,9.81,0,0,1,.22,2.2v.89a1.23,1.23,0,0,0,.22.72.75.75,0,0,0,.67.31.74.74,0,0,0,.68-.31,1.29,1.29,0,0,0,.2-.72V16.12h1.91v4.23a6.72,6.72,0,0,1-.35,2.2,4.35,4.35,0,0,1-1.18,1.76,5.45,5.45,0,0,1-2.15,1.16,11.36,11.36,0,0,1-3.28.41,10.11,10.11,0,0,1-3.19-.43,4.69,4.69,0,0,1-1.94-1.17,4.16,4.16,0,0,1-1-1.74,7.93,7.93,0,0,1-.27-2.09V19.17A12.53,12.53,0,0,0,86.25,17a3,3,0,0,0-.5-1.28,1.55,1.55,0,0,0-.89-.61A5.08,5.08,0,0,0,83.53,15h-.4v2.38a1.54,1.54,0,0,0,.49,1.27,2.87,2.87,0,0,0,1.76.4v6.17ZM83.13,12H84.6a2.31,2.31,0,0,0,1.92-.67,3,3,0,0,0,.53-1.88,3.08,3.08,0,0,0-.53-2,2.44,2.44,0,0,0-1.92-.62H83.13Z"/><path d="M114.4,0a11.54,11.54,0,0,1,2.09.18,11.33,11.33,0,0,1,1.77.48,9.75,9.75,0,0,1,1.39.61c.38.22.7.42.95.59V.67h5.49V9.74h-5.83A5.54,5.54,0,0,0,120,7.88a3.4,3.4,0,0,0-.74-1.22A2.66,2.66,0,0,0,118.18,6a4.36,4.36,0,0,0-1.33-.2,3.48,3.48,0,0,0-1.68.38A2.74,2.74,0,0,0,114,7.38a7.06,7.06,0,0,0-.67,2.21,21.37,21.37,0,0,0-.22,3.36,19.92,19.92,0,0,0,.24,3.38,6.61,6.61,0,0,0,.73,2.19,3,3,0,0,0,1.26,1.22,4.12,4.12,0,0,0,1.83.37,3.61,3.61,0,0,0,1.38-.27,3.09,3.09,0,0,0,1.17-.84,4,4,0,0,0,.8-1.42,6.15,6.15,0,0,0,.29-2h5.8a11.69,11.69,0,0,1-.67,4,8.61,8.61,0,0,1-2.08,3.3,10.19,10.19,0,0,1-3.59,2.25,14.66,14.66,0,0,1-5.18.83,17.78,17.78,0,0,1-5.11-.73,11.33,11.33,0,0,1-4.19-2.3,10.86,10.86,0,0,1-2.83-4A15,15,0,0,1,102,13a15,15,0,0,1,1-5.9,11.35,11.35,0,0,1,2.8-4,11.06,11.06,0,0,1,4-2.3A14.71,14.71,0,0,1,114.4,0Z"/><path d="M146.22.67V6.84a2.93,2.93,0,0,0-1.76.39,1.58,1.58,0,0,0-.49,1.3v7.69a5.08,5.08,0,0,0,.13,1.18,2.74,2.74,0,0,0,.46,1,2.43,2.43,0,0,0,.87.7,3.23,3.23,0,0,0,1.37.25,2.93,2.93,0,0,0,2.33-.84,3.31,3.31,0,0,0,.73-2.27V8.59a1.47,1.47,0,0,0-.61-1.39,3.38,3.38,0,0,0-1.7-.36V.67h11V6.84a3.6,3.6,0,0,0-1.71.33,1.4,1.4,0,0,0-.6,1.36v7.94a14,14,0,0,1-.39,3.19,7.38,7.38,0,0,1-1.53,3A8.61,8.61,0,0,1,151,25a14.46,14.46,0,0,1-5.59.91,18.39,18.39,0,0,1-4.36-.46A11.93,11.93,0,0,1,138,24.21a7.15,7.15,0,0,1-2-1.71,7.88,7.88,0,0,1-1.16-2,8.64,8.64,0,0,1-.54-2,13,13,0,0,1-.13-1.79v-8a1.62,1.62,0,0,0-.64-1.5,4.17,4.17,0,0,0-2.09-.39V.67Z"/><path d="M162.62,25.19V19a4,4,0,0,0,2.09-.4,1.57,1.57,0,0,0,.64-1.47V8.73a1.62,1.62,0,0,0-.64-1.5,4.17,4.17,0,0,0-2.09-.39V.67h17.63a15.13,15.13,0,0,1,4.12.48,6.71,6.71,0,0,1,2.68,1.38,5,5,0,0,1,1.43,2.15,8.4,8.4,0,0,1,.43,2.78,6.93,6.93,0,0,1-1.35,4.47,5.55,5.55,0,0,1-4.31,1.81v.2a6.69,6.69,0,0,1,2.37.53,3.9,3.9,0,0,1,1.48,1.12,4.22,4.22,0,0,1,.77,1.67,9.81,9.81,0,0,1,.22,2.2v.89a1.16,1.16,0,0,0,.22.72.74.74,0,0,0,.66.31.75.75,0,0,0,.69-.31,1.29,1.29,0,0,0,.2-.72V16.12h1.91v4.23a6.47,6.47,0,0,1-.36,2.2,4.23,4.23,0,0,1-1.17,1.76,5.45,5.45,0,0,1-2.15,1.16,11.4,11.4,0,0,1-3.28.41,10.11,10.11,0,0,1-3.19-.43,4.69,4.69,0,0,1-1.94-1.17,4.16,4.16,0,0,1-1-1.74,7.93,7.93,0,0,1-.28-2.09V19.17a12.53,12.53,0,0,0-.15-2.16,2.86,2.86,0,0,0-.49-1.28,1.55,1.55,0,0,0-.89-.61,5.08,5.08,0,0,0-1.33-.15h-.4v2.38a1.51,1.51,0,0,0,.49,1.27,2.87,2.87,0,0,0,1.76.4v6.17ZM175.17,12h1.47a2.31,2.31,0,0,0,1.92-.67,3,3,0,0,0,.52-1.88,3.09,3.09,0,0,0-.52-2,2.44,2.44,0,0,0-1.92-.62h-1.47Z"/><path d="M197.25,8.73A8,8,0,0,1,196.6,8a3.61,3.61,0,0,0-.58-.59,2.5,2.5,0,0,0-.74-.41,3.43,3.43,0,0,0-1.11-.16V.67H208.8V6.84a2.76,2.76,0,0,0-1.94.49q-.47.48,0,1.2l2.3,3.19h.13l2.28-3.19c.39-.44.43-.83.13-1.17a2.84,2.84,0,0,0-2-.52V.67h10V6.84a3.72,3.72,0,0,0-.87.1,2.25,2.25,0,0,0-.7.33,4.25,4.25,0,0,0-.67.58l-.82.88-4.78,5.86v2.56a1.59,1.59,0,0,0,.63,1.47,4.06,4.06,0,0,0,2.1.4v6.17H199.33V19a4.09,4.09,0,0,0,2.1-.4,1.59,1.59,0,0,0,.63-1.47V14.59Z"/><path d="M9.08,40a7.69,7.69,0,0,1,1.48.13,8.22,8.22,0,0,1,1.26.34,8.41,8.41,0,0,1,1,.43l.67.42V40.5h3.89v6.43H13.23A3.92,3.92,0,0,0,13,45.61a2.5,2.5,0,0,0-.52-.86,1.83,1.83,0,0,0-.76-.47,2.91,2.91,0,0,0-.95-.14,2.58,2.58,0,0,0-1.19.26,2.05,2.05,0,0,0-.81.86,5.14,5.14,0,0,0-.47,1.57,14.67,14.67,0,0,0-.16,2.38,14.42,14.42,0,0,0,.17,2.39,5,5,0,0,0,.52,1.56,2.1,2.1,0,0,0,.89.86,2.9,2.9,0,0,0,1.3.27,2.53,2.53,0,0,0,1-.2,2.29,2.29,0,0,0,.83-.6,2.85,2.85,0,0,0,.57-1,4.42,4.42,0,0,0,.2-1.45h4.11a8.53,8.53,0,0,1-.47,2.83,6.26,6.26,0,0,1-1.48,2.34,7,7,0,0,1-2.54,1.59,10.42,10.42,0,0,1-3.67.59A12.23,12.23,0,0,1,6,57.87a7.82,7.82,0,0,1-3-1.63,7.65,7.65,0,0,1-2-2.85,10.7,10.7,0,0,1-.74-4.18A10.52,10.52,0,0,1,1,45a8.07,8.07,0,0,1,2-2.85A7.9,7.9,0,0,1,5.8,40.55,10.33,10.33,0,0,1,9.08,40Z"/><path d="M34.09,50.13H30v2.2a1.1,1.1,0,0,0,.35.9,2.11,2.11,0,0,0,1.25.28v4.37H21.14V53.51a3,3,0,0,0,1.48-.28,1.13,1.13,0,0,0,.45-1v-6a1.12,1.12,0,0,0-.45-1.05,2.88,2.88,0,0,0-1.48-.28V40.5H31.63v4.38a2,2,0,0,0-1.25.28,1.1,1.1,0,0,0-.35.91V48h4.06v-1.9a1.1,1.1,0,0,0-.35-.91,2,2,0,0,0-1.24-.28V40.5H43v4.38a2.86,2.86,0,0,0-1.48.28,1.12,1.12,0,0,0-.45,1.05v6a1.13,1.13,0,0,0,.45,1,3,3,0,0,0,1.48.28v4.37H32.5V53.51a2.11,2.11,0,0,0,1.24-.28,1.1,1.1,0,0,0,.35-.9Z"/><path d="M55.28,51.82H51.55l-.16.51a.91.91,0,0,0,0,.84,1,1,0,0,0,.9.34H53v4.37H45.63V53.51h.48a1.49,1.49,0,0,0,1.14-.34,3.41,3.41,0,0,0,.56-1l2.42-6a1.26,1.26,0,0,0,.09-1c-.11-.22-.46-.33-1-.33H49V40.5H61.17v4.38h-.24c-.58,0-.93.11-1,.34a1.25,1.25,0,0,0,.1,1l2.42,6c.09.23.18.42.25.58a1.56,1.56,0,0,0,.28.41,1,1,0,0,0,.44.25,2.43,2.43,0,0,0,.72.09h.48v4.37H53.85V53.51h.65a1.06,1.06,0,0,0,.91-.34.9.9,0,0,0,0-.84ZM52.16,50h2.51l-1.18-3.62h-.1Z"/><path d="M83.34,46.82H79.45A3.21,3.21,0,0,0,79,45.69a3.69,3.69,0,0,0-1.85-1.48A3.67,3.67,0,0,0,76,44a2.22,2.22,0,0,0-1.2.28.88.88,0,0,0-.46.79.93.93,0,0,0,.41.79,4,4,0,0,0,1.08.52c.45.14,1,.28,1.54.41s1.16.3,1.75.5a14.58,14.58,0,0,1,1.75.71,5.77,5.77,0,0,1,1.54,1.08,4.8,4.8,0,0,1,1.08,1.6A5.53,5.53,0,0,1,83.9,53a4.55,4.55,0,0,1-.61,2.4A5,5,0,0,1,81.68,57a7.64,7.64,0,0,1-2.34.93,12.92,12.92,0,0,1-2.74.29A10.25,10.25,0,0,1,74,57.88a10.7,10.7,0,0,1-2.57-1v1H67.51V51.45H71.4a3.81,3.81,0,0,0,1.37,2.18,3.66,3.66,0,0,0,2.31.8,2.12,2.12,0,0,0,1.29-.33.92.92,0,0,0,.42-.74,1.09,1.09,0,0,0-.7-1,10.11,10.11,0,0,0-1.74-.63l-2.27-.62a8.78,8.78,0,0,1-2.27-1,5.42,5.42,0,0,1-1.74-1.73,5,5,0,0,1-.71-2.8,4.59,4.59,0,0,1,.56-2.28,5.06,5.06,0,0,1,1.49-1.67,6.7,6.7,0,0,1,2.15-1,9.4,9.4,0,0,1,2.58-.35,10.53,10.53,0,0,1,3.22.44,9.33,9.33,0,0,1,2.09.92V40.5h3.89Z"/><path d="M86.91,57.88V53.51a3,3,0,0,0,1.49-.28,1.13,1.13,0,0,0,.45-1v-6a1.12,1.12,0,0,0-.45-1.05,2.9,2.9,0,0,0-1.49-.28V40.5H97.73v4.38a2.88,2.88,0,0,0-1.48.28,1.14,1.14,0,0,0-.44,1.05v6a1.15,1.15,0,0,0,.44,1,3,3,0,0,0,1.48.28v4.37Z"/><path d="M121.76,40.5v4.38a1.94,1.94,0,0,0-1.37.34,1.42,1.42,0,0,0-.32,1V57.88H113l-6.16-9.64v4.09c0,.51.15.83.45,1a3.76,3.76,0,0,0,1.48.21v4.37h-8.11V53.51a3,3,0,0,0,1.48-.28,1.13,1.13,0,0,0,.45-1v-6a1.12,1.12,0,0,0-.45-1.05,2.88,2.88,0,0,0-1.48-.28V40.5h9.27l5.9,9.24V46.21a1.36,1.36,0,0,0-.32-1.05,2.26,2.26,0,0,0-1.37-.28V40.5Z"/><path d="M139.05,57.88l-.39-1.18a6.3,6.3,0,0,1-2,1.18,8.22,8.22,0,0,1-3,.51,12.22,12.22,0,0,1-3.61-.52,7.85,7.85,0,0,1-3-1.63,7.65,7.65,0,0,1-2-2.85,10.7,10.7,0,0,1-.74-4.18,10,10,0,0,1,.79-4.18,8.12,8.12,0,0,1,2.06-2.85,8.32,8.32,0,0,1,2.9-1.63,10.65,10.65,0,0,1,3.31-.52,9.65,9.65,0,0,1,1.79.15,8.46,8.46,0,0,1,1.4.39,5.63,5.63,0,0,1,1,.48l.68.42v-1h3.89v6.43H138a3.07,3.07,0,0,0-.75-2,2.52,2.52,0,0,0-2-.77,2.94,2.94,0,0,0-1.19.23,2.26,2.26,0,0,0-1,.81,4.38,4.38,0,0,0-.67,1.55,10.71,10.71,0,0,0-.24,2.48,14.55,14.55,0,0,0,.16,2.39,5,5,0,0,0,.49,1.56,2.09,2.09,0,0,0,.86.86,2.68,2.68,0,0,0,1.25.27,4.12,4.12,0,0,0,.42,0,2.41,2.41,0,0,0,.48-.12,1.4,1.4,0,0,0,.4-.23.48.48,0,0,0,.18-.39v-.65a1,1,0,0,0-.38-.85,2.5,2.5,0,0,0-1.42-.29V47.83h10v3.89a3,3,0,0,0-1.49.28,1.16,1.16,0,0,0-.44,1v4.83Z"/><path d="M175.49,40.5v6.92h-3.88c0-.53,0-1-.05-1.38a2.85,2.85,0,0,0-.18-.94,1,1,0,0,0-.43-.53,1.44,1.44,0,0,0-.77-.17h-.73v7.78a1.15,1.15,0,0,0,.44,1,3,3,0,0,0,1.49.28v4.37H160.56V53.51a3,3,0,0,0,1.48-.28,1.13,1.13,0,0,0,.44-1V44.4h-.72a1.44,1.44,0,0,0-.77.17,1.07,1.07,0,0,0-.44.53,3.48,3.48,0,0,0-.18.94q0,.59,0,1.38h-3.9V40.5Z"/><path d="M191.11,50.13h-4.06v2.2a1.1,1.1,0,0,0,.35.9,2.07,2.07,0,0,0,1.24.28v4.37H178.15V53.51a3,3,0,0,0,1.49-.28,1.13,1.13,0,0,0,.45-1v-6a1.12,1.12,0,0,0-.45-1.05,2.92,2.92,0,0,0-1.49-.28V40.5h10.49v4.38a2,2,0,0,0-1.24.28,1.1,1.1,0,0,0-.35.91V48h4.06v-1.9a1.07,1.07,0,0,0-.36-.91,2,2,0,0,0-1.23-.28V40.5H200v4.38a2.88,2.88,0,0,0-1.48.28,1.14,1.14,0,0,0-.44,1.05v6a1.15,1.15,0,0,0,.44,1,3,3,0,0,0,1.48.28v4.37H189.52V53.51a2.06,2.06,0,0,0,1.23-.28,1.08,1.08,0,0,0,.36-.9Z"/><path d="M213.92,53.51a3,3,0,0,0,.8-.09,1,1,0,0,0,.52-.31,1.31,1.31,0,0,0,.27-.63,5.86,5.86,0,0,0,.07-1h4.13v6.43H202.89V53.51a3,3,0,0,0,1.49-.28,1.13,1.13,0,0,0,.45-1v-6a1.12,1.12,0,0,0-.45-1.05,2.9,2.9,0,0,0-1.49-.28V40.5h16.82v6.43h-4.13a5.74,5.74,0,0,0-.07-1,1.31,1.31,0,0,0-.27-.63,1,1,0,0,0-.52-.31,3,3,0,0,0-.8-.09h-2.13V48h3.77v2.09h-3.77v3.4Z"/><path d="M.25,83.26a9.91,9.91,0,0,1,.76-4,7.81,7.81,0,0,1,2.13-2.89,9.32,9.32,0,0,1,3.27-1.74A14.15,14.15,0,0,1,10.6,74a14.17,14.17,0,0,1,4.18.58,9.32,9.32,0,0,1,3.27,1.74,7.9,7.9,0,0,1,2.12,2.89,9.91,9.91,0,0,1,.76,4,10.13,10.13,0,0,1-.77,4,8.12,8.12,0,0,1-2.37,3.12,1.69,1.69,0,0,0,.54.42,1.61,1.61,0,0,0,.75.19,1.44,1.44,0,0,0,.94-.27,1.57,1.57,0,0,0,.48-.66,3.23,3.23,0,0,0,.2-.84c0-.29.05-.56.06-.79h1.12A9,9,0,0,1,21,93.06a3.15,3.15,0,0,1-2.9,1.51,3.65,3.65,0,0,1-2.24-.66A5.35,5.35,0,0,1,14.29,92c-.63.15-1.21.27-1.74.35a15.14,15.14,0,0,1-2,.11,14.15,14.15,0,0,1-4.19-.58,9.18,9.18,0,0,1-3.27-1.75A7.84,7.84,0,0,1,1,87.27,9.83,9.83,0,0,1,.25,83.26Zm8,0c0,.54,0,1,0,1.45a10.32,10.32,0,0,0,.09,1.18,3.74,3.74,0,0,1,.94-.62A3.06,3.06,0,0,1,10.67,85a4.37,4.37,0,0,1,1.15.15,5.07,5.07,0,0,1,1,.38c0-.32.06-.67.07-1s0-.78,0-1.22a22.75,22.75,0,0,0-.11-2.39,5.49,5.49,0,0,0-.37-1.58,1.8,1.8,0,0,0-.73-.86,2.24,2.24,0,0,0-1.14-.27,2.25,2.25,0,0,0-1.17.27,1.79,1.79,0,0,0-.72.86,5.49,5.49,0,0,0-.37,1.58A22.75,22.75,0,0,0,8.23,83.26Zm2.37,5.11a1.87,1.87,0,0,0,1.72-.83,3,3,0,0,0-.94-.9,2.28,2.28,0,0,0-1.15-.34,1.23,1.23,0,0,0-1,.33,1,1,0,0,0-.28.65.85.85,0,0,0,.5.82A2.34,2.34,0,0,0,10.6,88.37Z"/><path d="M35,74.5v4.41a2.09,2.09,0,0,0-1.26.28,1.11,1.11,0,0,0-.35.92v5.48a3.88,3.88,0,0,0,.1.85,1.85,1.85,0,0,0,.33.71,1.58,1.58,0,0,0,.61.5,2.2,2.2,0,0,0,1,.19,2.11,2.11,0,0,0,1.67-.6,2.42,2.42,0,0,0,.52-1.62V80.15a1.05,1.05,0,0,0-.44-1,2.42,2.42,0,0,0-1.21-.25V74.5h7.82v4.41a2.52,2.52,0,0,0-1.22.23c-.29.15-.43.47-.43,1v5.66A9.59,9.59,0,0,1,41.83,88a5.24,5.24,0,0,1-1.09,2.17,6.07,6.07,0,0,1-2.32,1.62,10.32,10.32,0,0,1-4,.65,12.84,12.84,0,0,1-3.11-.33,8,8,0,0,1-2.2-.86,5.14,5.14,0,0,1-1.44-1.21,5.86,5.86,0,0,1-.82-1.42,6,6,0,0,1-.39-1.42A10.1,10.1,0,0,1,26.38,86V80.25a1.14,1.14,0,0,0-.45-1.06,3,3,0,0,0-1.5-.28V74.5Z"/><path d="M46.68,92v-4.4a3.05,3.05,0,0,0,1.5-.28,1.15,1.15,0,0,0,.45-1v-6a1.14,1.14,0,0,0-.45-1.06,2.94,2.94,0,0,0-1.5-.28V74.5H57.57v4.41a2.92,2.92,0,0,0-1.49.28,1.16,1.16,0,0,0-.44,1.06v6a1.16,1.16,0,0,0,.44,1,3,3,0,0,0,1.49.28V92Z"/><path d="M69.49,74a7.8,7.8,0,0,1,1.49.13,8.08,8.08,0,0,1,1.27.33,7.84,7.84,0,0,1,1,.44,7.28,7.28,0,0,1,.67.43V74.5h3.92V81H73.67a3.94,3.94,0,0,0-.19-1.33,2.5,2.5,0,0,0-.52-.86,1.89,1.89,0,0,0-.77-.48,3.21,3.21,0,0,0-1-.14,2.47,2.47,0,0,0-1.2.27,1.94,1.94,0,0,0-.81.86,5.2,5.2,0,0,0-.48,1.58,17.54,17.54,0,0,0,0,4.8,4.81,4.81,0,0,0,.53,1.57,2,2,0,0,0,.89.86,2.94,2.94,0,0,0,1.31.27,2.52,2.52,0,0,0,1-.19,2.49,2.49,0,0,0,.84-.6,3,3,0,0,0,.57-1,4.5,4.5,0,0,0,.21-1.46h4.13A8.69,8.69,0,0,1,77.75,88a6.27,6.27,0,0,1-1.49,2.35,7.21,7.21,0,0,1-2.56,1.6,10.3,10.3,0,0,1-3.7.59A12.42,12.42,0,0,1,66.36,92a8,8,0,0,1-3-1.64,7.79,7.79,0,0,1-2-2.87,10.82,10.82,0,0,1-.74-4.21,10.52,10.52,0,0,1,.76-4.21,8,8,0,0,1,2-2.86,7.82,7.82,0,0,1,2.83-1.64A10.45,10.45,0,0,1,69.49,74Z"/><path d="M90.58,81.8l2.36-1.46a1.36,1.36,0,0,0,.57-.49.56.56,0,0,0,.07-.46.58.58,0,0,0-.31-.35,1.09,1.09,0,0,0-.55-.13V74.5h9.59v4.41a4.92,4.92,0,0,0-1.34.16,5.45,5.45,0,0,0-1.27.57l-2.45,1.45,4,5.17a6.57,6.57,0,0,0,.42.55,3,3,0,0,0,.45.42,1.87,1.87,0,0,0,.57.26,2.71,2.71,0,0,0,.81.1V92H92.72v-4.4a1.39,1.39,0,0,0,.74-.15.58.58,0,0,0,.29-.35.61.61,0,0,0,0-.4.87.87,0,0,0-.14-.29l-1.71-2.14-1.31.8V86.4a3.89,3.89,0,0,0,0,.53.59.59,0,0,0,.15.37.82.82,0,0,0,.39.22,3.05,3.05,0,0,0,.69.07V92H81.63v-4.4a3.08,3.08,0,0,0,1.5-.28,1.15,1.15,0,0,0,.45-1v-6a1.14,1.14,0,0,0-.45-1.06,3,3,0,0,0-1.5-.28V74.5H91.84v4.41a2.56,2.56,0,0,0-.69.07.82.82,0,0,0-.39.22.59.59,0,0,0-.15.37,4,4,0,0,0,0,.54Z"/><path d="M122.24,80.85h-3.92a2.82,2.82,0,0,0-.42-1.12,3.66,3.66,0,0,0-.8-.91,3.53,3.53,0,0,0-1.06-.58,3.44,3.44,0,0,0-1.2-.21,2.28,2.28,0,0,0-1.21.28.89.89,0,0,0-.46.8,1,1,0,0,0,.41.79,4.18,4.18,0,0,0,1.1.52,15.83,15.83,0,0,0,1.54.42c.58.14,1.17.3,1.77.5a15.5,15.5,0,0,1,1.76.72,5.77,5.77,0,0,1,1.54,1.08,5,5,0,0,1,1.09,1.61A5.59,5.59,0,0,1,122.8,87a4.52,4.52,0,0,1-.61,2.41,4.88,4.88,0,0,1-1.62,1.64,7.47,7.47,0,0,1-2.35.94,13.18,13.18,0,0,1-2.76.29,10.46,10.46,0,0,1-2.65-.32,10.88,10.88,0,0,1-2.59-1v1h-3.91V85.52h3.91a3.82,3.82,0,0,0,1.38,2.19,3.68,3.68,0,0,0,2.33.8,2.15,2.15,0,0,0,1.29-.32.93.93,0,0,0,.43-.75,1.08,1.08,0,0,0-.71-1,9.15,9.15,0,0,0-1.75-.64l-2.28-.63a8.58,8.58,0,0,1-2.29-1,5.69,5.69,0,0,1-1.75-1.74,5.08,5.08,0,0,1-.71-2.82,4.66,4.66,0,0,1,.56-2.3,5.23,5.23,0,0,1,1.5-1.68,6.86,6.86,0,0,1,2.16-1,9.6,9.6,0,0,1,2.6-.35,10.62,10.62,0,0,1,3.24.44,9.23,9.23,0,0,1,2.1.92V74.5h3.92Z"/><path d="M125.84,92v-4.4a3.08,3.08,0,0,0,1.5-.28,1.15,1.15,0,0,0,.45-1v-6a1.14,1.14,0,0,0-.45-1.06,3,3,0,0,0-1.5-.28V74.5h10.89v4.41a2.9,2.9,0,0,0-1.49.28,1.14,1.14,0,0,0-.45,1.06v6a1.15,1.15,0,0,0,.45,1,3,3,0,0,0,1.49.28V92Z"/><path d="M150.54,78.91a2.9,2.9,0,0,0-1.49.28,1.14,1.14,0,0,0-.45,1.06v7.34H151a2.78,2.78,0,0,0,.82-.1.86.86,0,0,0,.52-.4,2.07,2.07,0,0,0,.27-.84,11.36,11.36,0,0,0,.07-1.45h4.16V92H139.65v-4.4a3.08,3.08,0,0,0,1.5-.28,1.15,1.15,0,0,0,.45-1v-6a1.14,1.14,0,0,0-.45-1.06,3,3,0,0,0-1.5-.28V74.5h10.89Z"/><path d="M160.25,80.25a4,4,0,0,0-.27-.61,1.23,1.23,0,0,0-.33-.42,1.32,1.32,0,0,0-.52-.24,3.77,3.77,0,0,0-.83-.07V74.5h10.31v4.41q-1.77,0-1.35,1.2l1.84,5.76h.11l1.88-5.76q.42-1.2-1.35-1.2V74.5h6.9v4.41a3.77,3.77,0,0,0-.83.07,1.32,1.32,0,0,0-.52.24,1.1,1.1,0,0,0-.32.42c-.08.16-.18.36-.28.61L170.1,92h-5.28Z"/><path d="M190.16,87.59a3.15,3.15,0,0,0,.82-.09,1,1,0,0,0,.52-.31,1.35,1.35,0,0,0,.27-.64,5.79,5.79,0,0,0,.07-1H196V92H179.07v-4.4a3.05,3.05,0,0,0,1.5-.28,1.15,1.15,0,0,0,.45-1v-6a1.14,1.14,0,0,0-.45-1.06,2.94,2.94,0,0,0-1.5-.28V74.5H196V81h-4.16a5.86,5.86,0,0,0-.07-1,1.31,1.31,0,0,0-.27-.63A1,1,0,0,0,191,79a3.15,3.15,0,0,0-.82-.09H188v3.16h3.79v2.1H188v3.42Z"/><path d="M198.91,92v-4.4a3.05,3.05,0,0,0,1.5-.28,1.15,1.15,0,0,0,.45-1v-6a1.14,1.14,0,0,0-.45-1.06,2.94,2.94,0,0,0-1.5-.28V74.5h12.58a11.15,11.15,0,0,1,2.94.34,4.79,4.79,0,0,1,1.91,1,3.56,3.56,0,0,1,1,1.53,6,6,0,0,1,.31,2,4.85,4.85,0,0,1-1,3.18,3.92,3.92,0,0,1-3.07,1.29V84a4.63,4.63,0,0,1,1.69.38,2.73,2.73,0,0,1,1.06.8,2.85,2.85,0,0,1,.54,1.18,6.92,6.92,0,0,1,.16,1.58v.63a.86.86,0,0,0,.16.51.63.63,0,0,0,1,0,.85.85,0,0,0,.14-.51v-3h1.37v3a4.66,4.66,0,0,1-.26,1.57,3.09,3.09,0,0,1-.83,1.25,3.84,3.84,0,0,1-1.54.83,8.17,8.17,0,0,1-2.33.29,7.24,7.24,0,0,1-2.28-.3,3.24,3.24,0,0,1-1.38-.84,3,3,0,0,1-.7-1.24,5.58,5.58,0,0,1-.19-1.49v-.92a8.91,8.91,0,0,0-.11-1.53,2.19,2.19,0,0,0-.35-.92,1.1,1.1,0,0,0-.64-.43,3.65,3.65,0,0,0-.95-.11h-.28v1.7a1.11,1.11,0,0,0,.35.91,2.11,2.11,0,0,0,1.25.28V92Zm9-9.39h1a1.67,1.67,0,0,0,1.38-.48,2.13,2.13,0,0,0,.37-1.34,2.19,2.19,0,0,0-.37-1.43,1.73,1.73,0,0,0-1.38-.44h-1Z"/><rect x="0.12" y="64.37" width="219.59" height="3"/><polyline points="0.12 30.4 219.71 30.4 219.71 33.4 0.12 33.4"/></g></g></svg>