<svg xmlns="http://www.w3.org/2000/svg" viewBox="0 0 87.83 17.83"><defs><style>.cls-1,.cls-2{fill:#231f20;}.cls-1{fill-rule:evenodd;}</style></defs><g id="Camada_2" data-name="Camada 2"><g id="_Exemplo_do_grid_" data-name="[Exemplo do grid]"><path class="cls-1" d="M0,2l.22.19L7.73,9.72a.29.29,0,0,0,.41.06L11.64,8l.16-.09L8.86,5l.88-.43c1-.48,1.93-1,2.89-1.44a.3.3,0,0,1,.42.07c.87.89,1.76,1.76,2.63,2.65a.24.24,0,0,0,.33.05c1.17-.6,2.34-1.18,3.51-1.77L19.76,4a2.15,2.15,0,0,1,0,.23v7.46a.3.3,0,0,1-.18.32c-1.21.59-2.4,1.2-3.6,1.8a.22.22,0,0,1-.32,0l-3.51-3.52a1.68,1.68,0,0,0-.31-.25v5.65c0,.13,0,.23-.15.3L8,17.77l-.15.06-.2-.25-7.5-7.5L0,9.94Z"/><path class="cls-1" d="M9.94,0l1.33,1.38.1.12-3.91,2L6,2l.19-.1L9.64.13,9.85,0Z"/><path class="cls-2" d="M21.45,11.93l2.22-8h2.22l2.18,8H26.3l-.44-1.78h-2.3l-.45,1.78Zm3.24-6.49h0L23.9,8.91h1.6Z"/><path class="cls-2" d="M30.29,11.93H28.61v-8h3.1c1.15,0,1.88.74,1.88,2.11A1.74,1.74,0,0,1,32.1,8V8a1.42,1.42,0,0,1,1.46,1.58,10.75,10.75,0,0,0,.19,2.36H32.1a3.73,3.73,0,0,1-.18-1.56c0-1,.09-1.77-1.2-1.77h-.43Zm0-4.56H31c.67,0,.86-.67.86-1.18,0-.77-.32-1.06-.86-1.06h-.74Z"/><path class="cls-2" d="M34.49,11.93v-8H37.2l1.26,5.47h0l1.34-5.47h2.61v8H40.79V5.73h0l-1.54,6.2H37.62l-1.47-6.2h0v6.2Z"/><path class="cls-2" d="M43.06,11.93l2.23-8H47.5l2.18,8H47.91l-.44-1.78h-2.3l-.45,1.78ZM46.3,5.44h0l-.77,3.47h1.6Z"/><path class="cls-2" d="M50.36,11.93v-8h2.27l2.14,5.57h0V3.89h1.57v8H54.14L52,6.05h0v5.88Z"/><path class="cls-2" d="M57.49,3.89H60.3c2.2,0,2.61,1.47,2.61,4,0,1.23.19,4.06-2.68,4.06H57.49Zm1.68,6.81H60c1,0,1.22-.77,1.22-2.79,0-1.48,0-2.78-1.17-2.78h-.87Z"/><path class="cls-2" d="M63.74,7.91c0-2.13,0-4.15,2.77-4.15s2.77,2,2.77,4.15,0,4.16-2.77,4.16S63.74,10,63.74,7.91Zm3.84,0c0-2.06-.12-2.95-1.07-2.95s-1.07.89-1.07,3,.12,2.95,1.07,2.95S67.58,10,67.58,7.91Z"/><path class="cls-2" d="M71.43,3.89v8h-.71v-8Z"/><path class="cls-2" d="M72.66,11.93v-8h1.09L77,11l0,0v-7h.72v8H76.67L73.39,4.79l0,0v7.11Z"/><path class="cls-2" d="M79,3.89h3.4v.6H79.68v3h2.5v.6h-2.5v3.83H79Z"/><path class="cls-2" d="M85.41,3.73c2.4,0,2.42,2,2.42,4.18s0,4.18-2.42,4.18S83,10.08,83,7.91,83,3.73,85.41,3.73Zm0,7.76c1.69,0,1.71-1.44,1.71-3.58s0-3.57-1.71-3.57-1.72,1.43-1.72,3.57S83.72,11.49,85.41,11.49Z"/></g></g></svg>