<svg xmlns="http://www.w3.org/2000/svg" viewBox="0 0 220.03 98.7"><g id="Camada_2" data-name="Camada 2"><g id="_Exemplo_do_grid_" data-name="[Exemplo do grid]"><path d="M21.54,28V22.38A2.83,2.83,0,0,0,23.27,22a1.68,1.68,0,0,0,.42-1.33V12.09L18.56,28H12.78l-5.22-15v8a2.81,2.81,0,0,0,.09.79.9.9,0,0,0,.32.46,1.43,1.43,0,0,0,.66.21c.29,0,.65,0,1.08,0V28H0V22.38A3.72,3.72,0,0,0,1.89,22a1.43,1.43,0,0,0,.57-1.33V13.11a1.44,1.44,0,0,0-.57-1.34A3.72,3.72,0,0,0,0,11.42V5.85H14.28l3.45,10.37,3-10.37h14.1v5.57a3.67,3.67,0,0,0-1.88.35,1.46,1.46,0,0,0-.56,1.34V20.7A1.45,1.45,0,0,0,33,22a3.67,3.67,0,0,0,1.88.35V28Z"/><path d="M52.53,22.38a4.27,4.27,0,0,0,1-.1,1.23,1.23,0,0,0,.66-.4,1.64,1.64,0,0,0,.34-.8,7.81,7.81,0,0,0,.09-1.31H59.9V28H38.52V22.38A3.72,3.72,0,0,0,40.41,22,1.43,1.43,0,0,0,41,20.7V13.11a1.44,1.44,0,0,0-.57-1.34,3.72,3.72,0,0,0-1.89-.35V5.85H59.9V14H54.65a7.81,7.81,0,0,0-.09-1.31,1.56,1.56,0,0,0-.34-.79,1.23,1.23,0,0,0-.66-.4,3.77,3.77,0,0,0-1-.11h-2.7v4h4.79v2.65H49.83v4.32Z"/><path d="M63.59,28V22.38A3.72,3.72,0,0,0,65.48,22a1.43,1.43,0,0,0,.57-1.33V13.11a1.44,1.44,0,0,0-.57-1.34,3.72,3.72,0,0,0-1.89-.35V5.85H79.47a13.64,13.64,0,0,1,3.72.44A6.09,6.09,0,0,1,85.6,7.53a4.43,4.43,0,0,1,1.29,1.94,7.58,7.58,0,0,1,.38,2.5,6.25,6.25,0,0,1-1.21,4,5,5,0,0,1-3.89,1.63v.18a6.15,6.15,0,0,1,2.14.48,3.49,3.49,0,0,1,1.34,1,3.84,3.84,0,0,1,.69,1.5,9.17,9.17,0,0,1,.2,2v.79a1.14,1.14,0,0,0,.19.66.82.82,0,0,0,1.22,0,1.21,1.21,0,0,0,.18-.66V19.77h1.72v3.81a5.77,5.77,0,0,1-.32,2,3.81,3.81,0,0,1-1.06,1.58,5,5,0,0,1-1.93,1.05,10.45,10.45,0,0,1-3,.36,8.9,8.9,0,0,1-2.87-.38A4.19,4.19,0,0,1,79,27.12a3.66,3.66,0,0,1-.87-1.56,6.9,6.9,0,0,1-.25-1.89V22.52a11.33,11.33,0,0,0-.14-1.95,2.66,2.66,0,0,0-.44-1.15,1.41,1.41,0,0,0-.8-.55,4.63,4.63,0,0,0-1.2-.13H74.9v2.14A1.39,1.39,0,0,0,75.34,22a2.59,2.59,0,0,0,1.58.35V28ZM74.9,16.08h1.32A2.06,2.06,0,0,0,78,15.47a2.62,2.62,0,0,0,.47-1.68A2.78,2.78,0,0,0,78,12a2.19,2.19,0,0,0-1.73-.55H74.9Z"/><path d="M103.07,5.25a10.11,10.11,0,0,1,1.88.17,10.61,10.61,0,0,1,1.6.42,8.74,8.74,0,0,1,1.25.56,7.66,7.66,0,0,1,.85.53V5.85h4.95V14h-5.25a4.8,4.8,0,0,0-.25-1.68,2.91,2.91,0,0,0-.66-1.1,2.36,2.36,0,0,0-1-.6,4,4,0,0,0-1.2-.18,3.1,3.1,0,0,0-1.52.34,2.54,2.54,0,0,0-1,1.09,6.82,6.82,0,0,0-.6,2,19.91,19.91,0,0,0-.2,3,17.3,17.3,0,0,0,.22,3,5.89,5.89,0,0,0,.66,2,2.71,2.71,0,0,0,1.13,1.1,3.79,3.79,0,0,0,1.65.33,3.21,3.21,0,0,0,1.25-.25,2.83,2.83,0,0,0,1-.75,3.53,3.53,0,0,0,.72-1.28,5.54,5.54,0,0,0,.27-1.84h5.22a10.71,10.71,0,0,1-.6,3.6,7.87,7.87,0,0,1-1.88,3,9.08,9.08,0,0,1-3.24,2,13,13,0,0,1-4.66.75,15.64,15.64,0,0,1-4.6-.66,10.08,10.08,0,0,1-3.78-2.07,9.63,9.63,0,0,1-2.55-3.62,13.53,13.53,0,0,1-.94-5.32,13.53,13.53,0,0,1,1-5.32A10.38,10.38,0,0,1,95.32,8,10,10,0,0,1,98.9,5.91,13.28,13.28,0,0,1,103.07,5.25Z"/><path d="M131.74,5.85v5.57a2.63,2.63,0,0,0-1.59.35,1.4,1.4,0,0,0-.44,1.16v6.93a4.68,4.68,0,0,0,.12,1.07,2.47,2.47,0,0,0,.41.9,2,2,0,0,0,.78.63,2.83,2.83,0,0,0,1.24.24,2.66,2.66,0,0,0,2.1-.76,3,3,0,0,0,.66-2.05V13a1.31,1.31,0,0,0-.55-1.25,3,3,0,0,0-1.53-.32V5.85h9.88v5.57a3.22,3.22,0,0,0-1.54.29,1.25,1.25,0,0,0-.54,1.22v7.16a12.26,12.26,0,0,1-.36,2.87A6.43,6.43,0,0,1,139,25.69a7.6,7.6,0,0,1-2.93,2.06,13.07,13.07,0,0,1-5,.81,16,16,0,0,1-3.92-.41,10.28,10.28,0,0,1-2.79-1.09,6.46,6.46,0,0,1-1.81-1.53,7.12,7.12,0,0,1-1-1.79,7.58,7.58,0,0,1-.49-1.8,12,12,0,0,1-.12-1.61V13.11a1.44,1.44,0,0,0-.57-1.34,3.72,3.72,0,0,0-1.89-.35V5.85ZM139.57,0l-5.49,4.64h-3.69L133.52,0Z"/><path d="M146.51,28V22.38A3.72,3.72,0,0,0,148.4,22,1.43,1.43,0,0,0,149,20.7V13.11a1.44,1.44,0,0,0-.57-1.34,3.72,3.72,0,0,0-1.89-.35V5.85H162.4a13.56,13.56,0,0,1,3.71.44,6.09,6.09,0,0,1,2.41,1.24,4.43,4.43,0,0,1,1.29,1.94,7.58,7.58,0,0,1,.39,2.5A6.25,6.25,0,0,1,169,16a5,5,0,0,1-3.88,1.63v.18a6.09,6.09,0,0,1,2.13.48,3.49,3.49,0,0,1,1.34,1,3.84,3.84,0,0,1,.69,1.5,9.17,9.17,0,0,1,.2,2v.79a1.14,1.14,0,0,0,.2.66.69.69,0,0,0,.6.27.67.67,0,0,0,.61-.27,1.21,1.21,0,0,0,.18-.66V19.77h1.73v3.81a5.77,5.77,0,0,1-.33,2,3.79,3.79,0,0,1-1,1.58,5.06,5.06,0,0,1-1.94,1.05,10.38,10.38,0,0,1-3,.36,9,9,0,0,1-2.88-.38,4.15,4.15,0,0,1-1.74-1.06,3.68,3.68,0,0,1-.88-1.56,6.9,6.9,0,0,1-.25-1.89V22.52a11.47,11.47,0,0,0-.13-1.95,2.66,2.66,0,0,0-.45-1.15,1.41,1.41,0,0,0-.8-.55,4.63,4.63,0,0,0-1.2-.13h-.36v2.14a1.39,1.39,0,0,0,.44,1.15,2.63,2.63,0,0,0,1.59.35V28Zm11.31-11.87h1.32a2.06,2.06,0,0,0,1.73-.61,2.62,2.62,0,0,0,.48-1.68,2.77,2.77,0,0,0-.48-1.82,2.19,2.19,0,0,0-1.73-.55h-1.32Z"/><path d="M175.85,28V22.38a3.72,3.72,0,0,0,1.89-.35,1.43,1.43,0,0,0,.57-1.33V13.11a1.44,1.44,0,0,0-.57-1.34,3.72,3.72,0,0,0-1.89-.35V5.85h13.76v5.57a3.72,3.72,0,0,0-1.89.35,1.46,1.46,0,0,0-.56,1.34V20.7a1.45,1.45,0,0,0,.56,1.33,3.72,3.72,0,0,0,1.89.35V28Z"/><path d="M193.44,16.92a12.54,12.54,0,0,1,1-5.08,9.84,9.84,0,0,1,2.69-3.65A11.61,11.61,0,0,1,201.22,6a19.24,19.24,0,0,1,10.57,0,11.45,11.45,0,0,1,4.13,2.2,10,10,0,0,1,2.69,3.65,12.72,12.72,0,0,1,.95,5.08,12.62,12.62,0,0,1-.95,5.06,10,10,0,0,1-2.69,3.67,11.46,11.46,0,0,1-4.13,2.21,19.5,19.5,0,0,1-10.57,0,11.63,11.63,0,0,1-4.13-2.21A9.92,9.92,0,0,1,194.4,22,12.45,12.45,0,0,1,193.44,16.92Zm10.09,0a28.71,28.71,0,0,0,.13,3,7,7,0,0,0,.47,2A2.41,2.41,0,0,0,205,23,3.37,3.37,0,0,0,208,23a2.31,2.31,0,0,0,.92-1.1,6.67,6.67,0,0,0,.48-2,28.71,28.71,0,0,0,.13-3,28.9,28.9,0,0,0-.13-3,6.51,6.51,0,0,0-.48-2,2.24,2.24,0,0,0-.92-1.09,3.28,3.28,0,0,0-2.91,0,2.33,2.33,0,0,0-.91,1.09,6.85,6.85,0,0,0-.47,2A28.9,28.9,0,0,0,203.53,16.92Z"/><path d="M12.13,43v5a2.35,2.35,0,0,0-1.42.32,1.24,1.24,0,0,0-.4,1v6.25a3.82,3.82,0,0,0,.11,1,2.18,2.18,0,0,0,.37.82,1.87,1.87,0,0,0,.7.56,2.57,2.57,0,0,0,1.12.21,2.37,2.37,0,0,0,1.89-.68,2.73,2.73,0,0,0,.59-1.84V49.43a1.18,1.18,0,0,0-.5-1.13A2.78,2.78,0,0,0,13.21,48V43h8.91v5a3,3,0,0,0-1.39.26,1.14,1.14,0,0,0-.49,1.1v6.45a10.85,10.85,0,0,1-.32,2.59,5.86,5.86,0,0,1-1.24,2.46A7,7,0,0,1,16,62.72a11.72,11.72,0,0,1-4.54.74A15.15,15.15,0,0,1,8,63.09a9.66,9.66,0,0,1-2.5-1,5.85,5.85,0,0,1-1.64-1.39,6.32,6.32,0,0,1-.94-1.61,6.75,6.75,0,0,1-.44-1.62A11.17,11.17,0,0,1,2.33,56v-6.5a1.31,1.31,0,0,0-.51-1.21A3.4,3.4,0,0,0,.12,48V43Z"/><path d="M44.85,62.9v-5a2.61,2.61,0,0,0,1.56-.32,1.51,1.51,0,0,0,.37-1.19V48.62L42.16,62.9H37L32.25,49.37v7.17a2.32,2.32,0,0,0,.09.71.76.76,0,0,0,.29.41,1.24,1.24,0,0,0,.59.19,8.81,8.81,0,0,0,1,0v5H25.44v-5a3.44,3.44,0,0,0,1.71-.32,1.29,1.29,0,0,0,.51-1.19V49.54a1.31,1.31,0,0,0-.51-1.21A3.44,3.44,0,0,0,25.44,48V43H38.31l3.11,9.33L44.12,43H56.83v5a3.37,3.37,0,0,0-1.7.32,1.31,1.31,0,0,0-.51,1.21v6.84a1.29,1.29,0,0,0,.51,1.19,3.37,3.37,0,0,0,1.7.32v5Z"/><path d="M70.92,56H66.65l-.19.58a1,1,0,0,0,0,1,1.11,1.11,0,0,0,1,.39h.77v5H59.86v-5h.56a1.67,1.67,0,0,0,1.3-.39,4,4,0,0,0,.64-1.12l2.77-6.84a1.5,1.5,0,0,0,.11-1.16c-.13-.25-.53-.37-1.19-.37h-.28V43H77.66v5h-.27c-.66,0-1.06.13-1.19.39a1.41,1.41,0,0,0,.11,1.14l2.77,6.84.29.65a1.62,1.62,0,0,0,.32.47,1.16,1.16,0,0,0,.51.29,2.65,2.65,0,0,0,.82.1h.55v5H69.28v-5H70a1.16,1.16,0,0,0,1-.39,1,1,0,0,0,0-1Zm-3.58-2.11h2.88L68.87,49.7h-.11Z"/><path d="M105.38,42.45a9.19,9.19,0,0,1,1.7.15,9,9,0,0,1,1.43.39,7.6,7.6,0,0,1,1.13.5,6.62,6.62,0,0,1,.77.48V43h4.46v7.36h-4.73a4.36,4.36,0,0,0-.23-1.51,2.66,2.66,0,0,0-.59-1,2.2,2.2,0,0,0-.87-.54,3.49,3.49,0,0,0-1.08-.16,2.89,2.89,0,0,0-1.37.3,2.27,2.27,0,0,0-.93,1,6.43,6.43,0,0,0-.54,1.8,17.62,17.62,0,0,0-.18,2.73,16.11,16.11,0,0,0,.2,2.74,5.54,5.54,0,0,0,.59,1.78,2.48,2.48,0,0,0,1,1,3.41,3.41,0,0,0,1.49.3,2.87,2.87,0,0,0,1.12-.22,2.64,2.64,0,0,0,1-.68,3.14,3.14,0,0,0,.65-1.15,5.13,5.13,0,0,0,.24-1.67h4.7a9.68,9.68,0,0,1-.54,3.25A7,7,0,0,1,113.08,61a8.09,8.09,0,0,1-2.92,1.83,11.79,11.79,0,0,1-4.2.67,14,14,0,0,1-4.14-.59A9.21,9.21,0,0,1,98.41,61a8.81,8.81,0,0,1-2.3-3.26A12.33,12.33,0,0,1,95.27,53a12.1,12.1,0,0,1,.86-4.79,9.24,9.24,0,0,1,2.27-3.27,9,9,0,0,1,3.22-1.86A11.89,11.89,0,0,1,105.38,42.45Z"/><path d="M134,54h-4.65v2.52a1.22,1.22,0,0,0,.4,1,2.35,2.35,0,0,0,1.42.32v5h-12v-5a3.4,3.4,0,0,0,1.7-.32,1.27,1.27,0,0,0,.52-1.19V49.54a1.29,1.29,0,0,0-.52-1.21,3.4,3.4,0,0,0-1.7-.32V43h12v5a2.35,2.35,0,0,0-1.42.32,1.24,1.24,0,0,0-.4,1v2.18H134V49.37a1.24,1.24,0,0,0-.41-1A2.37,2.37,0,0,0,132.2,48V43h12v5a3.37,3.37,0,0,0-1.7.32,1.31,1.31,0,0,0-.51,1.21v6.84a1.29,1.29,0,0,0,.51,1.19,3.37,3.37,0,0,0,1.7.32v5h-12v-5a2.37,2.37,0,0,0,1.42-.32,1.22,1.22,0,0,0,.41-1Z"/><path d="M158.3,56H154l-.19.58a1.06,1.06,0,0,0,0,1c.16.26.5.39,1,.39h.77v5h-8.42v-5h.55a1.67,1.67,0,0,0,1.3-.39,4.29,4.29,0,0,0,.65-1.12l2.77-6.84a1.53,1.53,0,0,0,.1-1.16c-.13-.25-.53-.37-1.18-.37h-.29V43h13.9v5h-.27q-1,0-1.2.39a1.45,1.45,0,0,0,.11,1.14l2.77,6.84c.11.25.21.47.3.65a1.6,1.6,0,0,0,.31.47,1.16,1.16,0,0,0,.51.29,2.65,2.65,0,0,0,.82.1H169v5H156.67v-5h.74a1.16,1.16,0,0,0,1-.39,1,1,0,0,0,.05-1Zm-3.58-2.11h2.88l-1.35-4.15h-.11Z"/><path d="M188.78,62.9l-.45-1.35A7.31,7.31,0,0,1,186,62.9a9.34,9.34,0,0,1-3.43.58,14,14,0,0,1-4.14-.59A9.17,9.17,0,0,1,175,61a8.81,8.81,0,0,1-2.3-3.26,12.33,12.33,0,0,1-.84-4.79,11.57,11.57,0,0,1,.9-4.79,9.3,9.3,0,0,1,2.36-3.27,9.63,9.63,0,0,1,3.32-1.86,12.23,12.23,0,0,1,3.8-.6,10.71,10.71,0,0,1,2.05.18,9.65,9.65,0,0,1,1.6.44,7,7,0,0,1,1.16.55l.77.48V43h4.46v7.36h-4.73A3.54,3.54,0,0,0,186.7,48a2.87,2.87,0,0,0-2.24-.88,3.62,3.62,0,0,0-1.36.26,2.72,2.72,0,0,0-1.12.93,5,5,0,0,0-.77,1.78,12.48,12.48,0,0,0-.27,2.84,17.49,17.49,0,0,0,.18,2.74,5.32,5.32,0,0,0,.57,1.78,2.34,2.34,0,0,0,1,1,3.12,3.12,0,0,0,1.43.3,3.08,3.08,0,0,0,.48,0,2.46,2.46,0,0,0,.55-.14,1.6,1.6,0,0,0,.46-.27.53.53,0,0,0,.2-.44v-.74a1.16,1.16,0,0,0-.43-1,2.85,2.85,0,0,0-1.63-.33V51.39h11.41v4.46a3.29,3.29,0,0,0-1.7.32,1.29,1.29,0,0,0-.51,1.19V62.9Z"/><path d="M209.24,56H205l-.19.58a1,1,0,0,0,0,1,1.15,1.15,0,0,0,1,.39h.77v5h-8.42v-5h.55A1.69,1.69,0,0,0,200,57.5a4.31,4.31,0,0,0,.64-1.12l2.77-6.84a1.49,1.49,0,0,0,.1-1.16c-.13-.25-.52-.37-1.18-.37h-.28V43H216v5h-.27q-1,0-1.2.39a1.42,1.42,0,0,0,.12,1.14l2.77,6.84c.11.25.2.47.29.65a1.62,1.62,0,0,0,.32.47,1.07,1.07,0,0,0,.5.29,2.74,2.74,0,0,0,.82.1h.56v5H207.6v-5h.74a1.18,1.18,0,0,0,1-.39,1,1,0,0,0,.05-1Zm-3.59-2.11h2.88l-1.35-4.15h-.11Z"/><path d="M21.2,80.78v4.39a1.91,1.91,0,0,0-1.36.34,1.38,1.38,0,0,0-.33,1V98.19h-7.1L6.24,88.53v4.09c0,.52.15.84.45,1a3.82,3.82,0,0,0,1.49.2v4.39H.05V93.8a3.05,3.05,0,0,0,1.49-.27,1.15,1.15,0,0,0,.45-1v-6a1.15,1.15,0,0,0-.45-1.06,3.05,3.05,0,0,0-1.49-.27V80.78H9.34L15.24,90V86.5a1.36,1.36,0,0,0-.32-1.06,2.34,2.34,0,0,0-1.37-.27V80.78Z"/><path d="M33.28,92.11H29.54l-.16.51a.93.93,0,0,0,0,.85q.21.33.9.33H31v4.39H23.61V93.8h.48a1.49,1.49,0,0,0,1.14-.33,4,4,0,0,0,.57-1l2.42-6a1.33,1.33,0,0,0,.09-1c-.12-.22-.46-.32-1-.32H27V80.78H39.17v4.39h-.23c-.59,0-.94.11-1,.34a1.25,1.25,0,0,0,.1,1l2.42,6c.1.22.18.41.26.57a1.38,1.38,0,0,0,.27.42,1,1,0,0,0,.45.25,2.35,2.35,0,0,0,.71.08h.49v4.39H31.85V93.8h.65a1,1,0,0,0,.9-.33.9.9,0,0,0,0-.85Zm-3.14-1.84h2.52l-1.18-3.63h-.1Z"/><path d="M54.45,98.19V93.8a3.05,3.05,0,0,0,1.49-.27,1.15,1.15,0,0,0,.45-1v-6a1.15,1.15,0,0,0-.45-1.06,3.05,3.05,0,0,0-1.49-.27V80.78H70.8v6.69H66.67a9,9,0,0,0-.07-1.18,1.56,1.56,0,0,0-.27-.69,1,1,0,0,0-.52-.35,3.69,3.69,0,0,0-.81-.08H63.36v3.41h3.77v2.08H63.36v1.82a1.42,1.42,0,0,0,.31,1,1.51,1.51,0,0,0,1.14.34H66v4.39Z"/><path d="M85,85.17a3,3,0,0,0-1.48.27,1.15,1.15,0,0,0-.45,1.06v7.3h2.37a3.12,3.12,0,0,0,.81-.09.83.83,0,0,0,.52-.4,2.07,2.07,0,0,0,.27-.84A11.09,11.09,0,0,0,87.14,91h4.14v7.16H74.19V93.8a3,3,0,0,0,1.49-.27,1.15,1.15,0,0,0,.45-1v-6a1.15,1.15,0,0,0-.45-1.06,3,3,0,0,0-1.49-.27V80.78H85Z"/><path d="M94.3,89.5a10,10,0,0,1,.75-4,7.74,7.74,0,0,1,2.13-2.87,8.84,8.84,0,0,1,3.25-1.74,15.24,15.24,0,0,1,8.33,0A8.84,8.84,0,0,1,112,82.63a7.82,7.82,0,0,1,2.12,2.87,11,11,0,0,1,0,8A7.78,7.78,0,0,1,112,96.37a9,9,0,0,1-3.25,1.75,15.24,15.24,0,0,1-8.33,0,9,9,0,0,1-3.25-1.75,7.69,7.69,0,0,1-2.13-2.88A9.86,9.86,0,0,1,94.3,89.5Zm7.94,0a22.68,22.68,0,0,0,.11,2.4,5.59,5.59,0,0,0,.37,1.56,1.89,1.89,0,0,0,.72.86,2.65,2.65,0,0,0,2.29,0,1.84,1.84,0,0,0,.73-.86,5.26,5.26,0,0,0,.37-1.56,26,26,0,0,0,0-4.78,5.25,5.25,0,0,0-.37-1.58,1.77,1.77,0,0,0-.73-.85,2.56,2.56,0,0,0-2.29,0,1.81,1.81,0,0,0-.72.85,5.57,5.57,0,0,0-.37,1.58A22.68,22.68,0,0,0,102.24,89.5Z"/><path d="M117.9,98.19V93.8a3.05,3.05,0,0,0,1.49-.27,1.15,1.15,0,0,0,.45-1v-6a1.15,1.15,0,0,0-.45-1.06,3.05,3.05,0,0,0-1.49-.27V80.78h12.52a11,11,0,0,1,2.92.34,4.74,4.74,0,0,1,1.9,1,3.47,3.47,0,0,1,1,1.52,6.12,6.12,0,0,1,.3,2,4.92,4.92,0,0,1-1,3.18,3.94,3.94,0,0,1-3.06,1.28v.14a4.85,4.85,0,0,1,1.69.38,2.77,2.77,0,0,1,1.05.8,2.92,2.92,0,0,1,.54,1.18,6.74,6.74,0,0,1,.16,1.56v.63a.85.85,0,0,0,.15.51.54.54,0,0,0,.48.22.51.51,0,0,0,.48-.22.85.85,0,0,0,.14-.51v-3h1.36v3a4.66,4.66,0,0,1-.25,1.57,3.12,3.12,0,0,1-.83,1.24,3.85,3.85,0,0,1-1.53.82,7.79,7.79,0,0,1-2.33.29,7.14,7.14,0,0,1-2.26-.3,3.33,3.33,0,0,1-1.38-.83,3,3,0,0,1-.69-1.24,5.46,5.46,0,0,1-.19-1.48v-.91a8.91,8.91,0,0,0-.11-1.53,2.19,2.19,0,0,0-.35-.91A1.11,1.11,0,0,0,128,91a3.7,3.7,0,0,0-.95-.11h-.28v1.69a1.11,1.11,0,0,0,.35.91,2.12,2.12,0,0,0,1.25.27v4.39Zm8.91-9.35h1a1.66,1.66,0,0,0,1.37-.48,2.17,2.17,0,0,0,.37-1.33,2.27,2.27,0,0,0-.37-1.43,1.76,1.76,0,0,0-1.37-.43h-1Z"/><path d="M152.05,93.8a3.17,3.17,0,0,0,.81-.08,1,1,0,0,0,.52-.31,1.35,1.35,0,0,0,.27-.63,7,7,0,0,0,.07-1h4.13v6.44H141V93.8a3,3,0,0,0,1.49-.27,1.15,1.15,0,0,0,.45-1v-6a1.15,1.15,0,0,0-.45-1.06,3,3,0,0,0-1.49-.27V80.78h16.84v6.44h-4.13a7,7,0,0,0-.07-1,1.31,1.31,0,0,0-.27-.62,1,1,0,0,0-.52-.32,3.69,3.69,0,0,0-.81-.08h-2.13v3.14h3.77V90.4h-3.77v3.4Z"/><path d="M176.88,87.1H173a3.24,3.24,0,0,0-.42-1.12,4,4,0,0,0-.8-.9,3.85,3.85,0,0,0-1-.58,3.53,3.53,0,0,0-1.2-.21,2.27,2.27,0,0,0-1.2.29.86.86,0,0,0-.46.79.93.93,0,0,0,.41.78,3.82,3.82,0,0,0,1.09.52,15.83,15.83,0,0,0,1.54.42c.57.14,1.16.3,1.75.5a15.42,15.42,0,0,1,1.76.71,5.89,5.89,0,0,1,1.53,1.08A5.09,5.09,0,0,1,177,91a5.75,5.75,0,0,1,.41,2.27,4.55,4.55,0,0,1-.6,2.4,5,5,0,0,1-1.62,1.63,7.4,7.4,0,0,1-2.34.93,12.37,12.37,0,0,1-2.74.3,10.32,10.32,0,0,1-5.21-1.36v1H161V91.75h3.9a3.81,3.81,0,0,0,1.37,2.18,3.68,3.68,0,0,0,2.31.8,2.08,2.08,0,0,0,1.29-.33.92.92,0,0,0,.43-.74,1.1,1.1,0,0,0-.7-1,8.78,8.78,0,0,0-1.75-.63l-2.27-.63a8.82,8.82,0,0,1-2.28-1,5.77,5.77,0,0,1-1.74-1.74,5,5,0,0,1-.7-2.81,4.58,4.58,0,0,1,.55-2.28,5.18,5.18,0,0,1,1.49-1.67,6.75,6.75,0,0,1,2.16-1,9.4,9.4,0,0,1,2.58-.35,10.6,10.6,0,0,1,3.23.44,9.33,9.33,0,0,1,2.09.92v-1.1h3.9Z"/><path d="M199.28,80.78v6.93h-3.89c0-.53,0-1,0-1.38a3.65,3.65,0,0,0-.18-1,1.09,1.09,0,0,0-.43-.53,1.58,1.58,0,0,0-.78-.17h-.73v7.8a1.15,1.15,0,0,0,.45,1,3,3,0,0,0,1.49.27v4.39H184.33V93.8a3,3,0,0,0,1.48-.27,1.15,1.15,0,0,0,.45-1v-7.8h-.72a1.58,1.58,0,0,0-.78.17,1,1,0,0,0-.43.53,3.24,3.24,0,0,0-.19,1q0,.58,0,1.38h-3.9V80.78Z"/><path d="M210.72,92.11H207l-.16.51a.93.93,0,0,0,0,.85q.21.33.9.33h.67v4.39h-7.36V93.8h.49a1.52,1.52,0,0,0,1.14-.33,4,4,0,0,0,.56-1l2.42-6a1.33,1.33,0,0,0,.09-1c-.12-.22-.46-.32-1-.32h-.24V80.78h12.14v4.39h-.23c-.59,0-.93.11-1,.34a1.25,1.25,0,0,0,.1,1l2.42,6c.1.22.18.41.26.57a1.4,1.4,0,0,0,.28.42,1,1,0,0,0,.44.25,2.35,2.35,0,0,0,.71.08H220v4.39H209.29V93.8h.65a1,1,0,0,0,.9-.33.87.87,0,0,0,0-.85Zm-3.13-1.84h2.51l-1.18-3.63h-.09Z"/><rect x="0.12" y="68.98" width="219.59" height="3"/><polyline points="0.12 32.59 219.71 32.59 219.71 35.58 0.12 35.58"/></g></g></svg>