<svg xmlns="http://www.w3.org/2000/svg" viewBox="0 0 1791.23 2169.34"><defs><style>.cls-1,.cls-2{fill:none;stroke:#fff;stroke-linecap:round;stroke-linejoin:round;}.cls-1{fill-rule:evenodd;}.cls-3{font-size:15.9px;font-family:OpenSans-Bold, Open Sans;font-weight:700;letter-spacing:0.12em;}.cls-4{font-size:20px;font-family:OpenSans-ExtraBold, Open Sans;font-weight:800;}</style></defs><g id="Camada_2" data-name="Camada 2"><g id="_Exemplo_do_grid_" data-name="[Exemplo do grid]"><polygon class="cls-1" points="1790.73 680.81 1787.94 695.33 1787.38 710.93 1776.56 733.93 1771.85 746.53 1737.09 779.61 1731.85 784.59 1713.24 797.18 1703.25 809.5 1695.2 827.84 1674.09 853.03 1669.38 853.58 1666.04 845.09 1664.1 844.27 1659.94 853.03 1659.38 859.6 1651.33 869.46 1653.27 876.03 1649.95 885.06 1651.89 893.55 1647.99 907.52 1648.55 940.38 1650.77 948.87 1637.44 986.92 1637.99 1004.72 1621.89 1019.22 1618 1042.78 1614.68 1061.94 1597.45 1083.56 1595.24 1091.5 1579.96 1106.57 1578.68 1109.82 1573.29 1123.53 1573.29 1136.13 1546.08 1149.27 1543.31 1159.67 1518.59 1162.42 1512.77 1161.87 1508.04 1155.3 1504.71 1156.39 1504.15 1161.06 1498.04 1162.97 1488.6 1159.14 1478.61 1162.42 1472.78 1159.14 1465.29 1162.42 1464.17 1164.34 1467.5 1169 1466.11 1170.91 1461.39 1170.91 1441.95 1181.58 1439.45 1185.41 1428.07 1184.05 1404.18 1194.72 1369.49 1221.02 1364.2 1225.4 1360.03 1230.86 1351.98 1231.41 1346.71 1233.34 1345.33 1234.7 1351.98 1239.9 1348.75 1250.84 1347.54 1254.96 1342.83 1260.44 1345.33 1268.1 1345.33 1293.29 1342.83 1303.14 1341.43 1323.95 1337.54 1328.61 1337.54 1331.89 1313.38 1351.6 1302 1371.33 1289.51 1397.07 1267.58 1421.97 1249.51 1435.67 1238.13 1450.17 1230.92 1467.42 1214.26 1484.95 1210.09 1485.76 1206.76 1474.54 1208.14 1466.05 1212.87 1460.84 1214.81 1456.75 1209.53 1452.92 1198.15 1436.49 1186.21 1431.28 1178.16 1420.61 1166.22 1415.94 1151.5 1400.89 1150.11 1402.26 1142.89 1408.84 1139.56 1406.92 1139.56 1400.89 1128.72 1387.74 1123.45 1383.91 1112.06 1377.9 1106.23 1385.28 1096.1 1383.23 1104.29 1372.69 1120.95 1352.43 1122.07 1348.32 1142.06 1325.33 1147.61 1324.77 1150.11 1318.21 1174.27 1299.05 1183.42 1294.38 1199.53 1283.98 1202.88 1273.58 1203.21 1256.33 1197.59 1241.26 1191.48 1237.98 1181.48 1238.53 1178.16 1236.62 1182.04 1216.36 1186.21 1202.39 1185.37 1198.01 1185.37 1188.16 1176.22 1182.68 1160.94 1189.26 1154.27 1186.79 1152.06 1182.13 1148.73 1170.91 1146.77 1154.48 1140.12 1136.13 1131.51 1135.59 1122.9 1129.56 1114.84 1134.77 1101.5 1134.22 1086.24 1130.11 1081.53 1132.31 1078.19 1130.11 1079.57 1090.69 1073.46 1080.83 1070.98 1064.4 1072.45 1059.22 1075.42 1048.8 1086.24 1005.27 1077.63 987.74 1062.91 981.16 1058.2 967.21 1060.97 959.27 1061.52 950.23 1009.6 950.78 1005.43 948.32 1004.32 927.23 994.32 916.01 998.76 911.34 997.67 905.6 1000.15 896.85 994.88 887.81 998.21 880.41 984.89 870.01 974.89 866.18 953.52 868.09 942.12 855.49 931.57 854.13 918.25 847 913.52 841.81 909.63 841.81 906.31 842.36 897.7 836.62 881.59 838.53 874.36 837.15 868.25 827.29 861.04 825.38 849.64 816.89 841.05 796.36 842.99 790.6 838.26 778.02 842.15 764.88 840.21 753.64 836.88 751.73 831.6 756.92 811.05 756.92 805.85 759.87 787.73 770.08 771.07 781.3 767.74 785.96 757.75 786.51 750.25 796.36 738.29 801.55 734.41 798.27 713.59 797.73 698.31 799.11 688.32 803.75 681.65 801.02 678.32 766.25 680.26 758.86 676.94 753.64 653.05 772.8 635 773.36 625.56 757.76 601.13 756.39 599.75 755.01 605.01 747.9 602.24 739.96 593.08 730.65 584.47 719.42 577.79 710.93 580.29 707.65 571.14 701.07 572.26 695.33 577.79 692.6 578.15 682.78 578.08 682.74 578.15 682.74 578.35 676.72 595.02 664.4 593.63 648.51 601.13 633.45 601.69 622.23 631.67 600.59 660.27 593.48 664.45 586.9 678.88 585.54 686.93 590.73 689.7 586.09 694.43 577.05 704.98 490.8 698.87 481.77 698.87 472.45 684.99 460.7 684.43 437.69 698.31 431.67 708.31 433.58 710.27 429.75 706.92 422.63 697.76 421.26 690.26 419.35 691.09 401.55 731.09 400.19 738.85 397.44 737.75 396.34 739.7 391.7 743.02 391.7 751.08 397.44 765.51 385.12 768.3 388.4 778.29 413.87 783.02 412.77 804.4 426.47 813.01 423.18 821.6 417.98 824.39 418.53 823.56 427 826.89 428.39 838.26 416.62 839.67 412.77 852.99 407.3 861.04 400.74 865.48 404.01 872.15 394.98 872.98 388.95 892.97 377.18 894.35 371.99 874.92 370.05 872.15 362.13 868.81 350.89 865.48 344.33 866.31 337.21 851.05 321.33 849.64 318.58 853.55 317.5 856.31 319.41 867.71 319.41 872.98 325.99 888.24 326.54 892.97 323.24 908.25 334.48 912.98 331.18 912.13 322.69 922.13 318.05 925.45 314.75 935.45 317.5 947.67 314.2 952.96 309.56 961.55 304.9 965.45 305.45 982.94 289.85 981.56 283.82 994.88 281.91 1000.15 288.48 998.76 301.62 1004.32 305.45 1008.22 306.83 1012.1 318.58 1014.33 324.62 1004.32 335.01 1004.88 345.7 1001.55 362.13 1002.11 367.87 1008.76 371.99 1009.6 384.31 1028.77 399.64 1035.44 404.01 1042.92 402.92 1053.47 393.61 1059.58 394.16 1067.63 388.95 1076.24 388.95 1086.8 380.48 1100.12 383.21 1104.85 379.93 1123.45 383.75 1130.95 381.84 1130.11 378.55 1123.45 371.99 1129.57 364.59 1138.18 364.59 1159.55 360.2 1168.16 367.32 1176.22 367.87 1183.42 373.35 1193.44 371.15 1199.53 367.87 1206.2 370.05 1213.41 368.69 1219.52 373.35 1228.13 371.15 1236.19 363.5 1254.24 329.82 1263.4 318.05 1266.17 311.47 1269.52 304.9 1280.07 314.2 1292.01 362.13 1296.18 371.15 1298.12 377.18 1302.83 381.84 1317.55 388.4 1321.43 396.34 1320.88 404.83 1306.17 419.9 1296.72 432.48 1279.51 441.52 1280.07 448.91 1271.46 456.04 1268.67 459.87 1265.35 469.17 1259.52 473.83 1252.85 480.94 1231.46 488.35 1244.8 490.26 1244.8 503.4 1250.08 509.98 1248.68 492.73 1274.23 479.58 1286.16 470.54 1290.89 471.09 1292.01 480.94 1295.33 487.52 1293.39 496.01 1285.34 496.82 1287.57 502.58 1292.01 503.95 1298.12 498.19 1301.44 500.12 1308.11 500.12 1316.72 496.82 1321.43 500.12 1324.22 502.58 1334.22 498.19 1336.71 500.67 1335.31 508.59 1328.1 521.2 1328.66 526.41 1331.99 523.11 1343.37 500.67 1360.88 486.97 1366.7 488.35 1368.09 486.15 1367.53 482.32 1378.64 467.26 1393.36 460.7 1400.01 463.15 1405.3 461.23 1420.85 467.26 1427.52 473 1436.13 471.92 1441.95 478.48 1448.62 480.39 1456.68 482.87 1461.39 485.06 1464.17 484.24 1465.29 486.97 1466.67 493.55 1469.44 493.55 1472.78 489.43 1483.34 492.73 1491.37 501.49 1490.82 506.68 1486.66 511.89 1492.77 511.34 1494.72 513.8 1489.43 521.2 1486.66 530.24 1489.99 532.15 1490.82 534.35 1488.05 540.09 1489.99 541.46 1499.98 531.05 1506.1 529.69 1512.77 523.66 1524.7 521.75 1528.03 517.08 1557.47 528.32 1568.03 533.51 1575.25 531.6 1576.64 534.35 1586.63 536.25 1594.13 538.18 1626.06 535.43 1653.27 547.48 1695.2 580.34 1709.92 596.76 1715.17 599.96 1729.35 608.54 1746.02 614.29 1769.35 615.1 1777.94 623.6 1785.41 657.37 1790.73 680.81"/><polygon class="cls-1" points="1329.49 443.44 1326.72 440.97 1331.99 437.69 1336.16 439.06 1336.71 440.97 1329.49 443.44"/><polygon class="cls-1" points="1314.78 425.91 1312.84 427 1310.06 424.54 1313.38 421.26 1316.17 421.81 1314.78 425.91"/><polygon class="cls-1" points="1347.02 1295.85 1349.68 1296.22 1348.92 1303.36 1347.02 1310.12 1344.35 1309.75 1344.35 1301.11 1347.02 1295.85"/><polygon class="cls-1" points="1334.77 448.91 1347.54 446.18 1370.87 450.83 1361.42 473 1354.76 479.58 1355.32 482.87 1352.82 486.15 1342.83 486.97 1338.66 488.88 1335.31 487.52 1326.72 494.1 1316.17 494.91 1311.44 491.63 1301.44 494.91 1296.18 490.26 1296.94 486.62 1293.81 479.79 1298.66 473.83 1294.78 471.92 1295.33 458.77 1299.5 456.04 1299.5 448.91 1307.56 443.44 1334.77 448.91"/><polygon class="cls-1" points="1270.06 460.55 1279.51 457.95 1277.55 467.26 1270.9 477.66 1260.08 482.87 1257.58 480.94 1260.91 474.52 1266.73 469.86 1270.06 460.55"/><polygon class="cls-1" points="1288.11 459.87 1290.07 460.7 1288.11 464.53 1284.78 464.53 1288.11 459.87"/><polygon class="cls-1" points="1295.33 444.27 1288.68 448.1 1286.72 444.8 1292.83 440.16 1295.33 441.52 1295.33 444.27"/><polygon class="cls-1" points="1321.43 433.03 1324.78 433.58 1326.16 436.33 1321.43 439.61 1310.88 439.06 1309.5 435.78 1321.43 433.03"/><polygon class="cls-1" points="924.27 142.8 920.19 132.14 912.97 128.85 913.52 126.94 908.25 121.46 910.19 119.55 914.91 119 934.9 114.34 925.46 112.97 878.81 116.26 867.7 119 872.15 122.28 866.32 124.2 842.99 135.43 816.89 131.32 806.33 120.92 793.01 120.92 787.73 120.92 746.36 126.11 738.86 121.46 734.97 105.86 724.42 99.28 706.37 97.91 693.6 94.08 689.71 97.91 683.04 96.55 677.77 101.75 650.28 111.6 638.89 120.36 640.28 135.43 646.95 147.75 650.28 158.97 646.39 168.28 636.39 174.03 629.73 171.57 618.9 150.48 633.06 131.32 633.62 122.83 632.23 111.6 630.28 110.51 624.46 105.86 626.4 95.18 623.07 95.18 616.4 108.32 606.4 113.79 593.63 133.51 588.91 157.6 578.36 173.48 581.69 175.4 588.35 172.93 596.96 177.31 599.74 190.46 609.74 201.68 610.29 209.08 605.57 216.19 606.96 225.5 615.01 229.88 618.9 237.28 625.01 239.19 639.73 237.82 648.34 239.19 658.33 235.91 674.99 237.82 679.71 237.82 701.65 263.56 708.32 263.56 714.98 259.45 734.41 260.27 748.86 257.54 754.96 255.62 760.24 258.35 763.01 264.11 757.74 275.33 756.35 281.35 752.19 285.74 752.19 314.76 754.96 318.59 755.52 327.35 762.19 337.75 768.29 343.78 767.74 347.61 751.08 363.5 756.9 365.41 762.19 366.78 774.4 379.93 777.74 392.24 783.01 405.38 783.01 412.78 804.39 426.46 813 423.18 821.61 417.98 824.38 418.53 823.56 427.01 826.88 428.38 838.27 416.61 839.66 412.78 852.99 407.3 861.04 400.73 865.48 404.02 872.15 394.98 872.98 388.96 892.97 377.18 894.36 371.98 874.92 370.06 872.15 362.13 868.82 350.89 865.48 344.33 866.32 337.21 851.04 321.33 849.65 318.59 853.54 317.5 856.32 319.42 867.7 319.42 872.98 325.98 888.25 326.53 892.97 323.25 908.25 334.47 912.97 331.19 912.13 322.7 922.13 318.04 925.46 314.76 935.46 317.5 947.68 314.21 952.95 309.56 961.56 304.9 965.45 305.45 982.95 289.85 981.56 283.82 957.68 260.82 956.29 259.45 964.34 251.78 963.51 237.82 986.27 229.88 990.16 225.5 989.6 222.76 982.11 223.31 979.61 219.48 978.22 211.54 982.95 204.42 993.5 200.32 1005.44 183.89 998.77 178.14 986.83 178.14 978.22 178.14 960.47 180.94 962.12 169.65 973.5 151.85 971.56 149.94 965.45 148.57 951.01 140.62 942.12 142.54 937.68 138.71 930.18 138.71 924.27 142.8"/><polygon class="cls-1" points="1079.58 1502.19 1076.8 1475.09 1078.74 1471.81 1083.46 1468.52 1083.46 1444.97 1080.96 1438.4 1086.8 1427.17 1086.8 1417.32 1090.13 1406.09 1091.52 1389.12 1096.1 1383.23 1106.23 1385.28 1112.06 1377.9 1123.45 1383.91 1128.73 1387.75 1139.56 1400.89 1139.56 1406.91 1142.89 1408.83 1150.11 1402.26 1151.5 1400.89 1166.21 1415.95 1178.15 1420.6 1186.21 1431.28 1198.15 1436.49 1209.53 1452.91 1214.81 1456.74 1212.87 1460.85 1208.15 1466.06 1206.76 1474.54 1210.09 1485.77 1194.82 1512.6 1186.21 1516.7 1182.04 1521.08 1170.1 1525.19 1148.72 1521.08 1140.95 1523.83 1132.06 1521.08 1125.39 1520.54 1110.95 1511.23 1092.9 1509.32 1079.58 1502.19"/><polygon class="cls-1" points="967.67 124.75 968.23 128.03 961.56 132.69 946.28 132.69 952.12 126.94 952.12 112.97 962.12 111.06 967.67 111.6 967.67 124.75"/><polygon class="cls-1" points="1090.13 266.85 1090.13 257.54 1086.24 247.13 1076.24 242.48 1064.3 231.25 1054.86 227.97 1046.25 232.07 1046.25 227.97 1048.2 215.64 1026.82 194.57 1005.44 183.89 993.5 200.32 982.95 204.42 978.22 211.54 979.61 219.48 982.11 223.31 989.6 222.76 990.16 225.5 986.27 229.88 963.51 237.82 964.34 251.78 956.29 259.45 957.68 260.82 981.56 283.82 994.88 281.9 1000.16 288.48 998.77 301.62 1004.32 305.45 1008.21 306.82 1012.1 318.59 1014.32 324.62 1004.32 335.02 1004.88 345.7 1001.54 362.13 1002.1 367.88 1008.77 371.98 1009.6 384.3 1028.76 399.64 1035.43 404.02 1042.92 402.92 1053.47 393.61 1059.58 394.16 1067.64 388.96 1076.24 388.96 1086.8 380.47 1100.12 383.21 1104.85 379.93 1091.52 354.73 1088.74 348.99 1084.85 340.5 1074.85 337.21 1073.47 332.55 1064.3 319.96 1062.91 314.76 1066.8 304.35 1066.8 293.67 1069.58 288.48 1078.19 286.56 1086.24 282.45 1090.13 266.85"/><polygon class="cls-1" points="1176.21 367.88 1168.16 367.32 1159.55 360.21 1138.17 364.59 1129.56 364.59 1123.45 371.98 1130.11 378.55 1130.95 381.83 1123.45 383.75 1104.85 379.93 1091.52 354.73 1088.74 348.99 1084.85 340.5 1074.85 337.21 1073.47 332.55 1064.3 319.96 1062.91 314.76 1066.8 304.35 1066.8 293.67 1069.58 288.48 1078.19 286.56 1086.24 282.45 1090.13 266.85 1098.18 256.99 1116.79 258.91 1126.78 262.73 1130.95 261.64 1134.28 257.54 1150.11 258.35 1151.5 259.45 1158.72 256.17 1176.77 256.99 1190.72 261.08 1190.1 269.31 1178.15 287.11 1178.71 310.93 1191.48 330.64 1190.1 336.38 1186.21 344.33 1185.37 355.55 1176.21 367.88"/><polygon class="cls-1" points="1176.21 367.88 1183.43 373.35 1193.43 371.16 1199.54 367.88 1206.2 370.06 1213.42 368.69 1219.53 373.35 1228.14 371.16 1236.19 363.5 1254.24 329.82 1263.4 318.04 1266.18 311.47 1261.46 299.7 1255.35 295.04 1223.42 270.68 1190.72 261.08 1190.1 269.31 1178.15 287.11 1178.71 310.93 1191.48 330.64 1190.1 336.38 1186.21 344.33 1185.37 355.55 1176.21 367.88"/><polygon class="cls-1" points="713.59 797.73 734.41 798.27 738.3 801.56 750.25 796.36 757.74 786.5 767.74 785.95 771.07 781.3 787.73 770.08 805.85 759.87 811.06 756.93 831.6 756.93 836.88 751.73 840.21 753.65 842.15 764.87 838.27 778.01 842.99 790.61 841.05 796.36 849.65 816.89 861.04 825.38 868.26 827.3 874.37 837.15 881.59 838.52 897.69 836.61 906.3 842.36 909.63 841.81 913.52 841.81 918.24 847.01 931.57 854.13 942.12 855.5 953.51 868.09 974.89 866.17 984.89 870.01 998.22 880.41 994.88 887.8 1000.16 896.84 997.66 905.6 998.77 911.35 994.33 916.01 1004.32 927.23 1005.44 948.32 1009.6 950.78 1061.53 950.23 1060.97 959.27 1058.19 967.21 1062.91 981.17 1077.63 987.74 1086.24 1005.26 1075.41 1048.8 1072.44 1059.22 1034.87 1044.69 1002.1 1047.97 964.89 1057.83 949.62 1088.77 948.23 1113.13 940.28 1138.72 932.96 1132.3 903.52 1134.77 894.36 1158.59 882.14 1139.42 848.26 1138.05 838.27 1131.48 832.16 1142.16 822.16 1145.99 821.05 1152.56 814.39 1156.39 811.06 1165.7 812.2 1166.84 805.51 1167.07 792.17 1167.07 788.84 1159.68 782.18 1135.59 772.18 1111.77 765.52 1106.02 766.35 1098.63 759.69 1094.79 759.69 1088.22 757.74 1085.48 763.57 1078.91 761.07 1067.14 764.4 1061.12 746.36 1043.59 742.19 1019.78 736.36 1016.49 733.03 1009.37 728.31 1006.63 726.36 994.86 742.19 971.86 744.97 964.74 736.36 962 732.2 953.52 728.86 939.55 732.2 931.07 726.36 919.84 736.91 905.6 739.69 897.66 733.58 878.5 736.36 869.46 734.97 856.32 741.08 847.56 741.08 840.99 713.59 797.73"/><polygon class="cls-1" points="1178.15 1236.61 1173.43 1266.19 1162.88 1280.15 1153.44 1285.35 1146.78 1295.76 1134.28 1292.47 1127.62 1299.87 1120.95 1296.58 1115.4 1298.5 1110.95 1295.76 1104.85 1297.67 1081.52 1291.92 1064.86 1291.92 1063.47 1291.92 1064.86 1285.35 1074.85 1269.47 1078.19 1254.96 1082.91 1253.04 1085.41 1243.19 1092.08 1235.25 1090.13 1227.58 1072.08 1219.64 1069.58 1220.19 1060.14 1214.44 1048.76 1209.79 1018.77 1191.99 994.88 1188.7 978.78 1173.64 967.67 1167.07 952.95 1149.83 940.28 1138.72 948.23 1113.13 949.62 1088.77 964.89 1057.83 1002.1 1047.97 1034.87 1044.69 1072.44 1059.22 1070.97 1064.4 1073.47 1080.83 1079.58 1090.69 1078.19 1130.11 1081.52 1132.3 1086.24 1130.11 1101.51 1134.21 1114.84 1134.77 1122.9 1129.56 1131.5 1135.59 1140.11 1136.13 1146.78 1154.48 1148.72 1170.91 1152.05 1182.13 1154.27 1186.79 1160.94 1189.25 1176.21 1182.68 1185.37 1188.15 1185.37 1198.01 1186.21 1202.39 1182.04 1216.36 1178.15 1236.61"/><polygon class="cls-2" points="906.36 2144.06 905.58 2140.2 904.76 2138.65 895.31 2076.03 898.32 2077.66 901.4 2080.46 910.94 2090.39 911.4 2091.88 909.03 2089.86 905.64 2089.23 902.7 2090.06 902.13 2092.27 904.25 2095.07 907.75 2095.84 910.99 2097.87 913.55 2100.66 917.7 2106.83 920.38 2108.66 929.68 2112.62 937.78 2118.69 941.74 2119.27 944.38 2120.72 947.79 2121.49 950.23 2123.42 955.82 2124.77 962.16 2129.11 973.51 2134.41 981.77 2137.5 994.32 2138.07 999.61 2137.3 1000.25 2139.43 999.79 2143.09 998.17 2144.63 992.07 2146.56 981.92 2145.02 969.59 2147.91 968.53 2149.07 963.89 2148.3 955.25 2145.02 941.34 2143.28 928.39 2143.28 923.94 2141.93 920.31 2141.55 916.28 2141.36 908.77 2143.86 906.36 2144.06"/><polygon class="cls-2" points="906.36 2144.06 900.58 2143.86 902.32 2145.79 897.71 2145.79 894.86 2147.24 887.51 2143.86 879.71 2142.9 868.21 2142.9 867.55 2143.86 860.67 2143.86 850.31 2141.36 847.38 2142.32 842.7 2141.84 844.84 2140.88 844.7 2139.91 840.87 2139.91 841.52 2138.94 844.38 2137.5 836.57 2136.43 835.23 2137.5 830.61 2137.5 831.25 2136.43 830.92 2134.02 828.36 2132.48 835.9 2131.52 835.64 2129.59 840.26 2129.59 842.4 2128.05 844.73 2128.53 846.24 2128.05 844.33 2125.54 838.6 2123.13 838.19 2120.14 846.46 2124.57 857.02 2128.53 860.41 2131.04 861.78 2129.59 864.76 2129.01 860.01 2128.05 859.02 2126.6 861.89 2124.57 868.59 2129.01 868.9 2125.54 873.6 2126.12 877.9 2129.59 878.48 2128.05 883.01 2128.05 881.19 2125.54 864.53 2121.58 862.77 2120.14 859.14 2110.11 860.28 2107.6 864.9 2107.6 866.26 2106.06 878.99 2103.55 879.93 2099.51 877.31 2096.9 873.41 2096.42 867.28 2096.9 856.99 2099.99 849.68 2096.9 847.77 2094.39 848.07 2090.82 847.52 2086.77 849.71 2086.15 852.27 2087.74 855.26 2087.25 856.47 2084.61 853.77 2082.1 852.7 2079.97 847.26 2079.01 854.85 2078.43 858.97 2080.55 860.31 2079.49 865.57 2078.43 867.71 2071.78 873.68 2070.14 878.22 2075.35 882.91 2075.83 888.09 2074.87 892.42 2072.74 895.31 2076.03 904.76 2138.65 905.58 2140.2 906.36 2144.06"/><polygon class="cls-2" points="706.82 1744.55 707.94 1743.82 709.15 1748.26 712.78 1748.06 714.93 1748.5 719.23 1755.78 719.88 1757.99 722.26 1762.05 722.82 1764.26 718.66 1765.04 716.9 1769.47 715.01 1768.99 714.05 1770.92 713.87 1772.17 716.46 1775.16 719.23 1775.64 720.81 1778.35 716.34 1778.83 717.28 1781.23 720.26 1785.19 721.02 1788.86 716.46 1788.66 718.33 1793.48 716.49 1795.99 711.92 1795.7 702.29 1793.48 698.55 1788.37 700.69 1784.23 702.67 1774.39 700.79 1760.5 701.95 1755.59 701.68 1751.01 702.21 1748.5 704.2 1747.78 706.82 1744.55"/><polygon class="cls-2" points="741.72 1825.21 742.15 1826.46 747.25 1828.1 748.73 1830.03 749.2 1831.48 748.33 1834.08 748.91 1838.42 744.5 1841.21 740.68 1841.99 736.92 1841.21 734.13 1838.61 731.81 1835.05 730.48 1831.67 734.05 1829.07 741.72 1825.21"/><polygon class="cls-2" points="707.26 1832.63 712.37 1832.44 716.45 1833.6 716.93 1834.56 710.51 1836.68 708.1 1834.37 707.26 1832.63"/><polygon class="cls-2" points="710.74 1844.78 707.94 1844.11 708.03 1842.86 712.32 1841.02 716.65 1841.5 717.64 1842.37 717.45 1842.86 710.74 1844.78"/><polygon class="cls-2" points="712.89 1847.2 711.06 1847.2 712.18 1846.43 722.37 1845.75 724.65 1849.03 725.06 1852.11 721.55 1850.66 717.55 1848.16 712.89 1847.2"/><polygon class="cls-2" points="713.95 1850.47 718.33 1851.92 722.43 1855.2 716.74 1853.08 713.95 1850.47"/><polygon class="cls-2" points="723.83 1867.44 724.95 1866.67 726.65 1868.31 727.71 1871.59 724.72 1872.07 723.7 1869.08 723.83 1867.44"/><polygon class="cls-2" points="720.14 1927.62 715.9 1927.81 710.89 1926.27 710.79 1923.57 713.07 1922.41 714.46 1921.06 719.42 1924.24 721.03 1927.13 720.14 1927.62"/><polygon class="cls-2" points="701.1 1925.4 701.31 1926.94 699.21 1929.45 695.36 1929.93 692.75 1928.78 693.73 1926.94 698.31 1925.4 701.1 1925.4"/><polygon class="cls-2" points="698.44 1937.26 698.39 1936.87 707.52 1939.28 708.57 1940.64 708.7 1943.53 707.61 1944.49 704.96 1944.88 698.44 1937.26"/><polygon class="cls-2" points="690.3 1939.57 689.54 1936.59 693.02 1935.23 699.07 1946.42 702 1949.99 702.24 1951.82 701.17 1952.88 699.42 1950.95 697.68 1947.09 692.66 1943.53 690.3 1939.57"/><polygon class="cls-2" points="705.85 1946.9 711.98 1947.77 713.8 1950.28 717.15 1952.5 717.9 1953.56 711.36 1952.2 707.53 1950.95 705.51 1948.93 704.92 1947.09 705.85 1946.9"/><polygon class="cls-2" points="691.49 1952.88 690.44 1949.6 693.33 1948.45 695 1949.8 696.35 1953.36 694.91 1955.59 692.94 1957.12 691.49 1955.39 691.49 1952.88"/><polygon class="cls-2" points="705.44 1964.45 706.33 1963.97 704.95 1960.89 705.29 1958.86 707.66 1956.45 710.27 1955.1 713.83 1956.93 716.89 1959.54 719.17 1962.91 720.67 1966.86 722.85 1976.51 724.78 1988.85 725.05 1992.8 722.46 1996.18 717.74 1996.66 713.87 1993.19 712.64 1984.12 713.56 1981.91 713.13 1980.66 705.45 1978.05 700.73 1974.1 701.42 1972.74 703.93 1973.23 707.82 1974.96 707.87 1970.82 704.78 1970.53 701.79 1968.4 702.62 1966.19 705.44 1964.45"/><polygon class="cls-2" points="694.45 1986.25 693.6 1984.51 694.51 1984.12 697.85 1984.32 700.12 1987.6 703.23 1990.58 702.08 1991.07 697.85 1990.78 694.8 1988.85 694.45 1986.25"/><polygon class="cls-2" points="700.92 2004.38 700.37 2002.93 701.07 2001 706.06 2002.45 709.49 2000.71 713.9 1999.84 715.07 2002.06 713.2 2005.63 713.18 2009.97 708.06 2008.23 706.29 2006.11 702.87 2007.84 700.92 2004.38"/><polygon class="cls-2" points="728.22 2016.14 724.47 2015.47 724.18 2013.34 720.18 2008.23 720.03 2007.17 721.81 2006.79 724.88 2009.49 729.76 2012.09 733.15 2014.6 736.64 2020.38 735.79 2020.58 728.22 2016.14"/><polygon class="cls-2" points="730.24 2024.63 728.37 2028.19 729.42 2031.37 725 2030.31 718.45 2022.51 717.47 2015.27 717.91 2015.95 727.34 2018.65 730.24 2024.63"/><polygon class="cls-2" points="719.17 2038.71 719.37 2035.71 723.39 2031.96 725.12 2031.18 727.45 2037.45 722.88 2039.09 719.73 2038.32 719.17 2038.71"/><polygon class="cls-2" points="722.36 2060.3 719.63 2060.11 718.95 2055.09 719.35 2050.95 720.66 2049.7 721.11 2046.61 722.88 2048.06 723.75 2052.59 722.97 2060.3 722.36 2060.3"/><polygon class="cls-2" points="742.93 2046.23 748.91 2052.4 746.07 2052.01 741.84 2049.7 740.03 2047.29 739.57 2043.91 740.65 2042.85 742.93 2046.23"/><polygon class="cls-2" points="751.66 2041.79 753.17 2043.91 754.05 2047.87 748.61 2043.72 746.69 2040.54 746.42 2038.51 748.9 2041.41 751.66 2041.79"/><polygon class="cls-2" points="759.38 2062.72 759.96 2062.52 760.09 2061.56 761.24 2061.08 763.85 2062.33 766.61 2062.72 768.57 2061.08 771.42 2060.3 773.77 2061.56 774.79 2064.55 775.88 2066.18 778.4 2064.84 779.67 2060.69 777.99 2059.24 777.04 2056.74 778.94 2057.22 782.47 2058.86 784.11 2061.94 785.27 2065.99 780.71 2070.33 778.12 2075.63 782.85 2077.08 785.83 2079.11 786.98 2081.18 792.23 2083.93 799.84 2077.66 803.47 2077.47 809.94 2078.24 815.92 2078.05 818.08 2080.46 818.47 2083.35 807.83 2089.67 804.43 2090.97 800.34 2090.39 798.31 2090.82 798.93 2092.8 797.83 2093.72 795.25 2092.66 792.38 2094.06 793.61 2096.03 791.93 2097.09 792.3 2099.89 794.06 2101.91 789.65 2100.85 775.91 2093.38 774.89 2092.27 778.76 2091.88 783.84 2093.38 786.39 2092.27 786.47 2090.24 783.48 2088.8 780.55 2085.18 779.64 2086.82 777.65 2088.17 770.02 2087.84 770.72 2085.96 770.5 2084.31 765.46 2083.16 764.02 2081.52 764.04 2079.11 763.03 2078.72 760.15 2079.3 760.46 2077.08 760.01 2073.8 760.44 2070.52 759.38 2067.25 759.38 2062.72"/><polygon class="cls-2" points="755.19 2069.75 757.12 2070.52 756.6 2075.63 753.82 2077.66 752.58 2077.47 751.82 2076.41 753.47 2075.06 753.3 2073.8 752.18 2074.58 750.96 2074.58 749.52 2072.94 749.24 2070.91 755.19 2069.75"/><polygon class="cls-2" points="730.4 2079.11 732.32 2079.73 738 2083.74 763.27 2091.45 764.47 2093.86 765.69 2093.86 766.77 2092.8 768.02 2093 770.34 2094.68 775.26 2096.9 775.96 2098.25 770.55 2098.25 764.86 2096.7 762.84 2094.68 755.5 2090.06 755.08 2091.45 755.85 2092.66 754.42 2093 748.49 2091.64 736.97 2087.07 734.2 2084.61 730.4 2079.11"/><polygon class="cls-2" points="727.38 2047.87 729.15 2049.99 729.81 2056.74 728.87 2058.86 726.89 2059.63 725.82 2058.86 725.05 2055.09 725.09 2053.46 726.96 2051.82 726.71 2049.99 725.95 2048.25 726.4 2047.67 727.38 2047.87"/><polygon class="cls-2" points="762.13 2098.44 764.43 2098.06 766.95 2098.64 767.81 2100.47 772.74 2100.85 775.03 2102.3 777.15 2102.49 776.82 2100.08 777.75 2099.89 779.87 2100.08 783.25 2102.49 783.89 2100.85 788.56 2105.67 790.74 2104.42 793.86 2104.9 795.5 2106.06 795.65 2107.22 801.45 2109.44 802.47 2110.6 802.46 2112.43 798.83 2112.62 798.93 2117.92 797.63 2119.27 794.25 2118.69 792.52 2117.54 792.04 2118.5 792.98 2120.91 791.23 2121.49 787.17 2120.53 784.5 2120.72 782.56 2119.94 786.93 2118.69 780.75 2117.54 774.98 2117.34 773.23 2115.99 772.79 2112.81 773.1 2110.6 768.18 2109.63 765.29 2104.42 760.55 2100.27 760.44 2099.51 762.13 2098.44"/><polygon class="cls-2" points="811.55 2112.62 812.16 2112.62 814.25 2114.55 816.11 2114.74 817.55 2116.38 817.04 2117.15 817.25 2118.69 818.61 2119.66 819.56 2117.73 821.15 2116.57 824.57 2116.76 825.98 2118.11 828.02 2117.73 831.15 2122.84 832.47 2121.68 834.59 2121.88 836.64 2123.42 837.54 2125.64 835.13 2127.76 831.82 2127.76 828.36 2124.77 819.16 2123.8 817.78 2125.15 818.86 2126.02 818.3 2126.41 814.25 2125.44 812.83 2124 809.86 2122.64 807.08 2122.07 806.55 2120.14 803.74 2115.41 806.21 2115.61 808.76 2114.55 810.35 2112.81 811.55 2112.62"/><polygon class="cls-2" points="847.13 2104.42 849.05 2105.1 850 2110.21 851.86 2114.93 853.83 2118.5 853.73 2119.66 852.48 2119.46 848.22 2116.96 846.31 2116.38 846.99 2119.46 848.94 2122.26 850.93 2123.42 854.26 2123.61 856.34 2125.44 852.38 2125.15 849.83 2124.39 843.87 2120.91 841.45 2118.5 840.5 2115.99 840.49 2113.97 841.61 2113.19 845.5 2113.01 846.36 2112.23 845.74 2110.21 844.3 2108.66 847.13 2104.42"/><polygon class="cls-2" points="840.93 2150.61 840.54 2149.65 840.97 2148.3 842.66 2147.33 845.89 2146.76 847.8 2149.84 847.98 2151.19 847.21 2151.96 845.67 2152.15 840.93 2150.61"/><polygon class="cls-2" points="859.2 2155.53 856.74 2155.34 854.13 2154.08 852.06 2152.35 851.64 2151.19 852.81 2150.81 856.51 2151.77 858.66 2151.58 859.75 2153.12 859.2 2155.53"/><polygon class="cls-2" points="891.1 2147.14 891.41 2147.52 881.94 2149.07 874.43 2149.65 873.51 2149.26 872.34 2147.72 872.01 2145.21 874.02 2144.63 875.04 2145.02 880.97 2144.44 889.98 2145.98 891.1 2147.14"/><polygon class="cls-2" points="870.3 2152.54 871.09 2151.96 878.57 2151.19 891.88 2148.49 900.57 2148.3 908.25 2146.37 910.97 2146.56 915.24 2149.07 916.45 2151 910.84 2151.96 907.41 2151.77 899.94 2150.03 898.77 2150.42 904.6 2152.92 916.47 2153.7 918.7 2154.66 919.21 2155.92 920.19 2156.69 912 2156.69 910.33 2157.26 910.7 2158.03 919.05 2159.19 922.25 2160.35 923.15 2162.47 925.34 2163.14 926.31 2165.85 928.08 2167.97 928.2 2168.84 926.72 2168.84 923.82 2167.39 921.78 2165.85 921.12 2163.53 918.37 2163.14 914.8 2161.31 907.07 2162.76 903.89 2161.12 902.93 2158.61 900.39 2157.85 899.33 2156.49 896.76 2155.53 890.64 2155.34 888.78 2157.07 890.55 2159.19 897.9 2163.92 888.18 2163.53 886.76 2162.09 886.23 2160.74 880.14 2158.23 880.38 2157.46 886.43 2155.14 887.18 2154.27 886.84 2153.7 883.84 2154.08 880.38 2155.53 873.48 2156.11 870.71 2155.53 869.87 2153.89 870.3 2152.54"/><polygon class="cls-2" points="920.54 2147.72 920.01 2148.3 915.98 2147.52 915.16 2145.98 928.34 2144.82 936.3 2145.98 945.44 2146.56 947.48 2148.11 949.94 2152.73 950.1 2153.89 949.89 2154.95 948 2156.49 945.41 2157.26 942.73 2157.46 941.7 2156.88 940.53 2154.66 937.66 2154.08 935.61 2154.08 935.78 2155.34 932.71 2155.53 931.49 2155.14 932.3 2154.47 923.42 2153.51 921.52 2150.42 920.54 2147.72"/><polygon class="cls-2" points="962.06 2154.08 965.32 2153.7 967.05 2154.85 966.8 2155.63 964.83 2156.49 962.93 2156.01 961.93 2155.05 962.06 2154.08"/><polygon class="cls-2" points="1020.7 2141.16 1026.91 2140 1033.06 2140.39 1039.53 2139.23 1040.57 2139.81 1040.48 2141.74 1038.7 2142.13 1033.48 2141.55 1030.22 2141.93 1029.85 2143.67 1024.97 2143.09 1021.2 2144.82 1015.69 2144.06 1017.77 2141.36 1017.9 2140.39 1020.7 2141.16"/><polygon class="cls-2" points="1105.07 2050.57 1106.21 2049.99 1106.57 2050.76 1108.46 2051.14 1108.3 2054.52 1106.39 2055.77 1103.22 2054.91 1096.69 2051.14 1095.85 2047.48 1097.56 2046.61 1098.03 2047.48 1097.06 2049.32 1097.95 2051.43 1099.54 2052.2 1099.63 2050.95 1100.72 2049.99 1103.51 2049.99 1105.07 2050.57"/><polygon class="cls-2" points="1146.74 2038.51 1147.21 2037.45 1147.94 2038.32 1150.46 2038.89 1151.29 2040.54 1150.21 2041.6 1149.37 2044.3 1146.81 2045.36 1141.84 2051.14 1139.8 2052.2 1136.97 2055.77 1134.33 2056.16 1132.09 2055.77 1127.52 2057.41 1126.77 2056.35 1125.58 2056.54 1126.26 2059.63 1123.52 2061.27 1121.92 2061.08 1116.86 2063.59 1114.87 2060.5 1111.86 2060.11 1111.3 2060.5 1112.71 2061.94 1106.08 2057.99 1106.86 2057.41 1111.49 2057.41 1111.2 2055.29 1114.25 2055.97 1118.27 2055.97 1120.79 2054.71 1116.85 2054.52 1116.99 2053.66 1119.96 2051.14 1123.1 2051.82 1124.71 2048.25 1130.12 2047.67 1122.18 2042.46 1118.55 2042.66 1117.21 2041.79 1119.02 2041.6 1119.17 2040.83 1117.81 2039.76 1114.78 2039.28 1113.9 2037.26 1119.35 2039.57 1127.13 2041.02 1130.82 2039.28 1140.66 2040.54 1146.99 2040.35 1146.74 2038.51"/><polygon class="cls-2" points="957.66 2151.19 955.83 2151.19 951.86 2149.55 949.5 2148.2 949.43 2147.72 954.64 2148.2 957.13 2149.84 957.66 2151.19"/><polygon class="cls-2" points="956.78 2158.23 953.06 2158.42 951.46 2157.55 951.2 2155.63 952.59 2154.95 955.6 2155.24 956.54 2156.4 956.78 2158.23"/><polygon class="cls-2" points="1188.34 2048.93 1186.16 2048.93 1182.75 2051.43 1178.91 2052.69 1171.11 2052.98 1164.73 2052.2 1162.94 2052.5 1163 2052.98 1169.17 2057.32 1170.2 2059.82 1165.51 2057.99 1161.46 2058.28 1159.87 2057.51 1158.38 2057.51 1158.24 2061.56 1160.55 2062.52 1161.5 2063.78 1155.86 2063.29 1151.92 2061.27 1151.11 2063.59 1150.76 2066.86 1148.09 2065.8 1142.57 2061.08 1142.01 2059.54 1143.57 2051.72 1146.84 2051.43 1147.87 2050.66 1148.09 2049.7 1151.87 2047.38 1154.87 2047.67 1158.18 2050.18 1158.87 2050.18 1158.66 2048.64 1155.87 2044.11 1154.46 2039.48 1156.27 2038.71 1158.8 2038.71 1159.56 2035.91 1161.25 2034.94 1165.11 2035.71 1169.47 2035.14 1176.03 2039.76 1183.29 2038.71 1186.33 2039.28 1190.29 2041.79 1190.04 2042.56 1187.47 2042.56 1187.62 2043.62 1189.64 2044.39 1191.74 2046.42 1191.05 2047.38 1188.34 2048.93"/><polygon class="cls-2" points="709.7 1674.95 706.93 1667.84 706.93 1655.79 700.26 1644.84 696.93 1628.41 705.54 1625.13 708.87 1617.73 706.37 1609.8 709.7 1606.51 711.64 1588.17 715.53 1581.05 713.59 1576.94 724.42 1539.71 722.2 1527.11 728.31 1513.97 723.59 1490.97 727.75 1486.32 728.86 1476.46 725.53 1471.26 721.09 1447.71 712.2 1411.57 716.37 1406.91 719.7 1394.32 711.09 1366.66 713.03 1362.28 718.87 1324.77 718.87 1313.01 721.09 1308.35 723.59 1275.5 719.7 1264.82 724.98 1244.01 720.25 1231.41 718.31 1195.28 713.59 1190.07 715.53 1178.85 718.31 1178.85 720.25 1176.93 721.64 1131.48 718.31 1108.48 718.87 1088.77 711.64 1065.22 706.37 1032.37 712.2 1031 721.09 1022.51 720.25 1012.65 728.31 1006.63 733.03 1009.37 736.36 1016.49 742.19 1019.78 746.36 1043.59 764.4 1061.12 761.07 1067.14 763.57 1078.91 757.74 1085.48 759.69 1088.22 759.69 1094.79 766.35 1098.63 765.52 1106.02 772.18 1111.77 782.18 1135.59 788.84 1159.68 792.17 1167.07 805.51 1167.07 812.2 1166.84 814.94 1169.54 813 1192.53 810.22 1202.39 779.68 1223.48 779.68 1233.33 783.57 1239.36 780.24 1254.96 786.34 1271.39 782.18 1277.96 791.06 1295.76 788.28 1301.78 778.29 1304.25 771.07 1329.43 759.69 1350.24 757.74 1368.86 753.02 1375.43 757.74 1396.24 761.07 1401.71 756.9 1406.91 753.02 1410.75 751.63 1425.81 751.08 1429.92 746.91 1435.12 750.25 1452.09 756.9 1457.57 756.9 1464.14 768.85 1487.14 768.85 1494.25 775.51 1496.99 776.34 1518.62 778.29 1524.37 768.85 1544.91 768.29 1554.76 764.96 1558.59 769.68 1569.27 772.18 1583.51 765.52 1594.73 759.69 1598.84 758.29 1607.88 761.63 1628.96 762.19 1631.7 770.24 1655.79 773.57 1661.27 771.63 1666.47 763.01 1674.95 761.44 1674.95 757.79 1693.73 757.74 1695.94 759.02 1702.79 756.9 1719.95 757.53 1732.3 760.21 1738.52 764.75 1741.85 765.7 1743.68 766.4 1748.84 766.3 1750.67 764.93 1754.04 760.79 1759.54 759.02 1768.32 760.98 1782.78 762.79 1785.19 764.9 1786.64 765.46 1788.18 766.6 1799.17 767.24 1801.29 770.73 1805.15 772.66 1811.04 772.02 1823.08 772.65 1825.11 776.39 1825.11 783.7 1826.94 787.79 1830.12 788.7 1833.6 788.03 1837.07 781.37 1837.36 773.5 1836.49 771.78 1837.36 774.17 1841.5 781.11 1843.82 786.97 1848.45 787.52 1852.5 785.14 1854.23 783.57 1856.16 783.29 1859.92 784.69 1870.24 784.27 1872.27 784.92 1877.09 786 1879.89 787.23 1894.06 785.4 1899.94 782.86 1905.54 782.57 1909.2 778.72 1916.14 772.56 1922.79 771.45 1925.5 771.01 1927.43 771.42 1933.01 772.24 1936.49 773.98 1938.42 775.68 1942.56 775.69 1945.84 774.31 1946.61 773.83 1948.25 773.38 1955.87 772.21 1960.69 771.3 1962.33 766.41 1967.44 761.13 1977.37 759.05 1978.73 756.98 1982.68 754.85 1994.05 755.48 1998.59 755.14 2001.96 756.64 2012.96 757.53 2013.73 759.36 2018.94 761.16 2021.25 762.71 2021.74 764.71 2020.48 765.88 2018.17 769.74 2016.33 779.49 2017.59 781.44 2015.27 784.47 2015.75 785.31 2016.81 787.64 2023.08 788.81 2028.48 791.08 2048.45 791.75 2050.18 795.65 2054.52 798.07 2056.25 805.4 2058.28 833.2 2058.28 835.57 2059.05 838.1 2059.05 847.73 2058.76 856.49 2057.8 862.1 2057.99 875.02 2060.79 891.25 2062.81 899.03 2065.61 901.69 2065.9 902.02 2067.06 900.24 2067.44 894.36 2066.48 888.87 2066.48 881.88 2063.78 877.93 2063.59 871.26 2065.8 870.41 2068.5 868.62 2070.72 860.57 2071.78 852.82 2075.06 850.59 2076.6 846.78 2077.47 843.42 2077.08 840.2 2078.43 835.79 2079.3 836.81 2086.82 834.62 2095.07 835.26 2106.26 834.66 2108.85 833.46 2110.98 832.13 2112.04 829.37 2112.23 821.88 2110.4 817.59 2110.21 807.21 2107.03 801.27 2103.65 798.4 2100.47 798.29 2097.09 802.27 2095.65 803.82 2098.06 803.49 2100.08 807.56 2098.64 809.1 2096.51 811.88 2094.49 818.07 2093.86 823.58 2091.45 826.85 2089.23 828.77 2085.37 829.05 2082.97 823.27 2080.75 819.91 2077.9 816.62 2074.19 811.35 2073.22 800.15 2072.94 793.69 2074.76 790.98 2076.6 790.68 2074.38 789.47 2072.55 782.38 2073.61 782.11 2071.59 783.13 2070.14 788.56 2067.83 789.87 2064.55 788.79 2060.5 782.98 2056.16 787.1 2055.09 787.17 2053.07 786.18 2050.18 781.68 2046.61 773.83 2042.08 767.79 2039.96 765.33 2039.76 781.82 2047.67 781.9 2050.18 779.28 2050.76 775.1 2049.5 770.81 2046.81 769.66 2047.29 773.38 2052.2 771.96 2055.29 769.46 2056.74 767.76 2055.09 765.82 2052.4 764.53 2049.32 760.83 2044.49 764.58 2049.7 765.85 2054.52 765.8 2058.67 763.06 2058.38 760.49 2057.41 758.12 2053.46 757.87 2045.16 753.39 2038.51 740.02 2029.26 737.9 2025.21 738.78 2022.7 744.54 2022.7 749.25 2021.44 748.35 2017.39 746.4 2016.52 745.24 2018.94 742.54 2018.94 739.58 2017.01 736.64 2013.34 737.84 2011.22 743.76 2012.47 742.72 2011.22 739.62 2008.91 733.16 2008.23 729.65 2006.79 725.99 2004.18 723.08 2000.71 729.1 1995.6 728.91 1989.72 729.96 1988.47 729.66 1986.25 736.66 1982.58 739.83 1983.45 741.91 1983.45 741.77 1982.39 738.65 1981.23 737.15 1979.11 739.93 1968.79 737.93 1969.47 733.79 1972.36 733.36 1975.64 731.39 1979.11 728.54 1978.05 727.22 1975.35 725.91 1970.14 724.38 1958.86 725.95 1956.93 728.06 1957.12 724.38 1954.43 725.04 1950.28 732.82 1949.8 738.38 1952.88 736.51 1949.99 734.68 1945.55 732.8 1947.09 722.79 1949.12 721.04 1947.77 719.34 1944.2 716.89 1941.6 715.85 1933.89 719.86 1934.56 723.15 1938.23 725.37 1941.79 724.03 1936.39 725.71 1935.23 736.56 1936.87 745.01 1941.31 748.29 1941.12 741.62 1938.23 737.52 1933.01 735.37 1928.1 733.57 1925.78 732.69 1928.29 726.31 1928.1 723.59 1926.08 723.6 1924.24 726.96 1922.02 722.56 1921.06 715.83 1918.36 714.2 1917.2 716.4 1913.54 721.24 1911.32 725.38 1910.36 721.35 1907.66 725.76 1904.18 724.14 1903.13 722.22 1900.52 718.19 1897.82 714.63 1895.99 710.73 1896.18 708.35 1898.5 705.74 1899.17 698.05 1896.47 695 1893.87 691.69 1892.03 687.65 1893.68 684.96 1895.7 687.21 1896.86 688.83 1899.85 688.09 1903.32 682.85 1902.64 681.42 1899.17 682.54 1891.36 686.24 1889.72 689.78 1886.93 693.12 1882.59 697.06 1882.1 701.34 1880.27 700.97 1877.47 699.3 1876.8 696.69 1877.47 694.73 1876.51 693.26 1874.68 692.56 1871.4 701.2 1870.24 705.48 1870.92 707.85 1872.36 711.14 1870.24 714.37 1871.59 717.29 1873.23 716.8 1876.03 717.38 1878.35 719.57 1876.51 720.27 1879.11 717.63 1882.1 716.7 1884.23 719.54 1887.21 722.92 1887.69 724.85 1883.93 727.24 1881.62 727.9 1883.93 727.5 1888.08 727.82 1890.39 730.16 1889.72 730.39 1886.93 732.01 1885.38 735.24 1882.78 738.13 1881.62 737.91 1879.98 738.72 1876.99 740.56 1872.56 740.44 1869.76 738.25 1870.92 736.7 1873.04 736.06 1875.35 733.18 1880.46 733.02 1870.92 733.99 1869.08 734.88 1868.6 741.11 1867.64 736.71 1866.67 736.49 1865.04 738.65 1863.01 742.14 1861.75 741.92 1860.11 738.3 1860.4 732.51 1862.72 732.59 1858.77 734.13 1856.65 736.57 1854.72 738.68 1854.23 743.19 1856.65 745.92 1857.87 748.39 1858.96 751.38 1858.48 750.65 1855.68 747.34 1855.68 739.92 1852.4 735.32 1851.92 735.64 1847.87 735.29 1845.27 737.57 1844.11 742.74 1844.3 746.88 1843.34 751.45 1839.09 752.08 1836.68 751.12 1829.55 748.89 1826.65 746.01 1825.98 739.67 1821.64 735.92 1820.39 734.13 1818.75 735.09 1816.82 738.1 1814.6 738.67 1811.71 740.11 1808.81 742.48 1806.4 740.98 1804.28 741.48 1801.59 738.26 1799.65 737.54 1796.95 737.78 1794.25 738.77 1792.52 741.18 1790.4 742.96 1782.98 740.23 1774.39 743.55 1769.95 747.32 1770.72 744.3 1768.41 741.06 1764.46 742.62 1760.5 746.65 1761.28 749.86 1766.96 749.22 1762.24 747.17 1753.56 742.9 1753.56 738.42 1752.02 739.45 1748.06 743.87 1745.27 746.82 1744.55 749.53 1742.09 745.13 1743.01 742.34 1743.01 739.21 1741.75 735.37 1738.52 730.79 1738.18 727.95 1739.72 727.75 1742.76 725.64 1744.55 719.48 1746.04 712.16 1743.48 712.43 1740.98 710.53 1738.52 708.06 1737.69 706.09 1734.71 704.83 1729.89 704.33 1723.62 704.46 1713.68 706.18 1708.38 704.11 1688.62 708.62 1686.49 709.23 1683.99 711.32 1681.38 712.43 1676.65 712.08 1674.95 709.7 1674.95"/><polygon class="cls-2" points="773.44 1661.6 770.24 1655.79 762.19 1631.7 761.63 1628.96 758.29 1607.88 759.69 1598.84 765.52 1594.73 772.18 1583.51 769.68 1569.27 764.96 1558.59 768.29 1554.76 768.85 1544.91 778.29 1524.37 776.34 1518.62 775.51 1496.99 768.85 1494.25 768.85 1487.14 756.9 1464.14 756.9 1457.57 750.25 1452.09 746.91 1435.12 751.08 1429.92 751.63 1425.81 753.02 1410.75 756.9 1406.91 761.07 1401.71 757.74 1396.24 753.02 1375.43 757.74 1368.86 759.69 1350.24 771.07 1329.43 778.29 1304.25 788.28 1301.78 791.06 1295.76 782.18 1277.96 786.34 1271.39 780.24 1254.96 783.57 1239.36 779.68 1233.33 779.68 1223.48 810.22 1202.39 813 1192.53 814.94 1169.54 812.2 1166.84 811.06 1165.7 814.39 1156.39 821.05 1152.56 822.16 1145.99 832.16 1142.16 838.27 1131.48 848.26 1138.05 882.14 1139.42 894.36 1158.59 903.52 1134.77 932.96 1132.3 940.28 1138.72 952.95 1149.83 967.67 1167.07 978.78 1173.64 994.88 1188.7 1018.77 1191.99 1048.76 1209.79 1060.14 1214.44 1069.58 1220.19 1072.08 1219.64 1090.13 1227.58 1092.08 1235.25 1085.41 1243.19 1082.91 1253.04 1078.19 1254.96 1074.85 1269.47 1064.86 1285.35 1063.47 1291.92 1064.86 1291.92 1081.52 1291.92 1104.85 1297.67 1110.95 1295.76 1115.4 1298.5 1120.95 1296.58 1127.62 1299.87 1134.28 1292.47 1146.78 1295.76 1153.44 1285.35 1162.88 1280.15 1173.43 1266.19 1178.15 1236.61 1181.49 1238.53 1191.48 1237.99 1197.59 1241.27 1203.22 1256.33 1202.87 1273.58 1199.54 1283.98 1183.43 1294.39 1174.27 1299.04 1150.11 1318.21 1147.61 1324.77 1142.05 1325.33 1122.06 1348.32 1120.95 1352.43 1104.29 1372.69 1096.1 1383.23 1091.52 1389.12 1090.13 1406.09 1086.8 1417.32 1086.8 1427.17 1080.96 1438.4 1083.46 1444.97 1083.46 1468.52 1078.74 1471.81 1076.8 1475.09 1079.58 1502.19 1075.41 1506.85 1077.63 1514.52 1108.18 1535.6 1112.9 1542.17 1107.62 1559.42 1112.9 1567.08 1124.84 1572.56 1125.39 1586.25 1106.23 1615.82 1104.85 1621.84 1087.63 1634.98 1059.58 1645.94 1008.21 1655.79 987.66 1650.04 985.44 1651.41 990.16 1664.55 994.33 1669.75 1009.03 1677.79 1011.94 1688.22 1015.38 1691.61 1015.89 1698.84 1020 1711.18 1020.05 1714.17 1019.06 1717.74 1016.17 1720.83 1007.9 1722.56 1000.28 1727.09 981.22 1726.61 976.43 1725.36 971.25 1722.56 960.46 1718.8 952.63 1716.96 947.44 1712.14 942.71 1717.74 943.95 1726.9 948.07 1734.71 950.17 1748.26 951.56 1754.04 959.24 1759.25 966.18 1760.99 964.41 1763.98 967.73 1766 977.46 1763.78 975.42 1760.31 971.87 1758.58 979.98 1757.99 985.62 1754.53 990.22 1759.54 993.13 1770.15 992.88 1774.68 989.52 1776.9 984.25 1778.53 979.69 1778.35 975.57 1776.9 974.63 1771.89 971.52 1769.47 965.94 1768.22 961.84 1769.47 958.9 1772.17 956.22 1772.37 954.06 1774.39 954.39 1776.9 963.31 1780.28 968.86 1780.76 972.93 1781.82 975.76 1782.78 975.63 1783.74 959.63 1791.07 957.9 1793.77 956.54 1797.15 952.86 1801.59 952.3 1806.4 954.95 1812.48 955.09 1817.98 955.94 1824.24 954.48 1828.87 952.28 1830.71 948.79 1831.96 946.03 1836.01 949.47 1841.5 950.08 1843.34 948.91 1845.75 932.06 1844.78 927.2 1846.91 924.37 1850.47 919.23 1850.47 914.35 1852.4 906.92 1859.92 904.57 1863.2 903.58 1866.48 898.81 1873.71 898.13 1879.98 899.42 1882.78 903.15 1888.08 907.33 1892.52 912.33 1895.32 924.49 1904.66 937.36 1908.33 943.75 1908.52 949.76 1907.85 953.71 1910.65 955.48 1914.69 956.32 1920.87 953.36 1925.4 951.67 1926.46 954.38 1930.99 955.47 1934.56 951.71 1935.71 951.65 1939.77 947.72 1939.77 943.99 1941.79 936.38 1948.06 927.76 1953.85 924.04 1955.39 917.89 1961.37 910.97 1966 907.42 1973.23 906.79 1977.57 910.69 1975.16 908.27 1988.47 906.65 1993.87 902.85 1997.34 898.19 1998.98 893.02 1998.78 889.1 1996.18 882.59 1988.66 884.78 1995.8 888.9 1997.34 890.39 1999.27 890.62 2001 879.86 2006.5 875.74 2009.49 871.4 2024.43 868.25 2028.19 871.3 2028.19 873.86 2027.13 878.68 2035.71 880.91 2041.21 879.74 2043.53 873.62 2043.33 870.76 2044.11 875.63 2046.61 878.28 2046.23 881.41 2046.81 890.4 2057.22 901.79 2065.42 899.03 2065.61 891.25 2062.81 875.02 2060.79 862.1 2057.99 856.49 2057.8 847.73 2058.76 838.1 2059.05 835.57 2059.05 833.2 2058.28 805.4 2058.28 798.07 2056.25 795.65 2054.52 791.75 2050.18 791.08 2048.45 788.81 2028.48 787.64 2023.08 785.31 2016.81 784.47 2015.75 782.14 2015.27 779.49 2017.59 769.74 2016.33 765.88 2018.17 764.71 2020.48 762.71 2021.74 761.16 2021.25 759.36 2018.94 757.53 2013.73 756.64 2012.96 755.14 2001.96 755.48 1998.59 754.85 1994.05 756.98 1982.68 759.05 1978.73 761.13 1977.37 766.41 1967.44 771.3 1962.33 772.21 1960.69 773.38 1955.87 773.83 1948.25 774.31 1946.61 775.69 1945.84 775.68 1942.56 773.98 1938.42 772.24 1936.49 771.77 1933.01 771.01 1927.43 771.45 1925.5 772.56 1922.79 778.72 1916.14 782.57 1909.2 782.86 1905.54 785.4 1899.94 787.23 1894.06 786 1879.89 784.92 1877.09 784.27 1872.27 784.69 1870.24 783.29 1859.92 783.57 1856.16 785.14 1854.23 787.52 1852.5 786.97 1848.45 781.11 1843.82 774.17 1841.5 771.78 1837.36 773.5 1836.49 781.37 1837.36 788.03 1837.07 788.7 1833.6 787.79 1830.12 783.7 1826.94 776.39 1825.11 772.65 1825.11 772.02 1823.08 772.66 1811.04 770.73 1805.15 767.24 1801.29 766.6 1799.17 765.46 1788.18 764.9 1786.64 762.79 1785.19 760.98 1782.78 759.02 1768.32 760.79 1759.54 764.93 1754.04 766.3 1750.67 766.4 1748.84 765.7 1743.68 764.75 1741.85 760.21 1738.52 757.53 1732.3 756.9 1719.95 759.02 1702.79 757.74 1695.94 757.79 1693.73 762.79 1667.59 763.41 1661.23 773.44 1661.6"/><polygon class="cls-2" points="424.37 422.2 425.54 423.87 427.99 425.55 445.05 432.75 460.61 441.15 467.43 446.58 469.06 449.54 470.53 455.36 471.67 457.44 477.92 457.93 483 456.64 485.29 456.64 496.25 457.93 501.38 457.93 502.45 457.04 504.33 453.68 506.97 453.29 510.98 454.97 514.21 457.93 517.76 459.61 525.81 465.83 528.94 466.32 527.89 467.5 522.03 467.5 521.76 472.14 524.19 473.43 525.45 475.11 528.48 481.81 528.95 484.38 533.64 493.96 533.21 494.45 528.99 494.45 525.41 503.24 518.55 517.06 512.29 525.45 508.12 528.8 503.3 534.24 498.54 540.94 494.07 544.8 485.92 548.55 467.16 554.76 457.64 559.4 454.17 561.97 452.68 563.65 450.24 569.08 450.01 574.51 448.13 575.79 446.94 575.79 444.95 574.11 443.76 574.11 443.79 574.91 436.91 585.86 436.04 593.76 436.15 605.5 435.13 609.65 434.34 610.54 429.75 612.61 426.07 616.75 420.31 619.32 415.98 618.83 413.52 614.69 412.18 610.93 409.24 606.29 405.74 605.9 400.72 606.29 399.06 603.83 396.61 602.15 391.91 601.75 387.73 604.62 385.11 605.5 384.23 604.22 383.17 596.32 381.51 593.76 381.44 592.08 383.26 589.61 388.6 587.93 390.87 584.97 390.31 580.33 389.07 579.15 387.65 573.62 387.29 573.62 387.2 571.55 389.06 569.87 394.01 567.79 397.04 565.72 400.43 561.09 401.41 558.12 402.88 544.8 401.53 540.94 399.56 539.76 398.43 532.16 395.45 535.52 391.41 542.23 387.73 546.37 385.32 545.59 382.52 542.23 377.68 540.16 372.46 535.91 371.15 521.7 370.94 516.66 371.47 511.63 370.5 496.92 371.96 494.45 378.44 491.49 382.52 486.06 382.57 478.07 383.57 473.43 389.79 464.14 391.63 460 391.51 457.04 389.65 449.54 389.69 441.54 392.3 438.19 402.02 438.19 403.19 437.79 405.06 436.51 410.23 430.59 413.72 428.51 418.36 427.72 421.43 426.44 423.61 423.87 424.37 422.2"/><polygon class="cls-2" points="538.61 478.98 538.61 468.75 536.45 468.39 530.96 466.32 528.94 466.32 525.81 465.83 517.76 459.61 514.21 457.93 510.98 454.97 506.97 453.29 504.33 453.68 502.45 457.04 501.38 457.93 496.25 457.93 485.29 456.64 483 456.64 477.92 457.93 471.67 457.44 470.53 455.36 469.06 449.54 467.43 446.58 460.61 441.15 445.05 432.75 427.99 425.55 425.54 423.87 424.37 422.2 423.84 420.51 421.05 417.16 420.91 413.8 422.33 410.44 424.52 407.98 431.16 406.7 431.39 403.34 430.01 398.7 430.63 393.67 432.98 386.16 439.06 382.41 440.6 381.92 448.04 382.41 455.36 379.84 456.86 378.51 457.99 376.88 461.28 363.41 468.27 353.84 474.61 347.51 476.07 345.05 476.46 343.38 476.34 340.41 472.52 343.38 469.79 343.77 466.33 343.38 462.32 341.69 461.76 337.94 461.98 333.3 464.33 324.52 464.16 320.37 461.45 309.02 458.84 294.41 459.83 290.66 462.41 286.52 462.31 283.95 460.07 275.16 460.3 262.73 459.84 260.56 457.29 256.4 450.87 251.87 449.2 248.9 446.11 238.53 444.45 235.97 445.55 235.97 445.43 233.11 449.24 229.75 449.42 225.21 451.33 224.82 454.16 226.89 456.02 225.21 460.84 217.71 463.79 214.75 463.73 213.17 462.1 211.49 460.94 211.1 460.79 207.35 459.03 203.59 456.21 201.91 456.39 196.09 457.14 194.41 466.89 205.27 472.25 213.17 474.7 214.75 476.47 211.1 474.44 199.45 473.19 198.17 472.75 196.09 473.5 194.41 482.58 187.8 486.64 184.05 488.13 182.37 492.47 174.18 494.75 171.61 502.11 170.03 505.44 166.28 505.44 157.19 506.64 148.51 506.97 136.47 507.97 134 511.76 130.35 523.14 121.66 525.05 121.27 530.56 121.61 536.34 121.66 537.57 122.85 538.15 127.88 538.61 122.24 553.64 112.97 563.64 107.22 581.13 105.86 610.29 89.43 616.4 78.2 650.28 78.2 639.73 89.97 626.4 95.18 623.07 95.18 616.4 108.32 606.4 113.79 593.63 133.51 588.91 157.6 578.36 173.48 581.69 175.4 588.35 172.93 596.96 177.31 599.74 190.46 609.74 201.68 610.29 209.08 605.57 216.19 606.96 225.5 615.01 229.88 618.9 237.28 625.01 239.19 639.73 237.82 648.34 239.19 658.33 235.91 674.99 237.82 679.71 237.82 701.65 263.56 708.32 263.56 714.98 259.45 734.41 260.27 748.86 257.54 754.96 255.62 760.24 258.35 763.01 264.11 757.74 275.33 756.35 281.35 752.19 285.74 752.19 314.76 754.96 318.59 755.52 327.35 762.19 337.75 768.29 343.78 767.74 347.61 751.08 363.5 756.9 365.41 762.19 366.78 774.4 379.93 777.74 392.24 783.01 405.38 783.01 412.78 778.29 413.87 768.29 388.4 765.52 385.12 751.08 397.44 743.03 391.69 739.69 391.69 737.75 396.35 738.86 397.44 731.08 400.18 691.1 401.55 690.26 419.35 697.76 421.26 706.93 422.63 710.26 429.75 708.32 433.58 698.32 431.67 684.43 437.69 684.99 460.69 698.87 472.46 698.87 481.77 704.98 490.8 694.43 577.05 689.71 586.09 680.27 574.86 668.88 574.31 668.88 569.11 685.54 540.91 658.33 526.4 647.78 531.6 631.67 526.95 616.4 535.44 608.35 533.52 599.74 535.44 591.13 532.15 586.41 517.91 578.91 515.72 573.08 502.04 551.7 492.72 548.92 485.06 538.61 478.98"/><polygon class="cls-2" points="563.46 497.84 573.08 502.04 578.91 515.72 586.41 517.91 591.13 532.15 599.74 535.44 608.35 533.52 616.4 535.44 631.67 526.95 647.78 531.6 658.33 526.4 685.54 540.91 668.88 569.11 668.88 574.31 680.27 574.86 689.71 586.09 686.93 590.74 678.88 585.54 664.44 586.91 660.27 593.48 631.67 600.6 601.68 622.23 601.13 633.46 593.63 648.51 595.02 664.39 578.36 676.71 578.15 682.74 577.8 692.59 572.25 695.33 571.14 701.08 580.3 707.65 577.8 710.93 584.47 719.42 593.07 730.65 602.24 739.96 605.02 747.9 599.74 755.01 601.13 756.38 625.56 757.76 635 773.36 653.05 772.81 676.93 753.65 680.27 758.85 678.32 766.24 681.66 801.01 688.32 803.75 698.32 799.1 713.59 797.73 741.08 840.99 741.08 847.56 734.97 856.32 736.36 869.46 733.58 878.5 739.69 897.66 736.91 905.6 726.36 919.84 732.2 931.07 728.86 939.55 732.2 953.52 736.36 962 744.97 964.74 742.19 971.86 726.36 994.86 728.31 1006.63 720.25 1012.65 721.09 1022.51 712.2 1031 706.37 1032.37 674.44 1011.83 672.22 1003.34 643.06 986.37 635 983.08 615.01 976.51 555.82 948.77 547.44 947.65 538.61 939.42 528.86 933.55 531.58 922.03 527.5 918.77 523.04 912.65 517.31 907.02 516.03 904.95 514.65 898.04 516.45 894.79 519.09 892.31 518 885.8 514.52 876.82 507.27 868.63 502.87 858.46 497.48 849.87 489.63 839.6 485.24 828.45 482.02 824.79 478.45 822.72 475.6 820.25 472.1 810.78 470.02 798.04 468.77 794.29 458.29 777.81 453 762.5 449.56 754.61 442.42 741.33 441.09 737.98 440.1 731.76 436.63 723.08 419.94 706.89 417.04 701.05 411.77 686.45 408.49 682.3 407.28 681.9 402.7 675.2 394.63 668.19 390.67 665.62 383.38 659.8 378.9 655.65 370.52 650.22 369.21 647.26 374.49 641.83 375.43 638.08 375.37 636.4 372.94 633.05 368.06 628.11 366.93 620.51 364.09 615.97 363.56 614.29 362.13 606.29 362.26 600.47 362.89 597.91 369.95 589.12 377.75 580.33 383.08 576.19 387.2 571.55 387.29 573.62 389.07 579.15 390.31 580.33 390.87 584.97 388.6 587.93 383.26 589.61 381.44 592.08 381.51 593.76 383.17 596.32 384.23 604.22 385.11 605.5 387.73 604.62 391.91 601.75 396.61 602.15 399.06 603.83 400.72 606.29 405.74 605.9 409.24 606.29 412.18 610.93 413.52 614.69 415.98 618.83 420.31 619.32 426.07 616.75 429.75 612.61 434.34 610.54 435.13 609.65 436.15 605.5 436.04 593.76 436.91 585.86 443.79 574.91 444.95 574.11 446.94 575.79 448.13 575.79 450.01 574.51 450.24 569.08 452.68 563.65 454.17 561.97 457.64 559.4 467.16 554.76 485.92 548.55 494.07 544.8 498.54 540.94 503.3 534.24 508.12 528.8 512.29 525.45 518.55 517.06 525.41 503.24 528.99 494.45 533.21 494.45 528.95 484.38 528.48 481.81 525.45 475.11 524.19 473.43 521.76 472.14 522.03 467.5 527.89 467.5 528.94 466.32 530.96 466.32 536.45 468.39 541.16 469.18 543.97 470.86 546.91 475.5 549.29 477.67 554.43 480.14 557.13 487.74 560.08 492.77 563.45 494.85 563.46 497.84"/><polygon class="cls-2" points="286.74 7.15 280.36 6.79 273.24 10.21 271.17 12.51 266.39 14.83 261.61 14.83 257.2 17.79 248.11 17.41 246.51 16.31 244.92 13.99 241.73 12.89 240.89 14.83 239.67 15.93 237.32 16.67 235.35 19.35 233.76 26.57 232.17 28.14 226.91 28.93 224.2 31.56 223.35 33.04 221.76 33.78 219.41 36.51 215.38 37.66 215.38 38.4 213.79 39.19 210.22 39.52 206.19 36.09 202.63 34.98 199.07 39.93 197 44.51 187.91 44.92 185.47 44.51 183.88 48.34 184.25 56.02 182.28 56.38 179.51 59.44 177.88 62.86 175.9 64.43 166.76 64.8 161.23 64.8 160.38 67.85 161.23 69.42 169.2 77.46 171.54 80.52 183.5 91.34 191.09 100.95 195.88 105.57 198.6 107.79 201.78 109.36 211.44 117.13 212.94 120.18 213.41 122.12 213.79 122.12 217.35 118.98 219.41 118.98 224.94 121.75 237.32 124.8 242.1 124.43 246.51 123.23 249.23 123.23 254.01 125.54 258.8 129.05 261.61 130.16 266.86 129.79 273.61 128.31 275.58 127.48 275.58 126.37 274.83 123.6 270.8 117.13 270.42 110.94 273.24 105.94 274.36 100.95 275.21 87.82 278.39 67.48 278.39 49.5 285.52 28.93 286.74 18.99 286.74 7.15"/><polygon class="cls-2" points="107.41 20.47 111.81 17.41 111.81 15.57 110.97 13.25 110.22 12.51 110.22 10.21 110.97 8.35 115.75 4.93 116.13 4.1 118.56 3.36 122.24 0.5 28.05 0.5 27.61 1.14 26.48 3.73 25.64 4.1 26.86 7.98 26.48 9.46 24.89 10.95 24.05 18.99 22.83 19.35 24.42 21.67 26.86 23.15 27.61 24.25 31.64 26.57 32.39 27.68 39.61 33.04 43.17 34.61 47.96 37.66 52.74 39.19 58.74 39.93 69.15 39.93 74.68 40.72 83.03 42.2 87.06 44.51 87.43 42.61 90.62 37.3 95.03 36.09 97.37 32.67 101.03 31.56 102.62 29.25 103.37 25.46 104.97 23.15 106.56 22.82 107.41 20.47"/><polygon class="cls-2" points="13.45 12.98 22.83 19.35 24.05 18.99 24.89 10.95 26.48 9.46 26.86 7.98 25.64 4.1 26.48 3.73 27.61 1.14 28.05 0.5 0.5 0.5 9.23 8.35 13.45 12.98"/><polygon class="cls-2" points="118.56 3.36 116.13 4.1 115.75 4.93 110.97 8.35 110.22 10.21 110.22 12.51 110.97 13.25 111.81 15.57 111.81 17.41 107.41 20.47 106.56 22.82 104.97 23.15 108.62 25.09 115 25.46 117.72 28.56 118.94 30.73 122.97 33.41 125.32 33.78 126.16 35.35 127.75 36.51 131.32 36.83 131.32 38.03 132.91 39.52 135.25 40.35 138.44 40.35 140.88 38.03 144.45 37.66 146.04 38.77 150.44 39.93 153.26 42.2 153.63 43.4 153.26 52.96 154.85 54.08 158.04 53.7 161.6 55.28 162.82 57.59 162.82 59.8 166.76 63.69 166.76 64.8 175.9 64.43 177.88 62.86 179.51 59.44 182.28 56.38 184.25 56.02 183.88 48.34 185.47 44.51 187.91 44.92 197 44.51 199.07 39.93 202.63 34.98 206.19 36.09 210.22 39.52 213.79 39.19 215.38 38.4 215.38 37.66 219.41 36.51 221.76 33.78 223.35 33.04 224.2 31.56 226.91 28.93 232.17 28.14 233.76 26.57 235.35 19.35 237.32 16.67 239.67 15.93 240.89 14.83 241.73 12.89 244.92 13.99 246.51 16.31 248.11 17.41 257.2 17.79 261.61 14.83 266.39 14.83 271.17 12.51 273.24 10.21 280.36 6.79 286.74 7.15 286.74 5.3 283.93 1.14 283.17 0.5 122.24 0.5 118.56 3.36"/><polygon class="cls-2" points="104.97 23.15 103.37 25.46 102.62 29.25 101.03 31.56 97.37 32.67 95.03 36.09 90.62 37.3 87.43 42.61 87.06 44.51 91.46 47.98 98.22 51.02 106.19 51.76 111.34 52.96 118.56 57.12 128.13 59.8 142.85 60.27 152.04 56.76 154.85 54.08 153.26 52.96 153.63 43.4 153.26 42.2 150.44 39.93 146.04 38.77 144.45 37.66 140.88 38.03 138.44 40.35 135.25 40.35 132.91 39.52 131.32 38.03 131.32 36.83 127.75 36.51 126.16 35.35 125.32 33.78 122.97 33.41 118.94 30.73 117.72 28.56 115 25.46 108.62 25.09 104.97 23.15"/><polygon class="cls-2" points="307.46 164.28 307.09 165.02 305.87 165.02 304.65 164.28 302.3 164.28 298.74 168.9 297.9 176.67 301.93 178.98 303.9 180.92 303.06 183.23 301.09 185.55 300.34 187.49 300.71 193.77 299.49 196.82 295.93 201.54 295.08 201.54 298.27 207.73 299.12 207.37 300.34 203.85 301.93 202.28 307.09 202.28 317.02 203.48 320.68 204.22 326.22 206.63 331.37 206.99 332.97 207.73 335.4 210.05 337.75 214.76 340.56 218.65 344.97 223.36 348.16 223.36 350.5 219.84 354.16 218.65 355.75 223.36 356.13 228.35 357.72 233.81 358.48 235.01 365.32 235.38 368.13 235.01 377.23 229.56 380.88 226.04 380.04 222.52 377.23 220.58 374.88 217.9 370.1 214.02 369.26 212.45 369.26 210.05 370.48 206.99 375.26 203.85 379.29 202.28 381.26 202.28 385.66 199.6 390.45 194.51 395.6 186.75 396.92 185.13 397.95 184.44 403.57 182.5 405.92 182.5 407.51 182.87 415.11 187.95 425.14 192.57 430.68 199.23 435.46 197.29 439.02 197.29 441.83 199.97 442.21 201.54 439.87 201.91 434.7 206.16 433.86 208.93 433.49 213.56 434.24 219.38 436.3 222.9 441.83 229.19 445.87 231.87 446.99 231.87 446.99 229.19 451.02 226.04 451.4 221.78 453.37 221.42 456.18 223.36 458.15 221.78 463.4 214.76 466.54 211.99 466.54 210.51 464.95 208.93 463.78 208.57 463.78 205.05 462.13 201.54 459.32 199.97 458.99 199.23 459.74 194.51 460.59 192.94 455.43 189.43 450.18 183.23 447.83 181.66 439.02 173.99 433.49 171.59 427.11 170.1 419.52 169.64 412.77 167.7 407.51 165.02 397.2 164.65 394.01 165.39 392.79 166.22 389.61 170.1 388.85 178.61 385.2 180.55 384.07 180.18 383.6 175.47 381.26 174.73 379.29 174.73 369.26 180.18 360.91 181.66 358.48 182.87 354.53 186.75 352.1 187.49 349.38 187.49 344.97 187.12 335.4 182.87 333.44 182.5 320.68 182.5 319.46 179.35 319.46 176.3 316.28 174.36 315.06 168.9 314.31 168.16 309.43 166.59 307.46 164.28"/><polygon class="cls-2" points="275.58 127.48 273.61 128.31 266.86 129.79 261.61 130.16 258.8 129.05 254.01 125.54 249.23 123.23 246.51 123.23 242.1 124.43 237.32 124.8 224.94 121.75 219.41 118.98 217.35 118.98 213.79 122.12 212.94 122.49 211.44 125.54 211.44 126.74 213.79 129.79 213.41 135.99 211.82 137.93 210.6 140.61 212.19 146.81 214.16 150.69 216.6 153.84 220.16 156.52 222.97 156.52 228.51 159.2 231.7 161.97 234.14 163.45 234.89 163.45 237.32 157.62 236.95 155.31 232.54 153.37 231.32 151.43 234.89 149.95 238.07 150.69 242.1 154.2 245.67 159.56 247.26 163.08 251.67 167.34 252.89 167.34 267.61 173.99 274.36 179.35 275.58 193.77 276.43 194.88 280.36 197.29 285.14 198.4 286.36 197.66 283.55 191.83 285.52 190.63 286.74 191 288.71 192.2 291.52 195.34 293.49 201.17 295.08 201.54 295.93 201.54 299.49 196.82 300.71 193.77 300.34 187.49 301.09 185.55 303.06 183.23 303.9 180.92 301.93 178.98 297.9 176.67 298.74 168.9 302.3 164.28 304.65 164.28 305.87 165.02 307.09 165.02 307.46 164.28 304.65 161.51 297.15 157.26 286.74 147.17 282.33 141.45 278.77 133.31 277.55 131.74 276.43 127.48 275.58 127.48"/><polygon class="cls-2" points="327.23 217.87 328.44 218.14 328.17 217.87 324.88 221.38 324.6 225.91 328.82 229.7 329.76 218.52 327.23 217.87"/><text class="cls-3" transform="translate(805.71 256.3)">VENEZUELA</text><text class="cls-3" transform="translate(1076.48 323.58)">SURINAME</text><text class="cls-3" transform="translate(998.61 274.81)">GUIANA</text><text class="cls-3" transform="translate(927.26 420.24)">BRASIL</text><text class="cls-4" transform="translate(1030.23 255.71) scale(1.01 1)">1</text><text class="cls-4" transform="translate(1120.34 303.88) scale(1.01 1)">2</text><text class="cls-4" transform="translate(853.94 235.04) scale(1.01 1)">3</text><text class="cls-4" transform="translate(954.62 401.04) scale(1.01 1)">4</text></g></g></svg>