<svg xmlns="http://www.w3.org/2000/svg" viewBox="0 0 17.89 14.54"><g id="Camada_2" data-name="Camada 2"><g id="_Exemplo_do_grid_" data-name="[Exemplo do grid]"><path d="M17.89,1.72a7.41,7.41,0,0,1-2.11.58,3.72,3.72,0,0,0,1.62-2,7.55,7.55,0,0,1-2.33.89A3.67,3.67,0,0,0,8.72,3.67a3.86,3.86,0,0,0,.09.84A10.48,10.48,0,0,1,1.24.67a3.69,3.69,0,0,0,1.14,4.9A3.58,3.58,0,0,1,.72,5.11v0a3.67,3.67,0,0,0,2.94,3.6,3.77,3.77,0,0,1-1,.13A3.84,3.84,0,0,1,2,8.82a3.66,3.66,0,0,0,3.42,2.55A7.29,7.29,0,0,1,.88,12.94a8.49,8.49,0,0,1-.88,0,10.38,10.38,0,0,0,5.63,1.65A10.37,10.37,0,0,0,16.07,4.1c0-.16,0-.32,0-.48A7.35,7.35,0,0,0,17.89,1.72Z"/></g></g></svg>