<svg xmlns="http://www.w3.org/2000/svg" viewBox="0 0 467.46 235.1"><defs><style>.a{fill:#fff;}</style></defs><title>logo-en</title><path class="a" d="M50.87,70.47V57.33c2.08,0,3.44-.28,4.09-.83a4,4,0,0,0,1-3.14V33L43.82,70.47H30.18L17.86,35V53.79a6.61,6.61,0,0,0,.21,1.86,2,2,0,0,0,.76,1.08,3.26,3.26,0,0,0,1.56.49,25,25,0,0,0,2.53.11V70.47H0V57.33a8.91,8.91,0,0,0,4.46-.83,3.4,3.4,0,0,0,1.35-3.14V35.43a3.44,3.44,0,0,0-1.35-3.17A8.91,8.91,0,0,0,0,31.43V18.29H33.73l8.14,24.48L49,18.29h33.3V31.43a8.8,8.8,0,0,0-4.44.83,3.45,3.45,0,0,0-1.33,3.17V53.36a3.41,3.41,0,0,0,1.33,3.14,8.8,8.8,0,0,0,4.44.83V70.47Z"/><path class="a" d="M124.06,57.33a9.81,9.81,0,0,0,2.43-.25,2.9,2.9,0,0,0,1.56-.94,4,4,0,0,0,.79-1.89,18.61,18.61,0,0,0,.21-3.09h12.4V70.47H91V57.33a8.91,8.91,0,0,0,4.46-.83,3.4,3.4,0,0,0,1.35-3.14V35.43a3.44,3.44,0,0,0-1.35-3.17A8.91,8.91,0,0,0,91,31.43V18.29h50.48V37.6h-12.4a18.61,18.61,0,0,0-.21-3.09,3.84,3.84,0,0,0-.79-1.87,3,3,0,0,0-1.56-.94,9.26,9.26,0,0,0-2.43-.27h-6.38v9.42H129v6.28h-11.3v10.2Z"/><path class="a" d="M150.16,70.47V57.33a9,9,0,0,0,4.47-.83A3.41,3.41,0,0,0,156,53.36V35.43a3.46,3.46,0,0,0-1.34-3.17,9,9,0,0,0-4.47-.83V18.29h37.52a31.86,31.86,0,0,1,8.77,1,14.34,14.34,0,0,1,5.7,2.94,10.52,10.52,0,0,1,3,4.57,18.33,18.33,0,0,1,.9,5.91q0,6-2.87,9.51t-9.17,3.85v.42a14.65,14.65,0,0,1,5.05,1.14,8.33,8.33,0,0,1,3.15,2.39,8.89,8.89,0,0,1,1.63,3.54,20.88,20.88,0,0,1,.48,4.69v1.88a2.57,2.57,0,0,0,.46,1.54,1.89,1.89,0,0,0,2.87,0,2.77,2.77,0,0,0,.42-1.54v-9h4.08v9a13.92,13.92,0,0,1-.77,4.7,9.13,9.13,0,0,1-2.49,3.73,11.67,11.67,0,0,1-4.57,2.47,24.13,24.13,0,0,1-7,.86,21.42,21.42,0,0,1-6.79-.9,9.77,9.77,0,0,1-4.12-2.5,8.67,8.67,0,0,1-2.08-3.7,16.53,16.53,0,0,1-.58-4.44V57.65a26.88,26.88,0,0,0-.32-4.59,6.52,6.52,0,0,0-1-2.73,3.44,3.44,0,0,0-1.9-1.29,11,11,0,0,0-2.83-.32h-.85v5.07a3.26,3.26,0,0,0,1,2.71,6.25,6.25,0,0,0,3.74.83V70.47Zm26.72-28H180c2,0,3.35-.48,4.1-1.44a6.34,6.34,0,0,0,1.11-4,6.65,6.65,0,0,0-1.11-4.29c-.75-.87-2.11-1.31-4.1-1.31h-3.11Z"/><path class="a" d="M243.4,16.87a24,24,0,0,1,8.22,1.4,20.23,20.23,0,0,1,5,2.57V18.29h11.69V37.6H255.88a11.58,11.58,0,0,0-.59-4A7.16,7.16,0,0,0,253.73,31a5.67,5.67,0,0,0-2.28-1.42,9.29,9.29,0,0,0-2.84-.42A7.54,7.54,0,0,0,245,30a5.88,5.88,0,0,0-2.42,2.57,15.4,15.4,0,0,0-1.42,4.71,45.23,45.23,0,0,0-.48,7.15,41.21,41.21,0,0,0,.52,7.18,14.35,14.35,0,0,0,1.55,4.67,6.28,6.28,0,0,0,2.68,2.59,8.81,8.81,0,0,0,3.9.8,7.68,7.68,0,0,0,2.94-.59,6.76,6.76,0,0,0,2.49-1.79,8.52,8.52,0,0,0,1.7-3,13.31,13.31,0,0,0,.62-4.36h12.33A25.45,25.45,0,0,1,268,58.43a18.71,18.71,0,0,1-4.43,7A21.46,21.46,0,0,1,256,70.22a30.94,30.94,0,0,1-11,1.78,37,37,0,0,1-10.86-1.56,24.05,24.05,0,0,1-8.93-4.89,23,23,0,0,1-6-8.56,32,32,0,0,1-2.21-12.56,31.69,31.69,0,0,1,2.24-12.56,24.14,24.14,0,0,1,6-8.55,23.33,23.33,0,0,1,8.45-4.89A31.27,31.27,0,0,1,243.4,16.87Z"/><path class="a" d="M311.1,18.29V31.43a6.25,6.25,0,0,0-3.74.83,3.34,3.34,0,0,0-1,2.75V51.38a10.85,10.85,0,0,0,.28,2.51,5.85,5.85,0,0,0,1,2.15,4.86,4.86,0,0,0,1.85,1.48,6.7,6.7,0,0,0,2.92.55c2.27,0,3.92-.59,5-1.79a7.08,7.08,0,0,0,1.56-4.83V35.15a3.14,3.14,0,0,0-1.31-3,7.33,7.33,0,0,0-3.62-.76V18.29h23.35V31.43a7.81,7.81,0,0,0-3.65.69c-.85.46-1.27,1.43-1.27,2.89v16.9a29.23,29.23,0,0,1-.84,6.78,15.54,15.54,0,0,1-3.26,6.45A17.85,17.85,0,0,1,321.34,70q-4.5,1.94-11.9,1.93a38.45,38.45,0,0,1-9.27-1,24.67,24.67,0,0,1-6.57-2.57,15.12,15.12,0,0,1-4.29-3.63,17.18,17.18,0,0,1-2.46-4.22,18.09,18.09,0,0,1-1.15-4.25,28,28,0,0,1-.28-3.8v-17a3.44,3.44,0,0,0-1.35-3.17,9,9,0,0,0-4.46-.83V18.29Z"/><path class="a" d="M346,70.47V57.33a8.91,8.91,0,0,0,4.46-.83,3.4,3.4,0,0,0,1.35-3.14V35.43a3.44,3.44,0,0,0-1.35-3.17,8.91,8.91,0,0,0-4.46-.83V18.29h37.52a31.91,31.91,0,0,1,8.77,1,14.34,14.34,0,0,1,5.7,2.94,10.61,10.61,0,0,1,3,4.57,18.33,18.33,0,0,1,.9,5.91q0,6-2.87,9.51t-9.18,3.85v.42a14.6,14.6,0,0,1,5.05,1.14,8.29,8.29,0,0,1,3.16,2.39,9,9,0,0,1,1.63,3.54,21.51,21.51,0,0,1,.47,4.69v1.88a2.64,2.64,0,0,0,.46,1.54,1.62,1.62,0,0,0,1.42.66,1.58,1.58,0,0,0,1.45-.66,2.7,2.7,0,0,0,.43-1.54v-9H408v9a13.92,13.92,0,0,1-.76,4.7,9.15,9.15,0,0,1-2.5,3.73,11.6,11.6,0,0,1-4.57,2.47,24.08,24.08,0,0,1-7,.86,21.39,21.39,0,0,1-6.78-.9,9.81,9.81,0,0,1-4.13-2.5,8.76,8.76,0,0,1-2.07-3.7,16.53,16.53,0,0,1-.58-4.44V57.65a26.88,26.88,0,0,0-.32-4.59,6.52,6.52,0,0,0-1.05-2.73A3.38,3.38,0,0,0,376.39,49a11.06,11.06,0,0,0-2.84-.32h-.85v5.07a3.26,3.26,0,0,0,1.05,2.71,6.21,6.21,0,0,0,3.73.83V70.47Zm26.71-28h3.12c2,0,3.35-.48,4.09-1.44A6.28,6.28,0,0,0,381,37a6.58,6.58,0,0,0-1.12-4.29c-.74-.87-2.11-1.31-4.09-1.31H372.7Z"/><path class="a" d="M419.67,35.43a16.59,16.59,0,0,1-1.38-1.54,8.05,8.05,0,0,0-1.22-1.25,5.21,5.21,0,0,0-1.58-.87,6.84,6.84,0,0,0-2.37-.34V18.29h31.14V31.43c-2.08,0-3.46.34-4.13,1s-.65,1.53.05,2.55l4.89,6.8h.29l4.85-6.8c.83-.92.92-1.75.27-2.48s-2.1-1.1-4.34-1.1V18.29h21.32V31.43a7.33,7.33,0,0,0-1.86.21,5.12,5.12,0,0,0-1.48.69,9.18,9.18,0,0,0-1.42,1.24l-1.76,1.86L450.78,47.91v5.45a3.41,3.41,0,0,0,1.34,3.14,9,9,0,0,0,4.47.83V70.47H424.1V57.33a8.91,8.91,0,0,0,4.46-.83,3.4,3.4,0,0,0,1.35-3.14V47.91Z"/><path class="a" d="M19.32,102a17.32,17.32,0,0,1,5.82,1,16,16,0,0,1,2.08.93,16.86,16.86,0,0,1,1.44.89v-1.8h8.28v13.68H28.15a8.38,8.38,0,0,0-.41-2.81,5,5,0,0,0-1.11-1.83,3.93,3.93,0,0,0-1.62-1,6.4,6.4,0,0,0-2-.3,5.38,5.38,0,0,0-2.54.56,4.28,4.28,0,0,0-1.72,1.82,11,11,0,0,0-1,3.34,31.74,31.74,0,0,0-.34,5.07,30.14,30.14,0,0,0,.36,5.09A9.87,9.87,0,0,0,18.88,130a4.45,4.45,0,0,0,1.89,1.84,6.32,6.32,0,0,0,2.76.56,5.56,5.56,0,0,0,2.09-.41,4.87,4.87,0,0,0,1.77-1.27,6.06,6.06,0,0,0,1.2-2.14,9.6,9.6,0,0,0,.44-3.08h8.74a17.9,17.9,0,0,1-1,6,13.16,13.16,0,0,1-3.13,5,15,15,0,0,1-5.43,3.39,21.77,21.77,0,0,1-7.8,1.26A26.16,26.16,0,0,1,12.7,140a17,17,0,0,1-6.33-3.46,16.42,16.42,0,0,1-4.26-6.06,22.72,22.72,0,0,1-1.57-8.91,22.43,22.43,0,0,1,1.59-8.89,17.14,17.14,0,0,1,4.22-6.07,16.5,16.5,0,0,1,6-3.46A22.12,22.12,0,0,1,19.32,102Z"/><path class="a" d="M72.54,123.53H63.9v4.67a2.31,2.31,0,0,0,.74,1.92,4.35,4.35,0,0,0,2.65.59V140H45v-9.32a6.21,6.21,0,0,0,3.16-.59,2.39,2.39,0,0,0,1-2.22V115.2a2.42,2.42,0,0,0-1-2.25,6.32,6.32,0,0,0-3.16-.59v-9.31H67.29v9.31a4.42,4.42,0,0,0-2.65.59,2.35,2.35,0,0,0-.74,2v4h8.64v-4a2.33,2.33,0,0,0-.76-2,4.41,4.41,0,0,0-2.63-.59v-9.31H91.44v9.31a6.27,6.27,0,0,0-3.15.59,2.44,2.44,0,0,0-.94,2.25v12.7a2.4,2.4,0,0,0,.94,2.22,6.17,6.17,0,0,0,3.15.59V140H69.15v-9.32a4.34,4.34,0,0,0,2.63-.59,2.29,2.29,0,0,0,.76-1.92Z"/><path class="a" d="M117.62,127.12h-7.93l-.35,1.08a2,2,0,0,0,0,1.8c.3.48.93.71,1.9.71h1.44V140H97.09v-9.32h1a3.15,3.15,0,0,0,2.43-.71,8.22,8.22,0,0,0,1.19-2.1l5.15-12.7a2.75,2.75,0,0,0,.18-2.15q-.36-.69-2.19-.69h-.53v-9.31h25.81v9.31h-.5c-1.24,0-2,.24-2.22.73a2.56,2.56,0,0,0,.21,2.11l5.15,12.7c.2.47.38.88.54,1.22a2.89,2.89,0,0,0,.59.88,2.1,2.1,0,0,0,.94.54,5.74,5.74,0,0,0,1.52.17h1V140H114.58v-9.32H116a2.19,2.19,0,0,0,1.93-.71,1.9,1.9,0,0,0,.08-1.8ZM111,123.21h5.35l-2.51-7.71h-.21Z"/><path class="a" d="M177.32,116.48H169a6.24,6.24,0,0,0-.89-2.39,7.49,7.49,0,0,0-1.69-1.9,7.81,7.81,0,0,0-2.24-1.25,7.52,7.52,0,0,0-2.53-.44,4.73,4.73,0,0,0-2.56.61,1.86,1.86,0,0,0-1,1.68,2,2,0,0,0,.88,1.67,8.29,8.29,0,0,0,2.31,1.1c.95.31,2,.61,3.26.89s2.46.64,3.73,1.06a29.78,29.78,0,0,1,3.73,1.52,12.25,12.25,0,0,1,3.26,2.28,10.76,10.76,0,0,1,2.31,3.4,11.92,11.92,0,0,1,.88,4.82,9.68,9.68,0,0,1-1.28,5.1,10.34,10.34,0,0,1-3.44,3.46,15.64,15.64,0,0,1-5,2,26.64,26.64,0,0,1-5.83.63,22.93,22.93,0,0,1-5.61-.68,23.27,23.27,0,0,1-5.46-2.21V140h-8.28V126.35h8.28a8.21,8.21,0,0,0,2.91,4.63,7.84,7.84,0,0,0,4.93,1.69,4.46,4.46,0,0,0,2.73-.69,2,2,0,0,0,.91-1.57,2.33,2.33,0,0,0-1.5-2.13,19.27,19.27,0,0,0-3.7-1.34c-1.47-.4-3.09-.84-4.83-1.34a18.32,18.32,0,0,1-4.84-2.13,12.13,12.13,0,0,1-3.7-3.68,10.69,10.69,0,0,1-1.49-6,9.73,9.73,0,0,1,1.18-4.85,11,11,0,0,1,3.16-3.55,14.38,14.38,0,0,1,4.58-2.18,19.68,19.68,0,0,1,5.49-.75,22.29,22.29,0,0,1,6.85.93,19.33,19.33,0,0,1,4.44,2v-2.33h8.29Z"/><path class="a" d="M184.92,140v-9.32a6.28,6.28,0,0,0,3.17-.59,2.4,2.4,0,0,0,.95-2.22V115.2a2.44,2.44,0,0,0-.95-2.25,6.39,6.39,0,0,0-3.17-.59v-9.31h23v9.31a6.27,6.27,0,0,0-3.15.59,2.46,2.46,0,0,0-.94,2.25v12.7a2.42,2.42,0,0,0,.94,2.22,6.17,6.17,0,0,0,3.15.59V140Z"/><path class="a" d="M259.06,103.05v9.31c-1.48,0-2.44.24-2.9.73a2.92,2.92,0,0,0-.69,2.11V140H240.38l-13.11-20.51v8.68q0,1.63,1,2.07a8,8,0,0,0,3.16.44V140H214.12v-9.32a6.23,6.23,0,0,0,3.16-.59,2.38,2.38,0,0,0,.95-2.22V115.2a2.42,2.42,0,0,0-.95-2.25,6.34,6.34,0,0,0-3.16-.59v-9.31h19.73L246.4,122.7v-7.5a2.88,2.88,0,0,0-.69-2.25,4.86,4.86,0,0,0-2.9-.59v-9.31Z"/><path class="a" d="M295.86,140l-.83-2.51a14.23,14.23,0,0,1-4.36,2.51,17.54,17.54,0,0,1-6.39,1.08A26,26,0,0,1,276.6,140a17,17,0,0,1-6.31-3.46,16.44,16.44,0,0,1-4.27-6.06,22.72,22.72,0,0,1-1.57-8.91,21.53,21.53,0,0,1,1.67-8.89,16.93,16.93,0,0,1,10.56-9.53,22.79,22.79,0,0,1,7.05-1.11,19.92,19.92,0,0,1,3.8.33,17.63,17.63,0,0,1,3,.82,12.89,12.89,0,0,1,2.16,1l1.43.9v-2.06h8.28v13.68H293.6a6.57,6.57,0,0,0-1.6-4.31,5.33,5.33,0,0,0-4.15-1.64,6.5,6.5,0,0,0-2.54.49,5,5,0,0,0-2.08,1.72,9.34,9.34,0,0,0-1.42,3.31,22.66,22.66,0,0,0-.52,5.27,32.68,32.68,0,0,0,.34,5.09,10.14,10.14,0,0,0,1.06,3.31,4.42,4.42,0,0,0,1.82,1.84,5.84,5.84,0,0,0,2.66.56,5.47,5.47,0,0,0,.89-.08,4.45,4.45,0,0,0,1-.26,2.83,2.83,0,0,0,.85-.49,1,1,0,0,0,.37-.83v-1.38a2.11,2.11,0,0,0-.81-1.79,5.22,5.22,0,0,0-3-.62v-8.28h21.19v8.28a6.32,6.32,0,0,0-3.16.59,2.41,2.41,0,0,0-1,2.22V140Z"/><path class="a" d="M373.37,103.05v14.71h-8.26c0-1.12,0-2.1-.08-2.93a7,7,0,0,0-.39-2,2.18,2.18,0,0,0-.92-1.13,3.14,3.14,0,0,0-1.64-.37h-1.56V127.9a2.4,2.4,0,0,0,1,2.22,6.25,6.25,0,0,0,3.17.59V140h-23v-9.32a6.17,6.17,0,0,0,3.15-.59,2.42,2.42,0,0,0,.94-2.22V111.33h-1.53a3.15,3.15,0,0,0-1.65.37,2.25,2.25,0,0,0-.93,1.13,6.37,6.37,0,0,0-.39,2c0,.83-.07,1.81-.07,2.93h-8.29V103.05Z"/><path class="a" d="M406.61,123.53H398v4.67a2.29,2.29,0,0,0,.75,1.92,4.31,4.31,0,0,0,2.64.59V140H379.05v-9.32a6.23,6.23,0,0,0,3.16-.59,2.4,2.4,0,0,0,1-2.22V115.2a2.44,2.44,0,0,0-1-2.25,6.34,6.34,0,0,0-3.16-.59v-9.31h22.31v9.31a4.38,4.38,0,0,0-2.64.59,2.33,2.33,0,0,0-.75,2v4h8.64v-4a2.33,2.33,0,0,0-.75-2,4.43,4.43,0,0,0-2.64-.59v-9.31h22.3v9.31a6.29,6.29,0,0,0-3.16.59,2.46,2.46,0,0,0-.94,2.25v12.7a2.42,2.42,0,0,0,.94,2.22,6.18,6.18,0,0,0,3.16.59V140h-22.3v-9.32a4.35,4.35,0,0,0,2.64-.59,2.29,2.29,0,0,0,.75-1.92Z"/><path class="a" d="M455.14,130.71a7.56,7.56,0,0,0,1.72-.17,2.08,2.08,0,0,0,1.1-.67,2.71,2.71,0,0,0,.57-1.34,13,13,0,0,0,.15-2.18h8.78V140H431.69v-9.32a6.23,6.23,0,0,0,3.16-.59,2.38,2.38,0,0,0,.95-2.22V115.2a2.42,2.42,0,0,0-.95-2.25,6.34,6.34,0,0,0-3.16-.59v-9.31h35.77v13.68h-8.78a12.87,12.87,0,0,0-.15-2.18,2.71,2.71,0,0,0-.57-1.34,2.26,2.26,0,0,0-1.1-.66,6.49,6.49,0,0,0-1.72-.19h-4.52V119h8v4.44h-8v7.23Z"/><path class="a" d="M.54,194a21.21,21.21,0,0,1,1.6-8.55,16.53,16.53,0,0,1,4.54-6.16,19.38,19.38,0,0,1,7-3.71,30,30,0,0,1,8.9-1.24,30.15,30.15,0,0,1,8.9,1.24,19.38,19.38,0,0,1,7,3.71,16.59,16.59,0,0,1,4.52,6.16A21.21,21.21,0,0,1,44.53,194a21.73,21.73,0,0,1-1.63,8.53,17.36,17.36,0,0,1-5,6.63,3.65,3.65,0,0,0,1.13.9,3.35,3.35,0,0,0,1.6.39,3.08,3.08,0,0,0,2-.57,3.39,3.39,0,0,0,1-1.4,6.51,6.51,0,0,0,.41-1.78c.06-.64.11-1.2.14-1.69h2.38c0,4.42-.66,7.69-2,9.83a6.72,6.72,0,0,1-6.17,3.21,7.75,7.75,0,0,1-4.77-1.4,11.29,11.29,0,0,1-3.24-4c-1.35.32-2.58.57-3.7.73a28.26,28.26,0,0,1-4.16.26,30.34,30.34,0,0,1-8.9-1.24,19.42,19.42,0,0,1-7-3.73,16.69,16.69,0,0,1-4.54-6.16A21.18,21.18,0,0,1,.54,194Zm17,0c0,1.13,0,2.15.05,3.07s.1,1.75.2,2.51a8,8,0,0,1,2-1.32,6.59,6.59,0,0,1,2.94-.6,9.4,9.4,0,0,1,2.45.32,12.59,12.59,0,0,1,2.2.82q.09-1,.15-2.22c0-.8.05-1.66.05-2.58a48.85,48.85,0,0,0-.23-5.11,11.35,11.35,0,0,0-.8-3.36A3.78,3.78,0,0,0,25,183.73a4.8,4.8,0,0,0-2.43-.57,4.78,4.78,0,0,0-2.47.57,3.92,3.92,0,0,0-1.53,1.83,11.35,11.35,0,0,0-.8,3.36A49.16,49.16,0,0,0,17.52,194Zm5,10.86a4,4,0,0,0,3.67-1.77,6.06,6.06,0,0,0-2-1.9,4.74,4.74,0,0,0-2.45-.72,2.69,2.69,0,0,0-2.11.69,2.15,2.15,0,0,0-.59,1.38,1.85,1.85,0,0,0,1.06,1.75A5,5,0,0,0,22.54,204.89Z"/><path class="a" d="M74.44,175.38v9.38a4.42,4.42,0,0,0-2.67.59,2.39,2.39,0,0,0-.74,2V199a8,8,0,0,0,.2,1.79,4.13,4.13,0,0,0,.7,1.53,3.29,3.29,0,0,0,1.31,1.06,4.7,4.7,0,0,0,2.08.4,4.46,4.46,0,0,0,3.54-1.28A5.07,5.07,0,0,0,80,199V187.41A2.23,2.23,0,0,0,79,185.3a5.19,5.19,0,0,0-2.58-.54v-9.38H93.11v9.38a5.54,5.54,0,0,0-2.6.49,2.12,2.12,0,0,0-.91,2.06v12.05A21.39,21.39,0,0,1,89,204.2a11.17,11.17,0,0,1-2.33,4.6,12.85,12.85,0,0,1-4.94,3.46,21.81,21.81,0,0,1-8.49,1.38,27.62,27.62,0,0,1-6.61-.7A17.44,17.44,0,0,1,62,211.11a10.86,10.86,0,0,1-3.06-2.59,12.38,12.38,0,0,1-1.76-3,13.17,13.17,0,0,1-.82-3,21,21,0,0,1-.2-2.72V187.61a2.45,2.45,0,0,0-1-2.26,6.29,6.29,0,0,0-3.18-.59v-9.38Z"/><path class="a" d="M99.32,212.6v-9.37a6.29,6.29,0,0,0,3.19-.6,2.41,2.41,0,0,0,1-2.23V187.61a2.45,2.45,0,0,0-1-2.26,6.31,6.31,0,0,0-3.19-.59v-9.38h23.17v9.38a6.23,6.23,0,0,0-3.17.59,2.47,2.47,0,0,0-.94,2.26V200.4a2.42,2.42,0,0,0,.94,2.23,6.21,6.21,0,0,0,3.17.6v9.37Z"/><path class="a" d="M147.86,174.37a16.77,16.77,0,0,1,3.17.28,15.92,15.92,0,0,1,2.69.72,14,14,0,0,1,2.1.93,14.5,14.5,0,0,1,1.44.9v-1.82h8.34v13.77h-8.85a8.51,8.51,0,0,0-.41-2.83,5,5,0,0,0-1.12-1.84,3.9,3.9,0,0,0-1.63-1,6.25,6.25,0,0,0-2-.31,5.33,5.33,0,0,0-2.55.57,4.27,4.27,0,0,0-1.73,1.83,11.17,11.17,0,0,0-1,3.36,32.19,32.19,0,0,0-.34,5.11,30.52,30.52,0,0,0,.36,5.12,10.21,10.21,0,0,0,1.12,3.33,4.42,4.42,0,0,0,1.9,1.84,6.3,6.3,0,0,0,2.78.57,5.57,5.57,0,0,0,2.1-.41A4.93,4.93,0,0,0,156,203.2a6.14,6.14,0,0,0,1.22-2.15,9.75,9.75,0,0,0,.44-3.11h8.79a18.15,18.15,0,0,1-1,6.07,13.22,13.22,0,0,1-3.16,5,15.27,15.27,0,0,1-5.46,3.41,21.79,21.79,0,0,1-7.85,1.27,26.17,26.17,0,0,1-7.75-1.12,17.17,17.17,0,0,1-6.37-3.48,16.55,16.55,0,0,1-4.29-6.1,26,26,0,0,1,0-17.92,17.23,17.23,0,0,1,4.25-6.1,16.78,16.78,0,0,1,6-3.49A22.43,22.43,0,0,1,147.86,174.37Z"/><path class="a" d="M192.73,190.92l5-3.11a2.82,2.82,0,0,0,1.23-1.05,1.27,1.27,0,0,0,.15-1,1.26,1.26,0,0,0-.66-.73,2.26,2.26,0,0,0-1.17-.29v-9.38h20.39v9.38a10.4,10.4,0,0,0-2.83.34,11.1,11.1,0,0,0-2.7,1.22l-5.24,3.08,8.49,11c.31.43.61.83.9,1.17a5.7,5.7,0,0,0,1,.89,4.08,4.08,0,0,0,1.21.56,6.13,6.13,0,0,0,1.74.21v9.37H197.28v-9.37a3.16,3.16,0,0,0,1.58-.31,1.33,1.33,0,0,0,.62-.74,1.4,1.4,0,0,0,0-.86,2.38,2.38,0,0,0-.3-.62l-3.64-4.55-2.78,1.69v2.86c0,.45,0,.83.05,1.14a1.32,1.32,0,0,0,.33.77,1.63,1.63,0,0,0,.82.46,5.28,5.28,0,0,0,1.48.16v9.37H173.68v-9.37a6.28,6.28,0,0,0,3.18-.6,2.41,2.41,0,0,0,1-2.23V187.61a2.45,2.45,0,0,0-1-2.26,6.29,6.29,0,0,0-3.18-.59v-9.38h21.73v9.38a5.75,5.75,0,0,0-1.48.15,1.63,1.63,0,0,0-.82.46,1.37,1.37,0,0,0-.33.79c0,.31-.05.69-.05,1.15Z"/><path class="a" d="M260.09,188.9h-8.34a6.3,6.3,0,0,0-.9-2.4,7.62,7.62,0,0,0-1.7-1.92,7.76,7.76,0,0,0-2.25-1.25,7.44,7.44,0,0,0-2.55-.44,4.93,4.93,0,0,0-2.58.6,1.9,1.9,0,0,0-1,1.69,2,2,0,0,0,.89,1.68A8.22,8.22,0,0,0,244,188c1,.31,2.06.61,3.29.89s2.48.64,3.75,1.07a31.66,31.66,0,0,1,3.75,1.52,12.71,12.71,0,0,1,3.29,2.3,10.75,10.75,0,0,1,2.32,3.43,12,12,0,0,1,.89,4.85,9.72,9.72,0,0,1-1.29,5.13,10.65,10.65,0,0,1-3.46,3.48,15.79,15.79,0,0,1-5,2,26.85,26.85,0,0,1-5.86.63,23.19,23.19,0,0,1-5.65-.68,23.51,23.51,0,0,1-5.49-2.22v2.22h-8.34V198.83h8.34a8.18,8.18,0,0,0,2.93,4.66,7.83,7.83,0,0,0,5,1.71,4.49,4.49,0,0,0,2.76-.7,2,2,0,0,0,.9-1.58,2.36,2.36,0,0,0-1.5-2.15,20,20,0,0,0-3.73-1.35q-2.22-.58-4.86-1.34a18.33,18.33,0,0,1-4.86-2.14,12.11,12.11,0,0,1-3.73-3.71,10.81,10.81,0,0,1-1.5-6,9.87,9.87,0,0,1,1.18-4.88,11.23,11.23,0,0,1,3.19-3.57,14.58,14.58,0,0,1,4.61-2.2,19.89,19.89,0,0,1,5.52-.74,22.59,22.59,0,0,1,6.9.93,19.17,19.17,0,0,1,4.47,2v-2.35h8.34Z"/><path class="a" d="M267.74,212.6v-9.37a6.28,6.28,0,0,0,3.18-.6,2.41,2.41,0,0,0,1-2.23V187.61a2.45,2.45,0,0,0-1-2.26,6.29,6.29,0,0,0-3.18-.59v-9.38h23.17v9.38a6.23,6.23,0,0,0-3.17.59,2.47,2.47,0,0,0-.95,2.26V200.4a2.42,2.42,0,0,0,.95,2.23,6.21,6.21,0,0,0,3.17.6v9.37Z"/><path class="a" d="M320.29,184.76a6.23,6.23,0,0,0-3.17.59,2.47,2.47,0,0,0-.95,2.26v15.62h5.06A6.18,6.18,0,0,0,323,203a1.86,1.86,0,0,0,1.11-.84,4.65,4.65,0,0,0,.57-1.81,22.68,22.68,0,0,0,.17-3.08h8.84V212.6H297.12v-9.37a6.32,6.32,0,0,0,3.19-.6,2.41,2.41,0,0,0,1-2.23V187.61a2.45,2.45,0,0,0-1-2.26,6.34,6.34,0,0,0-3.19-.59v-9.38h23.17Z"/><path class="a" d="M341,187.61c-.21-.52-.39-1-.57-1.3a2.8,2.8,0,0,0-.71-.89,2.59,2.59,0,0,0-1.11-.51,8.34,8.34,0,0,0-1.76-.15v-9.38h21.94v9.38q-3.76,0-2.89,2.55l3.92,12.25H360l4-12.25q.89-2.55-2.88-2.55v-9.38h14.68v9.38a8.34,8.34,0,0,0-1.76.15,2.59,2.59,0,0,0-1.11.51,2.64,2.64,0,0,0-.7.89c-.17.34-.36.78-.58,1.3l-9.78,25H350.69Z"/><path class="a" d="M404.6,203.23a7,7,0,0,0,1.73-.18,2,2,0,0,0,1.11-.67A2.79,2.79,0,0,0,408,201a13.29,13.29,0,0,0,.15-2.2H417V212.6H381v-9.37a6.32,6.32,0,0,0,3.19-.6,2.41,2.41,0,0,0,1-2.23V187.61a2.45,2.45,0,0,0-1-2.26,6.34,6.34,0,0,0-3.19-.59v-9.38h36v13.77h-8.85A13.29,13.29,0,0,0,408,187a2.71,2.71,0,0,0-.57-1.34,2.15,2.15,0,0,0-1.11-.67,7,7,0,0,0-1.73-.18h-4.55v6.72h8.06V196h-8.06v7.28Z"/><path class="a" d="M423.22,212.6v-9.37a6.28,6.28,0,0,0,3.18-.6,2.41,2.41,0,0,0,1-2.23V187.61a2.45,2.45,0,0,0-1-2.26,6.29,6.29,0,0,0-3.18-.59v-9.38H450a23.2,23.2,0,0,1,6.25.73,10.36,10.36,0,0,1,4.07,2.1,7.59,7.59,0,0,1,2.17,3.26,13,13,0,0,1,.65,4.22,10.5,10.5,0,0,1-2.05,6.78c-1.36,1.7-3.55,2.61-6.54,2.75v.3a10.35,10.35,0,0,1,3.6.81,6,6,0,0,1,2.25,1.7,6.48,6.48,0,0,1,1.16,2.53,14.82,14.82,0,0,1,.34,3.35v1.34a1.88,1.88,0,0,0,.33,1.1,1.14,1.14,0,0,0,1,.46,1.12,1.12,0,0,0,1-.46,1.94,1.94,0,0,0,.31-1.1v-6.42h2.9v6.42a10,10,0,0,1-.54,3.35,6.65,6.65,0,0,1-1.78,2.66,8.45,8.45,0,0,1-3.26,1.76,17.33,17.33,0,0,1-5,.62,15.22,15.22,0,0,1-4.84-.65,7.08,7.08,0,0,1-2.94-1.78,6.29,6.29,0,0,1-1.48-2.64,11.72,11.72,0,0,1-.42-3.17v-2a19.25,19.25,0,0,0-.22-3.27,4.66,4.66,0,0,0-.75-1.94,2.38,2.38,0,0,0-1.35-.93,7.89,7.89,0,0,0-2-.22h-.61v3.61a2.31,2.31,0,0,0,.75,1.93,4.35,4.35,0,0,0,2.66.6v9.37Zm19-20h2.23a3.51,3.51,0,0,0,2.91-1,4.52,4.52,0,0,0,.8-2.84,4.7,4.7,0,0,0-.8-3.06,3.7,3.7,0,0,0-2.91-.93h-2.23Z"/><rect class="a" x="0.25" y="153.83" width="467.21" height="6.37"/><polyline class="a" points="0.25 81.56 467.46 81.56 467.46 87.93 0.25 87.93"/></svg>