<svg xmlns="http://www.w3.org/2000/svg" viewBox="0 0 468.14 241.59"><defs><style>.a{fill:#fff;}</style></defs><title>logo-pt</title><path class="a" d="M45.83,73.37V61.53q2.82,0,3.69-.75A3.59,3.59,0,0,0,50.4,58V39.64L39.48,73.37H27.19L16.09,41.42V58.34A5.88,5.88,0,0,0,16.28,60,1.84,1.84,0,0,0,17,61a3.08,3.08,0,0,0,1.41.45q.91.09,2.28.09V73.37H0V61.53a8,8,0,0,0,4-.75A3,3,0,0,0,5.23,58V41.81A3.09,3.09,0,0,0,4,39a8,8,0,0,0-4-.75V26.36H30.39l7.34,22,6.38-22h30V38.2a7.9,7.9,0,0,0-4,.75,3.1,3.1,0,0,0-1.2,2.86V58a3.06,3.06,0,0,0,1.2,2.82,7.9,7.9,0,0,0,4,.75V73.37Z"/><path class="a" d="M111.77,61.53a9.07,9.07,0,0,0,2.19-.22,2.62,2.62,0,0,0,1.4-.85,3.55,3.55,0,0,0,.72-1.71,16.13,16.13,0,0,0,.19-2.77h11.17V73.37H82V61.53a8,8,0,0,0,4-.75A3,3,0,0,0,87.19,58V41.81A3.09,3.09,0,0,0,86,39a8,8,0,0,0-4-.75V26.36h45.48V43.75H116.27a16.21,16.21,0,0,0-.19-2.77,3.51,3.51,0,0,0-.72-1.7,2.8,2.8,0,0,0-1.4-.84,8.5,8.5,0,0,0-2.19-.24H106v8.49h10.18v5.65H106v9.19Z"/><path class="a" d="M135.29,73.37V61.53a8,8,0,0,0,4-.75A3,3,0,0,0,140.52,58V41.81A3.09,3.09,0,0,0,139.31,39a8,8,0,0,0-4-.75V26.36h33.8a29.19,29.19,0,0,1,7.9.92,13.06,13.06,0,0,1,5.14,2.65,9.5,9.5,0,0,1,2.74,4.12,16.29,16.29,0,0,1,.82,5.33A13.23,13.23,0,0,1,183.1,48c-1.72,2.14-4.48,3.29-8.26,3.46v.39a12.85,12.85,0,0,1,4.55,1A7.58,7.58,0,0,1,182.23,55a7.94,7.94,0,0,1,1.46,3.19,18.79,18.79,0,0,1,.43,4.23v1.69a2.31,2.31,0,0,0,.42,1.39,1.72,1.72,0,0,0,2.59,0,2.51,2.51,0,0,0,.38-1.39V56h3.67v8.1a12.43,12.43,0,0,1-.69,4.23,8.35,8.35,0,0,1-2.25,3.37,10.45,10.45,0,0,1-4.12,2.22,21.72,21.72,0,0,1-6.28.78,19.26,19.26,0,0,1-6.11-.81A9,9,0,0,1,168,71.62a7.85,7.85,0,0,1-1.87-3.34,14.92,14.92,0,0,1-.53-4V61.82a23.06,23.06,0,0,0-.29-4.13,5.73,5.73,0,0,0-.94-2.46,3,3,0,0,0-1.7-1.17,10,10,0,0,0-2.56-.29h-.76v4.57a2.92,2.92,0,0,0,.94,2.44,5.6,5.6,0,0,0,3.37.75V73.37Zm24.07-25.24h2.81c1.78,0,3-.44,3.68-1.3a5.72,5.72,0,0,0,1-3.59,5.93,5.93,0,0,0-1-3.86c-.67-.79-1.9-1.18-3.68-1.18h-2.81Z"/><path class="a" d="M219.3,25.08a22,22,0,0,1,4,.35,22.31,22.31,0,0,1,3.4.91,19.12,19.12,0,0,1,2.65,1.18,20.19,20.19,0,0,1,1.82,1.14v-2.3H241.7V43.75H230.53a10.5,10.5,0,0,0-.53-3.57,6.27,6.27,0,0,0-1.4-2.33,5,5,0,0,0-2.06-1.28,8.41,8.41,0,0,0-2.55-.38,6.76,6.76,0,0,0-3.23.72,5.38,5.38,0,0,0-2.18,2.31,13.84,13.84,0,0,0-1.28,4.25,40.52,40.52,0,0,0-.43,6.44,37.76,37.76,0,0,0,.46,6.47,12.8,12.8,0,0,0,1.41,4.21,5.67,5.67,0,0,0,2.41,2.33,7.91,7.91,0,0,0,3.51.72,6.92,6.92,0,0,0,2.65-.53,6.19,6.19,0,0,0,2.25-1.61,7.74,7.74,0,0,0,1.53-2.71,12.28,12.28,0,0,0,.56-3.93h11.11a22.81,22.81,0,0,1-1.28,7.66,16.66,16.66,0,0,1-4,6.32,19.28,19.28,0,0,1-6.9,4.31,27.84,27.84,0,0,1-9.92,1.6,33.23,33.23,0,0,1-9.78-1.41,21.67,21.67,0,0,1-8-4.4,20.8,20.8,0,0,1-5.42-7.71,28.94,28.94,0,0,1-2-11.32,28.54,28.54,0,0,1,2-11.31,21.76,21.76,0,0,1,5.36-7.71,21.14,21.14,0,0,1,7.61-4.41A28.45,28.45,0,0,1,219.3,25.08Z"/><path class="a" d="M280.29,26.36V38.2a5.6,5.6,0,0,0-3.37.75,3,3,0,0,0-.94,2.47V56.17a9.93,9.93,0,0,0,.25,2.27,5.23,5.23,0,0,0,.88,1.93,4.34,4.34,0,0,0,1.66,1.34,6.11,6.11,0,0,0,2.63.49,5.63,5.63,0,0,0,4.47-1.61,6.39,6.39,0,0,0,1.41-4.36V41.55a2.81,2.81,0,0,0-1.18-2.66,6.5,6.5,0,0,0-3.26-.69V26.36h21V38.2a7.05,7.05,0,0,0-3.28.62,2.68,2.68,0,0,0-1.15,2.6V56.65a26.56,26.56,0,0,1-.75,6.11,14.06,14.06,0,0,1-2.94,5.81,16.35,16.35,0,0,1-6.24,4.37,27.58,27.58,0,0,1-10.72,1.74,34.38,34.38,0,0,1-8.35-.88,22,22,0,0,1-5.92-2.31,13.59,13.59,0,0,1-3.86-3.27,15.43,15.43,0,0,1-2.22-3.8,16.48,16.48,0,0,1-1-3.83,25.52,25.52,0,0,1-.25-3.43V41.81A3.09,3.09,0,0,0,255.93,39a8,8,0,0,0-4-.75V26.36ZM297,13.91l-11.68,9.86h-7.86l6.67-9.86Z"/><path class="a" d="M311.72,73.37V61.53a8,8,0,0,0,4-.75A3,3,0,0,0,317,58V41.81A3.09,3.09,0,0,0,315.74,39a8,8,0,0,0-4-.75V26.36h33.8a29.19,29.19,0,0,1,7.9.92,13.06,13.06,0,0,1,5.14,2.65,9.5,9.5,0,0,1,2.74,4.12,16.29,16.29,0,0,1,.82,5.33A13.23,13.23,0,0,1,359.53,48c-1.72,2.14-4.48,3.29-8.26,3.46v.39a12.74,12.74,0,0,1,4.54,1A7.54,7.54,0,0,1,358.66,55a7.94,7.94,0,0,1,1.46,3.19,18.79,18.79,0,0,1,.43,4.23v1.69a2.31,2.31,0,0,0,.42,1.39,1.72,1.72,0,0,0,2.59,0,2.51,2.51,0,0,0,.38-1.39V56h3.67v8.1a12.43,12.43,0,0,1-.69,4.23,8.35,8.35,0,0,1-2.25,3.37,10.45,10.45,0,0,1-4.12,2.22,21.72,21.72,0,0,1-6.28.78,19.37,19.37,0,0,1-6.12-.81,9.06,9.06,0,0,1-3.71-2.25,7.85,7.85,0,0,1-1.87-3.34,14.92,14.92,0,0,1-.53-4V61.82a23.06,23.06,0,0,0-.29-4.13,5.73,5.73,0,0,0-.94-2.46,3,3,0,0,0-1.7-1.17,10,10,0,0,0-2.56-.29h-.76v4.57a2.92,2.92,0,0,0,.94,2.44,5.57,5.57,0,0,0,3.37.75V73.37Zm24.07-25.24h2.81c1.78,0,3-.44,3.68-1.3a5.72,5.72,0,0,0,1-3.59,5.93,5.93,0,0,0-1-3.86c-.67-.79-1.9-1.18-3.68-1.18h-2.81Z"/><path class="a" d="M374.15,73.37V61.53a8,8,0,0,0,4-.75A3,3,0,0,0,379.38,58V41.81A3.09,3.09,0,0,0,378.17,39a8,8,0,0,0-4-.75V26.36h29.27V38.2a7.92,7.92,0,0,0-4,.75,3.1,3.1,0,0,0-1.2,2.86V58a3.06,3.06,0,0,0,1.2,2.82,7.92,7.92,0,0,0,4,.75V73.37Z"/><path class="a" d="M411.58,49.91a26.82,26.82,0,0,1,2-10.8,20.9,20.9,0,0,1,5.73-7.77,24.75,24.75,0,0,1,8.79-4.7,41.31,41.31,0,0,1,22.49,0,24.58,24.58,0,0,1,8.79,4.7,21,21,0,0,1,5.71,7.77,26.82,26.82,0,0,1,2,10.8,26.78,26.78,0,0,1-2,10.78,21.16,21.16,0,0,1-5.71,7.78,24.3,24.3,0,0,1-8.79,4.71,41.06,41.06,0,0,1-22.49,0,24.46,24.46,0,0,1-8.79-4.71,21.1,21.1,0,0,1-5.73-7.78A26.78,26.78,0,0,1,411.58,49.91Zm21.45,0a61,61,0,0,0,.29,6.47,14.3,14.3,0,0,0,1,4.21,4.94,4.94,0,0,0,1.93,2.33,7,7,0,0,0,6.2,0,4.93,4.93,0,0,0,2-2.33,14.3,14.3,0,0,0,1-4.21,61,61,0,0,0,.29-6.47,61.28,61.28,0,0,0-.29-6.44,14.2,14.2,0,0,0-1-4.25,4.93,4.93,0,0,0-2-2.31,7,7,0,0,0-6.2,0,4.93,4.93,0,0,0-1.93,2.31,14.2,14.2,0,0,0-1,4.25A61.28,61.28,0,0,0,433,49.91Z"/><path class="a" d="M25.81,105.39v10.67a5,5,0,0,0-3,.67,2.67,2.67,0,0,0-.85,2.23v13.29a9.18,9.18,0,0,0,.23,2A4.76,4.76,0,0,0,23,136a3.9,3.9,0,0,0,1.5,1.2,5.44,5.44,0,0,0,2.37.45,5.08,5.08,0,0,0,4-1.45,5.8,5.8,0,0,0,1.26-3.93V119.07a2.55,2.55,0,0,0-1.06-2.4,5.9,5.9,0,0,0-2.94-.61V105.39h19v10.67a6.26,6.26,0,0,0-3,.56,2.41,2.41,0,0,0-1,2.34v13.72a23.9,23.9,0,0,1-.68,5.5,12.75,12.75,0,0,1-2.64,5.24,14.76,14.76,0,0,1-5.63,3.94,24.92,24.92,0,0,1-9.66,1.56,31.1,31.1,0,0,1-7.52-.79,19.76,19.76,0,0,1-5.33-2.08,12.23,12.23,0,0,1-3.48-3,13.94,13.94,0,0,1-2-3.42,15.08,15.08,0,0,1-.94-3.45A23.47,23.47,0,0,1,5,133.14V119.3a2.78,2.78,0,0,0-1.09-2.57,7.22,7.22,0,0,0-3.62-.67V105.39Z"/><path class="a" d="M95.43,147.74V137.08a5.54,5.54,0,0,0,3.32-.68,3.28,3.28,0,0,0,.79-2.54V117.35L89.7,147.74H78.63L68.63,119V134.2a5.14,5.14,0,0,0,.17,1.51,1.61,1.61,0,0,0,.62.88,2.67,2.67,0,0,0,1.26.4,19.45,19.45,0,0,0,2.06.09v10.66H54.13V137.08a7.24,7.24,0,0,0,3.63-.68,2.77,2.77,0,0,0,1.09-2.54V119.3a2.8,2.8,0,0,0-1.09-2.57,7.26,7.26,0,0,0-3.63-.67V105.39H81.51l6.61,19.87,5.75-19.87h27v10.67a7.17,7.17,0,0,0-3.61.67,2.82,2.82,0,0,0-1.07,2.57v14.56a2.78,2.78,0,0,0,1.07,2.54,7.16,7.16,0,0,0,3.61.68v10.66Z"/><path class="a" d="M150.89,133H141.8l-.4,1.24a2.26,2.26,0,0,0,.06,2.06,2.42,2.42,0,0,0,2.19.82h1.63v10.66H127.37V137.08h1.18a3.61,3.61,0,0,0,2.77-.82,9.23,9.23,0,0,0,1.37-2.4l5.89-14.56a3.09,3.09,0,0,0,.22-2.45c-.28-.53-1.12-.79-2.52-.79h-.6V105.39h29.56v10.67h-.57c-1.42,0-2.27.27-2.55.83a2.94,2.94,0,0,0,.25,2.41l5.89,14.56c.23.53.44,1,.62,1.39a3.63,3.63,0,0,0,.67,1,2.58,2.58,0,0,0,1.08.62,6.4,6.4,0,0,0,1.74.2h1.18v10.66H147.41V137.08H149a2.5,2.5,0,0,0,2.2-.82,2.14,2.14,0,0,0,.1-2.06Zm-7.62-4.48h6.13l-2.88-8.83h-.23Z"/><path class="a" d="M224.21,104.24a19.66,19.66,0,0,1,3.61.31,20,20,0,0,1,3.06.82,16.45,16.45,0,0,1,2.39,1.07,16.28,16.28,0,0,1,1.64,1v-2.07h9.49v15.67H234.33a9.57,9.57,0,0,0-.47-3.22,5.86,5.86,0,0,0-1.27-2.1,4.48,4.48,0,0,0-1.85-1.15,7.44,7.44,0,0,0-2.3-.35,6.13,6.13,0,0,0-2.91.65,4.88,4.88,0,0,0-2,2.09,12.47,12.47,0,0,0-1.15,3.82,36.76,36.76,0,0,0-.39,5.81,33.74,33.74,0,0,0,.42,5.82,11.58,11.58,0,0,0,1.27,3.8,5,5,0,0,0,2.17,2.1A7.13,7.13,0,0,0,229,139a6.17,6.17,0,0,0,2.39-.47,5.59,5.59,0,0,0,2-1.45,6.85,6.85,0,0,0,1.38-2.45,10.75,10.75,0,0,0,.51-3.53h10a20.48,20.48,0,0,1-1.16,6.9,15,15,0,0,1-3.59,5.69,17.44,17.44,0,0,1-6.21,3.88,25,25,0,0,1-8.94,1.44,30.24,30.24,0,0,1-8.82-1.26,19.57,19.57,0,0,1-7.24-4,18.57,18.57,0,0,1-4.89-6.95,26,26,0,0,1-1.8-10.19,25.6,25.6,0,0,1,1.83-10.19,19.39,19.39,0,0,1,4.83-7,19.11,19.11,0,0,1,6.86-4A25.49,25.49,0,0,1,224.21,104.24Z"/><path class="a" d="M285.17,128.85h-9.9v5.35a2.66,2.66,0,0,0,.85,2.2,5.06,5.06,0,0,0,3,.68v10.66H253.59V137.08a7.24,7.24,0,0,0,3.63-.68,2.77,2.77,0,0,0,1.09-2.54V119.3a2.8,2.8,0,0,0-1.09-2.57,7.26,7.26,0,0,0-3.63-.67V105.39h25.57v10.67a5.07,5.07,0,0,0-3,.67,2.7,2.7,0,0,0-.85,2.23v4.63h9.9V119a2.65,2.65,0,0,0-.87-2.23,5,5,0,0,0-3-.67V105.39h25.54v10.67a7.15,7.15,0,0,0-3.61.67,2.8,2.8,0,0,0-1.08,2.57v14.56a2.76,2.76,0,0,0,1.08,2.54,7.13,7.13,0,0,0,3.61.68v10.66H281.28V137.08a5,5,0,0,0,3-.68,2.61,2.61,0,0,0,.87-2.2Z"/><path class="a" d="M336.81,133h-9.09l-.4,1.24a2.23,2.23,0,0,0,.06,2.06,2.41,2.41,0,0,0,2.18.82h1.64v10.66H313.29V137.08h1.17a3.63,3.63,0,0,0,2.78-.82,9.52,9.52,0,0,0,1.37-2.4l5.89-14.56a3.18,3.18,0,0,0,.22-2.45c-.28-.53-1.12-.79-2.52-.79h-.6V105.39h29.56v10.67h-.58c-1.42,0-2.27.27-2.54.83a3,3,0,0,0,.24,2.41l5.9,14.56c.23.53.43,1,.62,1.39a3.63,3.63,0,0,0,.67,1,2.58,2.58,0,0,0,1.08.62,6.4,6.4,0,0,0,1.74.2h1.18v10.66H333.33V137.08h1.58a2.52,2.52,0,0,0,2.2-.82,2.16,2.16,0,0,0,.1-2.06Zm-7.62-4.48h6.12l-2.87-8.83h-.23Z"/><path class="a" d="M401.65,147.74l-.95-2.87a16.07,16.07,0,0,1-5,2.87,20,20,0,0,1-7.32,1.24,30.1,30.1,0,0,1-8.8-1.26,19.6,19.6,0,0,1-7.23-4,18.8,18.8,0,0,1-4.89-6.95,26,26,0,0,1-1.8-10.19,24.54,24.54,0,0,1,1.92-10.19,19.69,19.69,0,0,1,5-7,20.13,20.13,0,0,1,7.06-4,26.34,26.34,0,0,1,8.08-1.26,23,23,0,0,1,4.35.37,19.8,19.8,0,0,1,3.41.94,15.22,15.22,0,0,1,2.48,1.17l1.63,1v-2.36h9.49v15.67H399.06a7.5,7.5,0,0,0-1.83-4.93,6.08,6.08,0,0,0-4.76-1.89,7.57,7.57,0,0,0-2.9.56,5.82,5.82,0,0,0-2.39,2,10.73,10.73,0,0,0-1.62,3.8,25.91,25.91,0,0,0-.59,6,36.29,36.29,0,0,0,.39,5.82,11.89,11.89,0,0,0,1.2,3.8,5.09,5.09,0,0,0,2.09,2.1,6.64,6.64,0,0,0,3.05.64,7.07,7.07,0,0,0,1-.08,5.83,5.83,0,0,0,1.18-.3,3.76,3.76,0,0,0,1-.57,1.17,1.17,0,0,0,.41-.94v-1.59a2.4,2.4,0,0,0-.92-2.05,6,6,0,0,0-3.45-.71v-9.49h24.27v9.49a7.2,7.2,0,0,0-3.62.68,2.74,2.74,0,0,0-1.09,2.54v11.79Z"/><path class="a" d="M445.18,133h-9.09l-.4,1.24a2.23,2.23,0,0,0,.06,2.06,2.41,2.41,0,0,0,2.18.82h1.64v10.66H421.66V137.08h1.18a3.61,3.61,0,0,0,2.77-.82,9.23,9.23,0,0,0,1.37-2.4l5.89-14.56a3.14,3.14,0,0,0,.22-2.45c-.28-.53-1.12-.79-2.52-.79H430V105.39h29.56v10.67H459c-1.42,0-2.26.27-2.54.83a3,3,0,0,0,.24,2.41l5.9,14.56c.23.53.43,1,.62,1.39a3.63,3.63,0,0,0,.67,1,2.58,2.58,0,0,0,1.08.62,6.4,6.4,0,0,0,1.74.2h1.18v10.66H441.7V137.08h1.58a2.52,2.52,0,0,0,2.2-.82,2.14,2.14,0,0,0,.1-2.06Zm-7.62-4.48h6.12l-2.87-8.83h-.23Z"/><path class="a" d="M45.11,185.78v9.33a4.15,4.15,0,0,0-2.91.73,3,3,0,0,0-.69,2.11v24.87H26.4L13.28,202.28V211c0,1.09.31,1.78,1,2.07a8.07,8.07,0,0,0,3.17.44v9.33H.1v-9.33a6.36,6.36,0,0,0,3.17-.59,2.38,2.38,0,0,0,.95-2.22V198a2.44,2.44,0,0,0-.95-2.25,6.36,6.36,0,0,0-3.17-.59v-9.33H19.86l12.57,19.69V198a2.91,2.91,0,0,0-.69-2.25,4.86,4.86,0,0,0-2.9-.59v-9.33Z"/><path class="a" d="M70.8,209.9H62.85L62.5,211a2,2,0,0,0,0,1.8,2.13,2.13,0,0,0,1.91.71H65.9v9.33H50.23v-9.33h1a3.19,3.19,0,0,0,2.43-.71,7.93,7.93,0,0,0,1.19-2.1L60,198a2.77,2.77,0,0,0,.19-2.15c-.25-.46-1-.69-2.2-.69H57.5v-9.33H83.34v9.33h-.5c-1.24,0-2,.25-2.22.73a2.56,2.56,0,0,0,.21,2.11L86,210.68c.21.47.39.87.54,1.22a3.26,3.26,0,0,0,.6.88,2.1,2.1,0,0,0,.94.54,5.74,5.74,0,0,0,1.52.17h1v9.33H67.76v-9.33h1.38a2.2,2.2,0,0,0,1.92-.71,1.87,1.87,0,0,0,.09-1.8ZM64.14,206h5.35L67,198.26h-.2Z"/><path class="a" d="M115.85,222.82v-9.33a6.32,6.32,0,0,0,3.16-.59,2.39,2.39,0,0,0,1-2.22V198a2.44,2.44,0,0,0-1-2.25,6.32,6.32,0,0,0-3.16-.59v-9.33h34.79V200h-8.8a16.74,16.74,0,0,0-.15-2.51,3.35,3.35,0,0,0-.56-1.48,2.08,2.08,0,0,0-1.11-.73,6.87,6.87,0,0,0-1.72-.19h-3.5v7.27h8v4.42h-8v3.88a3,3,0,0,0,.67,2.07,3.19,3.19,0,0,0,2.43.74h2.56v9.33Z"/><path class="a" d="M180.91,195.11a6.27,6.27,0,0,0-3.15.59,2.46,2.46,0,0,0-.95,2.25v15.54h5a6.21,6.21,0,0,0,1.74-.2,1.84,1.84,0,0,0,1.1-.84,4.65,4.65,0,0,0,.57-1.8,22.77,22.77,0,0,0,.16-3.07h8.8v15.24H157.86v-9.33a6.32,6.32,0,0,0,3.16-.59,2.39,2.39,0,0,0,1-2.22V198a2.44,2.44,0,0,0-1-2.25,6.32,6.32,0,0,0-3.16-.59v-9.33h23Z"/><path class="a" d="M200.65,204.34a21.18,21.18,0,0,1,1.59-8.51,16.61,16.61,0,0,1,4.51-6.12,19.39,19.39,0,0,1,6.93-3.7,32.49,32.49,0,0,1,17.71,0,19.06,19.06,0,0,1,6.93,3.7,16.48,16.48,0,0,1,4.5,6.12,23.38,23.38,0,0,1,0,17,16.68,16.68,0,0,1-4.5,6.13,19.08,19.08,0,0,1-6.93,3.71,32.49,32.49,0,0,1-17.71,0,19.41,19.41,0,0,1-6.93-3.71,16.82,16.82,0,0,1-4.51-6.13A21.15,21.15,0,0,1,200.65,204.34Zm16.89,0a47.63,47.63,0,0,0,.23,5.09,11.24,11.24,0,0,0,.79,3.32,3.88,3.88,0,0,0,1.52,1.84,5.6,5.6,0,0,0,4.88,0,3.8,3.8,0,0,0,1.54-1.84,11.21,11.21,0,0,0,.8-3.32,48,48,0,0,0,.22-5.09,48.68,48.68,0,0,0-.22-5.08,11.12,11.12,0,0,0-.8-3.34,3.82,3.82,0,0,0-1.54-1.83,5.6,5.6,0,0,0-4.88,0,3.9,3.9,0,0,0-1.52,1.83,11.15,11.15,0,0,0-.79,3.34A48.37,48.37,0,0,0,217.54,204.34Z"/><path class="a" d="M250.85,222.82v-9.33a6.36,6.36,0,0,0,3.17-.59,2.38,2.38,0,0,0,.95-2.22V198a2.44,2.44,0,0,0-.95-2.25,6.36,6.36,0,0,0-3.17-.59v-9.33h26.63a23,23,0,0,1,6.22.73,10.46,10.46,0,0,1,4.05,2.09,7.66,7.66,0,0,1,2.16,3.24,13,13,0,0,1,.64,4.2,10.47,10.47,0,0,1-2,6.75q-2,2.53-6.52,2.73v.3a10.29,10.29,0,0,1,3.59.81,5.81,5.81,0,0,1,2.23,1.7,6.25,6.25,0,0,1,1.16,2.51,14.64,14.64,0,0,1,.34,3.33v1.33a1.86,1.86,0,0,0,.33,1.1,1.35,1.35,0,0,0,2,0,2,2,0,0,0,.3-1.1v-6.38h2.9v6.38a9.86,9.86,0,0,1-.54,3.33,6.58,6.58,0,0,1-1.78,2.66,8.34,8.34,0,0,1-3.24,1.74,16.77,16.77,0,0,1-4.95.62,15.07,15.07,0,0,1-4.82-.64,7.14,7.14,0,0,1-2.93-1.77,6.35,6.35,0,0,1-1.47-2.63,11.65,11.65,0,0,1-.41-3.16v-1.93a19,19,0,0,0-.23-3.26,4.61,4.61,0,0,0-.74-1.93,2.41,2.41,0,0,0-1.35-.92,7.72,7.72,0,0,0-2-.23h-.6V211a2.31,2.31,0,0,0,.74,1.92,4.42,4.42,0,0,0,2.65.59v9.33Zm19-19.89H272a3.51,3.51,0,0,0,2.91-1,4.56,4.56,0,0,0,.79-2.83,4.73,4.73,0,0,0-.79-3,3.7,3.7,0,0,0-2.91-.93h-2.21Z"/><path class="a" d="M323.51,213.49a7.5,7.5,0,0,0,1.72-.17,2.1,2.1,0,0,0,1.11-.67,2.89,2.89,0,0,0,.56-1.35,12.81,12.81,0,0,0,.16-2.18h8.79v13.7H300v-9.33a6.32,6.32,0,0,0,3.16-.59,2.39,2.39,0,0,0,1-2.22V198a2.44,2.44,0,0,0-1-2.25,6.32,6.32,0,0,0-3.16-.59v-9.33h35.82v13.71h-8.79a12.94,12.94,0,0,0-.16-2.19,2.76,2.76,0,0,0-.56-1.33,2.24,2.24,0,0,0-1.11-.67,6.87,6.87,0,0,0-1.72-.19H319v6.69h8v4.45h-8v7.24Z"/><path class="a" d="M376.33,199.24H368a6.18,6.18,0,0,0-.89-2.39,7.41,7.41,0,0,0-1.7-1.91,7.76,7.76,0,0,0-2.23-1.25,7.63,7.63,0,0,0-2.54-.44,4.79,4.79,0,0,0-2.57.61,1.88,1.88,0,0,0-1,1.68,2,2,0,0,0,.88,1.67,8.29,8.29,0,0,0,2.31,1.11c1,.31,2.05.61,3.27.89s2.47.64,3.74,1.06a29.78,29.78,0,0,1,3.73,1.52,12.5,12.5,0,0,1,3.27,2.29,10.59,10.59,0,0,1,2.31,3.4,11.94,11.94,0,0,1,.88,4.83,9.65,9.65,0,0,1-1.28,5.1,10.4,10.4,0,0,1-3.45,3.47,15.64,15.64,0,0,1-5,2,26.73,26.73,0,0,1-5.84.63,23,23,0,0,1-5.62-.68,23.27,23.27,0,0,1-5.46-2.21v2.21h-8.3v-13.7h8.3a8.13,8.13,0,0,0,2.91,4.64,7.84,7.84,0,0,0,4.93,1.69,4.49,4.49,0,0,0,2.74-.69,2,2,0,0,0,.91-1.57,2.35,2.35,0,0,0-1.5-2.14,19.39,19.39,0,0,0-3.71-1.34l-4.84-1.33a18.67,18.67,0,0,1-4.84-2.14,12.2,12.2,0,0,1-3.71-3.69,10.81,10.81,0,0,1-1.49-6,9.73,9.73,0,0,1,1.18-4.85,10.91,10.91,0,0,1,3.17-3.56,14.57,14.57,0,0,1,4.59-2.19,20.06,20.06,0,0,1,5.49-.74,22.36,22.36,0,0,1,6.86.93,19.43,19.43,0,0,1,4.45,2v-2.34h8.3Z"/><path class="a" d="M424,185.78v14.74h-8.27c0-1.12,0-2.1-.09-2.93a7,7,0,0,0-.39-2,2.18,2.18,0,0,0-.92-1.13,3.15,3.15,0,0,0-1.65-.37h-1.56v16.6a2.39,2.39,0,0,0,1,2.22,6.36,6.36,0,0,0,3.17.59v9.33H392.19v-9.33a6.29,6.29,0,0,0,3.16-.59,2.4,2.4,0,0,0,.94-2.22v-16.6h-1.53a3.15,3.15,0,0,0-1.65.37,2.25,2.25,0,0,0-.93,1.13,6.38,6.38,0,0,0-.39,2c-.05.83-.08,1.81-.08,2.93h-8.29V185.78Z"/><path class="a" d="M448.33,209.9h-7.94L440,211a2,2,0,0,0,.05,1.8,2.15,2.15,0,0,0,1.92.71h1.43v9.33H427.76v-9.33h1a3.17,3.17,0,0,0,2.42-.71,8.21,8.21,0,0,0,1.2-2.1L437.57,198a2.77,2.77,0,0,0,.19-2.15c-.24-.46-1-.69-2.2-.69H435v-9.33h25.85v9.33h-.51c-1.24,0-2,.25-2.22.73a2.65,2.65,0,0,0,.21,2.11l5.16,12.73c.2.47.38.87.54,1.22a3.23,3.23,0,0,0,.59.88,2.16,2.16,0,0,0,.94.54,5.74,5.74,0,0,0,1.52.17h1v9.33H445.29v-9.33h1.38a2.22,2.22,0,0,0,1.93-.71,1.9,1.9,0,0,0,.08-1.8ZM441.67,206H447l-2.51-7.71h-.2Z"/><rect class="a" x="0.25" y="160.68" width="467.21" height="6.37"/><polyline class="a" points="0.25 83.24 467.46 83.24 467.46 89.62 0.25 89.62"/></svg>