<svg xmlns="http://www.w3.org/2000/svg" viewBox="0 0 468.64 226.95"><defs><style>.a{fill:#fff;}</style></defs><title>logo-es</title><path class="a" d="M45.83,66.52V54.68q2.82,0,3.69-.75a3.59,3.59,0,0,0,.88-2.82V32.79L39.48,66.52H27.19L16.09,34.57V51.49a5.88,5.88,0,0,0,.19,1.68,1.8,1.8,0,0,0,.68,1,3.08,3.08,0,0,0,1.41.45q.91.09,2.28.09V66.52H0V54.68a8,8,0,0,0,4-.75,3,3,0,0,0,1.21-2.82V35A3.09,3.09,0,0,0,4,32.1a8,8,0,0,0-4-.75V19.51H30.39l7.34,22.05,6.38-22h30V31.35a7.9,7.9,0,0,0-4,.75A3.1,3.1,0,0,0,68.91,35V51.11a3.06,3.06,0,0,0,1.2,2.82,7.9,7.9,0,0,0,4,.75V66.52Z"/><path class="a" d="M111.77,54.68a9.07,9.07,0,0,0,2.19-.22,2.62,2.62,0,0,0,1.4-.85,3.55,3.55,0,0,0,.72-1.7,16.34,16.34,0,0,0,.19-2.78h11.17V66.52H82V54.68a8,8,0,0,0,4-.75,3,3,0,0,0,1.21-2.82V35A3.09,3.09,0,0,0,86,32.1a8,8,0,0,0-4-.75V19.51h45.48V36.9H116.27a16.21,16.21,0,0,0-.19-2.77,3.43,3.43,0,0,0-.72-1.69,2.74,2.74,0,0,0-1.4-.85,8.5,8.5,0,0,0-2.19-.24H106v8.49h10.18v5.65H106v9.19Z"/><path class="a" d="M135.29,66.52V54.68a8,8,0,0,0,4-.75,3,3,0,0,0,1.21-2.82V35a3.09,3.09,0,0,0-1.21-2.86,8,8,0,0,0-4-.75V19.51h33.8a28.76,28.76,0,0,1,7.9.93,13,13,0,0,1,5.14,2.64,9.56,9.56,0,0,1,2.74,4.12,16.29,16.29,0,0,1,.82,5.33,13.21,13.21,0,0,1-2.59,8.57c-1.72,2.14-4.48,3.3-8.26,3.47V45a13.18,13.18,0,0,1,4.54,1,7.54,7.54,0,0,1,2.85,2.15,8,8,0,0,1,1.46,3.2,18.64,18.64,0,0,1,.43,4.22v1.7a2.3,2.3,0,0,0,.42,1.38,1.45,1.45,0,0,0,1.28.6,1.42,1.42,0,0,0,1.3-.6,2.43,2.43,0,0,0,.39-1.38V49.13h3.67v8.11a12.51,12.51,0,0,1-.69,4.23,8.31,8.31,0,0,1-2.25,3.36,10.45,10.45,0,0,1-4.12,2.22,21.72,21.72,0,0,1-6.28.78,19.37,19.37,0,0,1-6.12-.81A8.85,8.85,0,0,1,168,64.77a7.85,7.85,0,0,1-1.87-3.34,14.92,14.92,0,0,1-.53-4V55a23.06,23.06,0,0,0-.29-4.13,5.73,5.73,0,0,0-.94-2.46,3.08,3.08,0,0,0-1.7-1.17,10,10,0,0,0-2.56-.28h-.76v4.56a2.92,2.92,0,0,0,.94,2.44,5.6,5.6,0,0,0,3.37.75V66.52Zm24.07-25.24h2.81c1.78,0,3-.43,3.68-1.3a5.7,5.7,0,0,0,1-3.59,6,6,0,0,0-1-3.86c-.67-.79-1.9-1.18-3.68-1.18h-2.81Z"/><path class="a" d="M219.3,18.23a22,22,0,0,1,4,.35,22.31,22.31,0,0,1,3.4.91,20.39,20.39,0,0,1,2.65,1.18,20.19,20.19,0,0,1,1.82,1.14v-2.3H241.7V36.9H230.53a10.5,10.5,0,0,0-.53-3.57A6.49,6.49,0,0,0,228.6,31a5,5,0,0,0-2.06-1.28,8.41,8.41,0,0,0-2.55-.38,6.76,6.76,0,0,0-3.23.72,5.38,5.38,0,0,0-2.18,2.31,13.92,13.92,0,0,0-1.28,4.25,40.57,40.57,0,0,0-.43,6.45,37.71,37.71,0,0,0,.46,6.46,12.8,12.8,0,0,0,1.41,4.21,5.62,5.62,0,0,0,2.41,2.33,7.88,7.88,0,0,0,3.51.72,6.92,6.92,0,0,0,2.65-.53,6.19,6.19,0,0,0,2.25-1.61,7.74,7.74,0,0,0,1.53-2.71,12.28,12.28,0,0,0,.56-3.93h11.1a22.8,22.8,0,0,1-1.27,7.66,16.66,16.66,0,0,1-4,6.32,19.28,19.28,0,0,1-6.9,4.31,27.84,27.84,0,0,1-9.92,1.6,33.23,33.23,0,0,1-9.78-1.41,21.53,21.53,0,0,1-8-4.4,20.8,20.8,0,0,1-5.42-7.71,28.92,28.92,0,0,1-2-11.31,28.56,28.56,0,0,1,2-11.32A21.76,21.76,0,0,1,202.81,24a21,21,0,0,1,7.61-4.4A28.17,28.17,0,0,1,219.3,18.23Z"/><path class="a" d="M280.29,19.51V31.35a5.6,5.6,0,0,0-3.37.75,3,3,0,0,0-.94,2.47V49.32a9.93,9.93,0,0,0,.25,2.27,5.23,5.23,0,0,0,.88,1.93,4.34,4.34,0,0,0,1.66,1.34,6.11,6.11,0,0,0,2.63.49,5.61,5.61,0,0,0,4.47-1.61,6.39,6.39,0,0,0,1.41-4.36V34.7A2.81,2.81,0,0,0,286.09,32a6.44,6.44,0,0,0-3.25-.69V19.51h21V31.35a7.05,7.05,0,0,0-3.28.62,2.69,2.69,0,0,0-1.15,2.6V49.8a26.56,26.56,0,0,1-.75,6.11,14,14,0,0,1-2.94,5.81,16.24,16.24,0,0,1-6.24,4.37,27.58,27.58,0,0,1-10.72,1.74,34.93,34.93,0,0,1-8.35-.87,22.36,22.36,0,0,1-5.92-2.32,13.59,13.59,0,0,1-3.86-3.27,15.25,15.25,0,0,1-2.22-3.8,16.35,16.35,0,0,1-1-3.83,25.41,25.41,0,0,1-.25-3.43V35a3.09,3.09,0,0,0-1.22-2.86,8,8,0,0,0-4-.75V19.51Z"/><path class="a" d="M311.72,66.52V54.68a8,8,0,0,0,4-.75A3,3,0,0,0,317,51.11V35a3.09,3.09,0,0,0-1.21-2.86,8,8,0,0,0-4-.75V19.51h33.8a28.76,28.76,0,0,1,7.9.93,13,13,0,0,1,5.14,2.64,9.56,9.56,0,0,1,2.74,4.12,16.29,16.29,0,0,1,.82,5.33,13.21,13.21,0,0,1-2.59,8.57c-1.72,2.14-4.48,3.3-8.26,3.47V45a13.18,13.18,0,0,1,4.54,1,7.54,7.54,0,0,1,2.85,2.15,8,8,0,0,1,1.46,3.2,18.64,18.64,0,0,1,.43,4.22v1.7a2.3,2.3,0,0,0,.42,1.38,1.45,1.45,0,0,0,1.28.6,1.42,1.42,0,0,0,1.3-.6,2.43,2.43,0,0,0,.39-1.38V49.13h3.67v8.11a12.51,12.51,0,0,1-.69,4.23,8.31,8.31,0,0,1-2.25,3.36,10.45,10.45,0,0,1-4.12,2.22,21.72,21.72,0,0,1-6.28.78,19.37,19.37,0,0,1-6.12-.81,8.85,8.85,0,0,1-3.71-2.25,7.85,7.85,0,0,1-1.87-3.34,14.92,14.92,0,0,1-.53-4V55a23.06,23.06,0,0,0-.29-4.13,5.73,5.73,0,0,0-.94-2.46,3.08,3.08,0,0,0-1.7-1.17,10,10,0,0,0-2.56-.28h-.76v4.56a2.92,2.92,0,0,0,.94,2.44,5.56,5.56,0,0,0,3.36.75V66.52Zm24.07-25.24h2.8c1.79,0,3-.43,3.69-1.3a5.7,5.7,0,0,0,1-3.59,6,6,0,0,0-1-3.86c-.67-.79-1.9-1.18-3.69-1.18h-2.8Z"/><path class="a" d="M374.15,66.52V54.68a8,8,0,0,0,4-.75,3,3,0,0,0,1.21-2.82V35a3.09,3.09,0,0,0-1.21-2.86,8,8,0,0,0-4-.75V19.51h29.27V31.35a7.92,7.92,0,0,0-4,.75,3.1,3.1,0,0,0-1.2,2.86V51.11a3.06,3.06,0,0,0,1.2,2.82,7.92,7.92,0,0,0,4,.75V66.52Z"/><path class="a" d="M411.58,43.07a26.87,26.87,0,0,1,2-10.81,20.9,20.9,0,0,1,5.73-7.77,24.5,24.5,0,0,1,8.79-4.69,41.06,41.06,0,0,1,22.49,0,24.41,24.41,0,0,1,8.79,4.69,21,21,0,0,1,5.71,7.77,26.87,26.87,0,0,1,2,10.81,26.77,26.77,0,0,1-2,10.77,21.28,21.28,0,0,1-5.71,7.79,24.43,24.43,0,0,1-8.79,4.7,41.06,41.06,0,0,1-22.49,0,24.51,24.51,0,0,1-8.79-4.7,21.21,21.21,0,0,1-5.73-7.79A26.77,26.77,0,0,1,411.58,43.07Zm21.45,0a58.32,58.32,0,0,0,.29,6.46,14.3,14.3,0,0,0,1,4.21,4.89,4.89,0,0,0,1.93,2.33,7,7,0,0,0,6.2,0,4.89,4.89,0,0,0,2-2.33,14.3,14.3,0,0,0,1-4.21,60.88,60.88,0,0,0,.29-6.46,61.35,61.35,0,0,0-.29-6.45,14.28,14.28,0,0,0-1-4.25,4.93,4.93,0,0,0-2-2.31,7,7,0,0,0-6.2,0,4.93,4.93,0,0,0-1.93,2.31,14.28,14.28,0,0,0-1,4.25A58.74,58.74,0,0,0,433,43.07Z"/><path class="a" d="M26.94,97.55v10.09a4.81,4.81,0,0,0-2.87.64,2.56,2.56,0,0,0-.8,2.11V123a8,8,0,0,0,.22,1.93,4.42,4.42,0,0,0,.74,1.65,3.74,3.74,0,0,0,1.42,1.14,5.24,5.24,0,0,0,2.24.42,4.79,4.79,0,0,0,3.81-1.37A5.43,5.43,0,0,0,32.9,123V110.5a2.4,2.4,0,0,0-1-2.27,5.53,5.53,0,0,0-2.77-.59V97.55H47v10.09a6,6,0,0,0-2.8.53,2.29,2.29,0,0,0-1,2.22v13a23,23,0,0,1-.64,5.21,12.1,12.1,0,0,1-2.5,5,13.92,13.92,0,0,1-5.32,3.73,23.67,23.67,0,0,1-9.14,1.48,29.48,29.48,0,0,1-7.11-.75,19.13,19.13,0,0,1-5-2,11.63,11.63,0,0,1-3.29-2.79A12.79,12.79,0,0,1,8.33,130a13.82,13.82,0,0,1-.89-3.26,22.51,22.51,0,0,1-.22-2.92V110.72a2.64,2.64,0,0,0-1-2.44,6.9,6.9,0,0,0-3.43-.64V97.55Z"/><path class="a" d="M102.4,97.55v10.09c-1.59,0-2.64.27-3.14.79a3.21,3.21,0,0,0-.75,2.29v26.89H82.17L68,115.39v9.41c0,1.18.35,1.93,1,2.25a9,9,0,0,0,3.42.47v10.09H53.72V127.52a6.79,6.79,0,0,0,3.43-.64,2.58,2.58,0,0,0,1-2.4V110.72a2.64,2.64,0,0,0-1-2.44,6.9,6.9,0,0,0-3.43-.64V97.55H75.1l13.6,21.3v-8.13a3.13,3.13,0,0,0-.75-2.44,5.28,5.28,0,0,0-3.14-.64V97.55Z"/><path class="a" d="M130.19,123.63H121.6l-.38,1.17a2.16,2.16,0,0,0,0,2,2.31,2.31,0,0,0,2.07.77h1.55v10.09H108V127.52h1.11a3.45,3.45,0,0,0,2.63-.77,9,9,0,0,0,1.29-2.27l5.57-13.76a3,3,0,0,0,.21-2.33c-.27-.5-1.06-.75-2.38-.75h-.57V97.55h27.95v10.09h-.54c-1.34,0-2.15.27-2.41.79a2.89,2.89,0,0,0,.23,2.29l5.58,13.76.58,1.32a3.44,3.44,0,0,0,.64,1,2.32,2.32,0,0,0,1,.58,5.84,5.84,0,0,0,1.65.19h1.11v10.09H126.9V127.52h1.5a2.39,2.39,0,0,0,2.08-.77,2.06,2.06,0,0,0,.09-2Zm-7.2-4.24h5.79L126.06,111h-.22Z"/><path class="a" d="M208.78,119.75h-9.36v5a2.51,2.51,0,0,0,.8,2.08,4.74,4.74,0,0,0,2.87.64v10.09H178.92V127.52a6.77,6.77,0,0,0,3.42-.64,2.58,2.58,0,0,0,1-2.4V110.72a2.65,2.65,0,0,0-1-2.44,6.88,6.88,0,0,0-3.42-.64V97.55h24.17v10.09a4.81,4.81,0,0,0-2.87.64,2.56,2.56,0,0,0-.8,2.11v4.38h9.36v-4.38a2.54,2.54,0,0,0-.82-2.11,4.78,4.78,0,0,0-2.85-.64V97.55h24.14v10.09a6.81,6.81,0,0,0-3.41.64,2.66,2.66,0,0,0-1,2.44v13.76a2.6,2.6,0,0,0,1,2.4,6.7,6.7,0,0,0,3.41.64v10.09H205.11V127.52a4.71,4.71,0,0,0,2.85-.64,2.49,2.49,0,0,0,.82-2.08Z"/><path class="a" d="M260.12,97.55v10.09a4.79,4.79,0,0,0-2.87.64,2.53,2.53,0,0,0-.8,2.11V123a8.58,8.58,0,0,0,.21,1.93,4.61,4.61,0,0,0,.75,1.65,3.66,3.66,0,0,0,1.42,1.14,5.17,5.17,0,0,0,2.24.42,4.79,4.79,0,0,0,3.81-1.37,5.47,5.47,0,0,0,1.19-3.71V110.5a2.39,2.39,0,0,0-1-2.27,5.55,5.55,0,0,0-2.78-.59V97.55h17.92v10.09a6.06,6.06,0,0,0-2.8.53,2.31,2.31,0,0,0-1,2.22v13a22.93,22.93,0,0,1-.63,5.21,12.12,12.12,0,0,1-2.51,5,13.81,13.81,0,0,1-5.31,3.73,23.7,23.7,0,0,1-9.14,1.48,29.36,29.36,0,0,1-7.11-.75,19.21,19.21,0,0,1-5-2,11.77,11.77,0,0,1-3.29-2.79A13.41,13.41,0,0,1,241.5,130a13.78,13.78,0,0,1-.88-3.26,20.87,20.87,0,0,1-.22-2.92V110.72a2.64,2.64,0,0,0-1-2.44,6.9,6.9,0,0,0-3.43-.64V97.55Z"/><path class="a" d="M312.3,127.52a7.55,7.55,0,0,0,1.86-.19,2.17,2.17,0,0,0,1.2-.72,3,3,0,0,0,.61-1.45,14,14,0,0,0,.16-2.37h9.52v14.82H286.9V127.52a6.81,6.81,0,0,0,3.43-.64,2.6,2.6,0,0,0,1-2.4V110.72a2.66,2.66,0,0,0-1-2.44,6.92,6.92,0,0,0-3.43-.64V97.55h38.75v14.83h-9.52A14,14,0,0,0,316,110a2.9,2.9,0,0,0-.61-1.44,2.29,2.29,0,0,0-1.2-.72,7,7,0,0,0-1.86-.21h-4.9v7.24h8.68v4.81H307.4v7.83Z"/><path class="a" d="M357.28,107.64a6.83,6.83,0,0,0-3.42.64,2.66,2.66,0,0,0-1,2.44v16.8h5.44a7.17,7.17,0,0,0,1.88-.21,2,2,0,0,0,1.2-.92,5,5,0,0,0,.61-1.94,24.55,24.55,0,0,0,.17-3.32h9.52v16.48H332.34V127.52a6.81,6.81,0,0,0,3.43-.64,2.6,2.6,0,0,0,1-2.4V110.72a2.66,2.66,0,0,0-1-2.44,6.92,6.92,0,0,0-3.43-.64V97.55h24.94Z"/><path class="a" d="M403.29,107.64a6.83,6.83,0,0,0-3.42.64,2.66,2.66,0,0,0-1,2.44v16.8h5.44a7.17,7.17,0,0,0,1.88-.21,2,2,0,0,0,1.2-.92,5,5,0,0,0,.61-1.94,24.55,24.55,0,0,0,.17-3.32h9.52v16.48H378.35V127.52a6.81,6.81,0,0,0,3.43-.64,2.6,2.6,0,0,0,1-2.4V110.72a2.66,2.66,0,0,0-1-2.44,6.92,6.92,0,0,0-3.43-.64V97.55h24.94Z"/><path class="a" d="M446,123.63h-8.59l-.38,1.17a2.16,2.16,0,0,0,.05,2,2.31,2.31,0,0,0,2.07.77h1.55v10.09H423.79V127.52h1.11a3.45,3.45,0,0,0,2.63-.77,9,9,0,0,0,1.29-2.27l5.57-13.76a3,3,0,0,0,.21-2.33c-.27-.5-1.06-.75-2.38-.75h-.57V97.55h28v10.09h-.54c-1.34,0-2.14.27-2.41.79a2.89,2.89,0,0,0,.23,2.29l5.58,13.76.58,1.32a3.68,3.68,0,0,0,.64,1,2.32,2.32,0,0,0,1,.58,5.84,5.84,0,0,0,1.65.19h1.11v10.09H442.74V127.52h1.5a2.38,2.38,0,0,0,2.08-.77,2.06,2.06,0,0,0,.09-2Zm-7.2-4.24h5.79L441.9,111h-.22Z"/><rect class="a" x="0.25" width="467.21" height="6.37"/><rect class="a" x="0.25" y="220.57" width="467.21" height="6.37"/><path class="a" d="M26.09,198.28a8.38,8.38,0,0,0,1.9-.19,2.31,2.31,0,0,0,1.22-.74,3.1,3.1,0,0,0,.62-1.48,14.34,14.34,0,0,0,.17-2.41h9.68v15.09H.25V198.28a7,7,0,0,0,3.49-.65,2.65,2.65,0,0,0,1-2.45v-14a2.68,2.68,0,0,0-1-2.48,7,7,0,0,0-3.49-.65V167.78H39.68v15.09H30a14.34,14.34,0,0,0-.17-2.41,3,3,0,0,0-.62-1.47,2.43,2.43,0,0,0-1.22-.73,7.28,7.28,0,0,0-1.9-.21h-5v7.36h8.83v4.9H21.11v8Z"/><path class="a" d="M96,167.78v10.27c-1.63,0-2.69.27-3.2.8a3.25,3.25,0,0,0-.76,2.33v27.37H75.43L61,185.94v9.57q0,1.8,1,2.28a8.83,8.83,0,0,0,3.48.49v10.27h-19V198.28a7,7,0,0,0,3.48-.65A2.65,2.65,0,0,0,51,195.18v-14A2.68,2.68,0,0,0,50,178.7a7,7,0,0,0-3.48-.65V167.78H68.24l13.83,21.67v-8.27a3.17,3.17,0,0,0-.76-2.48,5.35,5.35,0,0,0-3.2-.65V167.78Z"/><path class="a" d="M149.14,178.05a6.89,6.89,0,0,0-3.47.65,2.7,2.7,0,0,0-1,2.48v17.1h5.54a6.89,6.89,0,0,0,1.9-.22,2.07,2.07,0,0,0,1.22-.93,5,5,0,0,0,.62-2,25.11,25.11,0,0,0,.18-3.37h9.69v16.77h-40V198.28a7,7,0,0,0,3.48-.65,2.65,2.65,0,0,0,1.05-2.45v-14a2.68,2.68,0,0,0-1.05-2.48,7,7,0,0,0-3.48-.65V167.78h25.37Z"/><path class="a" d="M192.64,194.32h-8.75l-.38,1.19a2.16,2.16,0,0,0,.05,2c.33.53,1,.79,2.1.79h1.58v10.27H170V198.28h1.14a3.47,3.47,0,0,0,2.67-.79,8.88,8.88,0,0,0,1.31-2.31l5.67-14a3,3,0,0,0,.21-2.37c-.27-.51-1.07-.76-2.42-.76H178V167.78h28.45v10.27h-.56c-1.36,0-2.18.27-2.45.8a2.91,2.91,0,0,0,.24,2.33l5.67,14c.22.52.42,1,.6,1.34a3.36,3.36,0,0,0,.65,1,2.33,2.33,0,0,0,1,.6,6.48,6.48,0,0,0,1.68.19h1.13v10.27H189.29V198.28h1.52a2.4,2.4,0,0,0,2.12-.79,2.06,2.06,0,0,0,.09-2ZM185.3,190h5.9l-2.77-8.49h-.22Z"/><path class="a" d="M280,182.59h-9.13a6.93,6.93,0,0,0-1-2.63,8.35,8.35,0,0,0-1.87-2.1,8.48,8.48,0,0,0-2.46-1.37,8.13,8.13,0,0,0-2.8-.49,5.26,5.26,0,0,0-2.82.67,2.07,2.07,0,0,0-1.08,1.85,2.16,2.16,0,0,0,1,1.84,9,9,0,0,0,2.55,1.22c1.05.34,2.25.67,3.59,1s2.72.7,4.11,1.16a32.24,32.24,0,0,1,4.11,1.68,13.41,13.41,0,0,1,3.6,2.52,11.55,11.55,0,0,1,2.54,3.75,13.08,13.08,0,0,1,1,5.31,10.66,10.66,0,0,1-1.41,5.62,11.41,11.41,0,0,1-3.79,3.81,17.19,17.19,0,0,1-5.48,2.19,29.38,29.38,0,0,1-6.42.69,24,24,0,0,1-12.2-3.18v2.44h-9.13V193.46H252a8.94,8.94,0,0,0,3.21,5.11,8.64,8.64,0,0,0,5.42,1.87,5,5,0,0,0,3-.76,2.19,2.19,0,0,0,1-1.73,2.57,2.57,0,0,0-1.64-2.36,22.28,22.28,0,0,0-4.08-1.48c-1.63-.43-3.4-.92-5.33-1.46a20.62,20.62,0,0,1-5.33-2.35,13.5,13.5,0,0,1-4.08-4.06,11.82,11.82,0,0,1-1.65-6.58,10.84,10.84,0,0,1,1.3-5.35,12.09,12.09,0,0,1,3.49-3.91,16.07,16.07,0,0,1,5.05-2.41,22.16,22.16,0,0,1,6-.81,24.67,24.67,0,0,1,7.55,1,20.74,20.74,0,0,1,4.9,2.16v-2.58H280Z"/><path class="a" d="M314.19,198.28a8.22,8.22,0,0,0,1.89-.19,2.28,2.28,0,0,0,1.22-.74,3,3,0,0,0,.62-1.48,13.36,13.36,0,0,0,.17-2.41h9.69v15.09H288.34V198.28a7,7,0,0,0,3.49-.65,2.65,2.65,0,0,0,1.05-2.45v-14a2.68,2.68,0,0,0-1.05-2.48,7,7,0,0,0-3.49-.65V167.78h39.44v15.09h-9.69a13.36,13.36,0,0,0-.17-2.41,2.93,2.93,0,0,0-.62-1.47,2.39,2.39,0,0,0-1.22-.73,7.15,7.15,0,0,0-1.89-.21h-5v7.36H318v4.9h-8.83v8Z"/><path class="a" d="M360,178.05a6.89,6.89,0,0,0-3.47.65,2.7,2.7,0,0,0-1,2.48v17.1H361a7,7,0,0,0,1.91-.22,2.13,2.13,0,0,0,1.22-.93,5.19,5.19,0,0,0,.62-2,25.11,25.11,0,0,0,.18-3.37h9.68v16.77h-40V198.28a7,7,0,0,0,3.49-.65,2.65,2.65,0,0,0,1.05-2.45v-14a2.68,2.68,0,0,0-1.05-2.48,7,7,0,0,0-3.49-.65V167.78H360Z"/><path class="a" d="M382.59,181.18a13.87,13.87,0,0,0-.63-1.43,3,3,0,0,0-.77-1,2.93,2.93,0,0,0-1.22-.56,9,9,0,0,0-1.92-.17V167.78h24v10.27q-4.12,0-3.16,2.8l4.29,13.42h.25l4.4-13.42q1-2.81-3.15-2.8V167.78h16.07v10.27a9,9,0,0,0-1.92.17,2.73,2.73,0,0,0-2,1.53c-.18.38-.39.86-.63,1.43l-10.71,27.37H393.24Z"/><path class="a" d="M446.84,194.32h-8.75l-.38,1.19a2.16,2.16,0,0,0,.05,2c.33.53,1,.79,2.1.79h1.58v10.27H424.2V198.28h1.14a3.47,3.47,0,0,0,2.67-.79,8.88,8.88,0,0,0,1.31-2.31l5.67-14a3,3,0,0,0,.21-2.37c-.27-.51-1.07-.76-2.42-.76h-.58V167.78h28.45v10.27h-.56c-1.36,0-2.18.27-2.45.8a2.91,2.91,0,0,0,.24,2.33l5.67,14c.22.52.42,1,.6,1.34a3.36,3.36,0,0,0,.65,1,2.27,2.27,0,0,0,1,.6,6.48,6.48,0,0,0,1.68.19h1.13v10.27H443.49V198.28H445a2.4,2.4,0,0,0,2.12-.79,2.06,2.06,0,0,0,.09-2ZM439.5,190h5.9l-2.77-8.49h-.22Z"/><rect class="a" x="0.25" y="150.84" width="467.21" height="6.37"/><polyline class="a" points="0.25 78.39 467.46 78.39 467.46 84.77 0.25 84.77"/></svg>