<svg xmlns="http://www.w3.org/2000/svg" xmlns:xlink="http://www.w3.org/1999/xlink" viewBox="0 0 601 601"><defs><style>.a,.c{fill:none;}.b{clip-path:url(#a);}.c{stroke:#fff;stroke-linecap:round;stroke-linejoin:round;stroke-width:1.02px;}</style><clipPath id="a"><rect class="a" x="0.5" y="0.5" width="600" height="600"/></clipPath></defs><title>map_es</title><g class="b"><path d="M190.11,210.71h2.51l-4,11.73h-2.71l-4-11.73h2.51l2.21,7c.12.41.25.89.38,1.44s.21.93.24,1.14a21.18,21.18,0,0,1,.6-2.58Z"/><path d="M202.82,222.44h-6.76V210.71h6.76v2h-4.27v2.57h4v2h-4v3h4.27Z"/><path d="M217.64,222.44h-3.16l-5.1-8.87h-.07c.1,1.56.15,2.68.15,3.35v5.52h-2.22V210.71h3.13l5.1,8.79h.05q-.12-2.3-.12-3.24v-5.55h2.24Z"/><path d="M229.32,222.44h-6.75V210.71h6.75v2h-4.27v2.57h4v2h-4v3h4.27Z"/><path d="M241.39,222.44h-8.73v-1.61l5.62-8.06h-5.47v-2.06h8.42v1.61l-5.61,8.07h5.77Z"/><path d="M254.77,210.71v7.59a4.34,4.34,0,0,1-.58,2.28,3.84,3.84,0,0,1-1.68,1.5,6,6,0,0,1-2.6.52,4.92,4.92,0,0,1-3.51-1.16,4.08,4.08,0,0,1-1.25-3.17v-7.56h2.47v7.18a3,3,0,0,0,.55,2,2.28,2.28,0,0,0,1.81.63,2.21,2.21,0,0,0,1.76-.63,3,3,0,0,0,.55-2v-7.17Z"/><path d="M266.37,222.44h-6.75V210.71h6.75v2H262.1v2.57h4v2h-4v3h4.27Z"/><path d="M270.79,222.44V210.71h2.49v9.68H278v2.05Z"/><path d="M289.22,222.44l-.85-2.79H284.1l-.85,2.79h-2.68l4.14-11.78h3l4.15,11.78Zm-1.44-4.88c-.79-2.53-1.23-4-1.33-4.29s-.17-.59-.21-.79c-.18.69-.68,2.38-1.52,5.08Z"/><path d="M473.17,288.71a3,3,0,0,1-1.15,2.5,5,5,0,0,1-3.18.91,7.47,7.47,0,0,1-3.32-.7v-2.31a13.27,13.27,0,0,0,2,.74,5.74,5.74,0,0,0,1.51.22,2.12,2.12,0,0,0,1.25-.31,1.08,1.08,0,0,0,.44-.93,1.11,1.11,0,0,0-.19-.62,2.06,2.06,0,0,0-.57-.51,14.22,14.22,0,0,0-1.52-.8,7.26,7.26,0,0,1-1.61-1,3.57,3.57,0,0,1-.86-1.08,3.13,3.13,0,0,1-.32-1.45,3,3,0,0,1,1-2.44,4.37,4.37,0,0,1,2.92-.89,7,7,0,0,1,1.74.21,12.52,12.52,0,0,1,1.74.61l-.8,1.94a11.26,11.26,0,0,0-1.55-.54,5.07,5.07,0,0,0-1.21-.15,1.59,1.59,0,0,0-1.08.33,1,1,0,0,0-.38.85,1.11,1.11,0,0,0,.15.58,1.71,1.71,0,0,0,.49.47,13.88,13.88,0,0,0,1.57.82,6.34,6.34,0,0,1,2.26,1.58A3.12,3.12,0,0,1,473.17,288.71Z"/><path d="M486.81,280.24v7.58a4.34,4.34,0,0,1-.58,2.28,3.72,3.72,0,0,1-1.68,1.5,6,6,0,0,1-2.6.52,5,5,0,0,1-3.51-1.15,4.12,4.12,0,0,1-1.25-3.18v-7.55h2.47v7.18a3,3,0,0,0,.55,2,2.23,2.23,0,0,0,1.8.64,2.19,2.19,0,0,0,1.77-.64,3,3,0,0,0,.55-2v-7.16Z"/><path d="M494.14,287.46V292h-2.48V280.24h3.41a5.84,5.84,0,0,1,3.54.87,3.46,3.46,0,0,1,.58,4.48,3.73,3.73,0,0,1-1.61,1.26q2.64,4,3.45,5.11h-2.76l-2.8-4.5Zm0-2h.8a3.13,3.13,0,0,0,1.75-.39,1.41,1.41,0,0,0,.56-1.24,1.26,1.26,0,0,0-.58-1.18,3.39,3.39,0,0,0-1.77-.36h-.76Z"/><path d="M504.47,292V280.24H507V292Z"/><path d="M522.29,292h-3.16l-5.1-8.87H514c.11,1.57.16,2.69.16,3.35V292h-2.23V280.24H515l5.09,8.78h.06c-.08-1.52-.12-2.6-.12-3.23v-5.55h2.24Z"/><path d="M534.39,292l-.85-2.79h-4.27l-.85,2.79h-2.68l4.14-11.77h3L537.07,292ZM533,287.09c-.79-2.53-1.23-4-1.33-4.3s-.17-.59-.21-.78c-.18.68-.68,2.38-1.52,5.08Z"/><path d="M545.49,292l-2.83-9.2h-.07q.15,2.81.15,3.75V292h-2.22V280.24h3.39l2.77,9h.05l2.94-9h3.39V292h-2.32v-5.55c0-.26,0-.56,0-.9s0-1.26.11-2.73h-.07l-3,9.18Z"/><path d="M387.19,235h4.65v6.08a13.69,13.69,0,0,1-2.13.52,15.19,15.19,0,0,1-2,.14,5.19,5.19,0,0,1-4.06-1.56,6.5,6.5,0,0,1-1.4-4.48,5.93,5.93,0,0,1,1.63-4.43,6.19,6.19,0,0,1,4.5-1.58,8.76,8.76,0,0,1,3.49.72l-.83,2a5.9,5.9,0,0,0-2.67-.64,3.32,3.32,0,0,0-2.59,1.08,4.22,4.22,0,0,0-1,2.91,4.64,4.64,0,0,0,.79,2.92,2.7,2.7,0,0,0,2.27,1,7.77,7.77,0,0,0,1.58-.16v-2.44h-2.22Z"/><path d="M406.15,229.84v7.59a4.34,4.34,0,0,1-.58,2.28,3.84,3.84,0,0,1-1.68,1.5,6,6,0,0,1-2.6.52,4.92,4.92,0,0,1-3.51-1.16,4.09,4.09,0,0,1-1.26-3.17v-7.56H399V237a3,3,0,0,0,.55,2,2.23,2.23,0,0,0,1.8.64,2.19,2.19,0,0,0,1.77-.64,3,3,0,0,0,.55-2v-7.17Z"/><path d="M414.65,234.67l2.44-4.83h2.68L415.88,237v4.56h-2.47v-4.48l-3.89-7.25h2.69Z"/><path d="M430.4,241.57l-.85-2.79h-4.28l-.85,2.79h-2.68l4.14-11.77h3l4.16,11.77ZM429,236.7c-.79-2.53-1.23-4-1.33-4.3s-.17-.59-.21-.78c-.18.68-.69,2.38-1.52,5.08Z"/><path d="M446.93,241.57h-3.16l-5.1-8.87h-.07c.1,1.57.15,2.69.15,3.35v5.52h-2.22V229.84h3.13l5.1,8.79h.05c-.08-1.53-.12-2.6-.12-3.23v-5.56h2.24Z"/><path d="M459,241.57l-.85-2.79h-4.28l-.85,2.79h-2.68l4.14-11.77h3l4.15,11.77Zm-1.45-4.87c-.78-2.53-1.23-4-1.33-4.3s-.17-.59-.21-.78c-.17.68-.68,2.38-1.51,5.08Z"/><path d="M309,380.11h3.65a7.11,7.11,0,0,1,3.63.71,2.47,2.47,0,0,1,1.12,2.26,2.83,2.83,0,0,1-.49,1.72,2,2,0,0,1-1.31.81v.08a2.64,2.64,0,0,1,1.61.93,3,3,0,0,1,.49,1.82,3,3,0,0,1-1.16,2.5,5,5,0,0,1-3.15.9H309Zm2.49,4.65h1.44a2.62,2.62,0,0,0,1.47-.32,1.16,1.16,0,0,0,.45-1,1,1,0,0,0-.49-1,3.24,3.24,0,0,0-1.56-.29h-1.31Zm0,2v3.06h1.62a2.42,2.42,0,0,0,1.52-.4,1.46,1.46,0,0,0,.49-1.2c0-1-.7-1.46-2.09-1.46Z"/><path d="M324.5,387.34v4.5H322V380.11h3.42A5.88,5.88,0,0,1,329,381a3.47,3.47,0,0,1,.58,4.49,3.86,3.86,0,0,1-1.62,1.26q2.65,4,3.45,5.11h-2.76l-2.8-4.5Zm0-2h.8a3,3,0,0,0,1.74-.4,1.38,1.38,0,0,0,.57-1.23,1.3,1.3,0,0,0-.58-1.19,3.53,3.53,0,0,0-1.78-.35h-.75Z"/><path d="M342,391.84l-.85-2.79h-4.27l-.85,2.79h-2.68l4.14-11.78h3l4.15,11.78ZM340.57,387c-.79-2.53-1.23-4-1.33-4.29s-.17-.59-.21-.79c-.18.69-.68,2.38-1.52,5.08Z"/><path d="M355.06,388.58a3.06,3.06,0,0,1-1.14,2.51,5,5,0,0,1-3.18.91,7.47,7.47,0,0,1-3.32-.71V389a12.44,12.44,0,0,0,2,.75,6.18,6.18,0,0,0,1.5.22,2.13,2.13,0,0,0,1.26-.32,1.07,1.07,0,0,0,.43-.93,1,1,0,0,0-.19-.61,2.37,2.37,0,0,0-.56-.52,16,16,0,0,0-1.52-.79,7.37,7.37,0,0,1-1.62-1,3.77,3.77,0,0,1-.86-1.09,3.12,3.12,0,0,1-.32-1.44,3.06,3.06,0,0,1,1.06-2.45,4.38,4.38,0,0,1,2.91-.89,6.66,6.66,0,0,1,1.75.22,12.13,12.13,0,0,1,1.74.61l-.81,1.93a12.23,12.23,0,0,0-1.55-.54,5.07,5.07,0,0,0-1.21-.15,1.59,1.59,0,0,0-1.08.33,1.1,1.1,0,0,0-.38.86,1.06,1.06,0,0,0,.16.57,1.68,1.68,0,0,0,.48.48,16.52,16.52,0,0,0,1.58.82,6.28,6.28,0,0,1,2.25,1.57A3.08,3.08,0,0,1,355.06,388.58Z"/><path d="M359.16,391.84V380.11h2.49v11.73Z"/><path d="M366.57,391.84V380.11h2.49v9.68h4.76v2Z"/><path d="M423.56,221.84h-4.1V214c0-.95,0-1.82.06-2.6a8.33,8.33,0,0,1-.94.95l-1.7,1.38-2.1-2.54,5.14-4.13h3.64Z"/><path d="M518.52,271.6H507.66V269l3.65-3.64c1.05-1.08,1.73-1.81,2.05-2.21a5,5,0,0,0,.67-1,2.09,2.09,0,0,0,.19-.89,1.18,1.18,0,0,0-.38-.91,1.56,1.56,0,0,0-1.06-.33,2.87,2.87,0,0,0-1.43.4,10,10,0,0,0-1.63,1.17L507.49,259a12.62,12.62,0,0,1,1.95-1.46,7.33,7.33,0,0,1,1.71-.67,8.85,8.85,0,0,1,2.09-.23,6.47,6.47,0,0,1,2.59.5,4.1,4.1,0,0,1,1.77,1.44,3.68,3.68,0,0,1,.63,2.1,5.43,5.43,0,0,1-.22,1.6,5.6,5.6,0,0,1-.68,1.45,11.35,11.35,0,0,1-1.22,1.5c-.51.52-1.59,1.52-3.25,3v.11h5.66Z"/><path d="M242.75,188.92a3.54,3.54,0,0,1-.85,2.36,4.87,4.87,0,0,1-2.46,1.42v.06q3.75.47,3.75,3.5a3.76,3.76,0,0,1-1.66,3.23,7.75,7.75,0,0,1-4.59,1.19,12.91,12.91,0,0,1-2.23-.18,11.63,11.63,0,0,1-2.23-.62v-3.31a9.1,9.1,0,0,0,2,.73,8.28,8.28,0,0,0,1.88.24,4,4,0,0,0,1.94-.37,1.25,1.25,0,0,0,.61-1.16,1.3,1.3,0,0,0-.32-.93,2,2,0,0,0-1-.49,7.77,7.77,0,0,0-1.84-.17h-.93v-3h.95c2.05,0,3.08-.52,3.08-1.55a1,1,0,0,0-.46-.87,2.27,2.27,0,0,0-1.22-.28,5.57,5.57,0,0,0-3,.95L232.5,187a8.15,8.15,0,0,1,2.43-1.15,10.71,10.71,0,0,1,2.85-.34,6.34,6.34,0,0,1,3.65.91A2.87,2.87,0,0,1,242.75,188.92Z"/><path d="M347.76,369.15h-1.65V372h-4v-2.85h-6v-2.93l6.22-9h3.73v8.92h1.65Zm-5.64-3v-1.71c0-.33,0-.76,0-1.31s0-.84,0-.86h-.11a10.1,10.1,0,0,1-.79,1.45l-1.65,2.43Z"/><polygon class="c" points="600.5 339.09 600.5 339.09 603.21 338.58 603.21 338.57 600.5 339.09"/><polygon class="c" points="140.4 355.56 141.04 356.31 140.41 355.55 140.4 355.56"/><polygon class="c" points="388.94 273.86 391.18 274.65 391.18 274.65 388.94 273.86"/><polygon class="c" points="387.16 303.78 391.4 299.37 387.15 303.78 387.73 314.82 387.2 317.43 387.73 314.82 387.16 303.78"/><polygon class="c" points="143.13 313.82 142.7 316.8 125.48 333.21 125.48 333.21 142.7 316.8 143.13 313.82"/><polygon class="c" points="387.14 339.14 391.74 341.98 392.41 351.75 391.75 341.98 387.14 339.14"/><polygon class="c" points="292.77 299.82 292.77 299.82 291.9 291.05 291.9 291.05 292.77 299.82"/><polygon class="c" points="311.01 284.31 315.99 285.68 317.61 285.24 316 285.68 311.01 284.31"/><polygon class="c" points="331.94 279.36 334.08 277.48 336.9 275.95 334.08 277.47 331.94 279.36"/><polygon class="c" points="130.04 295.32 130.07 295.86 134.49 302.75 130.07 295.86 130.04 295.32"/><polygon class="c" points="198.37 389.51 198.36 389.51 201.23 390.07 201.23 390.07 198.37 389.51"/><polygon class="c" points="135.91 226.55 137.82 230.51 134.68 237.2 137.82 230.51 135.91 226.55"/><polygon class="c" points="126.63 252.86 128.84 250.54 126.63 252.86 126.63 282.85 128.24 285.07 126.63 282.85 126.63 252.86"/><polygon class="c" points="382.85 255.69 377.41 248.9 363.64 250.88 364.61 255.12 363.64 250.88 377.4 248.9 382.85 255.7 381.42 269.27 384.5 271.4 381.42 269.27 382.85 255.69"/><polygon class="c" points="437.94 364.32 444.26 364.89 444.26 364.89 437.95 364.32 437.94 364.32"/><polygon class="c" points="203.25 400.02 203.82 400.26 210.56 393.29 203.82 400.26 203.25 400.02"/><polygon class="c" points="243.7 313.41 243.78 312.66 243.7 313.4 243.7 313.41"/><polygon class="c" points="516.56 334.34 510.25 341.98 510.26 341.98 516.57 334.34 525.47 334.34 536.03 332.17 525.46 334.34 516.56 334.34"/><polygon class="c" points="240.66 301.99 228.78 289.64 227.92 287.95 228.78 289.64 240.66 301.99"/><polygon class="c" points="278.63 296.42 287.89 303.23 292.45 300.05 287.89 303.22 278.63 296.42"/><polygon class="c" points="251.44 294.44 248.77 291.11 251.44 294.45 267.21 295.02 267.36 294.92 267.22 295.01 251.44 294.44"/><polygon class="c" points="230.12 286.03 231.36 285.68 234.22 287.66 234.23 287.66 231.36 285.68 230.12 286.03"/><polygon class="c" points="464.8 356.84 472.38 350.75 483.28 352.99 472.38 350.75 464.8 356.84"/><polygon class="c" points="216.31 386.09 217.02 384.13 217.02 384.13 216.31 386.09"/><polygon class="c" points="233.73 376.07 239.11 371.69 242.12 373.91 239.11 371.68 233.73 376.07"/><polygon class="c" points="246.39 371.43 250.59 365.74 251.17 361.54 250.58 365.74 246.39 371.43"/><polygon class="c" points="491.03 350.18 488.68 351.81 491.03 350.19 510.25 354.14 518 352.16 518 352.16 510.25 354.14 491.03 350.18"/><polygon class="c" points="253.45 339.99 263.73 341.01 253.45 339.99 250.59 331.8 249.28 327.41 250.58 331.79 253.45 339.99"/><polygon class="c" points="173.85 393.97 180.58 398.28 186.13 396.15 180.57 398.27 173.85 393.97"/><polygon class="c" points="3.24 204.02 10.43 203.35 16.29 204.28 10.43 203.35 3.24 204.02"/><polygon class="c" points="57.2 433.64 57.2 433.64 56.63 409.88 62.56 407.3 56.63 409.87 57.2 433.64"/><polygon class="c" points="74.42 229.95 74.42 229.95 63.86 217.56 74.42 229.95"/><polygon class="c" points="82.08 404.09 83.32 401.67 80 394.6 83.31 401.67 82.08 404.09"/><polygon class="c" points="66.95 553.87 68.95 537.53 66.95 553.87 66.95 553.87"/><polygon class="c" points="31.69 570.8 35.97 564.06 35.96 564.06 31.69 570.8"/><polygon class="c" points="79.87 394.31 79.86 394.31 70.4 392.9 70.4 392.9 79.87 394.31"/><polygon class="c" points="68.39 372.36 104.83 371.12 109.56 369.45 104.83 371.12 68.39 372.36"/><polygon class="c" points="113.72 362.34 111.71 367.15 112.6 368.03 111.72 367.15 113.73 362.35 117.16 362.35 123.06 366.56 117.17 362.34 113.72 362.34"/><polygon class="c" points="136.97 306.61 136.99 306.63 136.97 306.61 136.97 306.61"/><path class="c" d="M.5,135,7,137.44l10.34-5.94,4-9.62-3.44-11.6L11,97.55,9.57,82l11.76-9.06L49.74,62.75l5.45-5.37,6.89,1.41,4-4,13.2,4L97.94,60.2,108.84,67l4,16.13,7.75,4.81,42.75-5.37h19.22L193.49,93.3l27,4.25L244.56,86l6-2L246,80.57l11.48-2.82,48.2-3.4,9.76,1.41-20.66,4.81-4.88.57-2,2,5.44,5.66-.56,2,7.45,3.39,4.22,11,6.11-4.23h7.75l4.59,4,9.18-2L347,111.13l6.31,1.41,2,2-11.76,18.39-1.7,11.67,18.34-2.9h21.23l6.89,5.94,22.09,11,22.09,21.77-2,12.74v4.24l8.9-4.24,9.75,3.4,12.34,11.59L471.8,213l4,10.75v9.62l8.32-10.19,19.22,2,10.34,4L518,228l3.44-4.25,16.36.85,1.43,1.13,7.46-3.39,18.65.84,14.42,4.23,20.74,6.09M.5,71.67l.17.14,2,1.12,1.44,11.6L3.54,93.3l-3,4.12m0-59H21.33L10.43,50.58.5,54.46M333.22,88.78V74.35l10.33-2,5.74.56V86.51l.57,3.39L343,94.72H327.19Z"/><polygon class="c" points="66.3 391.85 62.65 390.92 62.65 390.92 66.3 391.85"/><polygon class="c" points="77.86 464.75 74.77 460.18 77.86 464.75 77.86 464.75"/><polygon class="c" points="46.87 203.35 36.69 202.18 46.87 203.35 51.74 203.35 51.74 203.35 46.87 203.35"/><polygon class="c" points="365.07 257.11 365.07 257.11 356.64 264.62 365.07 257.11"/><polygon class="c" points="392.62 354.71 398.33 359.28 392.62 354.71 392.62 354.71"/><polygon class="c" points="153.61 385.26 153.95 385.18 153.61 385.26 153.61 385.26"/><polygon class="c" points="573.32 343.15 572.23 343.39 569.16 341.07 572.22 343.39 573.32 343.15"/><polygon class="c" points="128.28 222.12 129.5 221.74 129.5 221.74 128.28 222.12"/><polygon class="c" points="71.54 445.79 63 438.55 71.54 445.8 71.54 445.79"/><polygon class="c" points="296.08 289.11 302.23 286.25 303.46 285.03 302.23 286.24 296.08 289.11"/><polygon class="c" points="81.29 405.63 81.29 405.63 81.04 405.58 81.29 405.63"/><polygon class="c" points="88.18 225.7 85.55 227.33 88.18 225.7 108.27 226.55 117.63 224.78 108.27 226.55 88.18 225.7"/><polygon class="c" points="125.48 368.28 126.21 367.66 125.48 368.28 125.48 368.28"/><polyline class="c" points="600.5 339.09 595.75 339.99 588.87 337.73 582.56 341.13 573.32 343.15 572.22 343.39 569.16 341.07 564.76 337.73 556.45 337.16 547.55 329.81 536.03 332.17 525.47 334.34 516.57 334.34 510.26 341.98 517.14 348.76 518 352.16 518 352.16 518 352.16 510.25 354.14 491.03 350.19 488.68 351.81 486.15 353.58 483.28 352.99 472.38 350.75 464.8 356.84 461.47 359.52 452.58 359.52 444.26 364.89 444.26 364.89 444.26 364.89 437.94 364.32 427.04 373.94 419.3 375.08 412.41 370.55 398.33 359.28 392.62 354.71 392.62 354.71 392.61 354.7 392.41 351.75 391.74 341.98 387.14 339.14 384.87 337.73 384.29 331.79 387.2 317.43 387.73 314.82 387.15 303.78 391.4 299.37 397.49 293.04 395.19 286.81 391.18 274.65 388.94 273.86 387.16 273.23 384.5 271.4 381.42 269.27 382.85 255.7 377.4 248.9 363.64 250.88 364.61 255.12 365.07 257.11 365.07 257.11 365.07 257.11 356.64 264.62 346.99 273.23 342.97 272.66 336.9 275.95 334.08 277.48 331.94 279.36 328.63 282.28 317.61 285.24 315.99 285.68 311.01 284.31 305.67 282.85 303.46 285.03 302.23 286.25 296.08 289.11 291.9 291.05 292.77 299.82 292.77 299.82 292.77 299.83 292.45 300.05 287.89 303.23 278.63 296.42 272.1 291.62 267.36 294.92 267.21 295.02 251.44 294.45 248.77 291.11 245.99 287.66 234.23 287.66 234.23 287.66 234.22 287.66 231.36 285.68 230.12 286.03 227.34 286.81 227.92 287.95 228.78 289.64 240.66 301.99 244.56 306.05 243.78 312.66 243.7 313.41 247.14 320.19 249.28 327.41 250.59 331.8 253.45 339.99 263.73 341.01 273.54 341.98 272.1 347.35 251.44 359.52 251.17 361.54 250.59 365.74 246.39 371.43 243.7 375.08 242.12 373.91 239.11 371.69 233.73 376.07 230.79 378.47 217.02 384.13 216.31 386.09 215.58 388.09 210.56 393.29 203.82 400.26 203.25 400.02 200.38 398.84 201.23 390.07 198.36 389.51 189.47 394.88 186.13 396.15 180.58 398.28 173.85 393.97 158.48 384.13 158.48 384.13 153.95 385.18 153.61 385.26 153.61 385.26 153.6 385.26 143.27 358.95 141.04 356.31 140.4 355.56 126.21 367.66 125.48 368.28 125.48 368.28 125.48 368.28 123.06 366.56 117.16 362.35 113.73 362.35 111.72 367.15 112.6 368.03 112.86 368.28 109.56 369.45 104.83 371.12 68.39 372.36 63.51 372.53 62.65 390.92 66.3 391.85 70.4 392.9 79.86 394.31 79.87 394.31 79.87 394.31 80 394.6 83.32 401.67 82.08 404.09 81.3 405.63 81.29 405.63 81.29 405.63 81.04 405.58 70.97 403.65 62.56 407.3 56.63 409.88 57.2 433.64 63 438.55 71.54 445.79 71.54 445.8 71.54 445.8 71.54 455.42 74.77 460.18 77.86 464.75 77.86 464.75 77.86 464.75 68.95 537.53 66.95 553.87 66.95 553.87 66.95 553.87 62.08 563.21 59.21 568.01 50.88 562.64 35.97 564.06 31.69 570.8 31.66 570.85 2.11 578.2 0.5 579.36"/><polyline class="c" points="0.5 204.27 3.24 204.02 10.43 203.35 16.29 204.28 19.32 204.76 29.65 201.37 36.69 202.18 46.87 203.35 51.74 203.35 51.74 203.35 51.74 203.35 63.86 217.56 74.42 229.95 81.3 229.95 85.55 227.33 88.18 225.7 108.27 226.55 117.63 224.78 123.19 223.72 128.28 222.12 129.5 221.74 129.5 221.74 129.5 221.74 134.95 224.57 135.91 226.55 137.82 230.51 134.68 237.2 132.37 242.11 130.94 248.33 128.84 250.54 126.63 252.86 126.63 282.85 128.24 285.07 129.5 286.81 130.04 295.32 130.07 295.86 134.49 302.75 136.97 306.61 136.99 306.63 143.27 312.84 143.13 313.82 142.7 316.8 125.48 333.21 131.51 335.19 136.97 336.6 149.59 350.18 153.03 362.91 158.48 376.49 158.48 384.13 158.49 384.12 173.85 393.97 180.57 398.27 186.13 396.15 189.48 394.88 198.36 389.51 198.36 389.51 198.37 389.51 201.23 390.07 201.23 390.07 201.24 390.08 200.38 398.83 203.25 400.02 203.82 400.26 210.56 393.29 215.57 388.1 216.31 386.09 217.02 384.13 217.02 384.13 217.02 384.12 230.79 378.46 233.73 376.07 239.11 371.68 242.12 373.91 243.7 375.08 246.39 371.43 250.58 365.74 251.17 361.54 251.44 359.51 272.1 347.35 273.53 341.98 263.73 341.01 253.45 339.99 250.58 331.79 249.28 327.41 247.13 320.19 243.7 313.41 243.7 313.41 243.7 313.4 243.78 312.66 244.55 306.05 240.66 301.99 228.78 289.64 227.92 287.95 227.33 286.8 230.12 286.03 231.36 285.68 234.23 287.66 246 287.66 248.77 291.11 251.44 294.44 267.22 295.01 267.36 294.92 272.1 291.62 278.63 296.42 287.89 303.22 292.45 300.05 292.77 299.82 291.9 291.05 291.9 291.05 291.9 291.05 296.08 289.11 302.23 286.24 303.46 285.03 305.67 282.84 311.01 284.31 316 285.68 317.61 285.24 328.63 282.27 331.94 279.36 334.08 277.47 336.9 275.95 342.96 272.66 347 273.23 356.64 264.62 365.07 257.11 364.61 255.12 363.64 250.88 338.96 227.12 337.53 225.7 345.84 217.78 344.98 203.35 368.51 195.15 372.53 190.62 371.95 187.79 364.21 188.36 361.62 184.4 360.19 176.19 365.07 168.84 375.97 164.6 388.31 147.62 381.42 141.68 369.08 141.68 360.19 141.68 341.85 144.58 343.55 132.91 355.31 114.53 353.3 112.54 346.99 111.13 332.07 102.92 322.89 104.9 318.3 100.94 310.55 100.94 304.44 105.17 300.22 94.15 292.77 90.76 293.33 88.78 287.89 83.11 289.89 81.14 294.77 80.57 315.43 75.76 305.67 74.35 257.47 77.75 245.99 80.57 250.58 83.97 244.56 85.95 220.46 97.55 193.49 93.3 182.58 82.56 168.81 82.56 163.36 82.56 120.61 87.93 112.86 83.11 108.84 66.99 97.94 60.2 79.29 58.79 66.09 54.83 62.08 58.79 55.19 57.38 49.74 62.75 21.33 72.93 9.57 81.99 11 97.55 17.89 110.28 21.33 121.88 17.32 131.5 6.98 137.44 0.5 135.04"/><polyline class="c" points="0.5 97.42 3.54 93.3 4.12 84.53 2.68 72.93 0.67 71.81 0.5 71.67"/><polygon class="c" points="291.9 291.05 296.08 289.11 291.9 291.05 291.9 291.05"/><polygon class="c" points="242.12 373.91 243.7 375.08 246.39 371.43 243.7 375.08 242.12 373.91"/><polygon class="c" points="210.56 393.29 215.58 388.09 216.31 386.09 215.57 388.1 210.56 393.29"/><polygon class="c" points="247.13 320.19 249.28 327.41 247.14 320.19 243.7 313.41 243.7 313.41 247.13 320.19"/><polygon class="c" points="217.02 384.12 217.02 384.13 230.79 378.47 233.73 376.07 230.79 378.46 217.02 384.12"/><polygon class="c" points="272.1 347.35 251.44 359.51 251.17 361.54 251.44 359.52 272.1 347.35 273.54 341.98 263.73 341.01 273.53 341.98 272.1 347.35"/><polygon class="c" points="234.23 287.66 234.23 287.66 245.99 287.66 248.77 291.11 246 287.66 234.23 287.66"/><polygon class="c" points="243.78 312.66 244.56 306.05 240.66 301.99 244.55 306.05 243.78 312.66"/><polygon class="c" points="267.36 294.92 272.1 291.62 278.63 296.42 272.1 291.62 267.36 294.92"/><polygon class="c" points="227.92 287.95 227.34 286.81 230.12 286.03 227.33 286.8 227.92 287.95"/><polygon class="c" points="292.77 299.83 292.77 299.82 292.45 300.05 292.77 299.83"/><polygon class="c" points="317.61 285.24 328.63 282.28 331.94 279.36 328.63 282.27 317.61 285.24"/><polygon class="c" points="303.46 285.03 305.67 282.85 311.01 284.31 305.67 282.84 303.46 285.03"/><polygon class="c" points="342.96 272.66 336.9 275.95 342.97 272.66 346.99 273.23 356.64 264.62 347 273.23 342.96 272.66"/><polygon class="c" points="201.24 390.08 201.23 390.07 200.38 398.84 203.25 400.02 200.38 398.83 201.24 390.08"/><polygon class="c" points="365.07 257.11 364.61 255.12 365.07 257.11 365.07 257.11"/><polygon class="c" points="158.48 384.13 158.48 384.13 158.48 384.13 173.85 393.97 158.49 384.12 158.48 384.13"/><polygon class="c" points="189.48 394.88 186.13 396.15 189.47 394.88 198.36 389.51 198.36 389.51 189.48 394.88"/><polygon class="c" points="349.86 89.91 349.29 86.51 349.29 72.93 343.55 72.37 333.22 74.35 333.22 88.78 327.19 94.72 342.97 94.72 349.86 89.91"/><polygon class="c" points="365.07 168.84 360.19 176.19 361.62 184.4 364.21 188.36 371.95 187.79 372.53 190.62 368.51 195.15 344.98 203.35 345.84 217.78 337.53 225.7 338.96 227.12 363.64 250.88 377.41 248.9 382.85 255.69 381.42 269.27 384.5 271.4 387.15 273.23 388.94 273.86 391.18 274.65 391.18 274.65 391.19 274.65 395.2 286.8 397.5 293.04 391.4 299.37 387.16 303.78 387.73 314.82 387.2 317.43 384.3 331.8 384.87 337.73 387.14 339.14 391.75 341.98 392.41 351.75 392.62 354.71 398.33 359.28 412.42 370.55 419.31 375.08 427.04 373.94 437.94 364.32 437.94 364.32 437.95 364.32 444.26 364.89 452.58 359.51 461.48 359.51 464.8 356.84 472.38 350.75 483.28 352.99 486.14 353.57 488.68 351.81 491.03 350.18 477.25 324.15 474.39 318.22 470.37 309.44 460.04 306.05 458.6 301.23 449.13 288.23 447.7 282.85 451.72 272.1 451.72 261.06 454.59 255.69 463.48 253.71 471.8 249.47 475.82 233.34 475.82 223.72 471.8 212.97 461.47 208.16 449.13 196.57 439.38 193.17 430.48 197.41 430.48 193.17 432.49 180.43 410.4 158.66 388.31 147.62 375.97 164.6 365.07 168.84"/><polygon class="c" points="384.3 331.8 387.2 317.43 384.29 331.79 384.87 337.73 387.14 339.14 384.87 337.73 384.3 331.8"/><polygon class="c" points="452.58 359.51 444.26 364.89 444.26 364.89 452.58 359.52 461.47 359.52 464.8 356.84 461.48 359.51 452.58 359.51"/><polygon class="c" points="395.2 286.8 391.19 274.65 391.18 274.65 395.19 286.81 397.49 293.04 391.4 299.37 397.5 293.04 395.2 286.8"/><polygon class="c" points="483.28 352.99 486.15 353.58 488.68 351.81 486.14 353.57 483.28 352.99"/><polygon class="c" points="392.61 354.7 392.62 354.71 392.41 351.75 392.61 354.7"/><polygon class="c" points="384.5 271.4 387.16 273.23 388.94 273.86 387.15 273.23 384.5 271.4"/><polygon class="c" points="427.04 373.94 419.31 375.08 412.42 370.55 398.33 359.28 412.41 370.55 419.3 375.08 427.04 373.94 437.94 364.32 437.94 364.32 427.04 373.94"/><polygon class="c" points="463.48 253.71 454.59 255.69 451.72 261.06 451.72 272.1 447.7 282.85 449.13 288.23 458.6 301.23 460.04 306.05 470.37 309.44 474.39 318.22 477.25 324.15 491.03 350.18 510.25 354.14 518 352.16 517.13 348.76 510.25 341.98 510.26 341.98 510.25 341.98 516.56 334.34 525.46 334.34 536.03 332.17 547.55 329.8 556.45 337.16 564.77 337.73 574.23 325 575.1 313.4 579.11 305.2 580.55 299.26 567.35 278.89 566.78 254.28 579.11 235.89 579.76 227.38 565.34 223.15 546.69 222.31 539.23 225.7 537.8 224.57 521.44 223.72 518 227.97 513.7 229.09 503.36 225.14 484.14 223.15 475.82 233.34 471.8 249.47 463.48 253.71"/><polygon class="c" points="517.13 348.76 518 352.16 518 352.16 517.14 348.76 510.26 341.98 510.25 341.98 517.13 348.76"/><polygon class="c" points="547.55 329.8 536.03 332.17 547.55 329.81 556.45 337.16 564.76 337.73 564.77 337.73 556.45 337.16 547.55 329.8"/><polyline class="c" points="600.5 233.47 579.76 227.38 579.11 235.89 566.78 254.28 567.35 278.89 580.55 299.26 579.11 305.2 575.1 313.4 574.23 325 564.77 337.73 564.77 337.73 569.16 341.07 572.23 343.39 573.32 343.15 582.57 341.12 588.87 337.73 595.76 339.99 600.5 339.09"/><polygon class="c" points="569.16 341.07 564.77 337.73 564.77 337.73 564.76 337.73 569.16 341.07"/><polygon class="c" points="595.76 339.99 588.87 337.73 582.57 341.12 573.32 343.15 582.56 341.13 588.87 337.73 595.75 339.99 600.5 339.09 600.5 339.09 595.76 339.99"/><polyline class="c" points="0.5 54.46 10.43 50.58 21.33 38.42 0.5 38.42"/><polyline class="c" points="0.5 502.99 2.11 502.1 18.75 506.91 29.65 501.53 57.77 516.52 40.55 545.67 40.55 551.04 52.32 551.61 62.07 563.2 66.95 553.87 68.95 537.53 77.86 464.75 74.77 460.18 71.54 455.42 71.54 445.8 63 438.55 57.2 433.65 57.2 433.64 57.2 433.64 56.63 409.87 62.56 407.3 70.97 403.65 81.04 405.58 81.29 405.63 82.08 404.09 83.31 401.67 80 394.6 79.87 394.31 70.4 392.9 70.4 392.9 70.39 392.9 66.3 391.85 62.65 390.92 62.65 390.92 62.65 390.92 63.5 372.53 68.39 372.36 104.83 371.12 109.56 369.45 112.85 368.28 112.6 368.03 111.71 367.15 113.72 362.34 117.17 362.34 123.06 366.56 125.48 368.28 126.21 367.66 140.4 355.55 140.4 355.56 140.41 355.55 141.04 356.31 143.28 358.94 153.61 385.26 153.95 385.18 158.48 384.13 158.48 376.49 153.03 362.91 149.59 350.18 136.97 336.6 131.51 335.19 125.48 333.21 125.48 333.21 125.48 333.21 142.7 316.8 143.13 313.82 143.27 312.84 136.99 306.63 136.97 306.61 136.97 306.61 136.97 306.61 134.49 302.75 130.07 295.86 130.04 295.32 129.5 286.81 128.24 285.07 126.63 282.85 126.63 252.86 128.84 250.54 130.94 248.33 132.37 242.11 134.68 237.2 137.82 230.51 135.91 226.55 134.95 224.57 129.5 221.74 128.28 222.12 123.19 223.72 117.63 224.78 108.27 226.55 88.18 225.7 85.55 227.33 81.3 229.95 81.3 229.95 74.42 229.95 74.42 229.95 63.86 217.56 51.74 203.35 46.87 203.35 36.69 202.18 29.65 201.37 19.32 204.76 16.29 204.28 10.43 203.35 3.24 204.02 0.5 204.27"/><polygon class="c" points="62.56 407.3 70.97 403.65 81.04 405.58 70.97 403.65 62.56 407.3"/><polygon class="c" points="70.4 392.9 66.3 391.85 70.39 392.9 70.4 392.9"/><polygon class="c" points="109.56 369.45 112.86 368.28 112.6 368.03 112.85 368.28 109.56 369.45"/><polygon class="c" points="62.65 390.92 62.65 390.92 63.51 372.53 68.39 372.36 63.5 372.53 62.65 390.92"/><polygon class="c" points="153.95 385.18 158.48 384.13 158.48 384.13 153.95 385.18"/><polygon class="c" points="141.04 356.31 143.27 358.95 153.6 385.26 153.61 385.26 143.28 358.94 141.04 356.31"/><polygon class="c" points="126.21 367.66 140.4 355.56 140.4 355.55 126.21 367.66"/><polygon class="c" points="125.48 368.28 125.48 368.28 123.06 366.56 125.48 368.28"/><polygon class="c" points="77.86 464.75 77.86 464.75 68.95 537.53 77.86 464.75"/><polygon class="c" points="81.3 405.63 82.08 404.09 81.29 405.63 81.3 405.63"/><polygon class="c" points="79.87 394.31 79.87 394.31 80 394.6 79.87 394.31"/><polygon class="c" points="74.77 460.18 71.54 455.42 71.54 445.8 71.54 445.8 71.54 455.42 74.77 460.18"/><polygon class="c" points="63 438.55 57.2 433.64 57.2 433.65 63 438.55"/><polygon class="c" points="62.08 563.21 66.95 553.87 66.95 553.87 62.07 563.2 62.08 563.21"/><polygon class="c" points="129.5 221.74 129.5 221.74 134.95 224.57 135.91 226.55 134.95 224.57 129.5 221.74"/><polygon class="c" points="132.37 242.11 134.68 237.2 132.37 242.11 130.94 248.33 128.84 250.54 130.94 248.33 132.37 242.11"/><polygon class="c" points="51.74 203.35 63.86 217.56 51.74 203.35 51.74 203.35"/><polygon class="c" points="128.24 285.07 129.5 286.81 130.04 295.32 129.5 286.81 128.24 285.07"/><polygon class="c" points="117.63 224.78 123.19 223.72 128.28 222.12 123.19 223.72 117.63 224.78"/><polygon class="c" points="136.99 306.63 143.27 312.84 143.13 313.82 143.27 312.84 136.99 306.63"/><polygon class="c" points="131.51 335.19 125.48 333.21 125.48 333.21 131.51 335.19 136.97 336.6 149.59 350.18 136.97 336.6 131.51 335.19"/><polygon class="c" points="149.59 350.18 153.03 362.91 158.48 376.49 153.03 362.91 149.59 350.18"/><polygon class="c" points="0.5 204.27 0.5 204.27 3.24 204.02 0.5 204.27"/><polygon class="c" points="19.32 204.76 16.29 204.28 19.32 204.76 29.65 201.37 36.69 202.18 29.65 201.37 19.32 204.76"/><polygon class="c" points="136.97 306.61 136.97 306.61 134.49 302.75 136.97 306.61"/><polygon class="c" points="81.3 229.95 85.55 227.33 81.3 229.95 81.3 229.95"/><polyline class="c" points="0.5 579.35 2.11 578.19 31.66 570.85 31.69 570.8 35.96 564.06 35.97 564.06 35.97 564.05 50.89 562.64 59.21 568.01 62.07 563.21 62.07 563.2 52.32 551.61 40.55 551.04 40.55 545.67 57.77 516.52 29.65 501.53 18.75 506.91 2.11 502.1 0.5 502.99"/><polygon class="c" points="31.66 570.85 31.69 570.8 31.66 570.85 2.11 578.19 0.5 579.35 0.5 579.36 2.11 578.2 31.66 570.85"/><polygon class="c" points="62.07 563.21 59.21 568.01 50.89 562.64 35.97 564.05 35.97 564.06 50.88 562.64 59.21 568.01 62.08 563.21 62.07 563.2 62.07 563.21"/></g></svg>